<svg width="60" height="60" viewBox="0 0 60 60" fill="none" xmlns="http://www.w3.org/2000/svg">
<g clip-path="url(#clip0_10349_12408)">
<path d="M41.0391 38.75C50.0137 38.75 57.2891 31.4746 57.2891 22.5C57.2891 13.5254 50.0137 6.25 41.0391 6.25C32.0644 6.25 24.7891 13.5254 24.7891 22.5C24.7891 31.4746 32.0644 38.75 41.0391 38.75Z" stroke="#2AE2AD" stroke-width="2" stroke-linejoin="round"/>
<path d="M17.2891 36.25C19.3601 36.25 21.0391 34.5711 21.0391 32.5C21.0391 30.4289 19.3601 28.75 17.2891 28.75C15.218 28.75 13.5391 30.4289 13.5391 32.5C13.5391 34.5711 15.218 36.25 17.2891 36.25Z" stroke="#2AE2AD" stroke-width="2" stroke-miterlimit="10"/>
<path d="M21.3883 17.9126L19.4508 21.4751C18.2258 21.2376 16.9508 21.1876 15.6883 21.3751L13.9383 17.7251L9.86328 19.2876L11.0133 23.1751C9.95078 23.8876 9.02578 24.7751 8.27578 25.7751L4.45078 24.4251L2.67578 28.4126L6.23828 30.3501C6.00078 31.5751 5.95078 32.8501 6.13828 34.1126L2.48828 35.8626L4.05078 39.9376L7.93828 38.7876C8.65078 39.8501 9.53828 40.7751 10.5383 41.5126L9.18828 45.3376L13.1758 47.1126L15.1133 43.5501C16.3383 43.7876 17.6133 43.8376 18.8758 43.6501L20.6258 47.3001L24.7008 45.7376L23.5508 41.8501C24.6133 41.1376 25.5383 40.2501 26.2758 39.2501L30.1008 40.6001" stroke="#2AE2AD" stroke-width="2" stroke-linejoin="round"/>
<path d="M44.4614 41.3125C44.5239 42.625 43.9489 43.95 42.8239 44.8C41.0114 46.1625 38.4364 45.7875 37.0864 43.975C36.5239 43.225 36.2614 42.3375 36.2739 41.475" stroke="#2AE2AD" stroke-width="2" stroke-linejoin="round"/>
<path d="M31.7859 44.7624L29.0859 46.5374L31.3734 50.0249L34.0734 48.2499C34.7984 48.9374 35.6359 49.5249 36.5734 49.9499L35.9234 53.1124L40.0109 53.9499L40.6609 50.7874C41.6984 50.7624 42.6984 50.5624 43.6359 50.2124L45.4109 52.9124L48.8984 50.6249L47.1234 47.9249C47.8109 47.1999 48.3984 46.3624 48.8234 45.4249L51.9859 46.0749L52.8234 41.9874L49.6609 41.3374" stroke="#2AE2AD" stroke-width="2" stroke-linejoin="round"/>
<path d="M47.2891 30V27.5C47.2891 25 43.8516 23.75 41.0391 23.75C38.2266 23.75 34.7891 25 34.7891 27.5V30" stroke="#2AE2AD" stroke-width="2" stroke-miterlimit="10"/>
<path d="M41.0391 23.75C43.2891 23.75 44.7891 22.075 44.7891 20V18.75C44.7891 16.675 43.2891 15 41.0391 15C38.7891 15 37.2891 16.675 37.2891 18.75V20C37.2891 22.075 38.7891 23.75 41.0391 23.75Z" stroke="#2AE2AD" stroke-width="2" stroke-miterlimit="10"/>
</g>
<defs>
<clipPath id="clip0_10349_12408">
<rect width="57.2875" height="50.2" fill="white" transform="translate(1.25 5)"/>
</clipPath>
</defs>
</svg>
