<svg width="48" height="48" viewBox="0 0 48 48" fill="none" xmlns="http://www.w3.org/2000/svg">
<path d="M4 30C5.66 30 7 31.34 7 33C7 34.66 5.65 36 4 36C2.34 36 1 34.66 1 33C1 31.34 2.35 30 4 30Z" stroke="#01D397" stroke-width="2" stroke-miterlimit="10"/>
<path d="M8 14C9.66 14 11 15.34 11 17C11 18.66 9.65 20 8 20C6.34 20 5 18.66 5 17C5 15.34 6.35 14 8 14Z" stroke="#01D397" stroke-width="2" stroke-miterlimit="10"/>
<path d="M20 23C21.66 23 23 24.34 23 26C23 27.66 21.65 29 20 29C18.34 29 17 27.66 17 26C17 24.34 18.35 23 20 23Z" stroke="#01D397" stroke-width="2" stroke-miterlimit="10"/>
<path d="M37 25C38.66 25 40 26.34 40 28C40 29.66 38.65 31 37 31C35.34 31 34 29.66 34 28C34 26.34 35.35 25 37 25Z" stroke="#01D397" stroke-width="2" stroke-miterlimit="10"/>
<path d="M26 38C27.66 38 29 39.34 29 41C29 42.66 27.65 44 26 44C24.34 44 23 42.66 23 41C23 39.34 24.35 38 26 38Z" stroke="#01D397" stroke-width="2" stroke-miterlimit="10"/>
<path d="M26 3C27.66 3 29 4.34 29 6C29 7.66 27.65 9 26 9C24.34 9 23 7.66 23 6C23 4.34 24.35 3 26 3Z" stroke="#01D397" stroke-width="2" stroke-miterlimit="10"/>
<path d="M44 7C45.66 7 47 8.34 47 10C47 11.66 45.65 13 44 13C42.34 13 41 11.66 41 10C41 8.34 42.35 7 44 7Z" stroke="#01D397" stroke-width="2" stroke-miterlimit="10"/>
<path d="M6.83 19.77L4.55 30.05" stroke="#01D397" stroke-width="2" stroke-miterlimit="10"/>
<path d="M6.69 31.67L17.41 27.52" stroke="#01D397" stroke-width="2" stroke-miterlimit="10"/>
<path d="M23 26L34.01 27.83" stroke="#01D397" stroke-width="2" stroke-miterlimit="10"/>
<path d="M38.88 25.66L43 12.83" stroke="#01D397" stroke-width="2" stroke-miterlimit="10"/>
<path d="M41.17 9L29 6.12" stroke="#01D397" stroke-width="2" stroke-miterlimit="10"/>
<path d="M23.2 7.08L10.33 15.11" stroke="#01D397" stroke-width="2" stroke-miterlimit="10"/>
<path d="M10.37 18.84L17.61 24.19" stroke="#01D397" stroke-width="2" stroke-miterlimit="10"/>
<path d="M20.87 23.13L24.9 8.8" stroke="#01D397" stroke-width="2" stroke-miterlimit="10"/>
<path d="M35.87 25.23L27.88 8.33" stroke="#01D397" stroke-width="2" stroke-miterlimit="10"/>
<path d="M6.4 34.79L23 41" stroke="#01D397" stroke-width="2" stroke-miterlimit="10"/>
<path d="M28.34 39.12L35.53 30.62" stroke="#01D397" stroke-width="2" stroke-miterlimit="10"/>
<path d="M25.13 38.13L21 28.83" stroke="#01D397" stroke-width="2" stroke-miterlimit="10"/>
</svg>
