<svg width="48" height="48" viewBox="0 0 48 48" fill="none" xmlns="http://www.w3.org/2000/svg">
<path d="M24 46C36.1503 46 46 36.1503 46 24C46 11.8497 36.1503 2 24 2C11.8497 2 2 11.8497 2 24C2 36.1503 11.8497 46 24 46Z" stroke="#01D397" stroke-width="2" stroke-linecap="round" stroke-linejoin="round"/>
<path d="M8.44627 8.44615L39.5543 39.5541" stroke="#01D397" stroke-width="2" stroke-linecap="round" stroke-linejoin="round"/>
<path d="M13.5829 27.9161L13.9239 28.2681" stroke="#01D397" stroke-width="2" stroke-linecap="round" stroke-linejoin="round"/>
<path d="M17.8619 24.8689L18.2029 25.2099" stroke="#01D397" stroke-width="2" stroke-linecap="round" stroke-linejoin="round"/>
<path d="M35.99 17.532L36.342 17.873" stroke="#01D397" stroke-width="2" stroke-linecap="round" stroke-linejoin="round"/>
<path d="M29.5002 12.9999C30.7153 12.9999 31.7002 12.0149 31.7002 10.7999C31.7002 9.58485 30.7153 8.59988 29.5002 8.59988C28.2852 8.59988 27.3002 9.58485 27.3002 10.7999C27.3002 12.0149 28.2852 12.9999 29.5002 12.9999Z" stroke="#01D397" stroke-width="2" stroke-miterlimit="10"/>
<path d="M22.3498 33.8999C23.261 33.8999 23.9998 33.1611 23.9998 32.2499C23.9998 31.3386 23.261 30.5999 22.3498 30.5999C21.4385 30.5999 20.6998 31.3386 20.6998 32.2499C20.6998 33.1611 21.4385 33.8999 22.3498 33.8999Z" stroke="#01D397" stroke-width="2" stroke-miterlimit="10"/>
<path d="M34.3509 33.6361C36.1659 31.2491 37.2329 28.2681 37.2329 25.0451C37.2329 23.8351 37.0679 22.6691 36.7819 21.5581C36.6059 21.5801 36.4299 21.6131 36.2539 21.6131C34.0869 21.6131 32.3269 19.8531 32.3269 17.6861C32.3269 17.4661 32.3599 17.2571 32.3929 17.0371C31.8979 17.1361 31.3809 17.1911 30.8529 17.1911C27.0249 17.1911 23.8349 14.4411 23.1419 10.8111C23.0979 10.8111 23.0429 10.8111 22.9989 10.8111C20.0289 10.8111 17.2789 11.7131 15.0019 13.2751" stroke="#01D397" stroke-width="2" stroke-linecap="round" stroke-linejoin="round"/>
<path d="M11.0859 16.6852C9.23786 19.2702 8.23686 22.4932 8.46786 25.9252C8.99586 33.7682 15.7829 39.7082 23.6369 39.1692C26.3649 38.9822 28.8619 38.0472 30.9409 36.5622" stroke="#01D397" stroke-width="2" stroke-linecap="round" stroke-linejoin="round"/>
</svg>
