<svg viewBox="0 0 60 60" fill="none" xmlns="http://www.w3.org/2000/svg">
<g clip-path="url(#clip0_10018_5254)">
<path d="M30 54.9219C28.6563 55.7125 27.736 56.1891 27.5 56.25C26.2313 55.9203 5 43.4734 5 35V11.25C11.3484 11.25 25.2782 5.56563 27.5 2.5C29.7219 5.56563 43.6516 11.25 50.0001 11.25V31.25" stroke="#2AE2AD" stroke-width="2" stroke-linecap="round" stroke-linejoin="round"/>
<path d="M26.25 41.25H18.75C18.0594 41.25 17.5 40.6906 17.5 40V27.5C17.5 26.8094 18.0594 26.25 18.75 26.25H36.25C36.9407 26.25 37.5 26.8094 37.5 27.5V30" stroke="#2AE2AD" stroke-width="2" stroke-linecap="round" stroke-linejoin="round"/>
<path d="M33.75 26.25V20C33.75 16.5484 30.9516 13.75 27.5 13.75C24.0484 13.75 21.25 16.5484 21.25 20V26.25" stroke="#2AE2AD" stroke-width="2" stroke-linecap="round" stroke-linejoin="round"/>
<path d="M27.5 32.5V35" stroke="#2AE2AD" stroke-width="2" stroke-linecap="round" stroke-linejoin="round"/>
<path d="M42.5 56.25C48.7132 56.25 53.75 51.2132 53.75 45C53.75 38.7868 48.7132 33.75 42.5 33.75C36.2868 33.75 31.25 38.7868 31.25 45C31.25 51.2132 36.2868 56.25 42.5 56.25Z" stroke="#2AE2AD" stroke-width="2" stroke-linecap="round" stroke-linejoin="round"/>
<path d="M37.5 45L41.25 48.75L47.5 41.25" stroke="#2AE2AD" stroke-width="2" stroke-linecap="round" stroke-linejoin="round"/>
</g>
<defs>
<clipPath id="clip0_10018_5254">
<rect width="51.2501" height="56.25" fill="white" transform="translate(3.75 1.25)"/>
</clipPath>
</defs>
</svg>
