<svg viewBox="0 0 60 60" fill="none" xmlns="http://www.w3.org/2000/svg">
<path d="M22.5 36.25H30C29.3125 36.875 28.75 37.7875 28.75 38.75C28.75 40.825 30.425 42.5 32.5 42.5C34.575 42.5 36.25 40.825 36.25 38.75C36.25 37.7875 35.675 36.875 35 36.25H42.5V53.75C42.5 55.825 40.825 57.5 38.75 57.5H6.25C4.175 57.5 2.5 55.825 2.5 53.75V20C2.5 17.925 4.175 16.25 6.25 16.25H22.5V23.75C23.2 23.0125 24.0375 22.5 25 22.5C27.075 22.5 28.75 24.175 28.75 26.25C28.75 28.325 27.075 30 25 30C24.0375 30 23.0875 29.525 22.5 28.75V36.25Z" stroke="#2AE2AD" stroke-width="2" stroke-linejoin="round"/>
<path d="M30 15.3875L35.3 10.0875C35.2375 11 35.5 12.05 36.1875 12.7375C37.65 14.2 40.025 14.2 41.4875 12.7375C42.95 11.275 42.95 8.9 41.4875 7.4375C40.8 6.75 39.7 6.43751 38.8375 6.55001L44.1375 1.25L55.625 12.7375C57.0875 14.2 57.0875 16.575 55.625 18.0375L44.1375 29.525L30 15.3875Z" stroke="#2AE2AD" stroke-width="2" stroke-linejoin="round"/>
<path d="M22.5 57.5V48.75C22.025 49.4125 20.9625 50 20 50C17.925 50 16.25 48.325 16.25 46.25C16.25 44.175 17.925 42.5 20 42.5C20.9625 42.5 22.0125 43.0625 22.5 43.75V36.25" stroke="#2AE2AD" stroke-width="2" stroke-linejoin="round"/>
<path d="M2.5 36.25H10C9.275 35.6875 8.75 34.7125 8.75 33.75C8.75 31.675 10.425 30 12.5 30C14.575 30 16.25 31.675 16.25 33.75C16.25 34.7125 15.725 35.65 15 36.25H22.5" stroke="#2AE2AD" stroke-width="2" stroke-linejoin="round"/>
</svg>
