<svg width="48" height="48" viewBox="0 0 48 48" fill="none" xmlns="http://www.w3.org/2000/svg">
<g clip-path="url(#clip0_6_879)">
<path d="M19.49 46.49C19.49 46.49 20.94 44.99 22 44C30.15 44.6 33.19 38.95 34 38" stroke="#01D397" stroke-width="2" stroke-miterlimit="10"/>
<path d="M20 40C22.17 33.8 20.05 28.23 18.08 25.75C18.9 23.27 19.24 21.5 19.52 18.59C19.68 16.91 18.97 15.48 18.23 14.44C17.47 13.38 15.62 13.62 15.25 14.81C13.61 20.04 13.31 21.47 12.3 24.09C11.17 27.03 11.82 31.15 11.25 32.36C11.14 32.6 9 36 9 36" stroke="#01D397" stroke-width="2" stroke-miterlimit="10" stroke-linecap="round"/>
<path d="M27 35H30" stroke="#01D397" stroke-width="2" stroke-miterlimit="10" stroke-linecap="round"/>
<path d="M40 9V4C40 2.34 38.66 1 37 1H20C18.34 1 17 2.34 17 4C17 6.95 17 13.77 17 13.77" stroke="#01D397" stroke-width="2" stroke-linecap="round" stroke-linejoin="round"/>
<path d="M20.56 38H37C38.66 38 40 36.66 40 35V26" stroke="#01D397" stroke-width="2" stroke-linecap="round" stroke-linejoin="round"/>
<path d="M20 47L7 34L2 39L10 47" stroke="#01D397" stroke-width="2" stroke-linecap="round" stroke-linejoin="round"/>
<path d="M7 39L8 40" stroke="#01D397" stroke-width="2" stroke-miterlimit="10" stroke-linecap="round"/>
<path d="M46.93 14L43.25 10.31L31.99 21.56L27.24 16.81L23.56 20.5L31.99 28.94L46.93 14Z" stroke="#01D397" stroke-width="2" stroke-linecap="round" stroke-linejoin="round"/>
</g>
<defs>
<clipPath id="clip0_6_879">
<rect width="46.93" height="48" fill="white" transform="translate(1)"/>
</clipPath>
</defs>
</svg>
