<svg width="120" height="60" viewBox="0 0 120 60" fill="none" xmlns="http://www.w3.org/2000/svg">
<g clip-path="url(#clip0_74_296)">
<path fill-rule="evenodd" clip-rule="evenodd" d="M88.9355 25.9426C88.7791 25.4524 88.5551 25.0966 88.2635 24.8745C87.9726 24.6517 87.5873 24.541 87.1097 24.541C86.6321 24.541 86.2475 24.6524 85.9566 24.8745C85.665 25.0966 85.441 25.4524 85.2846 25.9426C85.1275 26.4328 85.0225 27.0602 84.9704 27.8257C84.9132 28.7589 84.8871 29.6938 84.8922 30.6288C84.8922 31.7314 84.9183 32.6694 84.9704 33.4427C85.0225 34.2161 85.1275 34.8443 85.2846 35.3259C85.441 35.8089 85.665 36.161 85.9566 36.3824C86.2475 36.6052 86.6321 36.7159 87.1097 36.7159C87.5873 36.7159 87.9726 36.6052 88.2635 36.3831C88.5551 36.161 88.7791 35.8081 88.9355 35.3266C89.0926 34.8436 89.1961 34.2161 89.249 33.4427C89.3011 32.6694 89.3279 31.7314 89.3279 30.6288C89.3279 29.5255 89.3011 28.5919 89.249 27.8257C89.1968 27.0602 89.0926 26.4328 88.9355 25.9426Z" fill="#080821"/>
<mask id="mask0_74_296" style="mask-type:alpha" maskUnits="userSpaceOnUse" x="68" y="19" width="48" height="23">
<path d="M68.1794 41.9246H115.932V19.1445H68.1794V41.9246Z" fill="white"/>
</mask>
<g mask="url(#mask0_74_296)">
<path fill-rule="evenodd" clip-rule="evenodd" d="M109.656 29.4722C107.626 29.4722 105.98 27.7853 105.98 25.7038C105.98 23.6216 107.626 21.9347 109.656 21.9347C111.685 21.9347 113.331 23.6216 113.331 25.7038C113.331 27.7853 111.685 29.4722 109.656 29.4722ZM103.91 33.8674C103.91 34.9089 103.768 35.7699 103.484 36.4513C103.2 37.1334 102.82 37.6732 102.342 38.0707C101.867 38.4674 101.306 38.7431 100.707 38.8749C100.081 39.0144 99.4428 39.0838 98.8026 39.0819C98.1636 39.0835 97.526 39.0218 96.8986 38.8979C96.3035 38.7837 95.7431 38.5278 95.263 38.1512C94.7854 37.776 94.4043 37.2441 94.1212 36.5548C93.8373 35.8655 93.695 34.97 93.695 33.8667V22.4278H96.9212V33.8681C96.9212 34.2814 96.9465 34.6602 96.9994 35.0052C97.0515 35.3495 97.1487 35.6485 97.291 35.9007C97.4319 36.1537 97.627 36.3528 97.8728 36.498C98.1194 36.6439 98.4293 36.7165 98.8026 36.7165C99.1908 36.7165 99.5042 36.6439 99.7437 36.498C99.9825 36.3528 100.173 36.153 100.314 35.9015C100.457 35.6485 100.554 35.3495 100.606 35.0052C100.658 34.6602 100.684 34.2814 100.684 33.8681V22.4271H103.91V33.8681V33.8674ZM92.3848 34.0737C92.2728 35.1159 92.0263 36.0114 91.6452 36.7618C91.2817 37.4941 90.7073 38.0953 89.999 38.4847C89.2826 38.8828 88.319 39.0812 87.1096 39.0812C85.9001 39.0812 84.9365 38.8828 84.2201 38.4847C83.5115 38.0955 82.9368 37.4943 82.5732 36.7618C82.1928 36.0114 81.9463 35.1159 81.8343 34.0737C81.7169 32.9291 81.6607 31.7788 81.6659 30.628C81.6659 29.3874 81.7223 28.2432 81.835 27.1938C81.9463 26.1452 82.1928 25.2453 82.5732 24.4949C82.9421 23.7575 83.5147 23.1466 84.2201 22.7376C84.9365 22.3164 85.9001 22.1051 87.1096 22.1051C88.319 22.1051 89.2826 22.3164 89.999 22.7376C90.7044 23.1466 91.277 23.7576 91.6459 24.4949C92.0263 25.2453 92.2728 26.1452 92.3855 27.1938C92.4968 28.2432 92.5525 29.3874 92.5525 30.628C92.5525 31.8844 92.4968 33.0329 92.3848 34.0737ZM77.7276 38.8289H74.5022V32.3746L70.3582 22.4263H73.9865L76.0927 28.7664H76.1371L78.3771 22.4271H81.8716L77.7276 32.3731V38.8282V38.8289ZM68.1794 41.9253H115.932V19.1445H68.1794V41.9246V41.9253Z" fill="#080821"/>
</g>
<path fill-rule="evenodd" clip-rule="evenodd" d="M110.689 25.458L109.896 24.6458L111.022 23.4908C110.614 23.2244 110.14 23.083 109.656 23.0833C108.247 23.0833 107.101 24.2591 107.101 25.7038C107.101 27.1485 108.247 28.3244 109.656 28.3244C111.065 28.3244 112.211 27.1485 112.211 25.7038C112.211 25.1892 112.065 24.7083 111.814 24.303L110.688 25.458H110.689ZM38.0177 25.9424C37.8607 25.4523 37.6374 25.0965 37.3457 24.8744C37.0541 24.6516 36.6695 24.5409 36.1919 24.5409C35.7136 24.5409 35.3297 24.6523 35.0381 24.8744C34.7472 25.0965 34.5232 25.4523 34.3661 25.9424C34.2097 26.4326 34.1048 27.0601 34.0527 27.8256C33.9954 28.7588 33.9693 29.6937 33.9745 30.6287C33.9745 31.7313 34.0005 32.6692 34.0527 33.4426C34.1048 34.216 34.2097 34.8442 34.3661 35.3257C34.5232 35.8087 34.7465 36.1609 35.0381 36.3823C35.3297 36.6051 35.7143 36.7158 36.1919 36.7158C36.6695 36.7158 37.0541 36.6051 37.3457 36.383C37.6367 36.1609 37.8607 35.808 38.0177 35.3264C38.1741 34.8434 38.2784 34.216 38.3312 33.4426C38.3833 32.6692 38.4094 31.7313 38.4094 30.6287C38.4094 29.5254 38.3833 28.5918 38.3312 27.8256C38.2784 27.0601 38.1741 26.4326 38.0177 25.9424ZM25.9055 31.972C25.6825 31.7778 25.4174 31.6403 25.1321 31.571C24.8095 31.4915 24.4785 31.4529 24.1466 31.456H22.7583V36.3952H24.0128C24.7891 36.3952 25.4167 36.2191 25.8943 35.8669C26.3726 35.5148 26.6113 34.8636 26.6113 33.9141C26.6113 33.4397 26.548 33.0444 26.4212 32.731C26.3102 32.4406 26.1338 32.1808 25.9062 31.9728M25.6365 28.6643C26.0471 28.3352 26.2521 27.7803 26.2521 26.999C26.2521 26.2177 26.0654 25.6664 25.6921 25.3452C25.3188 25.0232 24.7292 24.8622 23.9226 24.8622H22.7583V29.1581H23.6768C24.5728 29.1581 25.2265 28.9935 25.6372 28.6643M12.1626 25.2762L10.6172 32.6505H13.7532L12.2063 25.2754L12.1626 25.2762Z" fill="#080821"/>
<mask id="mask1_74_296" style="mask-type:alpha" maskUnits="userSpaceOnUse" x="4" y="19" width="64" height="23">
<path d="M67.0715 41.9246H4V19.1445H67.0715V41.9246Z" fill="white"/>
</mask>
<g mask="url(#mask1_74_296)">
<path fill-rule="evenodd" clip-rule="evenodd" d="M64.1137 25.1382H60.6199V38.8289H57.3937V25.1382H53.8999V22.4271H64.1137V25.1382ZM53.0236 33.8674C53.0236 34.9089 52.8813 35.7699 52.5974 36.4513C52.3136 37.1334 51.9332 37.6732 51.4556 38.0707C50.9807 38.4675 50.42 38.7432 49.82 38.8749C49.1946 39.0144 48.5561 39.0838 47.916 39.0819C47.277 39.0836 46.6393 39.0219 46.012 38.8979C45.4171 38.7835 44.857 38.5276 44.3771 38.1512C43.8981 37.776 43.5177 37.2441 43.2345 36.5548C42.9506 35.8655 42.8091 34.97 42.8091 33.8667V22.4278H46.0352V33.8681C46.0352 34.2814 46.0606 34.6602 46.1127 35.0052C46.1648 35.3502 46.262 35.6477 46.4043 35.9007C46.5459 36.1537 46.7403 36.3528 46.9862 36.498C47.2327 36.6439 47.5426 36.7165 47.916 36.7165C48.3041 36.7165 48.6176 36.6439 48.8571 36.498C49.0958 36.3528 49.286 36.153 49.4276 35.9015C49.5699 35.6477 49.6671 35.3495 49.7192 35.0052C49.7714 34.6602 49.7974 34.2814 49.7974 33.8681V22.4271H53.0236V33.8681V33.8674ZM41.4672 34.0737C41.3552 35.1159 41.1086 36.0114 40.7275 36.7618C40.3642 37.4942 39.7897 38.0955 39.0814 38.4847C38.365 38.8828 37.4014 39.0812 36.1919 39.0812C34.9824 39.0812 34.0188 38.8828 33.3024 38.4847C32.5939 38.0955 32.0192 37.4943 31.6555 36.7618C31.2752 36.0114 31.0286 35.1159 30.9166 34.0737C30.7995 32.9291 30.7435 31.7788 30.749 30.628C30.749 29.3874 30.8046 28.2432 30.9166 27.1938C31.0293 26.1444 31.2752 25.2453 31.6563 24.4949C32.025 23.7576 32.5973 23.1467 33.3024 22.7376C34.0188 22.3164 34.9824 22.1051 36.1919 22.1051C37.4014 22.1051 38.365 22.3164 39.0814 22.7376C39.7868 23.1465 40.3594 23.7575 40.7282 24.4949C41.1086 25.2453 41.3552 26.1452 41.4679 27.1938C41.5792 28.2432 41.6355 29.3874 41.6355 30.628C41.6355 31.8844 41.5792 33.0329 41.4672 34.0737ZM29.7248 35.8662C29.5669 36.4362 29.2789 36.9598 28.8844 37.3943C28.4886 37.8306 27.9736 38.1785 27.339 38.4394C26.7036 38.6996 25.9161 38.8297 24.9757 38.8297H19.5321V22.4271H24.9306C25.5878 22.4271 26.1964 22.4961 26.7564 22.6341C27.3164 22.7721 27.7975 23.0013 28.2012 23.3233C28.6041 23.6446 28.9175 24.0737 29.1422 24.6099C29.3662 25.1461 29.4782 25.8037 29.4782 26.585C29.4782 27.4734 29.2768 28.2353 28.8732 28.8707C28.4702 29.5067 27.8652 29.9387 27.0586 30.1687V30.2147C27.9546 30.3369 28.6639 30.7279 29.1866 31.3863C29.7093 32.0447 29.9706 32.9251 29.9706 34.0277C29.9706 34.671 29.8882 35.2841 29.7241 35.8655L29.7248 35.8662ZM15.0521 38.8297L14.3125 35.361H10.0579L9.31824 38.8297H5.95824L10.1917 22.4278H14.1793L18.4128 38.8297H15.0528H15.0521ZM4 41.9246H67.0715V19.1445H4V41.9246Z" fill="#080821"/>
</g>
</g>
<defs>
<clipPath id="clip0_74_296">
<rect width="112" height="23" fill="white" transform="translate(4 19)"/>
</clipPath>
</defs>
</svg>
