<svg width="120" height="60" viewBox="0 0 120 60" fill="none" xmlns="http://www.w3.org/2000/svg">
<path d="M86.24 48.8735C83.312 48.8735 81.5784 47.3719 81.4696 45.2559H84.2176C84.2176 45.9135 84.6376 46.8927 86.408 46.9199C87.592 46.9199 88.152 46.2255 88.152 45.7015C88.072 44.8735 87.0296 44.7999 85.912 44.6239C84.8048 44.4503 83.864 44.2423 83.1696 43.9039C82.2896 43.4527 81.704 42.4735 81.704 41.3663C81.704 39.4911 83.3424 37.9879 86.0584 37.9879C88.7 37.9879 90.3688 39.3839 90.5424 41.4279H87.9008C87.8632 40.8711 87.76 40.0023 86.1928 40.0023C85.148 40.0023 84.4584 40.2127 84.388 40.9399C84.388 42.0159 86.5752 41.9503 88.28 42.3983C89.9136 42.8111 90.96 43.8383 90.96 45.2567C90.96 47.8615 88.8368 48.8727 86.24 48.8727M35.7264 31.4159L44.876 26.1599L49.708 34.5119H37.4944L35.7184 31.4159M53.5984 38.0839H56.2104V48.6239H53.5984V38.0839ZM31.5456 43.4079C31.5456 45.0447 32.932 46.3967 34.5696 46.3967C36.2376 46.3967 37.632 45.0367 37.632 43.4079C37.632 41.7791 36.2384 40.3823 34.5696 40.3823C33.7711 40.3947 33.0089 40.7175 32.4444 41.2823C31.8799 41.8471 31.5575 42.6095 31.5456 43.4079ZM34.5016 48.8743C31.5096 48.8743 29.0408 46.3967 29.0408 43.4079C29.0408 40.3823 31.5088 37.9799 34.5016 37.9799C35.6488 37.9799 36.7288 38.2935 37.6328 38.9207V38.0863H40.2088V48.6287H37.6328V47.9199C36.7528 48.5119 35.6808 48.8655 34.5016 48.8655" fill="#080821"/>
<path d="M69.6319 34.504L56.9119 12.424L66.0623 7.14404L81.8895 34.52H69.6319M43.6143 43.4C43.6143 45.0368 45.0031 46.3888 46.6767 46.3888C48.3103 46.3888 49.7007 45.0288 49.7007 43.4C49.7007 41.7712 48.3119 40.3744 46.6767 40.3744C44.9967 40.3744 43.6143 41.7632 43.6143 43.4ZM46.6079 48.8664C43.5783 48.8664 41.1135 46.3888 41.1135 43.4C41.1135 40.3744 43.5775 37.972 46.6079 37.972C47.7551 37.972 48.8015 38.2856 49.6999 38.9128V34.4968H52.3079V48.6224H49.6999V47.92C48.8007 48.512 47.7559 48.8656 46.6079 48.8656M46.3959 22.0136L55.5823 16.7656L65.8431 34.504H56.2055V37.1168H53.5975V34.504L46.3959 22.0136ZM71.8255 43.408C71.8255 45.0448 73.2191 46.3968 74.8655 46.3968C75.6561 46.391 76.4126 46.0741 76.9713 45.5148C77.53 44.9554 77.8461 44.1986 77.8511 43.408C77.8511 41.7712 76.4975 40.3824 74.8655 40.3824C73.2279 40.3824 71.8255 41.7712 71.8255 43.408ZM74.7495 48.8744C73.3036 48.8633 71.9202 48.2837 70.8982 47.2608C69.8762 46.2379 69.2978 44.854 69.2879 43.408C69.2879 40.3824 71.7679 37.98 74.7495 37.98C75.8967 37.98 76.9735 38.2936 77.8415 38.9208V38.0864H80.4559V48.6288H77.8415V47.92C76.9735 48.512 75.9335 48.8656 74.7495 48.8656M59.7879 43.4048C59.8001 44.1951 60.1196 44.9495 60.6785 45.5082C61.2375 46.0668 61.9921 46.3859 62.7823 46.3976C64.4503 46.3976 65.8431 45.044 65.8431 43.4056C65.8431 41.772 64.4511 40.384 62.7823 40.384C61.1823 40.384 59.7879 41.772 59.7879 43.4056M65.8439 34.5056H68.4183V48.6256H65.8439V47.9312C64.9767 48.5208 63.8983 48.8752 62.7111 48.8752C59.7191 48.8752 57.2495 46.3992 57.2495 43.4064C57.2495 40.3848 59.7191 37.9824 62.7111 37.9824C63.8983 37.9824 64.9391 38.3024 65.8439 38.9232V34.5056Z" fill="#080821"/>
</svg>
