<svg width="121" height="60" viewBox="0 0 121 60" fill="none" xmlns="http://www.w3.org/2000/svg">
<path fill-rule="evenodd" clip-rule="evenodd" d="M56.6757 28.9156C56.5087 28.8081 56.3248 28.7149 56.1218 28.636C55.9079 28.5557 55.6939 28.5023 55.48 28.4755C57.2451 26.5232 58.6625 24.3836 59.2776 22.3511C59.5718 21.4418 59.4114 20.5592 59.0102 19.8371C58.716 19.3023 58.3148 18.8209 57.8335 18.4732C57.8232 18.463 57.813 18.4567 57.8043 18.4513C57.7902 18.4425 57.78 18.4362 57.78 18.4197C57.1648 17.9383 56.523 18.0185 55.8544 18.6069C51.6555 22.1639 46.7079 28.5023 45.13 34.5999C45.1032 34.7068 45.0765 34.8203 45.0498 34.9338L45.0498 34.9338L45.0498 34.9339L45.0497 34.9342L45.0497 34.9343C45.023 35.0479 44.9962 35.1616 44.9695 35.2685C43.8462 36.2313 42.3486 37.4081 41.8404 37.1941C41.7067 37.1406 41.5997 37.0604 41.5195 36.9802C41.0916 36.6057 41.0381 36.0441 41.3055 35.4023C42.0812 33.9454 43.2986 32.3815 44.1055 31.345C44.4393 30.9163 44.7028 30.5778 44.8358 30.3743C44.8893 30.2941 44.809 30.1871 44.6753 30.1336C44.6486 30.1203 44.6218 30.1136 44.5951 30.1069C44.5683 30.1002 44.5416 30.0935 44.5148 30.0802H44.4614C43.9532 29.9999 43.2846 29.9999 42.723 30.3209C42.509 29.3313 42.0811 28.315 41.1451 27.8871C40.0486 27.379 38.5509 27.4592 36.7858 28.4488C34.459 29.7592 32.3195 32.2197 31.1962 34.5464C30.4741 35.1081 26.2486 38.2906 23.3602 36.7395C22.7986 36.4453 22.3706 36.0709 22.023 35.5895C20.2311 33.2092 21.0067 28.7964 24.4299 24.5174C28.4951 19.436 32.052 17.1092 34.0044 18.4999C34.2986 18.7139 34.4858 18.9546 34.5927 19.222C34.9404 20.0778 34.5393 21.0941 34.4323 21.3616C34.4323 21.3749 34.4256 21.3883 34.4189 21.4017C34.4122 21.415 34.4055 21.4284 34.4055 21.4418L34.3359 21.5996C34.0621 22.2193 33.7799 22.8582 33.6567 23.4743C33.5497 23.929 33.5765 24.3034 33.6567 24.5976C33.8172 25.079 34.2183 25.4267 34.8334 25.7743C35.2881 26.0418 35.6893 25.9348 35.8765 25.5069C36.8393 23.3674 38.0427 19.9174 37.08 17.9383C36.8393 17.4569 36.4916 17.0557 35.9567 16.7883C35.3148 16.4674 34.459 16.2802 33.4962 16.2534H33.3358H33.1486H33.0416H32.9346C29.0567 16.3871 23.6811 19.329 19.723 25.5069C16.3799 30.6953 16.3265 35.3488 18.2253 37.9429C19.2148 39.3336 20.766 40.136 22.6648 40.136C25.2858 40.136 29.2172 37.7023 30.4474 36.9267C30.3939 37.1941 30.3939 37.4616 30.3939 37.7023C30.3939 38.3709 30.5811 38.9325 30.9555 39.3336C31.4102 39.8418 32.1323 40.136 33.202 40.136C35.9032 40.136 37.909 38.0232 37.909 38.0232C37.909 38.0232 37.8823 38.3709 38.016 38.772C38.0962 39.0395 38.23 39.3336 38.4439 39.5743C38.7381 39.8953 39.1927 40.136 39.8881 40.136C41.1451 40.136 43.3648 38.8255 44.9695 37.622L44.9695 37.6221C45.023 37.836 45.0765 38.0499 45.1567 38.2371C45.2369 38.4511 45.3707 38.665 45.5044 38.8255C45.5311 38.8523 45.5579 38.879 45.5579 38.9057C46.0393 39.4941 46.7614 39.8953 47.6974 40.0557C47.6974 40.0557 48.1232 40.1356 48.8686 40.1625L48.819 40.1628C48.0701 40.1628 47.6422 40.0558 47.6422 40.0558C46.7062 39.8953 45.9841 39.4942 45.5027 38.9058C45.4759 38.8791 45.4492 38.8523 45.4492 38.8256C45.369 38.7186 45.2888 38.5849 45.2086 38.4512L45.2085 38.4512L45.2085 38.4512L45.2085 38.4512L45.2085 38.4512L45.2085 38.4512C45.5562 39.2535 46.0643 39.7616 46.6527 40.1093C46.6661 40.1227 46.6794 40.1294 46.6928 40.136C46.7062 40.1427 46.7195 40.1494 46.7329 40.1628C46.773 40.1762 46.8065 40.1962 46.8399 40.2163C46.8733 40.2363 46.9068 40.2564 46.9469 40.2698C46.9469 40.2698 46.9736 40.2698 46.9736 40.2965C47.669 40.6174 48.4178 40.6977 49.0329 40.6977H49.1399C49.5411 40.6977 49.9155 40.6442 50.2899 40.564C52.9643 40.136 54.9166 38.5314 56.5748 36.0174C57.0027 35.3756 57.3504 34.707 57.6178 34.0919C57.6286 34.0594 57.6439 34.0268 57.6599 33.9926C57.6835 33.9422 57.7089 33.8881 57.7248 33.8244C57.7248 33.8133 57.7294 33.8023 57.7347 33.7893C57.7424 33.7709 57.7515 33.7488 57.7515 33.7174C57.7649 33.6773 57.7783 33.6305 57.7916 33.5837C57.805 33.5369 57.8184 33.4901 57.8318 33.45C57.8451 33.4233 57.8518 33.3898 57.8585 33.3564C57.8652 33.323 57.8719 33.2895 57.8852 33.2628C57.912 33.1826 57.9387 33.1023 57.9387 33.0221C57.9387 32.9953 57.9454 32.9753 57.9521 32.9552C57.9588 32.9352 57.9655 32.9151 57.9655 32.8884C58.2554 31.6232 58.3375 29.8125 56.6757 28.9156ZM39.8835 30.2633C39.9797 30.3697 40.051 30.5209 40.0759 30.6954C39.2469 30.2942 37.2411 31.9256 36.2783 32.9419C35.4225 33.8512 34.1922 35.964 34.4329 37.0872C34.4196 37.0739 34.4062 37.0672 34.3928 37.0605C34.3901 37.0591 34.3873 37.0577 34.3846 37.0563C34.3939 37.0755 34.4131 37.0947 34.4323 37.1139C35.4218 37.7557 37.6148 35.4023 38.3637 34.4395C39.1393 33.4499 40.2358 31.6848 40.102 30.722C40.0753 30.5348 40.0218 30.3743 39.8881 30.2674C39.8866 30.266 39.885 30.2647 39.8835 30.2633ZM57.1528 21.6295C57.1569 21.6292 57.1609 21.629 57.1648 21.629H57.1916C57.1916 21.629 57.2183 21.6557 57.2183 21.736C57.2183 21.8697 57.1916 22.0836 57.0846 22.3778C56.6032 23.822 54.8114 27.0046 51.2276 29.8395L51.1387 29.9103L51.2272 29.8395C53.7679 26.0151 56.0946 23.1802 57.0842 22.3779C57.1912 22.0837 57.2179 21.8697 57.2179 21.736C57.2179 21.6558 57.1912 21.629 57.1912 21.629H57.1644C57.1618 21.629 57.1592 21.6291 57.1565 21.6292C57.1553 21.6293 57.154 21.6294 57.1528 21.6295ZM49.977 30.7711L49.9709 30.7751L49.9707 30.7755L49.977 30.7711ZM50.0296 30.6755C50.1968 30.396 50.336 30.184 50.499 29.9358L50.4991 29.9356L50.4996 29.9348C50.5661 29.8336 50.6365 29.7263 50.7144 29.606C50.421 30.022 50.2619 30.2816 50.0296 30.6755ZM53.1906 30.5158C52.5221 30.8451 49.2411 33.6304 48.3088 35.8093C49.245 33.6303 52.5456 30.845 53.1906 30.5158ZM48.4997 37.4883L48.4879 37.4802C48.4418 37.3311 48.4188 37.1786 48.4188 36.9802C48.8467 34.7337 52.8316 31.3372 53.527 31.0162C54.1153 30.8023 54.5432 30.8023 54.7305 30.8825C54.7438 30.8825 54.7505 30.8892 54.7572 30.8959C54.7639 30.9026 54.7706 30.9093 54.7839 30.9093C54.7614 30.7964 54.7293 30.6978 54.6836 30.6155C54.7379 30.7006 54.7724 30.7993 54.7846 30.9092C54.8916 31.6313 54.3567 32.9418 53.0195 34.7336C51.3614 36.9802 49.3555 38.1302 48.4997 37.4883ZM54.4102 30.3743L54.4125 30.3755L54.4095 30.3744C54.3358 30.3428 54.2247 30.3236 54.0812 30.3251C54.225 30.3235 54.3363 30.3427 54.4102 30.3743ZM97.5489 24.7581C97.6024 25.5872 96.8268 26.7907 96.3454 27.3523C96.1806 27.5355 95.2504 27.9821 94.715 27.9876C95.2658 27.9932 96.2042 27.5378 96.3711 27.3523C96.8525 26.7907 97.6548 25.5605 97.5746 24.7581C97.5565 24.5957 97.4533 24.4699 97.3059 24.3805C97.7257 24.6051 97.8498 24.9383 97.8955 25.2128V25.2663C97.949 26.0953 97.1734 27.2988 96.692 27.8605C96.5316 28.0477 95.6757 28.4756 95.1141 28.5023C94.9269 28.5291 94.1781 28.6093 94.3118 27.6465C94.308 27.7591 94.3411 27.8395 94.4015 27.8939C94.3486 27.8395 94.3246 27.7591 94.3396 27.6465V27.6198V27.593V27.5395C94.5001 26.5232 94.928 25.4267 95.4896 24.5442C95.3826 24.7046 95.1954 24.9721 95.5164 24.4907C95.526 24.4618 95.5322 24.4468 95.5349 24.4406C95.7719 24.1656 96.5203 24.0946 97.0408 24.2767C97.335 24.3837 97.5222 24.5442 97.5489 24.7581ZM95.5337 24.442C95.5355 24.439 95.5364 24.4372 95.5364 24.4372L95.5349 24.4406L95.5337 24.442ZM95.5337 24.442C95.5306 24.4471 95.5248 24.4555 95.5164 24.4639L95.5252 24.4524L95.5337 24.442ZM97.0664 24.2767C97.1554 24.3077 97.2349 24.3425 97.3059 24.3805C97.2348 24.3374 97.1535 24.3028 97.0664 24.2767ZM100.664 28.8237L100.665 28.8233C100.712 28.7631 100.758 28.7029 100.812 28.636C101.32 27.9941 101.561 27.593 101.106 27.2721C101.053 27.2186 100.972 27.1918 100.892 27.1651C100.785 27.1383 100.678 27.1116 100.544 27.1116C100.036 27.1116 99.4212 27.3255 98.8863 27.7C98.1642 28.1814 97.7898 28.636 97.5759 29.3848C96.654 30.7164 95.3398 32.097 94.3142 33.1745L94.1793 33.3162C94.2596 34.3058 94.3398 35.0546 94.4735 35.5895C94.4735 35.6208 94.4827 35.6522 94.4903 35.6781C94.4957 35.6965 94.5003 35.7121 94.5003 35.7232C94.9817 35.1348 95.4096 34.5465 95.8107 33.9848C95.9043 33.8779 95.9913 33.7709 96.0782 33.6639C96.1651 33.5569 96.252 33.45 96.3456 33.343C96.6933 32.9151 97.041 32.4872 97.3619 32.0593C97.3757 32.1562 97.3824 32.2531 97.3894 32.3537V32.3538C97.3958 32.4475 97.4025 32.5445 97.4154 32.6476C97.4154 32.6878 97.4221 32.7346 97.4288 32.7814C97.4354 32.8282 97.4421 32.875 97.4421 32.9151C97.4956 33.4231 97.5223 33.9846 97.5491 34.546L97.5491 34.5465V34.6C97.5759 35.0011 97.5759 35.4023 97.5759 35.8034C97.5224 36.6325 97.2549 37.4348 96.2654 37.8093C95.2759 38.1569 94.4468 37.8895 93.9386 37.2744C93.8049 37.1139 93.6979 36.9535 93.6177 36.7662C93.3235 36.2314 93.1363 35.4023 93.0293 34.1186C92.9759 33.7976 92.7619 33.7174 92.6282 33.6907H92.5747C92.4142 33.6907 92.2538 33.7441 92.0666 33.8511C91.184 34.386 90.7828 35.4558 90.9433 36.5255C90.3014 36.9802 89.7398 37.2744 89.4724 37.1674C89.3386 37.1139 89.2584 37.0604 89.1514 36.9802C88.6968 36.6325 88.6968 36.0441 88.9375 35.3755C89.6596 33.9848 90.7561 32.5139 91.5584 31.4976C91.6654 31.3372 91.6921 31.3372 91.6921 31.3372C91.8108 31.182 91.9233 31.0361 92.0252 30.9039L92.0253 30.9037L92.0259 30.903C92.2223 30.6482 92.3797 30.4441 92.4677 30.3209C92.5212 30.2674 92.441 30.1872 92.3607 30.1337C92.3073 30.1069 92.227 30.0802 92.1735 30.0802H92.1468C91.6119 29.9732 90.9433 30 90.3549 30.3209C90.141 29.3314 89.7131 28.3151 88.777 27.8872C87.6805 27.379 86.1828 27.4593 84.4177 28.4488C81.6631 30 79.1759 33.2093 78.32 35.8569C76.7689 37.4616 75.5386 38.3441 74.1479 38.3174C74.0945 38.3174 74.041 38.3174 73.9607 38.2907C73.9544 38.2907 73.9496 38.2907 73.9455 38.2903C73.9423 38.29 73.9396 38.2895 73.937 38.2886C73.9292 38.2858 73.9226 38.2793 73.9072 38.2639C73.6933 38.2104 73.5061 38.0767 73.3189 37.8895C72.8642 37.4081 72.6503 36.5523 72.784 35.75C75.2979 33.7976 77.9456 31.3639 80.2724 28.6628C82.1712 26.6302 83.7224 24.3302 84.391 22.1907C84.6852 21.2814 84.5247 20.3988 84.1235 19.65C83.8293 19.1151 83.4014 18.6337 82.92 18.286C82.9098 18.2758 82.8996 18.2695 82.8909 18.2641C82.8768 18.2554 82.8666 18.249 82.8666 18.2325C82.2514 17.7511 81.6096 17.8046 80.9142 18.4197C77.4642 21.3616 73.5061 26.1488 71.3131 31.1232C70.8049 32.2732 70.377 33.4232 70.0828 34.5732C69.9758 34.9744 69.8956 35.3488 69.8421 35.7232C69.12 36.2046 68.4247 36.6593 67.7293 37.0604L67.7026 37.0872C66.3921 37.836 64.734 38.1569 63.7979 38.1569C62.9956 38.1302 62.3805 37.9162 61.9793 37.4883C61.6852 37.1941 61.5247 36.7662 61.4712 36.2848C61.4445 36.1244 61.4445 35.9372 61.4712 35.75C64.0386 35.9639 65.991 35.5628 67.7293 33.6907C67.7374 33.6826 67.7455 33.672 67.7544 33.6605C67.7747 33.634 67.799 33.6023 67.8363 33.5837C67.8631 33.5569 67.8831 33.5302 67.9032 33.5035C67.9232 33.4767 67.9433 33.45 67.97 33.4232L68.0235 33.3697C68.0636 33.3296 68.0971 33.2828 68.1305 33.236C68.1639 33.1892 68.1974 33.1424 68.2375 33.1023L68.2642 33.0755C68.3445 32.9686 68.3979 32.8883 68.4514 32.7814C69.12 31.6581 69.227 30.5081 68.9328 29.786C68.8793 29.6255 68.7991 29.4918 68.6921 29.3848C68.1038 28.6895 67.4619 28.2348 66.5793 27.7802C66.4456 27.7 66.2852 27.6465 66.1247 27.6197C65.9643 27.593 65.7771 27.5663 65.5899 27.5395L65.5898 27.5395H65.3224H65.2421C65.1886 27.5395 65.1084 27.5395 65.0549 27.5662H64.9479C64.9212 27.5662 64.8878 27.5729 64.8544 27.5796L64.8543 27.5796C64.8209 27.5863 64.7875 27.593 64.7607 27.593C64.734 27.593 64.6805 27.593 64.6538 27.6197C64.6103 27.6342 64.5669 27.6408 64.5192 27.6481C64.4788 27.6543 64.4354 27.661 64.3863 27.6732H64.3596C62.4607 28.1546 60.1607 29.8128 58.5561 32.5407C57.2189 34.8407 57.2456 37.0604 58.3689 38.5314C59.1979 39.6279 60.6421 40.3232 62.5945 40.2965C65.636 40.2705 66.7571 39.6127 69.6667 37.9057L69.9224 37.7558C69.9758 37.9697 70.0561 38.1569 70.1363 38.3441L70.1363 38.3441L70.1363 38.3442C70.2166 38.5047 70.2968 38.6651 70.4038 38.7988C70.4305 38.8255 70.4572 38.8523 70.4572 38.879C70.4974 38.9191 70.5308 38.9593 70.5642 38.9994C70.5976 39.0395 70.6311 39.0796 70.6712 39.1197C71.3398 39.7883 72.3561 40.136 73.6665 40.1628H73.8003C75.4317 40.1628 76.9026 39.4139 78.0526 38.5314C78.1061 38.7453 78.2131 38.9325 78.32 39.093C78.3735 39.1465 78.427 39.2267 78.4538 39.2802C78.9084 39.7883 79.6305 40.0825 80.7003 40.0825C83.4282 40.0825 85.4072 37.9697 85.4072 37.9697C85.4072 37.9697 85.3805 38.3174 85.5142 38.7186C85.5945 38.986 85.7282 39.2535 85.9421 39.4942C86.2363 39.8151 86.691 40.0558 87.3863 40.0558H87.734C89.2584 39.9755 90.6224 39.3337 91.7991 38.3709C92.6282 39.2 93.7514 39.7081 95.0886 40.0023C98.3782 40.6976 99.8758 38.8255 100.33 37.6221C100.571 37.0872 100.651 36.5255 100.705 35.9907V35.7767V35.7232C100.73 34.959 100.635 34.1706 100.533 33.3347L100.518 33.2093C100.357 31.9255 100.197 30.6151 100.33 29.1174C100.419 29.1174 100.453 29.0807 100.492 29.0377L100.492 29.0376L100.493 29.0368L100.505 29.0236C100.509 29.0193 100.513 29.0148 100.518 29.0104C100.571 28.9437 100.618 28.8837 100.664 28.8237ZM61.9526 33.7441C62.3538 32.8081 62.9956 31.8721 63.8514 31.043C64.7607 30.0802 65.5363 29.7593 66.0177 29.8395C66.1514 29.8662 66.2584 29.9465 66.2584 29.9465L66.3386 30.0267C66.3386 30.0267 66.3654 30.0535 66.3654 30.0802C66.4189 30.1604 66.4456 30.2674 66.4456 30.4011C66.4456 30.829 66.2317 31.4441 65.67 32.086C65.0014 32.8348 64.1189 33.7174 62.541 33.7709C62.3538 33.7709 62.1665 33.7709 61.9526 33.7441ZM77.8386 26.443C78.6677 25.293 79.4433 24.3034 80.0852 23.5279C81.1014 22.3244 81.8235 21.6558 82.091 21.6558H82.1177C82.1177 21.6558 82.1445 21.6825 82.1445 21.7628C82.1445 21.8965 82.1177 22.1104 82.0107 22.4046C81.7968 23.0197 81.3421 23.9825 80.5933 25.1058L79.791 26.3093C78.3735 28.1814 76.8224 29.893 75.1642 31.4174C74.7365 31.8184 74.3089 32.1926 73.8812 32.5668L73.881 32.567L73.8809 32.5671L73.8807 32.5672L73.8805 32.5674C75.0038 30.4546 76.6352 28.1011 77.8386 26.443ZM81.9573 37.0337C81.0212 36.2046 82.5456 33.4767 83.5619 32.4337C84.5782 31.3639 86.7445 29.6255 87.4665 30.2674C87.6003 30.3744 87.6538 30.5348 87.6805 30.7221C87.8142 31.6848 86.7177 33.45 85.9421 34.4395C85.1933 35.4023 83.0003 37.7558 82.0107 37.1139C82.0107 37.0872 81.984 37.0604 81.9573 37.0337Z" fill="#080821"/>
</svg>
