<svg width="121" height="60" viewBox="0 0 121 60" fill="none" xmlns="http://www.w3.org/2000/svg">
<path fill-rule="evenodd" clip-rule="evenodd" d="M21.9114 36.524C21.9304 36.567 21.9194 36.617 21.8834 36.647L21.8844 36.648C21.8484 36.684 21.7914 36.693 21.7464 36.668C20.3114 35.959 14.1434 32.825 11.5964 30.342C10.6116 29.4946 10.0028 28.2914 9.90342 26.996C9.69642 24.216 12.6164 21.446 12.6164 21.446C16.2898 26.094 19.4091 31.1541 21.9114 36.524ZM20.8794 38.704C20.9031 38.7208 20.9209 38.7446 20.9304 38.772L20.9214 38.773C20.9214 38.773 20.9484 38.829 20.8714 38.899V38.902C19.8754 39.621 16.8194 41.752 15.4714 42.089C13.5284 42.562 11.6414 41.02 10.5284 39.034L20.7984 38.676V38.678C20.8275 38.678 20.8558 38.6871 20.8794 38.704ZM21.0454 37.699C21.0454 37.699 21.1354 37.769 21.0854 37.849L21.0834 37.848C21.0624 37.888 21.0224 37.915 20.9774 37.92L20.8507 37.9206C19.0913 37.9283 13.4256 37.9533 13.2754 37.924C12.6018 37.8864 11.9386 37.7406 11.3114 37.492C9.88356 36.9178 8.72658 35.8234 8.07388 34.4297C7.42118 33.0359 7.32131 31.4465 7.79442 29.982C7.79442 29.982 16.5464 34.655 21.0464 37.695L21.0454 37.699ZM20.1134 17.326C20.1134 17.326 21.3194 17.052 21.7674 17.012L21.7684 17C21.7684 17 24.7944 20.927 23.3184 35.7H23.3164C23.3194 35.76 23.2794 35.814 23.2214 35.828C23.2214 35.828 23.1654 35.853 23.0974 35.785C22.1394 34.397 17.6724 27.779 16.7654 23.753C16.4744 22.6875 16.4696 21.564 16.7514 20.496C17.2504 18.931 18.5204 17.732 20.1134 17.326ZM25.3134 35.769C25.2854 35.823 25.2214 35.847 25.1654 35.824V35.823C25.1174 35.806 25.0864 35.761 25.0854 35.711H25.0834C23.6034 20.929 26.6474 17.011 26.6474 17.011C27.4794 17.128 28.2644 17.326 28.2644 17.326C29.0534 17.5215 29.7793 17.9153 30.3733 18.4701C30.9673 19.0248 31.4096 19.7222 31.6584 20.496C31.9174 21.567 31.9114 22.685 31.6414 23.753C30.7394 27.762 26.3004 34.343 25.3144 35.769H25.3134ZM27.4794 38.765C27.4954 38.699 27.5954 38.687 27.5954 38.687L27.5974 38.682L37.8794 39.042C35.5744 43.002 32.9194 42.098 32.9194 42.098C31.4794 41.705 28.4994 39.61 27.5194 38.905C27.4824 38.869 27.4674 38.815 27.4794 38.765ZM27.3704 37.689C31.8854 34.643 40.6154 29.959 40.6154 29.959V29.958C41.0715 31.3943 40.9898 32.9475 40.3854 34.328C39.7414 35.776 38.5544 36.912 37.0794 37.49C36.5135 37.7128 35.9177 37.8503 35.3114 37.898L27.4254 37.918V37.916C27.3624 37.916 27.3194 37.839 27.3194 37.839C27.3118 37.8118 27.3126 37.7829 27.3217 37.7561C27.3308 37.7293 27.3478 37.7059 27.3704 37.689ZM26.6854 36.668C26.6404 36.692 26.5854 36.688 26.5454 36.658L26.5564 36.657C26.5124 36.613 26.5014 36.548 26.5284 36.493H26.5254C29.0252 31.1375 32.1394 26.0909 35.8054 21.455C35.8054 21.455 38.6904 24.115 38.5054 26.99C38.4058 28.2894 37.7979 29.4971 36.8134 30.351C34.2784 32.821 28.1554 35.934 26.6854 36.668ZM45.6758 34.9163H48.1258V30.4153H53.5778V34.9153H56.0278V24.1633H53.5778V28.5203H48.1258V24.1633H45.6758V34.9163ZM63.0968 33.2963C61.0708 33.2963 60.4708 32.5043 60.4708 30.6023L60.4598 24.1623H58.0268V30.6623C58.0268 32.0243 58.1588 32.9713 58.6948 33.5493C59.6508 34.6013 61.0618 35.0343 63.0868 35.0343C65.1118 35.0343 66.5048 34.6013 67.4648 33.5493C68.0298 32.6993 68.2708 31.6753 68.1448 30.6623V24.1623H65.6968V30.6023C65.6968 32.4963 65.1228 33.2963 63.0968 33.2963ZM81.1138 34.9153L76.1538 24.1623H73.5558L68.6308 34.9153H71.2338L72.2708 32.3533H77.3308L78.4008 34.9153H81.1138ZM76.5268 30.4383H73.0568L74.7598 26.3063L76.5268 30.4383ZM94.1008 34.9153L97.7008 24.1633L95.2068 24.1743L92.6938 32.4403L90.0858 24.1743H87.1988L84.9288 32.4403L82.2288 24.1743H79.5988L83.4758 34.9263H86.4608L88.6308 26.8993L91.1008 34.9153H94.1008ZM107.783 28.5353H101.006L100.997 28.5273C101.097 26.8353 101.988 26.0283 103.752 26.0293H107.772V24.1553H103.705C99.9598 24.1553 98.2248 25.9253 98.2248 29.7253C98.1525 30.5235 98.2772 31.3274 98.5879 32.0662C98.8986 32.8051 99.3858 33.4565 100.007 33.9633C101.069 34.6933 102.355 35.0263 103.639 34.9063H107.773V33.0333H103.753C101.823 33.0333 100.996 32.3313 100.983 30.3993H107.783V28.5353ZM112.501 24.1633H109.941V34.9163H112.501V24.1633Z" fill="#080821"/>
</svg>
