<svg width="121" height="60" viewBox="0 0 121 60" fill="none" xmlns="http://www.w3.org/2000/svg">
<path fill-rule="evenodd" clip-rule="evenodd" d="M31.1901 23.4281C31.1571 22.9331 30.7941 22.4711 30.2991 22.3061C29.8041 22.1411 29.2761 22.2731 28.9131 22.6361L17.0991 34.4831C16.7031 34.8791 16.6041 35.4731 16.8021 35.9681C17.0001 36.4631 17.4951 36.7931 18.0561 36.7931H27.9561L27.5931 34.0541H21.3561L28.8471 26.5301L29.8701 35.5391C29.9361 36.2321 30.5301 36.7601 31.2231 36.7601H35.4141C37.8561 36.7601 39.8031 35.8691 41.1231 34.4831C42.4431 33.0971 43.0701 31.2821 43.0701 29.5001C43.0701 27.7181 42.4431 25.9031 41.1231 24.5171C39.8031 23.0981 37.8561 22.2401 35.4141 22.2401H33.1371L33.4671 24.9131H35.3811C37.1301 24.9131 38.3511 25.5071 39.1101 26.3321C39.8691 27.1901 40.2981 28.3121 40.2981 29.4671C40.2981 30.6551 39.9021 31.7771 39.1101 32.6021C38.3511 33.4271 37.1301 34.0211 35.3811 34.0211H32.4111L31.1901 23.4281ZM71.5819 28.576C72.1429 27.85 73.0669 27.421 74.1559 27.421C75.8719 27.421 77.0599 28.411 77.0929 30.589V34.648H75.0139V30.886C75.0139 29.731 74.4859 29.203 73.6609 29.203C72.9679 29.203 72.4069 29.632 72.0769 30.325V34.648H69.9979V30.886C69.9979 29.731 69.4699 29.203 68.6449 29.203C67.9519 29.203 67.4239 29.665 67.0939 30.325V34.648H65.0149V27.52H67.0939V28.081C67.6549 27.652 68.3809 27.421 69.1729 27.421C70.1959 27.421 71.0869 27.784 71.5819 28.576ZM53.894 34.648H56.138L51.98 25.243H51.848H49.835L45.677 34.648H47.921L48.779 32.536H53.003L53.894 34.648ZM49.505 30.985L50.924 27.52L52.343 30.985H49.505ZM80.558 27.52H78.479V34.648H80.558V27.52ZM79.502 26.662C80.195 26.662 80.723 26.101 80.723 25.441C80.723 24.748 80.162 24.22 79.502 24.22C78.809 24.22 78.281 24.781 78.281 25.441C78.281 26.134 78.842 26.662 79.502 26.662ZM86.7951 34.318C86.3661 34.615 85.7391 34.78 85.1121 34.78C83.4291 34.78 82.4391 33.922 82.4391 32.239V29.137H81.3501V27.52H82.4391V25.936L84.5181 25.375V27.52H86.3001V29.104H84.5181V32.173C84.5181 32.8 84.8481 33.097 85.4091 33.097C85.7061 33.097 86.0361 32.998 86.2341 32.833L86.7951 34.318ZM87.356 28.279C88.148 27.718 89.27 27.421 90.425 27.421C92.57 27.421 93.857 28.411 93.89 30.589V34.615H91.943H91.811V34.021C91.382 34.516 90.722 34.747 89.765 34.747C88.082 34.747 87.092 33.823 87.092 32.602C87.092 31.348 87.983 30.358 90.161 30.358C90.59 30.358 91.283 30.391 91.811 30.49C91.811 29.599 91.283 29.071 90.161 29.071C89.402 29.071 88.643 29.335 88.115 29.731L87.356 28.279ZM89.105 32.536C89.105 33.031 89.534 33.394 90.26 33.394C90.953 33.394 91.547 32.932 91.811 32.338V31.843C91.349 31.678 90.392 31.711 90.392 31.711C89.402 31.711 89.105 32.041 89.105 32.536ZM61.517 25.243V28.048C60.956 27.652 60.296 27.4211 59.57 27.4211C57.557 27.4211 55.907 29.071 55.907 31.084C55.907 33.097 57.557 34.747 59.57 34.747C60.296 34.747 60.956 34.483 61.517 34.087V34.648H63.596V24.715L61.517 25.243ZM57.953 31.1171C57.953 29.5001 59.735 28.543 61.484 29.863V32.371C59.669 33.757 57.953 32.635 57.953 31.1171ZM100.424 28.048V25.243L102.503 24.715V34.648H100.424V34.087C99.863 34.483 99.203 34.747 98.477 34.747C96.464 34.747 94.814 33.097 94.814 31.084C94.814 29.071 96.464 27.4211 98.477 27.4211C99.203 27.4211 99.863 27.652 100.424 28.048ZM100.391 29.863C98.642 28.543 96.86 29.5001 96.86 31.1171C96.86 32.635 98.576 33.757 100.391 32.371V29.863Z" fill="white"/>
</svg>
