<svg width="120" height="60" viewBox="0 0 120 60" fill="none" xmlns="http://www.w3.org/2000/svg">
<g clip-path="url(#clip0_528_1501)">
<path d="M25.45 18H19V24.45H25.45V18Z" fill="black"/>
<path d="M31.6609 24.27H25.2109V30.72H31.6609V24.27Z" fill="black"/>
<path d="M76.1206 20.98C76.1106 20.24 76.0906 19.5 76.0606 18.75C74.0306 18.75 72.3106 18.75 70.6006 18.75C70.0906 18.75 69.7306 19.02 69.4506 19.48C68.6706 20.79 67.8506 22.06 67.0506 23.36C66.2006 24.74 65.4706 26.2 64.3606 27.5C62.5206 24.5 60.7606 21.63 59.0506 18.84H52.6606V27.18H52.6406V34.61C52.6506 34.83 52.6606 35.05 52.6806 35.26C54.4206 35.26 56.6606 35.43 58.5306 35.15C58.6806 33.13 58.4106 31.09 58.8806 28.92C60.8006 31.89 62.5606 34.6 64.4006 37.43C66.2706 34.5 68.0106 31.78 69.9306 28.78C70.1906 31.12 70.0206 33.18 70.0706 35.22C70.1306 37.27 70.1906 41.41 70.1906 41.41H76.1206C76.1206 41.41 76.1006 40.86 76.1206 40.58V20.98Z" fill="black"/>
<path d="M91.5714 28.6699C89.6314 27.9299 87.6314 27.4699 85.6414 26.9599C84.7314 26.7299 83.8614 26.2799 83.5914 25.2199C83.6514 24.7499 83.8714 24.3799 84.2714 23.9799C87.1514 23.0099 89.6014 24.3699 92.1314 25.7999C93.1914 24.3599 94.3314 22.9399 95.1714 21.2299C94.5614 20.6099 93.7614 20.1999 93.0614 19.8699C90.5014 18.6699 87.7814 18.3399 84.9714 18.5099C81.5914 18.7099 79.0214 19.9699 77.7114 23.3599C76.4814 26.5199 77.9414 29.9699 80.8214 31.3199C83.1214 32.3899 85.6414 32.7199 88.0014 33.5699C89.3014 34.0399 89.5714 34.4799 89.2514 36.1499C85.7914 37.4199 82.5814 36.2199 79.6714 34.0899C79.5314 34.0599 79.4814 34.0899 79.3814 34.1699C78.0614 35.1499 76.6514 37.5999 76.5814 37.6799C76.5114 37.7699 76.3014 38.0899 76.2914 38.2599C76.2814 38.4399 76.4914 38.5999 76.4914 38.5999C77.0314 38.9299 77.5314 39.2199 78.0114 39.5399C81.2014 41.6299 84.7314 42.2499 88.4614 42.0099C89.0214 41.9699 89.4414 41.7099 89.8614 41.0099V36.0899C89.8614 36.0899 93.5814 36.1599 95.2014 35.9799C95.9714 32.4599 94.6714 29.8899 91.5514 28.6999L91.5714 28.6699Z" fill="black"/>
<path d="M51.4891 25.2302C50.8591 23.3402 49.4591 22.1302 47.9391 21.0002C46.1991 19.7102 44.1491 19.3302 42.0791 19.0002C38.6591 18.4602 35.1091 18.7302 31.5691 18.7102C31.5691 20.7902 31.5391 22.6602 31.5391 24.5502C34.7791 24.5502 38.0291 24.4902 41.2691 24.5802C43.9091 24.6602 45.8491 26.6802 46.1391 29.3002C46.6091 33.6402 43.6891 36.0802 39.9091 36.0502C39.1991 36.0502 38.4891 36.0502 37.6391 36.0502V30.7402C35.5291 30.4702 33.5191 30.7002 31.5391 30.5802V41.4702C34.1791 41.4702 36.5291 41.5002 38.8791 41.4602C40.6991 41.4302 42.4991 41.5002 44.3191 40.9002C47.6591 39.8002 50.2891 38.0602 51.6191 34.6302C51.7191 34.3602 51.7991 34.0402 51.9291 33.7302C51.9891 33.5702 52.0391 32.0502 52.0391 31.8802V27.8902C52.0391 26.4102 51.6391 25.6602 51.4891 25.2102V25.2302Z" fill="black"/>
</g>
<defs>
<clipPath id="clip0_528_1501">
<rect width="76.44" height="24.04" fill="white" transform="translate(19 18)"/>
</clipPath>
</defs>
</svg>
