<svg width="121" height="60" viewBox="0 0 121 60" fill="none" xmlns="http://www.w3.org/2000/svg">
<path d="M16.4993 19.3927C16.4993 18.6849 15.8305 18.4775 15.2722 18.5019V18.6178C15.6097 18.6178 15.8858 18.7337 15.8858 18.9534C15.8858 19.173 15.7692 19.3073 15.4379 19.3073C15.0241 19.261 14.618 19.1626 14.2292 19.0144C13.8372 18.8551 13.4237 18.7544 13.0021 18.7154C12.8448 18.7106 12.688 18.7368 12.5409 18.7925C12.3939 18.8483 12.2594 18.9325 12.1452 19.0404C12.0311 19.1482 11.9396 19.2774 11.8761 19.4206C11.8125 19.5638 11.7782 19.7182 11.775 19.8747C11.7736 20.0467 11.8268 20.2148 11.9271 20.355C12.0273 20.4952 12.1695 20.6004 12.3333 20.6556L12.3824 20.5702C12.31 20.5392 12.2489 20.4869 12.2072 20.4204C12.1656 20.3539 12.1453 20.2763 12.1493 20.198C12.1553 20.1388 12.1733 20.0814 12.202 20.0292C12.2308 19.977 12.2697 19.9311 12.3166 19.8941C12.3635 19.8572 12.4174 19.8299 12.4751 19.814C12.5327 19.7981 12.593 19.7938 12.6524 19.8015C13.1029 19.8497 13.5458 19.9521 13.9715 20.1065C14.405 20.2317 14.8454 20.3315 15.2906 20.4055V21.5281L14.7446 21.9857V22.0284L15.2906 22.5043V24.0296C15.0177 24.1757 14.7107 24.2473 14.401 24.2371C14.1369 24.2506 13.8731 24.2063 13.6281 24.1071C13.3832 24.008 13.1632 23.8566 12.9837 23.6636L14.4562 22.9558V20.5153L12.6524 21.3085C12.8443 20.8701 13.1793 20.5089 13.6034 20.2835V20.198C13.0349 20.3357 12.5259 20.6513 12.1514 21.0984C11.7769 21.5455 11.5568 22.1003 11.5234 22.6812C11.5226 23.0127 11.5876 23.341 11.7146 23.6474C11.8415 23.9538 12.0281 24.2323 12.2634 24.4669C12.4988 24.7016 12.7784 24.8878 13.0863 25.0148C13.3941 25.1418 13.7241 25.2072 14.0574 25.2072C14.3686 25.2146 14.6781 25.1594 14.9673 25.0447C15.2565 24.9301 15.5193 24.7585 15.74 24.5401C15.9607 24.3218 16.1347 24.0613 16.2515 23.7744C16.3682 23.4874 16.4254 23.1799 16.4195 22.8704H16.3398C16.1484 23.3269 15.8262 23.7173 15.4133 23.993V22.5043L15.9962 22.0284V21.9796L15.4256 21.5159V20.4238C15.5646 20.4278 15.703 20.4042 15.8328 20.3543C15.9625 20.3044 16.0808 20.2292 16.1809 20.1331C16.2809 20.037 16.3606 19.922 16.4153 19.7949C16.47 19.6677 16.4985 19.531 16.4993 19.3927ZM13.3702 23.3585L12.9346 23.5659C12.6459 23.1721 12.5009 22.6922 12.5235 22.2053C12.5157 21.9395 12.5488 21.6741 12.6217 21.4183L13.3764 21.0888V23.3585H13.3702ZM17.1865 24.1516L16.7079 24.5055L16.7631 24.5726L16.9963 24.414L17.8061 25.1461L18.886 24.4323L18.8308 24.353L18.5486 24.5299L18.1988 24.1821V21.7417L18.4872 21.5281L19.1008 22.0223V24.1943C19.1008 25.5488 18.8001 25.7746 18.1804 26.0247V26.1162C19.205 26.159 20.1192 25.8173 20.1192 24.0784V21.6989L20.426 21.4488V21.3695L20.1376 21.5891L19.1989 20.8082L18.1988 21.6013V18.6483H18.1191L16.8429 19.5025V19.5879C16.9561 19.6264 17.0522 19.7029 17.1149 19.8042C17.1776 19.9055 17.2029 20.0253 17.1865 20.1431V24.1639V24.1516ZM23.7698 23.7672L22.8802 24.4689L21.9721 23.7306V23.3035L23.6778 22.1687V22.1199L22.825 20.8082L20.9843 21.8027V24.1639L20.6162 24.4506L20.6775 24.5238L21.0089 24.2615L22.236 25.14L23.8373 23.8588L23.7698 23.7672ZM21.9721 23.1571V21.4183L22.0274 21.3756L22.8188 22.6385L21.9721 23.1999V23.1571ZM30.6661 19.0693C30.6632 18.9544 30.6404 18.8409 30.5986 18.7337H30.5127C30.3961 19.0327 30.2611 19.1974 29.8991 19.1974C29.769 19.1918 29.6414 19.1597 29.5242 19.103C29.4071 19.0463 29.3029 18.9663 29.2181 18.868L28.1935 20.0882L28.2794 20.1614L28.5677 19.832C28.6848 19.9443 28.8233 20.0324 28.975 20.0911C29.1266 20.1497 29.2885 20.1778 29.4512 20.1736V23.1267L27.3406 19.4659C27.2593 19.2799 27.1293 19.119 26.9643 18.9998C26.7992 18.8807 26.605 18.8078 26.4019 18.7886C26.2436 18.7951 26.0886 18.8357 25.9476 18.9077C25.8067 18.9797 25.6832 19.0814 25.5857 19.2056C25.4882 19.3298 25.419 19.4737 25.3831 19.6271C25.3471 19.7806 25.3451 19.94 25.3773 20.0943H25.4816C25.4816 19.8686 25.6166 19.6306 25.8681 19.6306C25.9711 19.6458 26.0686 19.6868 26.1512 19.7498C26.2338 19.8128 26.299 19.8957 26.3406 19.9906V21.1803C25.7025 21.1803 25.273 21.4793 25.273 22.0284C25.2635 22.2144 25.3195 22.3979 25.4315 22.5472C25.5436 22.6965 25.7045 22.8021 25.8866 22.846V22.7667C25.8491 22.7376 25.8187 22.7006 25.7975 22.6584C25.7762 22.6162 25.7648 22.5698 25.7638 22.5226C25.7638 22.3274 25.9111 22.1992 26.1749 22.1992H26.3651V23.7124C25.5982 23.7124 25.0092 24.1394 25.0092 24.8594C25.0144 25.0075 25.0519 25.1527 25.119 25.285C25.1861 25.4172 25.2812 25.5335 25.3978 25.6257C25.5145 25.7179 25.6498 25.7839 25.7946 25.8191C25.9393 25.8542 26.09 25.8578 26.2362 25.8295V25.7441C25.8558 25.7013 25.6227 25.5244 25.6227 25.2743C25.6207 25.2094 25.6325 25.1448 25.6575 25.0848C25.6825 25.0249 25.7201 24.9709 25.7676 24.9265C25.8153 24.882 25.8718 24.8482 25.9336 24.8271C25.9953 24.8061 26.0609 24.7984 26.1258 24.8045C26.2678 24.8143 26.4061 24.8536 26.5318 24.9198C26.6576 24.986 26.768 25.0776 26.856 25.1888L27.8928 24.0357L27.7886 23.9625L27.5247 24.2615C27.2434 23.9579 26.863 23.7633 26.451 23.7124V20.1248L29.3592 25.1644H29.5678V20.1431C29.8513 20.134 30.1206 20.0179 30.3212 19.8185C30.5218 19.619 30.6385 19.3512 30.6476 19.0693H30.6661ZM33.2614 23.7672L32.3778 24.4689L31.4698 23.7306V23.3035L33.1755 22.1687V22.1199L32.3165 20.8082L30.4758 21.8027V24.1639L30.1077 24.4506L30.1691 24.5238L30.5004 24.2615L31.7275 25.14L33.3104 23.8588L33.243 23.7672H33.2614ZM31.4698 23.1755V21.4183L31.5312 21.3756L32.3165 22.5958L31.4698 23.1755ZM39.1637 21.2169L38.8937 21.4183L38.2188 20.8082L37.4212 21.522L37.7464 21.8332V24.536L36.869 23.9808V21.8027L37.1513 21.6074L36.3046 20.8082L35.5253 21.5464L35.8505 21.8576V24.4201L35.7646 24.4689L35.0038 23.932V21.7966C35.0038 21.3024 34.7645 21.1864 34.4455 20.9607C34.1265 20.7349 34.059 20.6617 34.059 20.4116C34.059 20.1614 34.2615 20.0882 34.3657 20.0333C34.3631 20.0049 34.3631 19.9763 34.3657 19.9479C34.1019 19.9592 33.8506 20.0637 33.6572 20.2426C33.4638 20.4215 33.3409 20.6631 33.3104 20.9241C33.308 21.0571 33.3379 21.1888 33.3978 21.3078C33.4576 21.4268 33.5455 21.5296 33.654 21.6074C33.7522 21.6784 33.8338 21.7697 33.8931 21.875C33.9524 21.9804 33.9881 22.0972 33.9976 22.2175V24.292L33.6111 24.5909L33.6725 24.6702L34.0222 24.3957L34.9731 25.1339L35.8751 24.5238L36.869 25.1339L38.7833 24.0296V21.644L39.2496 21.3024L39.1943 21.2169H39.1637ZM45.8391 19.2462L45.4832 19.5879L44.6733 18.868L43.5015 19.7404V18.9229H43.3788V24.7313C43.2622 24.7313 42.9615 24.6458 42.6854 24.6031V19.7221C42.6856 19.6065 42.6621 19.4921 42.6161 19.3859C42.5702 19.2797 42.503 19.1839 42.4185 19.1045C42.3341 19.0251 42.2342 18.9637 42.125 18.9241C42.0158 18.8844 41.8995 18.8674 41.7835 18.8741C41.6417 18.8658 41.4996 18.8863 41.366 18.9342C41.2324 18.9822 41.1099 19.0566 41.0061 19.153C40.9023 19.2494 40.8192 19.3658 40.7619 19.4951C40.7046 19.6244 40.6744 19.7639 40.673 19.9052H40.7773C40.7773 19.6916 40.9184 19.5025 41.1332 19.5025C41.3479 19.5025 41.5442 19.6367 41.5442 20.1126V21.5159C40.8877 21.5159 40.5073 21.9064 40.5073 22.3579C40.4972 22.4464 40.5052 22.536 40.5308 22.6214C40.5565 22.7067 40.5993 22.786 40.6566 22.8544C40.714 22.9229 40.7847 22.979 40.8645 23.0195C40.9443 23.06 41.0315 23.084 41.1209 23.09V23.0046C41.0675 22.9898 41.0204 22.9579 40.9871 22.9137C40.9538 22.8696 40.9361 22.8157 40.9368 22.7606C40.9368 22.5531 41.1332 22.4677 41.4092 22.4677H41.5381V24.6886C41.3195 24.7493 41.1274 24.8806 40.9919 25.0617C40.8565 25.2428 40.7853 25.4635 40.7896 25.6891C40.7931 25.837 40.8272 25.9825 40.8897 26.1167C40.9522 26.2509 41.0417 26.3709 41.1527 26.4693C41.2637 26.5677 41.3939 26.6424 41.5351 26.6887C41.6763 26.735 41.8256 26.752 41.9737 26.7385C42.4397 26.7295 42.9031 26.6661 43.3542 26.5495C43.6935 26.4721 44.038 26.4191 44.3849 26.3908C44.6549 26.3908 44.7776 26.5189 44.7776 26.7141C44.7908 26.7987 44.7717 26.8851 44.724 26.9562C44.6763 27.0274 44.6034 27.0782 44.5199 27.0986V27.184C44.7723 27.167 45.0087 27.0556 45.1818 26.8722C45.3548 26.6888 45.4516 26.447 45.4525 26.1956C45.4525 25.6465 44.931 25.3231 44.3481 25.3231C43.8972 25.3475 43.4495 25.4128 43.0106 25.5183C42.6455 25.6041 42.2742 25.6613 41.9001 25.6891C41.6547 25.6891 41.3418 25.5671 41.3418 25.2377C41.3418 24.9082 41.5933 24.7008 42.213 24.7008C42.5913 24.7071 42.9677 24.7541 43.3358 24.8411C43.7358 24.9563 44.1473 25.0279 44.5629 25.0546C45.0905 25.0546 45.5568 24.8716 45.5568 24.1089V19.6794L45.9801 19.3256L45.9004 19.2462H45.8391ZM44.3543 21.4549C44.2997 21.5151 44.2336 21.564 44.1599 21.5986C44.0862 21.6331 44.0062 21.6527 43.9248 21.6562C43.7591 21.6469 43.6032 21.5748 43.4892 21.4549V19.8625L43.8573 19.6123L44.3543 20.0638V21.4549ZM44.3543 22.5226C44.241 22.4077 44.0866 22.3419 43.9248 22.3396C43.762 22.3458 43.6071 22.4109 43.4892 22.5226V21.583C43.608 21.6943 43.7619 21.7611 43.9248 21.7722C44.0053 21.7702 44.0848 21.7525 44.1585 21.7201C44.2322 21.6876 44.2987 21.6411 44.3543 21.583V22.5226ZM44.3543 24.1943C44.3569 24.2701 44.3437 24.3456 44.3156 24.416C44.2874 24.4864 44.2449 24.5502 44.1908 24.6036C44.1366 24.6569 44.0719 24.6984 44.0008 24.7257C43.9297 24.7529 43.8537 24.7652 43.7775 24.7618C43.6815 24.7676 43.5852 24.7676 43.4892 24.7618V22.6385C43.604 22.5196 43.7593 22.4478 43.9248 22.4372C44.0885 22.4475 44.2421 22.5195 44.3543 22.6385V24.1821V24.1943ZM49.2626 21.6501L48.1215 20.8082L46.3728 21.821V24.1577L46.0109 24.4689L46.066 24.5421L46.3483 24.3103L47.5017 25.1584L49.2626 24.054V21.6501ZM47.3484 23.9076V21.3512L48.2871 22.0284V24.5909L47.3729 23.9381L47.3484 23.9076ZM52.7046 20.918H52.631C52.5471 21.0016 52.4364 21.0534 52.3181 21.0644C52.2408 21.0609 52.1651 21.0417 52.0955 21.0082C52.0258 20.9746 51.9638 20.9273 51.9131 20.8692H51.8457L51.2321 21.5281L50.6186 20.8692L49.5694 21.6013L49.6246 21.6867L49.9069 21.4976L50.275 21.8881V24.1516L49.7964 24.5055L49.8516 24.5726L50.0848 24.414L50.9499 25.1461L52.0727 24.4018L52.0236 24.3286L51.7045 24.5177L51.2873 24.1394V21.6257C51.3601 21.7241 51.4518 21.8072 51.5571 21.87C51.6624 21.9329 51.7793 21.9743 51.9009 21.9918C52.3794 21.9918 52.6433 21.461 52.6985 20.918H52.7046ZM56.9994 24.353L55.7723 25.1522L54.171 22.6385L55.349 20.8082H55.3981C55.5622 20.9718 55.7799 21.0714 56.0116 21.0888C56.1164 21.0907 56.2198 21.0659 56.3122 21.0168C56.4046 20.9677 56.4827 20.8958 56.5393 20.8082H56.6252C56.6444 21.0797 56.5615 21.3486 56.3925 21.5628C56.2236 21.777 55.9807 21.9212 55.711 21.9674C55.4333 21.9575 55.1673 21.8543 54.9563 21.6745L54.8459 21.8393L56.6252 24.4689L56.9872 24.2493L57.0362 24.3347L56.9994 24.353ZM53.0421 24.1516L52.5574 24.5055L52.6187 24.5726L52.8519 24.414L53.6556 25.1461L54.7845 24.4323L54.7293 24.353L54.4532 24.5299L54.1035 24.1821V18.6483H54.0237L52.7292 19.5086V19.5879C52.8452 19.6204 52.9459 19.6928 53.0134 19.7923C53.0808 19.8917 53.1105 20.0117 53.0973 20.1309V24.1516H53.0421ZM62.9754 19.3927C62.9754 18.6849 62.3066 18.4775 61.7485 18.5019V18.6178C62.0856 18.6178 62.3619 18.7337 62.3619 18.9534C62.3619 19.173 62.2512 19.3073 61.9141 19.3073C61.5064 19.2595 61.1065 19.1611 60.7238 19.0144C60.3318 18.8551 59.9182 18.7544 59.4965 18.7154C59.3392 18.7106 59.1825 18.7368 59.0354 18.7925C58.8883 18.8483 58.7538 18.9325 58.6397 19.0404C58.5256 19.1482 58.4341 19.2774 58.3705 19.4206C58.307 19.5638 58.2726 19.7182 58.2695 19.8747C58.2681 20.0467 58.3213 20.2148 58.4216 20.355C58.5218 20.4952 58.664 20.6004 58.8278 20.6556L58.8769 20.5702C58.813 20.5324 58.7612 20.4774 58.7276 20.4115C58.6939 20.3456 58.6797 20.2716 58.6867 20.198C58.692 20.1391 58.7092 20.0818 58.7373 20.0296C58.7654 19.9775 58.8038 19.9315 58.8502 19.8945C58.8966 19.8574 58.9501 19.8301 59.0074 19.8141C59.0647 19.7981 59.1246 19.7938 59.1837 19.8015C59.6341 19.8497 60.077 19.9521 60.5028 20.1065C60.9365 20.2311 61.377 20.3309 61.822 20.4055V21.5281L61.2761 21.9857V22.0284L61.822 22.5043V24.0296C61.549 24.1757 61.2423 24.2473 60.9321 24.2371C60.6685 24.2481 60.4053 24.2027 60.1608 24.1037C59.9163 24.0048 59.696 23.8546 59.515 23.6636L60.9938 22.9558V20.5153L59.153 21.3146C59.3469 20.8775 59.6814 20.5169 60.104 20.2896V20.2041C59.5407 20.3465 59.038 20.6643 58.6693 21.1111C58.3006 21.5579 58.0853 22.1102 58.0547 22.6873C58.0531 23.0185 58.1173 23.3467 58.2436 23.653C58.3699 23.9594 58.5559 24.238 58.7908 24.4727C59.0256 24.7074 59.3049 24.8936 59.6123 25.0208C59.9198 25.1479 60.2495 25.2133 60.5827 25.2133C60.8944 25.2216 61.2045 25.1669 61.4941 25.0527C61.7842 24.9384 62.0479 24.7669 62.2693 24.5485C62.4903 24.3301 62.6653 24.0693 62.7824 23.7819C62.8995 23.4946 62.9568 23.1865 62.951 22.8765H62.8647C62.6756 23.3341 62.3531 23.7251 61.9386 23.9991V22.5043L62.5521 22.0406V21.9918L61.9812 21.5281V20.4238C62.1214 20.4295 62.261 20.4071 62.3923 20.358C62.5237 20.3088 62.6432 20.2339 62.7447 20.1376C62.8461 20.0414 62.9269 19.9258 62.9823 19.7978C63.0377 19.6698 63.0666 19.532 63.0676 19.3927H62.9754ZM59.8463 23.3585L59.4107 23.5659C59.1501 23.1621 59.0334 22.683 59.0793 22.2053C59.0627 21.9404 59.0897 21.6746 59.1591 21.4183L59.9138 21.0888V23.3402L59.8463 23.3585ZM64.2147 19.0876H64.1593L63.4415 19.6977V19.7465L64.0554 20.4299H64.1167L64.8346 19.8198V19.7465L64.2211 19.0571L64.2147 19.0876ZM65.3069 24.3835L65.0369 24.5604L64.6812 24.2127V21.7722L65.0247 21.5159L64.9571 21.4305L64.6934 21.6318L64.1226 20.8082L63.0921 21.5464L63.1533 21.644L63.4111 21.4732L63.7301 21.8637V24.1821L63.2636 24.5299L63.3126 24.6031L63.5581 24.4323L64.3436 25.1461L65.4236 24.4323L65.3623 24.353L65.3069 24.3835ZM71.3503 24.3103L71.0925 24.4811L70.7368 24.1333V21.6928L71.1048 21.4244L71.0435 21.3451L70.7368 21.5891L69.89 20.8082L68.8287 21.583L68.0128 20.8082L66.9696 21.5464L66.3252 20.8082L65.2947 21.5464L65.3496 21.644L65.6073 21.4732L65.9572 21.8576V24.1761L65.6749 24.4567L66.4972 25.1461L67.2949 24.4323L66.9696 24.1211V21.6806L67.2763 21.4793L67.8344 21.9918V24.1577L67.5586 24.4384L68.393 25.1278L69.1722 24.414L68.8468 24.1028V21.6623L69.1232 21.4793L69.7367 21.9857V24.115L69.4975 24.3652L70.3379 25.1217L71.4424 24.3713L71.3503 24.3103ZM74.4795 23.7672L73.6141 24.4689L72.6939 23.749V23.3219L74.4178 22.1687V22.1199L73.5529 20.8082L71.7124 21.8027V24.2432L72.9394 25.14L74.5711 23.8588L74.504 23.7672H74.4795ZM72.6758 23.1571V21.4183L72.737 21.3756L73.5284 22.5958L72.6758 23.1571ZM77.768 22.8277L77.0746 22.303C77.2623 22.1393 77.4137 21.9388 77.5191 21.7141C77.6249 21.4894 77.6822 21.2453 77.6881 20.9973C77.693 20.9221 77.693 20.8467 77.6881 20.7716H77.6024C77.572 20.875 77.5083 20.9655 77.4201 21.0286C77.3324 21.0916 77.226 21.1236 77.1177 21.1193C76.9967 21.1086 76.8796 21.0727 76.7742 21.0138C76.6684 20.9549 76.5763 20.8744 76.5042 20.7777L74.8843 21.6562V22.9802L75.4978 23.45C74.8843 23.9869 74.774 24.3591 74.774 24.6336C74.7613 24.7902 74.801 24.9465 74.8862 25.0787C74.9715 25.2109 75.0979 25.3117 75.2464 25.3658L75.289 25.2926C75.2425 25.2637 75.2042 25.2231 75.1788 25.1749C75.1528 25.1267 75.1401 25.0726 75.142 25.018C75.142 24.896 75.289 24.7252 75.5654 24.7252C75.6982 24.7321 75.828 24.7686 75.9447 24.832C76.0613 24.8953 76.1622 24.9839 76.2401 25.0912L77.7989 24.1639V22.846L77.768 22.8277ZM77.3877 21.7478C77.0844 22.1719 76.7086 22.5395 76.2769 22.8338L75.8844 22.5287V21.2719C75.9711 21.4493 76.1049 21.5999 76.2715 21.7074C76.4381 21.8149 76.6307 21.8753 76.8291 21.882C77.0246 21.8879 77.2182 21.8393 77.3877 21.7417V21.7478ZM76.7742 24.597C76.6841 24.398 76.5395 24.2281 76.3572 24.1062C76.1754 23.9844 75.9628 23.9156 75.7433 23.9076C75.5066 23.9012 75.2728 23.9604 75.0685 24.0784C75.4012 23.6082 75.8324 23.2149 76.3323 22.9253L76.7742 23.2669V24.597Z" fill="#080821"/>
<path d="M36.662 39.9383V35.9237H35.9258V33.5503H40.8342V34.8987C41.6256 34.0628 42.503 33.349 43.7362 33.349C43.9059 33.3397 44.0758 33.3397 44.2454 33.349V36.3996C43.5877 36.3644 42.9281 36.4116 42.2821 36.5399C42.0314 36.5915 41.7935 36.6926 41.5827 36.8372C41.372 36.9819 41.1925 37.167 41.055 37.3819C40.8448 37.9149 40.769 38.4909 40.8342 39.0597V39.9383H41.822V42.3117H35.9258V39.9383H36.662Z" fill="#080821"/>
<path d="M49.69 42.4915C48.3152 42.5663 46.9596 42.1436 45.8738 41.3018C45.3863 40.8773 44.9976 40.3523 44.7348 39.7633C44.472 39.1743 44.3414 38.5354 44.3522 37.8912C44.3522 35.0235 46.6468 33.364 49.3832 33.364C52.359 33.364 54.2916 35.4446 54.2916 37.9644C54.2916 38.2572 54.2916 38.5318 54.2548 38.8185H48.4875C48.647 39.8435 49.1747 40.3316 50.0213 40.3316C50.2972 40.33 50.5681 40.2585 50.8085 40.1241C51.0489 39.9895 51.251 39.7964 51.3957 39.5629H54.2793C53.6719 41.5519 51.819 42.4915 49.69 42.4915ZM48.4629 37.4701H50.6349V37.281C50.6349 36.5306 50.4508 35.7679 49.5489 35.7679C49.3298 35.7612 49.1145 35.8255 48.9353 35.9508C48.756 36.0763 48.6226 36.2561 48.5549 36.4635C48.4734 36.7925 48.4526 37.1336 48.4936 37.4701H48.4629Z" fill="#080821"/>
<path d="M58.872 33.3647C59.2659 33.3293 59.6628 33.378 60.0361 33.5074C60.41 33.6368 60.7511 33.844 61.0377 34.1152V33.5477H63.6823V36.9583H61.0377C61.0377 36.1591 60.6697 35.7381 60.1542 35.7381C59.4978 35.7381 59.056 36.4519 59.056 37.4525C59.0293 37.7835 59.0759 38.1162 59.1926 38.4272C59.3093 38.7384 59.4931 39.0202 59.7312 39.2529C59.9695 39.4856 60.2561 39.6636 60.5707 39.7741C60.8853 39.8847 61.221 39.9253 61.5532 39.893C62.275 39.8848 62.9919 39.7739 63.6823 39.5635V41.8454C62.5965 42.278 61.4337 42.4856 60.2645 42.4556C59.1969 42.5125 58.1344 42.2717 57.197 41.76C56.4769 41.3352 55.8832 40.7278 55.4767 39.9999C55.0703 39.2719 54.8657 38.4497 54.8839 37.6173C54.9085 35.1707 56.5773 33.3647 58.872 33.3647Z" fill="#080821"/>
<path d="M68.2361 42.4962C66.2731 42.4962 65.0579 41.3614 65.0579 39.5371V35.9251H64.2852V33.5518H69.1936V38.811C69.1936 39.5371 69.5063 39.9398 70.132 39.9398C70.7578 39.9398 71.0155 39.5371 71.0155 38.811V35.9251H70.1996V33.5518H75.1757V39.9398H75.9117V42.3132H71.0033V41.2881C70.2344 41.9745 69.2647 42.3979 68.2361 42.4962Z" fill="#080821"/>
<path d="M76.0938 35.9244V33.551H76.9224V30.8115H81.0699V33.551H82.2968V35.9244H81.0699V39.939H82.2968V42.3124H76.9224V35.9244H76.0938Z" fill="#080821"/>
<path d="M82.8281 35.9244V33.551H83.6563V30.8115H87.8037V33.551H89.0307V35.9244H87.8037V39.939H89.0307V42.3124H83.6563V35.9244H82.8281Z" fill="#080821"/>
<path d="M94.9656 42.4915C93.5887 42.5661 92.2314 42.1436 91.143 41.3017C90.6565 40.8765 90.2684 40.3513 90.0057 39.7625C89.7431 39.1737 89.6122 38.5352 89.6216 37.8912C89.6216 35.0235 91.9163 33.364 94.6525 33.364C97.6284 33.364 99.5914 35.4446 99.5914 37.9644C99.5914 38.2572 99.5914 38.5317 99.5546 38.8185H93.7877C93.8979 39.8435 94.4502 40.3316 95.2783 40.3316C95.5542 40.3294 95.8246 40.2577 96.0652 40.1233C96.3053 39.9889 96.5077 39.796 96.6528 39.5629H99.5733C98.9598 41.5519 97.1193 42.4915 94.9656 42.4915ZM93.7382 37.4701H95.904V37.281C95.904 36.5306 95.7203 35.7679 94.8245 35.7679C94.6055 35.7612 94.3899 35.8255 94.2105 35.9508C94.0317 36.0763 93.8979 36.2561 93.8303 36.4635C93.7489 36.7925 93.7279 37.1336 93.769 37.4701H93.7382Z" fill="#080821"/>
<path d="M100.983 39.9382V35.9236H100.246V33.5503H105.155V34.8986C105.946 34.0628 106.824 33.3489 108.057 33.3489C108.228 33.3398 108.4 33.3398 108.572 33.3489V36.3995C107.914 36.3638 107.255 36.4109 106.609 36.5398C106.358 36.5914 106.12 36.6925 105.909 36.8372C105.698 36.9818 105.519 37.167 105.381 37.3818C105.172 37.9148 105.096 38.4908 105.161 39.0597V39.9382H106.155V42.3116H100.246V39.9382H100.983Z" fill="#080821"/>
<path d="M30.4076 39.948V35.9578H29.6836V33.621H34.5367V39.9663H35.3037V42.3214H29.6836V39.948H30.4076ZM34.5367 29.5942V32.6936H30.4076V29.5942H34.5367Z" fill="#080821"/>
<path d="M11.5234 32.1567V29.5942H17.5975V32.1567H16.7447L18.0454 37.2818L20.0026 29.5942H23.1685L25.1135 37.5259H25.1441L26.5614 32.1567H25.2485V29.5942H29.6598V32.1567H29.1567L26.2853 42.3092H22.2666L20.8248 36.5618H20.7941L19.3339 42.3092H15.2354L12.3395 32.1567H11.5234Z" fill="#080821"/>
</svg>
