<svg width="121" height="60" viewBox="0 0 121 60" fill="none" xmlns="http://www.w3.org/2000/svg">
<path d="M32.7777 14.4445C23.7878 14.4445 16.5 21.7323 16.5 30.7222C16.5 39.452 23.3726 46.5767 32.0025 46.981C32.26 46.9931 32.518 47 32.778 47C36.9455 47 40.7463 45.4329 43.6261 42.8575C41.7181 44.1229 39.4873 44.851 37.1032 44.851C33.2268 44.851 29.7551 42.928 27.4202 39.8954C25.6203 37.7707 24.4545 34.6301 24.3751 31.1054V30.3388C24.4544 26.8142 25.6202 23.6729 27.4197 21.5487C29.755 18.5162 33.2266 16.5931 37.1028 16.5931C39.4874 16.5931 41.7186 17.3212 43.6268 18.5874C40.7611 16.0238 36.9833 14.4599 32.8389 14.4445C32.8183 14.4445 32.798 14.4437 32.7774 14.4437L32.7777 14.4445Z" fill="#080821"/>
<path d="M27.418 21.5497C28.9118 19.7863 30.8409 18.7229 32.9486 18.7229C37.6875 18.7229 41.5285 24.0956 41.5285 30.723C41.5285 37.3504 37.6872 42.7231 32.9486 42.7231C30.8409 42.7231 28.9118 41.6602 27.4184 39.8967C29.7532 42.9292 33.2246 44.8523 37.1014 44.8523C39.4856 44.8523 41.7164 44.1242 43.6243 42.8588C46.9561 39.8781 49.0541 35.5457 49.0541 30.7231C49.0541 25.9011 46.9565 21.569 43.6255 18.5886C41.7171 17.3224 39.4859 16.5943 37.1015 16.5943C33.225 16.5943 29.7533 18.5174 27.4184 21.5499" fill="url(#paint0_linear_10349_13626)"/>
<path d="M27.418 21.5497C28.9118 19.7863 30.8409 18.7229 32.9486 18.7229C37.6875 18.7229 41.5285 24.0956 41.5285 30.723C41.5285 37.3504 37.6872 42.7231 32.9486 42.7231C30.8409 42.7231 28.9118 41.6602 27.4184 39.8967C29.7532 42.9292 33.2246 44.8523 37.1014 44.8523C39.4856 44.8523 41.7164 44.1242 43.6243 42.8588C46.9561 39.8781 49.0541 35.5457 49.0541 30.7231C49.0541 25.9011 46.9565 21.569 43.6255 18.5886C41.7171 17.3224 39.4859 16.5943 37.1015 16.5943C33.225 16.5943 29.7533 18.5174 27.4184 21.5499" fill="url(#paint1_linear_10349_13626)" fill-opacity="0.4"/>
<path d="M74.2651 37.4662C72.212 37.4662 70.5417 35.6302 70.5417 33.3731C70.5417 31.1164 72.212 29.28 74.2651 29.28C76.3181 29.28 77.9884 31.1164 77.9884 33.3731C77.9884 35.6302 76.3181 37.4662 74.2651 37.4662ZM74.2651 28.1455C72.8239 28.1455 71.582 28.8254 70.7413 29.9013V28.3844H69.5938V41.575H70.7413V36.8449C71.582 37.9208 72.8239 38.6003 74.2651 38.6003C76.9433 38.6003 79.1227 36.2553 79.1227 33.373C79.1227 30.491 76.9433 28.1457 74.2651 28.1457" fill="#080821"/>
<path d="M61.4788 37.7826C58.2474 37.7826 55.6185 35.0027 55.6185 31.5864C55.6185 28.1696 58.2474 25.3902 61.4788 25.3902C64.7101 25.3902 67.339 28.1697 67.339 31.5864C67.339 35.0029 64.7101 37.7826 61.4788 37.7826ZM61.4788 24.2946C57.6436 24.2946 54.5234 27.5656 54.5234 31.5864C54.5234 35.6066 57.6435 38.8777 61.4788 38.8777C65.3141 38.8777 68.4341 35.6066 68.4341 31.5864C68.4341 27.5658 65.3141 24.2946 61.4788 24.2946Z" fill="#080821"/>
<path d="M95.1858 28.1863C94.7902 28.2037 94.4169 28.3077 94.0682 28.4932C93.3332 28.8848 92.8251 29.4817 92.5007 30.2417C92.493 30.26 92.4845 30.2778 92.4764 30.2952C92.473 30.2948 92.4692 30.294 92.4655 30.2936V28.4661H92.4644V28.4475H91.3164V38.3303H92.4661V38.2635C92.4661 36.4859 92.4665 34.9216 92.4661 33.1439C92.4661 32.4146 92.5807 31.8226 92.8196 31.2447C93.0407 30.7098 93.3497 30.2344 93.7927 29.855C94.3138 29.4087 94.9111 29.2168 95.595 29.3257C95.706 29.3435 95.8157 29.3678 95.9311 29.3901C95.9963 29.0629 96.1522 28.6466 96.2186 28.3154C95.9004 28.2263 95.4845 28.1733 95.1861 28.1862" fill="#080821"/>
<path d="M85.0093 29.2957C87.0376 29.2957 88.4557 30.6624 88.6934 32.7555H81.3355C81.6141 30.7988 83.1529 29.2957 85.0095 29.2957M85.0095 28.1615C82.3313 28.1615 80.1523 30.5065 80.1523 33.3888C80.1523 36.2712 82.3313 38.6157 85.0095 38.6157C86.9253 38.6157 88.5855 37.4159 89.3752 35.6779L88.3863 35.1025C87.7951 36.5048 86.5054 37.4819 85.0095 37.4819C83.0695 37.4819 81.4732 35.8415 81.3031 33.7565H89.8532C89.8613 33.635 89.8666 33.5128 89.8666 33.3888C89.8666 30.3113 87.8694 28.1615 85.0094 28.1615" fill="#080821"/>
<path d="M100.83 37.4661C98.7768 37.4661 97.1065 35.6301 97.1065 33.373C97.1065 31.1163 98.7768 29.2799 100.83 29.2799C102.883 29.2799 104.553 31.1163 104.553 33.373C104.553 35.6301 102.883 37.4661 100.83 37.4661ZM104.354 28.3849V29.9018C103.513 28.8259 102.271 28.146 100.83 28.146C98.1516 28.146 95.9727 30.4914 95.9727 33.3733C95.9727 36.2556 98.1516 38.6006 100.83 38.6006C102.271 38.6006 103.513 37.9211 104.354 36.8452V38.3305H105.501V28.3851L104.354 28.3849Z" fill="#080821"/>
<defs>
<linearGradient id="paint0_linear_10349_13626" x1="38.2357" y1="16.8351" x2="38.2357" y2="44.7409" gradientUnits="userSpaceOnUse">
<stop stop-color="#080821"/>
<stop offset="0.7" stop-color="#080821"/>
<stop offset="1" stop-color="#080821"/>
</linearGradient>
<linearGradient id="paint1_linear_10349_13626" x1="38.2357" y1="16.8351" x2="38.2357" y2="44.7409" gradientUnits="userSpaceOnUse">
<stop stop-color="white"/>
<stop offset="0.505208" stop-color="#939393"/>
<stop offset="1" stop-color="#707070"/>
</linearGradient>
</defs>
</svg>
