<svg width="120" height="60" viewBox="0 0 120 60" fill="none" xmlns="http://www.w3.org/2000/svg">
<path d="M90.0329 28.8974L89.9654 29.7033C89.4953 35.4784 87.6153 37.2582 85.2985 37.2582C83.2163 37.2582 81.7387 35.848 82.0411 32.0875L82.1083 31.2476C82.5787 25.5058 84.4585 23.6926 86.7753 23.6926C88.824 23.6926 90.335 25.1369 90.0329 28.8974ZM37.9871 28.8974L37.9196 29.7033C37.4501 35.4784 35.5694 37.2582 33.2525 37.2582C31.1705 37.2582 29.6935 35.848 29.9957 32.0875L30.0623 31.2476C30.5328 25.5058 32.4132 23.6926 34.7302 23.6926C36.7782 23.6926 38.2892 25.1369 37.9871 28.8974ZM87.4471 18.0182C83.7583 18.0182 80.7578 19.1553 78.6378 21.5094C78.9398 20.6921 79.099 19.6956 79.1197 18.5218H66.1924C63.3719 18.5218 61.7601 19.764 60.6521 22.9541L61.2231 18.5218H48.161C45.7697 18.5218 44.1279 19.6652 43.5348 21.9045C41.9161 19.3104 39.04 18.0182 35.4014 18.0182C28.4847 18.0182 23.9851 22.0142 23.1792 30.5425L23.0785 31.6171C22.3733 39.2396 26.3693 43 32.5808 43C39.498 43 43.9978 38.9708 44.8035 30.4417L44.9043 29.3677C45.0861 27.4118 44.9533 25.7122 44.553 24.2636H50.4106L48.7322 38.6352C48.3959 41.4891 49.941 42.7986 52.5259 42.7986C54.1044 42.7986 54.6414 42.6979 55.2458 42.5973L57.3278 24.2636H64.1443L62.4653 38.6352C62.1296 41.4891 63.6741 42.7986 66.2598 42.7986C67.8375 42.7986 68.3752 42.6979 68.9796 42.5973L71.0609 24.2636H74.4191C75.5809 24.2636 76.5191 23.9936 77.2433 23.4599C76.186 25.3228 75.4959 27.6754 75.2249 30.5425L75.1243 31.6171C74.4191 39.2396 78.4146 43 84.6265 43C91.544 43 96.0428 38.9708 96.8488 30.4417L96.9496 29.3677C97.6549 21.7787 93.6593 18.0182 87.4471 18.0182Z" fill="#080821"/>
</svg>
