<svg width="121" height="60" viewBox="0 0 121 60" fill="none" xmlns="http://www.w3.org/2000/svg">
<path d="M86.4482 32.205H90.0638V35.5682C89.4003 35.8213 88.0979 36.0744 86.8633 36.0744C82.8641 36.0744 81.5342 34.0443 81.5342 29.9218C81.5342 25.9874 82.8004 23.6721 86.7957 23.6721C89.0223 23.6721 90.2856 24.3708 91.3327 25.703L94.0953 23.165C92.4084 20.7595 89.464 20.0305 86.6996 20.0305C80.4843 20.028 77.2162 23.4182 77.2162 29.889C77.2162 36.3276 80.1691 39.8179 86.6663 39.8179C89.6498 39.8179 92.5656 39.0585 94.1535 37.9456V28.6205H86.4484L86.4482 32.205ZM67.4833 35.7894H76.6843V39.5324H63.043V20.3126H67.4836L67.4833 35.7894Z" fill="#080821"/>
<path d="M52.0364 40.5111C57.8408 34.7068 57.8404 25.2954 52.0359 19.4923C46.2313 13.6882 36.8202 13.6875 31.0171 19.4918C25.2128 25.296 25.2131 34.7075 31.0177 40.5105C36.8221 46.3151 46.2334 46.3152 52.0364 40.5111Z" fill="#080821"/>
<path d="M37.0163 27.1025C37.3552 27.1009 37.6861 26.9989 37.9671 26.8093C38.248 26.6199 38.4666 26.3514 38.5951 26.0379C38.7237 25.7243 38.7564 25.3796 38.6893 25.0474C38.6221 24.7152 38.4581 24.4104 38.2179 24.1714C37.9776 23.9323 37.672 23.7697 37.3394 23.7042C37.007 23.6387 36.6625 23.6732 36.3496 23.8032C36.0366 23.9334 35.7692 24.1532 35.5811 24.4351C35.393 24.717 35.2926 25.0483 35.2926 25.3872C35.2931 25.613 35.3381 25.8365 35.4251 26.0449C35.5121 26.2534 35.6392 26.4426 35.7992 26.6019C35.9593 26.7612 36.1492 26.8874 36.358 26.9733C36.5668 27.0592 36.7905 27.1031 37.0163 27.1025ZM52.7371 30.4724H45.1787V29.3528H53.8449C53.8567 29.5697 53.8626 29.7864 53.8626 30.0059C53.8626 36.7475 48.3681 42.2124 41.592 42.2124C34.8157 42.2124 29.3203 36.7509 29.3203 30.0059C29.3203 23.2614 34.814 17.7993 41.5909 17.7993C41.7697 17.7993 41.9477 17.8029 42.1249 17.8103V18.9215C41.9477 18.9136 41.7703 18.9097 41.5925 18.9097C35.4332 18.9097 30.4383 23.8777 30.4383 30.0047C30.4383 36.1319 35.4325 41.1008 41.5925 41.1008C47.5831 41.1008 52.4771 36.4003 52.7361 30.5036L52.7371 30.4724ZM45.1615 35.1369H42.1239V23.7247H41.0009V36.2641H42.1265V36.2566H45.164L45.1615 35.1369Z" fill="white"/>
</svg>
