<svg width="121" height="60" viewBox="0 0 121 60" fill="none" xmlns="http://www.w3.org/2000/svg">
<path d="M65.656 26.0191C65.656 23.6851 65.6962 21.5121 65.817 19.5L59.66 20.667V21.2304L60.2636 21.3109C60.7063 21.3511 60.988 21.5121 61.1489 21.7535C61.3099 22.0352 61.4306 22.4376 61.5111 23.0412C61.5916 24.2082 61.6721 26.8642 61.6318 31.0493C61.6318 35.1942 61.5916 37.8099 61.5111 38.8159C63.7244 39.2988 65.4548 39.5 66.7425 39.5C69.157 39.5 71.0483 38.8159 72.4166 37.4074C73.7848 36.0392 74.5091 34.1076 74.5091 31.7334C74.5091 29.8421 73.986 28.2726 72.9397 27.0252C71.8934 25.7777 70.5654 25.174 68.996 25.174C67.9497 25.174 66.8632 25.4557 65.656 26.0191ZM65.7767 38.4135C65.6962 37.1258 65.6157 33.2626 65.6157 26.9447C65.9779 26.8239 66.4608 26.7435 67.0644 26.7435C68.0302 26.7435 68.7948 27.2264 69.3582 28.2324C69.9216 29.2384 70.2033 30.4457 70.2033 31.9748C70.2033 33.8662 69.8813 35.3954 69.2375 36.6831C68.5936 37.9306 67.7888 38.5744 66.7827 38.5744C66.4608 38.494 66.1389 38.4537 65.7767 38.4135ZM36.5614 19.9024H20.4648V20.7072L21.3099 20.7877C21.9538 20.9085 22.3964 21.1499 22.6781 21.5121C22.9598 21.9145 23.1208 22.5584 23.161 23.4437C23.483 27.7897 23.483 31.8541 23.161 35.5966C23.0805 36.4819 22.9196 37.1258 22.6781 37.5282C22.3964 37.9306 21.9538 38.172 21.3099 38.2525L20.4648 38.3732V39.1781H30.8471V38.3732L29.7606 38.2928C29.4955 38.2706 29.2376 38.195 29.0025 38.0705C28.7673 37.946 28.5598 37.7752 28.3924 37.5684C28.1107 37.166 27.9498 36.5221 27.9095 35.6368C27.7888 34.0272 27.7083 32.1761 27.7083 30.1237L29.8813 30.164C31.0483 30.2042 31.8532 31.0895 32.2556 32.8602H33.0604V26.3008H32.2556C31.8532 28.0312 31.0886 28.9165 29.8813 28.9567L27.7083 28.997C27.7083 25.3753 27.7888 22.7998 27.9095 21.2304H31.0886C33.3421 21.2304 34.8713 22.6791 35.7566 25.5765L36.7224 25.2948L36.5614 19.9024ZM34.6701 32.2968C34.6701 34.3893 35.2737 36.1197 36.4407 37.4879C37.6077 38.8561 39.3381 39.5 41.5111 39.5C43.6842 39.5 45.4548 38.8159 46.7425 37.4074C48.0302 36.0392 48.6339 34.3089 48.6339 32.2163C48.6339 30.1237 48.0302 28.3934 46.8632 27.0252C45.6962 25.6569 43.9658 25.0131 41.7928 25.0131C39.6198 25.0131 37.8491 25.6972 36.5614 27.1056C35.2737 28.4738 34.6701 30.2042 34.6701 32.2968ZM43.6439 27.7093C44.1268 28.8763 44.328 30.4054 44.328 32.2565C44.328 36.5221 43.4427 38.6147 41.7123 38.6147C40.827 38.6147 40.1429 38.0111 39.66 36.8038C39.1771 35.5966 38.9759 34.0674 38.9759 32.2565C38.9759 28.0312 39.8612 25.9386 41.5916 25.9386C42.4769 25.8984 43.161 26.502 43.6439 27.7093ZM77.6479 37.4879C78.9759 38.8159 80.666 39.5 82.6781 39.5C83.9256 39.5 85.0121 39.2586 85.9779 38.7354C86.9437 38.2525 87.7083 37.6489 88.2314 36.9245L87.829 36.4416C86.9437 37.1258 85.9377 37.4477 84.7707 37.4477C83.161 37.4477 81.9135 36.9245 81.0685 35.838C80.1832 34.7515 79.7807 33.3833 79.8612 31.6127H88.4729C88.4729 29.6811 87.99 28.1117 86.984 26.8642C85.9779 25.6569 84.5695 25.0533 82.7586 25.0533C80.5051 25.0533 78.7747 25.7777 77.5272 27.1861C76.2797 28.5946 75.6761 30.3249 75.6761 32.3773C75.6761 34.4698 76.32 36.16 77.6479 37.4879ZM80.6258 27.3873C81.0685 26.4215 81.6318 25.9386 82.3964 25.9386C83.6037 25.9386 84.2073 27.4678 84.2073 30.5664L79.9417 30.6469C79.9819 29.4396 80.1832 28.3531 80.6258 27.3873ZM99.2978 25.7777C98.2113 25.2948 96.8431 25.0131 95.1932 25.0131C93.5031 25.0131 92.1751 25.4557 91.1691 26.3008C90.163 27.1459 89.6399 28.1922 89.6399 29.4396C89.6399 30.5262 89.9618 31.3712 90.5654 31.9748C91.1691 32.5785 92.1349 33.1016 93.3823 33.5443C94.5091 33.9467 95.3139 34.3491 95.7163 34.7113C96.1188 35.1137 96.3602 35.5563 96.3602 36.16C96.3602 36.7233 96.159 37.2465 95.7163 37.6489C95.3139 38.0915 94.7506 38.2928 94.0262 38.2928C92.2556 38.2928 90.9276 37.005 90.0021 34.4296L89.318 34.6308L89.4789 38.6549C90.9276 39.2183 92.5373 39.5 94.3079 39.5C96.159 39.5 97.5675 39.0976 98.6137 38.2525C99.66 37.4477 100.183 36.2807 100.183 34.832C100.183 33.8662 99.9417 33.0614 99.4186 32.4577C98.8954 31.8541 98.0504 31.331 96.8431 30.8481C95.5151 30.3652 94.5896 29.9225 94.1067 29.5201C93.6238 29.1177 93.3823 28.6348 93.3823 28.0312C93.3823 27.4276 93.5433 26.9447 93.9055 26.5423C94.2677 26.1398 94.7103 25.9789 95.2737 25.9789C96.8833 25.9789 98.0504 27.1459 98.7747 29.4396L99.4588 29.2384L99.2978 25.7777ZM60.5856 25.4155C60.0222 25.1338 59.4186 25.0131 58.7345 25.0131C58.0504 25.0131 57.3663 25.2948 56.6017 25.8581C55.8371 26.4215 55.2737 27.1861 54.831 28.2324L54.8713 25.0131L48.7546 26.2203V26.7837L49.3582 26.8239C50.1228 26.9044 50.5654 27.508 50.6459 28.5946C50.8874 31.0895 50.8874 33.7455 50.6459 36.5624C50.5654 37.6489 50.1228 38.2123 49.3582 38.333L48.7546 38.4135V39.1781H57.2858V38.4135L56.1992 38.333C55.4347 38.2525 54.992 37.6489 54.9115 36.5624C54.6701 34.2284 54.6298 31.7334 54.831 29.1579C55.0725 28.7555 55.5956 28.5141 56.4005 28.4336C57.2053 28.3531 58.1308 28.5946 59.0966 29.1579L60.5856 25.4155Z" fill="#080821"/>
</svg>
