<svg width="121" height="60" viewBox="0 0 121 60" fill="none" xmlns="http://www.w3.org/2000/svg">
<path d="M77.157 35.5676H73.625V25.8026H77.1051V26.9972C77.1051 26.9972 77.8833 25.5398 79.708 25.5398C81.6321 25.5398 82.3577 27.1171 82.3577 27.1171C82.3577 27.1171 83.2229 25.5398 85.3746 25.5398C87.4955 25.5398 88.7919 26.9229 88.7919 29.4292V35.5676H85.2599V30.1137C85.2599 29.4735 84.8844 28.8068 84.1255 28.8068C83.3379 28.8068 82.9744 29.5513 82.9744 30.3139V35.5676H79.4424V30.2176C79.4424 29.4555 79.0527 28.8068 78.2867 28.8068C77.5761 28.8068 77.157 29.4268 77.157 30.3215V35.5676Z" fill="#080821"/>
<path d="M94.2886 25.5398C91.5712 25.5398 89.75 27.8655 89.75 30.7013C89.75 33.8965 91.8478 35.8327 94.2456 35.8327C96.2024 35.8327 97.0514 34.5806 97.0514 34.5806V35.5675H100.531V25.8025H97.0514V26.7894C97.0514 26.7894 96.117 25.5398 94.2886 25.5398ZM95.174 28.7535C96.3562 28.7535 97.1612 29.7009 97.1612 30.6948C97.1612 31.6914 96.3569 32.6689 95.1805 32.6689C94.2182 32.6689 93.2063 31.8936 93.2063 30.7209C93.2063 29.59 94.0945 28.7535 95.174 28.7535Z" fill="#080821"/>
<path d="M101.996 35.5675V25.8025H105.528V35.5675H101.996Z" fill="#080821"/>
<path d="M103.761 24.9752C104.859 24.9752 105.749 24.0853 105.749 22.9876C105.749 21.8899 104.859 21 103.761 21C102.663 21 101.773 21.8899 101.773 22.9876C101.773 24.0853 102.663 24.9752 103.761 24.9752Z" fill="#080821"/>
<path d="M106.969 35.5675V21.4915H110.501V35.5675H106.969Z" fill="#080821"/>
<path d="M10.5 25.8545H14.2524L16.4373 31.4445L18.6506 25.8545H22.3042L16.8028 39.0878H13.1261L14.632 35.5812L10.5 25.8545Z" fill="#080821"/>
<path d="M26.1094 25.6321C23.2901 25.6321 21.5078 28.1606 21.5078 30.6786C21.5078 33.512 23.4619 35.7585 26.056 35.7585C27.991 35.7585 28.7207 34.5795 28.7207 34.5795V35.4979H31.9934V25.8547H28.7207V26.7313C28.7207 26.7313 27.9066 25.6321 26.1094 25.6321ZM26.8056 28.731C28.1064 28.731 28.7777 29.7604 28.7777 30.6892C28.7777 31.6893 28.0585 32.6708 26.8056 32.6708C25.7671 32.6708 24.8287 31.8221 24.8287 30.7317C24.8287 29.6259 25.5835 28.731 26.8056 28.731Z" fill="#080821"/>
<path d="M33.1211 35.4977V21.5964H36.5442V26.7646C36.5442 26.7646 37.3573 25.6331 39.0602 25.6331C41.1432 25.6331 42.3636 27.1851 42.3636 29.4029V35.4977H38.9655V30.2378C38.9655 29.4872 38.608 28.7622 37.7982 28.7622C36.9738 28.7622 36.5442 29.4982 36.5442 30.2378V35.4977H33.1211Z" fill="#080821"/>
<path d="M48.202 25.6331C44.9733 25.6331 43.0508 28.0881 43.0508 30.7185C43.0508 33.7119 45.3785 35.7583 48.2142 35.7583C50.9626 35.7583 53.3676 33.8048 53.3676 30.7687C53.3676 27.4467 50.8495 25.6331 48.202 25.6331ZM48.2328 28.7592C49.3733 28.7592 50.1624 29.7091 50.1624 30.7221C50.1624 31.5861 49.4271 32.6517 48.2328 32.6517C47.1385 32.6517 46.3172 31.7739 46.3172 30.7126C46.3172 29.6903 47 28.7592 48.2328 28.7592Z" fill="#080821"/>
<path d="M59.0691 25.6331C55.8405 25.6331 53.918 28.0881 53.918 30.7185C53.918 33.7119 56.2457 35.7583 59.0814 35.7583C61.8298 35.7583 64.2348 33.8048 64.2348 30.7687C64.2348 27.4467 61.7167 25.6331 59.0691 25.6331ZM59.1 28.7592C60.2404 28.7592 61.0296 29.7091 61.0296 30.7221C61.0296 31.5861 60.2943 32.6517 59.1 32.6517C58.0057 32.6517 57.1844 31.7739 57.1844 30.7126C57.1844 29.6903 57.8672 28.7592 59.1 28.7592Z" fill="#080821"/>
<path d="M66.9372 35.7024C68.1925 35.7024 69.2102 34.6847 69.2102 33.4293C69.2102 32.1739 68.1925 31.1562 66.9372 31.1562C65.6818 31.1562 64.6641 32.1739 64.6641 33.4293C64.6641 34.6847 65.6818 35.7024 66.9372 35.7024Z" fill="#080821"/>
<path d="M69.9554 30.3213H65.8633L69.4951 21.5964H73.572L69.9554 30.3213Z" fill="#080821"/>
</svg>
