<svg width="120" height="60" viewBox="0 0 120 60" fill="none" xmlns="http://www.w3.org/2000/svg">
<path fill-rule="evenodd" clip-rule="evenodd" d="M75.8354 24.4581H79.6134C79.6763 24.459 79.7377 24.4775 79.7907 24.5114C79.8438 24.5453 79.8864 24.5934 79.9137 24.6503C79.9411 24.7072 79.9521 24.7705 79.9455 24.8333C79.939 24.8961 79.9152 24.9559 79.8767 25.0058C79.6237 25.3346 79.1478 25.9603 78.9098 26.2732C78.8769 26.3116 78.8363 26.3426 78.7907 26.3641C78.745 26.3857 78.6953 26.3973 78.6449 26.3982H75.8639C75.8023 26.3994 75.7436 26.4246 75.7001 26.4684C75.6566 26.5122 75.6317 26.5712 75.6307 26.633V35.05C75.6317 35.1118 75.6566 35.1709 75.7001 35.2147C75.7436 35.2585 75.8023 35.2836 75.8639 35.2849H76.7689C76.8597 35.2855 76.9466 35.3219 77.0108 35.3862C77.0751 35.4506 77.1116 35.5377 77.1124 35.6288V36.8802C77.1116 36.9713 77.0751 37.0584 77.0108 37.1227C76.9466 37.1871 76.8597 37.2235 76.7689 37.2241H71.5005C71.4368 37.2253 71.3741 37.2082 71.3198 37.1747C71.2655 37.1413 71.2219 37.093 71.194 37.0356C71.1662 36.9781 71.1553 36.9138 71.1627 36.8503C71.17 36.7868 71.1953 36.7267 71.2356 36.6772C71.382 36.489 71.6055 36.2065 71.8255 35.9284L71.8258 35.928L71.8259 35.9279L71.8262 35.9275C72.0267 35.6741 72.2242 35.4244 72.358 35.253C72.3993 35.1993 72.4211 35.133 72.4198 35.0651V26.6482C72.4186 26.5856 72.393 26.5261 72.3485 26.4824C72.304 26.4386 72.2442 26.4141 72.1819 26.4141H69.8253C69.7812 26.4139 69.7378 26.4254 69.6995 26.4473C69.6613 26.4692 69.6294 26.5009 69.6071 26.5391C69.0757 27.7229 64.61 38.6738 64.61 38.6738C63.2116 41.3494 61.6918 41.5556 60.1561 41.4935C58.91 41.4465 58.0438 40.7269 57.5267 40.1943C57.475 40.1302 57.4468 40.0503 57.4468 39.9678C57.4468 39.8854 57.475 39.8054 57.5267 39.7413C57.6118 39.6536 57.8211 39.3966 58.0451 39.1215C58.3662 38.7273 58.7174 38.296 58.7768 38.2725C58.8768 38.2298 58.9869 38.2168 59.094 38.2351C59.402 38.2955 59.5633 38.5745 59.721 38.847C59.8586 39.0849 59.9934 39.318 60.2204 39.3966C60.9232 39.6402 62.201 38.2726 62.3906 37.5099C62.5528 37.0935 62.5545 36.6314 62.3954 36.2139C62.2391 35.8859 58.093 26.5391 58.093 26.5391C58.0742 26.4969 58.0435 26.4612 58.0048 26.4362C57.9661 26.4112 57.9209 26.398 57.8749 26.3982H56.7525C56.6951 26.3954 56.6393 26.3782 56.5903 26.3481C56.5412 26.3181 56.5005 26.2762 56.4717 26.2262C56.3623 26.0073 55.9728 25.2717 55.8015 24.9589C55.7743 24.9072 55.7609 24.8494 55.7623 24.7911C55.7638 24.7327 55.7801 24.6756 55.8098 24.6254C55.8395 24.5752 55.8815 24.5334 55.9318 24.5041C55.9822 24.4749 56.0392 24.459 56.0973 24.4581H61.9282C61.9723 24.4568 62.0163 24.4642 62.0575 24.48C62.0988 24.4959 62.1365 24.5198 62.1684 24.5504C62.2004 24.581 62.226 24.6176 62.2437 24.6583C62.2614 24.6989 62.2709 24.7426 62.2716 24.7869V26.0559C62.2706 26.1469 62.234 26.2339 62.1698 26.2982C62.1056 26.3625 62.0189 26.399 61.9282 26.3998H61.4451C61.4063 26.4002 61.3682 26.4101 61.334 26.4286C61.2999 26.4472 61.2708 26.4738 61.2493 26.5062C61.2278 26.5386 61.2145 26.5759 61.2106 26.6146C61.2067 26.6534 61.2123 26.6925 61.227 26.7286C61.227 26.7286 63.0196 30.861 63.7525 32.5328C63.771 32.5754 63.8015 32.6117 63.8403 32.6371C63.879 32.6626 63.9243 32.6762 63.9706 32.6762C64.017 32.6762 64.0623 32.6626 64.101 32.6371C64.1398 32.6117 64.1703 32.5754 64.1888 32.5328C64.9058 30.8746 66.6826 26.7286 66.6826 26.7286C66.6972 26.6925 66.7028 26.6534 66.6989 26.6146C66.695 26.5759 66.6817 26.5386 66.6602 26.5062C66.6387 26.4738 66.6096 26.4472 66.5755 26.4286C66.5414 26.4101 66.5033 26.4002 66.4645 26.3998H65.7728C65.6821 26.399 65.5953 26.3625 65.5311 26.2982C65.4669 26.2339 65.4304 26.1469 65.4293 26.0559V24.7869C65.4301 24.7426 65.4395 24.6989 65.4573 24.6583C65.475 24.6176 65.5005 24.581 65.5325 24.5504C65.5645 24.5198 65.6022 24.4959 65.6434 24.48C65.6847 24.4642 65.7287 24.4568 65.7728 24.4581L72.2199 24.4422C72.2814 24.441 72.34 24.4159 72.3835 24.3723C72.427 24.3287 72.4519 24.2699 72.4531 24.2082V23.7385C72.4531 21.9863 72.8117 21.0183 73.5287 20.1418C74.2458 19.2653 75.196 18.8115 76.646 18.8115C79.0312 18.8115 80.5121 19.8114 80.5438 22.1551C80.5451 22.2404 80.5132 22.3228 80.4548 22.3848C80.3964 22.4468 80.3162 22.4835 80.2313 22.487H78.6726C78.5876 22.4814 78.5075 22.445 78.4472 22.3845C78.3869 22.324 78.3506 22.2436 78.345 22.1583C78.2982 21.4545 78.1269 20.5311 77.0355 20.5311C76.0693 20.5311 75.6014 21.4386 75.6014 22.3461V24.2193C75.6013 24.282 75.6259 24.3421 75.6696 24.3868C75.7134 24.4315 75.7729 24.4571 75.8354 24.4581ZM96.7713 21.2666C96.7713 22.2691 95.9616 23.0817 94.9628 23.0817C93.964 23.0817 93.1543 22.2691 93.1543 21.2666C93.1543 20.2642 93.964 19.4516 94.9628 19.4516C95.9616 19.4516 96.7713 20.2642 96.7713 21.2666ZM44.5326 24.3172H39.9955C39.7973 24.3177 39.6074 24.3969 39.4673 24.5376C39.3272 24.6783 39.2485 24.869 39.2483 25.0679V26.0853C39.2522 26.2154 39.3065 26.3388 39.3997 26.4294C39.4928 26.5199 39.6175 26.5704 39.7472 26.5701H40.4952C40.5062 26.5702 40.5171 26.5729 40.5269 26.578C40.5367 26.5831 40.5451 26.5905 40.5515 26.5996C40.5596 26.611 40.5649 26.6241 40.5671 26.6379C40.5693 26.6517 40.5683 26.6659 40.5642 26.6792L38.7866 32.0265C38.7785 32.0427 38.7659 32.0563 38.7502 32.0655C38.7346 32.0746 38.7167 32.0791 38.6986 32.0782C38.6829 32.0792 38.6675 32.0745 38.655 32.065C38.6425 32.0555 38.6337 32.0419 38.6304 32.0265L35.9771 24.7933V24.7893C35.9416 24.7019 35.8823 24.6262 35.806 24.5709C35.7297 24.5156 35.6395 24.4829 35.5456 24.4764H33.9433C33.8492 24.4826 33.7586 24.5151 33.682 24.5705C33.6054 24.6258 33.5459 24.7016 33.5102 24.7893V24.7933L30.8522 32.0265C30.8494 32.0428 30.8407 32.0575 30.8279 32.0679C30.8151 32.0783 30.7989 32.0836 30.7824 32.083C30.7643 32.0839 30.7464 32.0794 30.7308 32.0702C30.7151 32.0611 30.7025 32.0475 30.6944 32.0313L28.9176 26.68C28.9135 26.6666 28.9127 26.6523 28.9151 26.6385C28.9176 26.6246 28.9234 26.6116 28.9319 26.6004C28.938 26.5912 28.9462 26.5837 28.9559 26.5786C28.9656 26.5734 28.9764 26.5708 28.9874 26.5709H29.7362C29.8658 26.5712 29.9904 26.5207 30.0834 26.4301C30.1765 26.3396 30.2306 26.2161 30.2343 26.0861V25.0679C30.2343 24.869 30.1556 24.6782 30.0155 24.5374C29.8754 24.3966 29.6854 24.3174 29.4871 24.3172H24.95C24.8709 24.3172 24.793 24.3361 24.7227 24.3726C24.6525 24.409 24.592 24.4618 24.5463 24.5266C24.5025 24.5859 24.4732 24.6547 24.4608 24.7274C24.4484 24.8002 24.4532 24.8748 24.4749 24.9453C24.5119 25.0522 24.5526 25.1721 24.5954 25.2979L24.5957 25.2988C24.627 25.391 24.6594 25.4864 24.6922 25.5822C24.726 25.6809 24.759 25.7782 24.791 25.8731C24.8327 25.9963 24.873 26.1154 24.9119 26.2278C24.9436 26.3255 25.0049 26.4108 25.0872 26.4718C25.1696 26.5327 25.2689 26.5663 25.3712 26.5678H26.1351C26.1545 26.5675 26.1735 26.5732 26.1895 26.5842C26.2056 26.5952 26.2178 26.6108 26.2247 26.6291L29.7441 37.0418C29.7753 37.1398 29.8364 37.2255 29.9189 37.2867C30.0013 37.3478 30.1009 37.3814 30.2034 37.3825H31.2948C31.3943 37.3821 31.4912 37.3514 31.5729 37.2946C31.6546 37.2378 31.7172 37.1574 31.7525 37.0641C32.7242 34.2484 34.5779 28.8804 34.6509 28.6973C34.6561 28.6775 34.6678 28.6601 34.684 28.6477C34.7003 28.6353 34.7201 28.6286 34.7405 28.6288C34.7599 28.6283 34.7789 28.6341 34.7947 28.6453C34.8106 28.6565 34.8224 28.6725 34.8285 28.6909C34.9031 28.8804 36.7576 34.2484 37.7277 37.0609C37.7623 37.1552 37.8247 37.2368 37.9066 37.2946C37.9885 37.3525 38.086 37.384 38.1862 37.3849H39.2776C39.3803 37.3836 39.48 37.35 39.5626 37.2887C39.6451 37.2274 39.7064 37.1416 39.7377 37.0434L43.2563 26.6354C43.2904 26.5741 43.3293 26.5741 43.3467 26.5741H44.1098C44.2114 26.573 44.3102 26.54 44.3923 26.4797C44.4743 26.4195 44.5356 26.3351 44.5675 26.2382C44.6373 26.036 44.7134 25.8123 44.7872 25.5926C44.861 25.3728 44.9419 25.1364 45.0053 24.9557C45.0278 24.8849 45.0331 24.8098 45.0209 24.7365C45.0086 24.6633 44.979 24.594 44.9347 24.5346C44.8901 24.4685 44.8302 24.4142 44.7602 24.3764C44.6902 24.3385 44.6121 24.3182 44.5326 24.3172ZM97.6438 35.2849H96.8173C96.7557 35.2836 96.697 35.2585 96.6535 35.2147C96.61 35.1709 96.5851 35.1118 96.5841 35.05V24.7869C96.5834 24.7426 96.5739 24.6989 96.5562 24.6583C96.5384 24.6176 96.5129 24.581 96.4809 24.5504C96.449 24.5198 96.4112 24.4959 96.37 24.48C96.3287 24.4642 96.2848 24.4568 96.2406 24.4581H93.8404C93.7899 24.4589 93.7402 24.4705 93.6945 24.4921C93.6489 24.5136 93.6083 24.5446 93.5755 24.5831L92.5776 25.8346C92.5392 25.8834 92.5149 25.9419 92.5075 26.0037C92.5 26.0655 92.5097 26.1282 92.5355 26.1848C92.5612 26.2414 92.602 26.2898 92.6534 26.3246C92.7048 26.3595 92.7647 26.3794 92.8267 26.3823H93.1384C93.2005 26.3855 93.2591 26.4117 93.3031 26.4558C93.347 26.4999 93.3731 26.5588 93.3764 26.6211V35.0182C93.3731 35.0853 93.3517 35.1502 93.3145 35.206C93.1696 35.394 92.9322 35.6935 92.7009 35.9854L92.7004 35.986C92.5077 36.229 92.3193 36.4668 92.1921 36.6302C92.1495 36.6789 92.1217 36.7388 92.112 36.8029C92.1023 36.8669 92.111 36.9324 92.1372 36.9916C92.1634 37.0508 92.206 37.1013 92.2599 37.137C92.3137 37.1727 92.3766 37.1921 92.4412 37.1931H96.6459C96.6901 37.1964 96.7344 37.1897 96.7757 37.1735C96.8169 37.1572 96.8539 37.1318 96.8839 37.0991L97.8659 35.8636C98.0801 35.6128 97.9246 35.2849 97.6438 35.2849ZM110.878 25.5217C110.878 25.3497 110.785 25.1778 110.551 25.1778H110.13V26.2883H110.289V25.8815H110.429L110.71 26.2883H110.897L110.601 25.8664C110.801 25.8505 110.878 25.6785 110.878 25.5217ZM110.286 25.7255V25.3187H110.567C110.592 25.3197 110.616 25.3259 110.638 25.3369C110.661 25.3479 110.681 25.3634 110.697 25.3825C110.713 25.4015 110.725 25.4238 110.732 25.4477C110.739 25.4717 110.741 25.4969 110.738 25.5217C110.741 25.5478 110.738 25.5742 110.73 25.5992C110.722 25.6241 110.708 25.647 110.691 25.6663C110.673 25.6856 110.651 25.7009 110.627 25.7111C110.603 25.7213 110.577 25.7262 110.551 25.7255H110.286ZM109.944 24.932C110.101 24.827 110.285 24.771 110.473 24.771C110.726 24.771 110.968 24.8716 111.146 25.0508C111.325 25.23 111.425 25.4729 111.425 25.7263C111.425 25.9152 111.369 26.0999 111.265 26.257C111.16 26.4141 111.011 26.5366 110.837 26.6089C110.663 26.6812 110.472 26.7001 110.287 26.6632C110.103 26.6264 109.933 26.5354 109.8 26.4018C109.667 26.2682 109.576 26.098 109.54 25.9127C109.503 25.7274 109.522 25.5353 109.594 25.3607C109.666 25.1862 109.788 25.037 109.944 24.932ZM110.162 26.4787C110.261 26.5193 110.366 26.5398 110.473 26.5391C110.58 26.5391 110.685 26.5181 110.783 26.4772C110.882 26.4363 110.971 26.3763 111.046 26.3008C111.122 26.2252 111.181 26.1356 111.222 26.0368C111.263 25.9381 111.284 25.8323 111.284 25.7255C111.284 25.6187 111.263 25.5129 111.222 25.4141C111.181 25.3154 111.122 25.2257 111.046 25.1502C110.971 25.0746 110.882 25.0147 110.783 24.9738C110.685 24.9329 110.58 24.9119 110.473 24.9119C110.366 24.9095 110.259 24.9289 110.16 24.969C110.061 25.009 109.97 25.0688 109.895 25.1449C109.819 25.2209 109.759 25.3115 109.719 25.4113C109.679 25.5111 109.66 25.618 109.662 25.7255C109.662 25.8325 109.682 25.9387 109.723 26.0377C109.763 26.1368 109.823 26.2268 109.898 26.3025C109.974 26.3781 110.063 26.438 110.162 26.4787ZM56.3781 35.3318C55.6769 35.3629 55.3334 35.0341 55.3334 34.2364V28.4791C55.3334 25.9603 53.229 24.3642 50.8598 24.3642C47.1809 24.3642 45.8562 26.1156 45.7039 28.0723C45.7013 28.1189 45.7083 28.1656 45.7244 28.2094C45.7405 28.2532 45.7654 28.2932 45.7975 28.3269C45.8296 28.3606 45.8683 28.3874 45.9112 28.4055C45.954 28.4236 46.0001 28.4327 46.0466 28.4322H47.8551C47.9386 28.4299 48.0182 28.3966 48.0787 28.3389C48.1392 28.2811 48.1763 28.2029 48.1827 28.1193C48.2763 27.1019 48.9616 26.3512 50.0999 26.3512C51.3626 26.3512 52.1265 26.9929 52.1265 28.4473V29.6995H51.4713C49.2115 29.6995 47.6528 29.9965 46.6082 30.6548C45.5635 31.3132 45.0337 32.5328 45.0337 33.9562C45.0337 35.0046 45.3922 35.8668 46.1093 36.553C46.8263 37.2392 47.6679 37.5394 48.7752 37.5394C49.4347 37.5402 50.0858 37.3902 50.6789 37.1007C51.2632 36.8394 51.8046 36.4905 52.2843 36.0658C52.3111 36.0404 52.3433 36.0216 52.3785 36.0109C52.4137 36.0001 52.4508 35.9977 52.4871 36.0038C52.5234 36.0099 52.5578 36.0243 52.5876 36.046C52.6173 36.0677 52.6417 36.096 52.6587 36.1287C53.1735 37.0362 53.7343 37.3332 54.8099 37.3332C55.6272 37.3332 56.0875 36.6848 56.4647 36.1533C56.5337 36.0561 56.6 35.9627 56.6652 35.8779C56.8143 35.6598 56.643 35.3159 56.3781 35.3318ZM52.1376 34.4084H52.1225C52.1225 34.4776 52.0284 34.5685 51.973 34.6219L51.973 34.622L51.9728 34.6222C51.9646 34.6301 51.9572 34.6372 51.9512 34.6432C51.6563 34.8916 51.3314 35.1018 50.9843 35.2689C50.6692 35.4035 50.3287 35.4676 49.9864 35.4568C49.4883 35.4568 48.9894 35.2689 48.6618 34.9091C48.3297 34.5415 48.1511 34.0598 48.1629 33.5637C48.1629 32.8122 48.4437 32.3123 49.0045 31.9365C49.5653 31.5608 50.4854 31.3896 51.5919 31.3896H52.1368L52.1376 34.4084ZM89.818 34.2364C89.818 35.0341 90.1614 35.3629 90.8626 35.3318C91.1275 35.3159 91.2989 35.6598 91.1442 35.8763C91.0795 35.9604 91.0138 36.053 90.9453 36.1494L90.9449 36.15L90.9442 36.151L90.9439 36.1514L90.9438 36.1516L90.9437 36.1518C90.5665 36.6832 90.1062 37.3316 89.2889 37.3316C88.2133 37.3316 87.6525 37.0346 87.1377 36.1271C87.1207 36.0944 87.0963 36.0661 87.0666 36.0444C87.0368 36.0227 87.0024 36.0083 86.9661 36.0022C86.9299 35.9961 86.8927 35.9985 86.8575 36.0093C86.8223 36.0201 86.7901 36.0389 86.7634 36.0642C86.2836 36.4889 85.7422 36.8378 85.1579 37.0991C84.5648 37.3886 83.9137 37.5386 83.2542 37.5378C82.1469 37.5378 81.3053 37.2376 80.5883 36.5514C79.8712 35.8652 79.5127 35.003 79.5127 33.9546C79.5127 32.5312 80.0481 31.3132 81.0928 30.6548C82.1374 29.9965 83.696 29.6995 85.9567 29.6995H86.6111V28.4473C86.6111 26.9929 85.8472 26.3512 84.5844 26.3512C83.447 26.3512 82.7609 27.1019 82.6673 28.1193C82.6608 28.2029 82.6238 28.2811 82.5633 28.3389C82.5028 28.3966 82.4231 28.4299 82.3397 28.4322H80.5312C80.4847 28.4327 80.4386 28.4236 80.3957 28.4055C80.3529 28.3874 80.3142 28.3606 80.282 28.3269C80.2499 28.2932 80.225 28.2532 80.2089 28.2094C80.1928 28.1656 80.1859 28.1189 80.1885 28.0723C80.3408 26.1156 81.6654 24.3642 85.3443 24.3642C87.7136 24.3642 89.818 25.9603 89.818 28.4791V34.2364ZM86.6071 34.4084H86.623V31.3888H86.0772C84.9699 31.3888 84.0498 31.5608 83.489 31.9365C82.9282 32.3123 82.6474 32.8122 82.6474 33.5637C82.6357 34.0598 82.8143 34.5415 83.1463 34.9091C83.4739 35.2689 83.9729 35.4568 84.4718 35.4568C84.8138 35.4676 85.154 35.4035 85.4688 35.2689C85.816 35.1018 86.1408 34.8916 86.4358 34.6432L86.4471 34.632L86.4576 34.6219C86.5129 34.5685 86.6071 34.4776 86.6071 34.4084ZM107.957 24.4135C107.79 24.3244 107.369 24.2838 107.005 24.2838C106.414 24.2838 105.949 24.3634 105.542 24.5385L105.51 24.5529C105.356 24.6221 105.21 24.7063 105.073 24.8044C104.561 25.1238 104.102 25.5213 103.712 25.9826C103.712 25.9826 103.536 26.1148 103.506 25.8927V24.7511C103.505 24.6618 103.47 24.5764 103.407 24.5133C103.344 24.4502 103.259 24.4144 103.17 24.4135H100.755C100.707 24.4135 100.66 24.4241 100.617 24.4448C100.574 24.4655 100.536 24.4956 100.506 24.533C100.506 24.533 99.7489 25.4843 99.4998 25.8067C99.3523 25.9962 99.4419 26.356 99.7647 26.356H100.066C100.129 26.357 100.189 26.3825 100.233 26.4271C100.278 26.4716 100.303 26.5318 100.304 26.5948V35.0333C100.304 35.1 100.285 35.1654 100.249 35.2212C100.011 35.5141 99.407 36.2776 99.1119 36.6541C99.0736 36.7037 99.0498 36.7629 99.043 36.8253C99.0362 36.8877 99.0468 36.9507 99.0736 37.0074C99.1004 37.0641 99.1424 37.1122 99.1948 37.1463C99.2472 37.1805 99.308 37.1995 99.3705 37.201H104.578C104.667 37.201 104.753 37.1655 104.816 37.1021C104.879 37.0388 104.914 36.953 104.914 36.8635V35.6089C104.914 35.5193 104.879 35.4335 104.816 35.3702C104.753 35.3069 104.667 35.2713 104.578 35.2713H103.751C103.688 35.2713 103.628 35.2461 103.583 35.2014C103.538 35.1566 103.513 35.0958 103.513 35.0325V30.1215C103.608 27.785 104.997 27.0725 105.664 26.8639L105.76 26.8352L105.786 26.8289C105.967 26.7814 106.154 26.7566 106.341 26.7548C107.017 26.7548 107.331 26.8408 107.676 26.9351C107.736 26.9516 107.797 26.9683 107.861 26.9849C108.04 27.0311 108.197 26.8336 108.197 26.6474V24.7368C108.193 24.5895 108.074 24.4756 107.957 24.4135ZM22.764 28.5078L21.855 25.0647C21.8401 25.0072 21.8103 24.9548 21.7684 24.9128C21.7266 24.8708 21.6743 24.8408 21.617 24.8259L18.1864 23.9136C18.1306 23.8991 18.0721 23.8994 18.0164 23.9145C17.9608 23.9296 17.9101 23.9589 17.8691 23.9996L15.5688 26.3082L20.3796 31.1365L22.6799 28.8278C22.7204 28.7864 22.7494 28.7351 22.7642 28.679C22.7789 28.6229 22.7788 28.5639 22.764 28.5078ZM9.28215 37.209L8.37235 33.7667C8.35749 33.7102 8.35766 33.6508 8.37283 33.5943C8.388 33.5379 8.41764 33.4865 8.45881 33.4451L10.7591 31.1365L15.5691 35.9655L13.2688 38.2741C13.2279 38.3149 13.1772 38.3444 13.1216 38.3596C13.0659 38.3748 13.0073 38.3752 12.9515 38.3609L9.52011 37.4478C9.46282 37.4329 9.41054 37.403 9.3687 37.361C9.32685 37.319 9.29697 37.2665 9.28215 37.209ZM12.9482 23.9136L9.51757 24.8267C9.46028 24.8416 9.408 24.8716 9.36615 24.9136C9.32431 24.9556 9.29443 25.0081 9.27961 25.0656L8.37218 28.5062C8.35792 28.5623 8.35838 28.6211 8.37354 28.6769C8.38869 28.7327 8.41802 28.7836 8.45864 28.8247L10.7589 31.1333L15.5689 26.3059L13.2686 23.9972C13.2271 23.9565 13.1757 23.9273 13.1195 23.9126C13.0633 23.898 13.0042 23.8983 12.9482 23.9136ZM20.3796 31.1373L22.6458 33.4125C22.6968 33.4639 22.7335 33.5279 22.7521 33.598C22.7708 33.6682 22.7708 33.742 22.7521 33.8121L21.8661 37.1644C21.8473 37.2351 21.8103 37.2995 21.7588 37.3513C21.7072 37.403 21.643 37.4401 21.5726 37.459L18.2324 38.3474C18.1627 38.3657 18.0894 38.3655 18.0199 38.3466C17.9503 38.3278 17.8868 38.291 17.8358 38.2399L15.5688 35.9639L20.3796 31.1373ZM15.568 26.3098L10.7588 31.1357L15.5688 35.9639L20.3795 31.1373L15.568 26.3098Z" fill="#080821"/>
</svg>
