<svg width="121" height="60" viewBox="0 0 121 60" fill="none" xmlns="http://www.w3.org/2000/svg">
<path fill-rule="evenodd" clip-rule="evenodd" d="M16.5 20H20.8798V38.6429H16.5V20ZM27.5261 20H31.8098C31.8098 24.0406 30.1962 27.7992 27.334 30.5806L33.385 38.6429H27.9871L21.4175 29.8853L23.1079 28.6449C25.9125 26.5776 27.5261 23.4392 27.5261 20ZM38.7829 20H34.6528V38.6429H38.7829V20ZM70.9397 27.1978C71.9386 25.8635 73.437 25.3937 75.0122 25.3937C78.1817 25.3937 80.6213 27.4421 80.6213 30.4491V38.6617H76.6834V31.8586C76.6834 29.9792 75.6845 28.9644 73.9556 28.9644C72.342 28.9644 70.9974 29.9229 70.9974 31.8774V38.6429H67.021V25.7507H70.9397V27.1978ZM51.2691 25.7507V26.5777C50.1549 25.8259 48.8103 25.3937 47.3503 25.3937C43.5084 25.3937 40.3965 28.4382 40.3965 32.1968C40.3965 35.9555 43.5084 39 47.3503 39C48.8103 39 50.1549 38.5678 51.2691 37.816V38.6429H55.207V25.7507H51.2691ZM47.6769 35.5045C45.6983 35.5045 44.1039 34.0198 44.1039 32.1968C44.1039 30.3739 45.6983 28.8892 47.6769 28.8892C49.6555 28.8892 51.2499 30.3739 51.2499 32.1968C51.2499 34.0198 49.6555 35.5045 47.6769 35.5045ZM61.3157 25.7507V27.4233C62.1033 26.4273 63.5825 25.7507 65.1769 25.7507V29.5094H65.1384C63.5825 29.5094 61.3349 30.5994 61.3349 32.6291V38.6429H57.2817V25.7507H61.3157ZM99.8694 26.1266C99.8694 25.9387 99.735 25.8259 99.5237 25.8259H99.1587V26.8032H99.3316V26.4461H99.5237L99.6774 26.8032H99.8694L99.6966 26.4085C99.8118 26.3521 99.8694 26.2582 99.8694 26.1266ZM99.5237 26.277H99.3316V25.9763H99.5237C99.6389 25.9763 99.6966 26.0326 99.6966 26.1266C99.6966 26.2206 99.6581 26.277 99.5237 26.277ZM98.5247 26.3333C98.5247 25.8259 98.9473 25.4125 99.4659 25.4125C99.9846 25.4125 100.407 25.8259 100.407 26.3333C100.407 26.8407 99.9846 27.2542 99.4659 27.2542C98.9473 27.2542 98.5439 26.8407 98.5247 26.3333ZM98.7168 26.3333C98.7168 26.7468 99.0433 27.0851 99.4659 27.0851C99.8693 27.0851 100.215 26.7468 100.215 26.3333C100.215 25.9199 99.8885 25.5816 99.4659 25.5816C99.0625 25.5816 98.7168 25.9199 98.7168 26.3333ZM92.8772 25.7507V26.5777C91.7631 25.8259 90.4184 25.3937 88.9585 25.3937C85.1166 25.3937 82.0046 28.4382 82.0046 32.1968C82.0046 35.9555 85.1166 39 88.9585 39C90.4184 39 91.7631 38.5678 92.8772 37.816V38.6429H96.8152V25.7507H92.8772ZM89.285 35.5045C87.3065 35.5045 85.7121 34.0198 85.7121 32.1968C85.7121 30.3739 87.3065 28.8892 89.285 28.8892C91.2636 28.8892 92.858 30.3739 92.858 32.1968C92.8772 34.0198 91.2636 35.5045 89.285 35.5045ZM98.5439 36.5005C98.5439 35.1662 99.6581 34.0762 101.022 34.0762C102.386 34.0762 103.5 35.1474 103.5 36.5005C103.5 37.8348 102.386 38.9248 101.022 38.9248C99.6581 38.9248 98.5439 37.8348 98.5439 36.5005Z" fill="#080821"/>
</svg>
