<svg width="120" height="60" viewBox="0 0 120 60" fill="none" xmlns="http://www.w3.org/2000/svg">
<path d="M66.3199 57.9876C87.7825 58.4581 105.201 45.4526 105.201 29.9938C105.201 14.5351 87.7937 2.00001 66.3199 2.00001C44.846 1.98881 27.3264 12.3955 26.6543 29.9826C26.0606 45.4414 44.9693 57.5171 66.3199 57.9876Z" fill="#080821"/>
<path d="M66.3199 57.9876C87.7825 58.4581 105.201 45.4526 105.201 29.9938C105.201 14.5351 87.7937 2.00001 66.3199 2.00001C44.846 1.98881 27.3264 12.3955 26.6543 29.9826C26.0606 45.4414 44.9693 57.5171 66.3199 57.9876Z" fill="#080821"/>
<path d="M66.3199 57.9876C87.7825 58.4581 105.201 45.4526 105.201 29.9938C105.201 14.5351 87.7937 2.00001 66.3199 2.00001C44.846 1.98881 27.3264 12.3955 26.6543 29.9826C26.0606 45.4414 44.9693 57.5171 66.3199 57.9876Z" fill="#080821"/>
<path d="M66.3199 57.9876C87.7825 58.4581 105.201 45.4526 105.201 29.9938C105.201 14.5351 87.7937 2.00001 66.3199 2.00001C44.846 1.98881 27.3264 12.3955 26.6543 29.9826C26.0606 45.4414 44.9693 57.5171 66.3199 57.9876Z" fill="white"/>
<path d="M66.3198 57.9876C87.7825 58.4581 105.201 45.4526 105.201 29.9938C105.201 14.5351 87.7937 2.00001 66.3198 2.00001C44.846 1.98881 27.3263 12.3955 26.6542 29.9826C26.0605 45.4414 44.9692 57.5171 66.3198 57.9876Z" stroke="#080821" stroke-width="0.626724"/>
<path d="M89.9794 48.2306C90.1698 48.2306 90.2594 48.1522 90.2594 47.9954C90.2594 47.8386 90.1698 47.7602 90.0018 47.7602H89.5425V48.2418H89.9794V48.2306ZM89.1616 47.4353H90.0466C90.4386 47.4353 90.6291 47.6033 90.6291 47.9506C90.6291 48.1746 90.5282 48.3203 90.3602 48.3763C90.5282 48.4323 90.573 48.5555 90.5843 48.7683L90.5955 48.9812C90.5955 49.082 90.5955 49.1492 90.6627 49.1828V49.2388H90.2594C90.237 49.1828 90.2146 49.1044 90.2146 49.0148V48.8244C90.2034 48.6115 90.1474 48.5331 89.9457 48.5331H89.5537V49.2388H89.1616V47.4353Z" fill="#080821"/>
<path d="M75.5049 15.5768C75.5273 16.6298 77.4541 17.918 78.6639 17.638C79.5824 17.4251 79.8624 16.6298 79.8064 15.9016C79.7504 15.0839 78.395 14.4118 77.7005 13.9413C76.6923 13.2692 75.7178 12.0818 76.0314 10.8271C76.4795 9.00121 77.3084 8.45231 78.8879 8.11625C79.2687 8.02664 79.8848 8.12745 80.3105 8.17226C80.5682 8.19467 80.9378 8.3963 81.4643 8.64275C81.7892 8.78837 82.5397 9.38208 82.5397 9.38208L81.6659 10.9056C81.2515 10.0206 80.7698 9.19164 79.9185 8.9452C79.4032 8.79957 77.6669 9.18044 78.2494 10.7599L80.669 12.7539C81.3635 13.3028 82.0132 13.8629 82.0132 14.7814C82.0132 15.7336 81.4643 18.0524 78.8095 18.4109C78.115 18.5005 77.4877 18.4333 76.6363 18.1757C76.4347 18.1196 74.6312 17.0667 74.3848 16.865L75.5049 15.5768Z" fill="#080821"/>
<path d="M67.6418 32.3574L69.1317 25.7146C69.3333 24.5496 69.4565 23.9559 69.2101 23.855C68.9749 23.7542 68.3028 24.5496 68.3028 24.5496C68.3028 24.5496 68.818 22.5668 70.2407 22.3316C70.2407 22.3316 71.316 22.0515 71.9321 22.6676C72.5034 23.2389 72.3578 24.2247 72.3578 24.2247C72.8395 23.1941 75.1807 22.634 75.1807 22.634L74.0941 24.7512C74.0941 24.7512 73.9261 24.4824 73.6124 24.4487C73.0635 24.3927 72.8059 24.74 72.7051 24.8296C72.369 25.1209 72.033 25.2553 71.4841 26.8684C70.8344 28.9408 70.2631 32.3686 70.2631 32.3686H67.6418V32.3574Z" fill="#080821"/>
<path d="M65.311 38.4178C66.5992 39.2131 67.1369 39.4596 67.0585 41.5991C67.0137 42.8314 65.7031 45.9903 62.589 46.5392C61.6704 46.7072 59.4973 46.4496 58.3547 46.1135C58.0746 46.0351 57.3801 45.6991 56.6184 46.1471L57.2009 42.2713C57.2121 42.9994 58.0186 44.5117 59.1724 45.2062C60.2366 45.8559 61.4352 45.9791 62.4657 45.2062C63.8324 44.198 64.0228 43.2794 63.9556 42.3049C63.8772 41.2183 62.3649 40.7366 61.312 40.4117C59.2508 39.7844 58.6347 38.4066 59.0492 36.7375C59.6541 34.2954 61.1775 32.9512 62.701 32.8504C63.2275 32.8168 64.0228 32.7832 64.5941 32.9176C64.9301 32.996 65.6695 33.0632 66.3752 33.3769C66.8008 33.5673 67.7306 33.7689 67.7306 33.7689L67.3609 35.6397C66.8008 34.4635 65.3894 33.6569 64.2132 33.6233C62.981 33.5785 61.6704 34.6315 61.7936 36.6254C61.8384 37.2528 62.6002 37.8241 62.8354 37.8465C64.1124 37.9697 65.311 38.4178 65.311 38.4178Z" fill="#080821"/>
<path d="M66.8467 46.1918L69.087 34.9674C69.1991 34.5641 68.583 33.5784 68.583 33.5784C68.6614 33.5784 71.9435 33.5896 71.9659 33.6008L71.2826 37.1742V37.2078C72.1003 36.7821 73.0413 36.1324 73.9374 36.4909C74.7103 36.7933 74.9568 37.6111 74.7215 38.9217C74.5759 39.7059 74.0382 42.3719 74.0382 42.6856C74.0382 42.8536 73.523 44.8252 73.691 44.8252C73.9038 44.8252 74.1391 45.2957 74.9568 44.6459C74.9568 44.6459 74.5087 46.4831 73.0749 46.4831C72.2571 46.4831 71.4506 46.0574 71.4506 45.15C71.4506 44.4107 72.3692 39.6723 72.4028 39.3922C72.526 38.5745 72.3916 38.1488 72.0667 38.0704C71.585 37.9584 71.2826 38.1376 71.1146 38.7537C70.5545 40.7364 69.4791 46.2142 69.4567 46.203H66.8467V46.1918Z" fill="#080821"/>
<path d="M91.0748 44.0077C91.0972 45.0607 93.0239 46.3601 94.2337 46.0689C95.1522 45.856 95.4323 45.0607 95.3763 44.3326C95.3203 43.5148 93.9648 42.8427 93.2703 42.3722C92.2622 41.7001 91.2876 40.5127 91.6013 39.258C92.0493 37.4209 92.8783 36.8832 94.4577 36.5472C94.8386 36.4575 95.4435 36.5584 95.8803 36.6032C96.138 36.6256 96.5076 36.8272 97.0341 37.0737C97.359 37.2193 98.1095 37.813 98.1095 37.813L97.2358 39.3365C96.8213 38.4515 96.3396 37.6226 95.4883 37.3761C94.973 37.2305 93.2367 37.6114 93.8192 39.1908L96.2388 41.1848C96.9333 41.7337 97.583 42.2938 97.583 43.2124C97.583 44.1645 97.0341 46.4833 94.3793 46.8418C93.6848 46.9314 93.0575 46.8642 92.2062 46.6066C92.0045 46.5505 90.201 45.4976 89.9546 45.2959L91.0748 44.0077Z" fill="#080821"/>
<path d="M82.5604 15.8459C82.5828 16.8988 84.5095 18.1983 85.7193 17.907C86.6378 17.6942 86.9179 16.8988 86.8619 16.1707C86.8058 15.353 85.4504 14.6808 84.7559 14.2216C83.7478 13.5382 82.7732 12.3508 83.0868 11.1074C83.5349 9.28148 84.3639 8.73259 85.9433 8.39653C86.3242 8.30691 86.9403 8.40773 87.3659 8.45254C87.6236 8.47494 87.9932 8.67658 88.5197 8.92302C88.8446 9.06865 89.5951 9.66235 89.5951 9.66235L88.7214 11.1858C88.3069 10.3009 87.8252 9.47192 86.9739 9.22547C86.4586 9.07985 84.7223 9.46071 85.3048 11.0402L87.7244 13.0342C88.4189 13.5831 89.0686 14.1432 89.0686 15.0617C89.0686 16.0139 88.5197 18.3327 85.8649 18.6912C85.1704 18.7808 84.5431 18.7136 83.6917 18.4559C83.4901 18.3999 81.6866 17.3469 81.4402 17.1453L82.5604 15.8459Z" fill="#080821"/>
<path d="M60.4606 10.6032C61.5584 10.5136 61.7937 10.8385 62.589 10.1775C62.757 10.0431 63.7988 8.71008 63.7988 6.97377C63.7988 5.4279 63.0931 5.00222 61.5808 5.15905C61.48 5.17025 61.4576 5.62953 61.3232 6.07761L60.4606 10.6032ZM59.2173 16.4171C58.7692 17.9405 58.9036 17.5597 58.9484 17.5709C58.9596 17.5709 59.5645 17.5933 59.9118 17.5933C61.6928 17.5933 62.2529 16.1258 62.4994 13.4933C62.6674 11.645 62.0065 11.5218 60.2366 11.5442L59.2173 16.4171ZM54.8149 18.411C54.8149 18.411 55.6887 17.8173 55.9575 16.8091L58.4219 5.64073C58.4219 4.65496 57.7834 4.13967 57.7834 4.13967H61.8721C64.034 4.13967 66.7897 4.10606 66.7897 6.97377C66.7897 9.10215 64.7173 10.8833 63.9668 10.7713C65.3894 10.9953 65.9159 12.1379 65.9159 13.919C65.9159 17.9293 64.0228 17.7277 61.7937 18.187C61.0655 18.3326 60.2926 18.4222 59.5309 18.4222H54.8149V18.411Z" fill="#080821"/>
<path d="M70.7895 15.9913C71.1256 14.2438 71.8985 10.2447 71.8985 10.3567C71.8985 10.3119 72.0665 9.60617 72.0553 9.58377C71.9993 9.48295 71.8985 9.1917 71.6856 9.1917C70.0614 9.1917 68.5939 14.4006 68.5939 15.7001C68.5939 16.2826 68.8516 16.9883 69.5125 16.9659C70.2854 16.9435 70.6887 16.4618 70.7895 15.9913ZM72.3802 8.58679L74.979 8.57559L73.5675 15.6104C73.4779 15.9913 73.2091 16.7531 73.4891 16.9547C73.7692 17.1563 74.0828 16.7306 74.2173 16.697C74.2173 16.697 74.0604 18.2429 72.4362 18.3997C71.8649 18.4558 70.6887 17.2571 70.8679 17.0331C69.8934 18.2205 69.0644 18.4334 68.4147 18.4782C66.6784 18.579 66.0959 16.5738 66.0959 15.5432C66.0959 12.9444 67.7986 8.0491 70.6775 8.32915C70.8791 8.35155 71.708 8.22833 72.2009 8.90045L72.3802 8.58679Z" fill="#080821"/>
<path d="M62.2852 25.5692C63.3942 25.6476 64.4695 25.2555 65.2985 24.3369C65.9146 23.6648 66.1274 22.7799 66.1274 21.7941C66.1274 20.405 65.3657 19.9234 64.8952 19.9234C64.4583 19.9234 63.4278 19.8785 63.4278 19.9458C63.3942 19.9346 63.2597 20.7971 63.1925 21.0212L62.2852 25.5692ZM56.7627 32.3128C56.7627 32.3128 57.7373 32.0103 58.1965 30.9237L60.4257 20.6291C60.5265 19.4977 59.5295 19.1616 59.5295 19.1616H66.0826C68.1437 19.1616 68.9503 20.6515 68.9503 21.9285C68.9503 24.9082 65.0072 26.5213 62.162 26.3421L61.4226 30.7893C61.2434 31.9991 62.554 32.324 62.554 32.324H56.7627V32.3128Z" fill="#080821"/>
<path d="M87.6359 38.0929C86.9189 38.0929 86.6165 39.1571 86.258 40.2885L85.4739 44.4444C85.3843 44.7917 85.6867 45.3518 86.0452 45.475C87.9495 46.1807 88.8008 41.151 88.9689 40.0308C89.0473 39.5155 88.9129 38.4961 88.6664 38.2385C88.3528 37.9024 87.8487 38.0929 87.6359 38.0929ZM83.3792 38.597C83.3792 38.597 84.7346 34.4746 86.8293 37.1183C86.8293 37.1183 87.0198 37.0623 87.5911 36.7822C88.2184 36.4686 91.2204 36.1885 91.1756 39.2243C91.1756 39.2243 91.4221 42.8089 89.3049 45.2621C88.6888 45.9679 87.5014 46.3936 86.5381 46.3936C85.9556 46.3936 85.6307 46.2591 85.1379 45.9791L84.6786 48.8356C84.6786 49.5413 85.6531 49.9894 85.6531 49.9894H81.0044C81.0044 49.9894 82.1134 49.2053 82.3262 48.3763L84.4545 38.1825C84.4882 37.88 84.0849 37.6896 83.5472 38.6418L83.3792 38.597Z" fill="#080821"/>
<path d="M76.7827 31.3157C78.4742 31.1476 79.1575 26.1852 79.1575 24.8297C79.1575 23.7543 78.8214 23.2838 78.3061 23.2838C77.1523 23.2838 76.6819 24.8745 76.3794 25.8043C75.9874 27.0365 75.4833 29.3217 75.6849 30.3411C75.7633 30.8004 76.2674 31.3605 76.7827 31.3157ZM74.6095 24.5497C75.6737 22.8806 76.7155 22.186 78.2613 22.186C79.2695 22.186 80.5017 22.7237 80.9385 23.7879C81.2522 24.5385 81.297 25.2778 81.297 26.1179C81.297 27.6078 80.9161 28.9632 80.0872 30.3747C79.2583 31.7637 77.8244 32.4023 76.1778 32.4023C75.4049 32.4023 74.4191 32.0886 73.9486 31.4277C73.4333 30.6884 73.3213 30.061 73.3325 29.0417C73.3437 27.2829 73.8702 25.7147 74.6095 24.5497Z" fill="#080821"/>
<path d="M78.4623 45.3965C80.1538 45.2285 80.8371 40.266 80.8371 38.9105C80.8371 37.8352 80.5011 37.3647 79.9858 37.3647C78.832 37.3647 78.3615 38.9554 78.0591 39.8851C77.667 41.1173 77.1629 43.4025 77.3646 44.4219C77.443 44.8924 77.9471 45.4525 78.4623 45.3965ZM76.278 38.6417C77.3422 36.9726 78.3839 36.2781 79.9298 36.2781C80.9379 36.2781 82.1701 36.8158 82.607 37.88C82.9207 38.6305 82.9655 39.3698 82.9655 40.21C82.9655 41.6998 82.5846 43.0553 81.7557 44.4667C80.9267 45.8558 79.4929 46.4943 77.8462 46.4943C77.0733 46.4943 76.0876 46.1806 75.6171 45.5197C75.1018 44.7804 74.9898 44.1531 75.001 43.1337C75.0234 41.3638 75.5387 39.8067 76.278 38.6417Z" fill="#080821"/>
<path d="M89.8881 49.9334C90.7542 49.9334 91.4563 49.2262 91.4563 48.3539C91.4563 47.4816 90.7542 46.7744 89.8881 46.7744C89.022 46.7744 88.3198 47.4816 88.3198 48.3539C88.3198 49.2262 89.022 49.9334 89.8881 49.9334Z" stroke="#080821" stroke-width="0.470043"/>
<path d="M59.0597 24.9866C57.1218 25.1658 56.5617 27.507 55.3183 28.7504C53.6604 30.0275 51.9578 31.1589 50.0647 31.7638C48.9669 34.1946 45.9424 35.5724 44.0157 37.2976C46.7601 39.0115 45.2479 43.201 45.0014 45.8895L42.257 46.1135C43.8701 47.9955 46.2448 48.578 46.7937 51.4345C42.8059 53.4733 37.1714 53.8093 33.3292 51.1768C32.7355 50.8072 31.9289 50.4375 31.3128 50.5719C31.5593 52.5771 32.5898 54.515 32.0634 56.5762C30.9544 56.4754 30.2823 55.3888 29.4085 54.7615C27.9859 53.7309 28.1427 52.129 27.7059 50.7624C23.2475 47.8162 20.3463 43.8843 19.0357 38.9106C18.8116 38.9555 18.5316 38.8434 18.3748 38.8994L18.1843 38.8658C17.4338 39.0003 16.5153 38.5858 15.832 38.0817C14.6222 35.9981 14.891 33.3769 15.6303 31.2261C16.1904 29.1873 17.7587 27.4622 19.4501 26.1068C18.0723 25.121 19.5285 23.7319 18.4084 22.6453C18.4532 22.3541 19.5173 21.0659 18.6772 20.2705C18.5764 19.7552 19.3045 19.912 19.5621 19.632C19.831 19.0831 20.5703 18.747 20.3239 17.9517C21.0968 17.7837 21.5785 17.7725 22.0377 17.1451L22.0602 16.9995L21.9481 16.4058L22.1162 16.417C22.0489 16.585 22.5194 16.4282 22.5978 16.529C23.83 16.1594 23.8076 14.8263 25.3087 15.1848L26.6081 14.5015C26.7201 14.8151 27.0562 14.6359 27.2914 14.7031L27.6498 14.3783C28.1651 14.8823 29.2181 14.9047 30.0022 15.1736C31.324 14.8375 32.5114 14.0534 33.8108 13.6277C37.0818 12.6868 40.4087 11.8354 43.9597 11.6898L43.9933 11.7234C46.9393 11.0289 49.8294 12.6083 52.2266 12.4403C53.8173 14.143 52.4506 16.7195 52.6747 19.0943C52.8091 20.5282 53.4028 21.9508 54.3773 22.9142C55.8224 22.6453 57.1218 22.8582 58.4436 21.85C59.8886 21.4467 60.3367 21.4243 60.7064 22.5221C60.5495 24.0008 59.8662 24.4265 59.0597 24.9866Z" fill="#080821"/>
<path d="M58.064 24.6169C57.8735 24.6057 57.6495 24.5609 57.5487 24.7625C56.4285 23.8664 55.9356 25.8491 54.9275 25.8379C54.0761 26.0843 53.3032 26.5996 52.3398 26.5772C50.0995 27.9327 47.7919 29.0865 45.2267 29.5122C45.3723 29.5794 45.4619 29.4449 45.5627 29.3665C45.0475 29.2433 44.1289 29.2321 43.5128 29.445L43.9945 30.1395L43.8265 30.3075C44.2521 30.5651 44.8346 30.0723 45.3723 30.0275C46.19 29.7474 47.1982 29.9938 48.1056 29.9826C50.57 27.8991 53.9977 28.448 56.2941 25.8939C55.4427 27.2157 54.4234 28.7504 53.068 29.5122L53.2024 29.4113L53.3592 29.5794L53.2248 29.7026L53.068 29.5122C51.9142 30.0947 50.8388 30.9236 49.5842 31.2373C49.909 30.1171 51.2309 30.5539 51.6901 29.7922C51.4661 29.4674 51.018 29.6466 50.682 29.5794L50.5139 29.7362C50.0211 29.4225 49.461 30.1507 48.9457 30.3411C47.6575 30.5427 46.6717 30.4755 45.5291 30.5315C44.5882 31.7862 43.244 32.7943 41.6757 32.7495C42.6727 32.5703 43.636 31.4501 44.8122 31.3493C44.8122 31.1589 44.8682 30.9348 44.6666 30.834C44.3193 30.8788 43.9497 31.4277 43.6248 30.9572C43.1096 30.9796 42.6839 30.9236 42.1014 30.722C41.4405 30.3299 41.4965 29.3777 40.802 29.2993C40.2755 30.5876 38.304 29.501 37.195 29.9938C35.0779 28.56 33.9241 26.1964 33.5432 23.8439L33.7 24.0344C34.2937 23.3511 34.1593 22.1188 33.9913 21.3123C34.1593 21.3795 34.2377 21.2451 34.3385 21.1667C34.3497 20.9762 34.3946 20.7522 34.1929 20.6514L34.5514 20.3265C34.4618 20.2257 34.3273 20.1361 34.3833 19.9681L34.5738 19.8112C34.6634 20.0241 34.8874 19.9905 35.0779 20.0017C35.1115 19.576 35.2571 19.0607 35.3131 18.4782C35.3019 19.4304 35.0219 20.7858 36.0524 21.0658C34.9434 23.0374 35.5931 25.5915 35.75 27.7198C36.6125 28.4928 36.3773 30.4755 38.0463 29.7026L38.4048 29.2097C38.4832 28.8624 38.248 29.6466 38.5616 29.725C38.7857 29.6802 39.1105 29.8818 39.2449 29.5906C38.8417 27.6862 36.4221 26.5324 36.4109 24.5049C35.5931 26.0619 36.8589 27.2606 37.083 28.6384C36.0412 26.9469 35.8284 24.2584 36.3325 22.2869L36.3437 22.1076L36.5229 22.1188C35.8956 24.3816 37.9343 26.118 38.9873 27.8655C39.6818 28.2015 40.6003 28.448 41.3621 28.1343C41.4293 27.9887 41.3061 27.8991 41.2164 27.7983C41.1492 27.1037 40.2195 27.675 39.8722 27.227C39.0097 27.3838 38.6176 26.2636 38.0687 25.6139L37.7663 24.9081C38.416 24.5945 39.1441 25.401 39.413 26.0059C39.3906 26.3084 39.7378 26.4764 39.8946 26.7229C40.0851 26.7229 40.3091 26.7789 40.4099 26.566C39.581 23.8215 35.1451 24.0792 36.9262 20.4385L36.9374 20.0913C37.1278 20.1025 37.3518 20.1473 37.4638 19.9456C36.9374 19.5648 37.3518 18.8367 37.0046 18.3886L36.4557 19.2063C36.4109 18.9823 36.6349 18.6574 36.3213 18.523C37.1838 18.4222 36.4893 17.8845 36.7245 17.3356C36.8701 17.4028 36.9598 17.2796 37.0606 17.19C36.7133 16.8875 37.139 16.2938 36.7805 15.9913C36.6797 16.081 36.5565 16.1594 36.5901 16.3162L36.254 16.305C36.7357 16.2938 36.7357 15.7561 36.971 15.4985C37.3966 16.361 36.4669 18.6574 38.0351 18.6126C38.136 17.9629 37.2846 17.2348 38.1248 16.7419C38.4944 16.7419 38.0239 17.5148 38.6064 17.4364C38.6512 16.4842 39.2225 16.3946 39.8722 15.7897C40.1187 15.7561 40.3539 16.2154 40.5667 15.8233L40.5891 15.308C41.6757 16.4618 40.9476 14.3671 41.6645 14.1542C42.9527 12.6307 44.0169 15.2856 45.4283 13.9862C44.4314 14.7255 46.851 15.4873 45.4843 16.3834C44.9242 16.9771 44.4874 17.47 43.7144 17.6604C44.8122 17.1564 45.4171 16.1034 45.2043 14.8263L44.8794 14.4791C44.7898 14.5687 44.6554 14.6471 44.7002 14.8039C44.3642 14.6807 44.1401 14.2998 43.692 14.4231L43.3336 14.7367C43.8489 14.8823 44.3081 15.1736 44.6554 15.6553C44.8906 16.3386 44.0505 16.5402 43.7369 16.9883C43.2216 17.0667 42.8631 16.8427 42.5719 16.4282C41.8101 15.6777 44.2969 14.311 42.471 14.5463L41.9894 14.0086C41.5973 14.6807 41.1828 15.5657 41.5525 16.3834L41.7205 16.3946C41.5077 16.4954 41.5413 16.7083 41.5301 16.8987C40.9028 16.7307 41.4629 14.972 40.7124 16.0025C40.2307 16.9099 41.5861 17.1451 41.4853 17.9181C42.0566 18.1645 43.0759 18.1421 42.6167 19.1727C42.4598 18.9039 42.3254 18.5006 41.967 18.4558C41.8662 18.5454 41.7429 18.6238 41.7765 18.7918C41.6197 18.6798 41.5301 18.3662 41.2837 18.4222C40.8804 18.803 41.4853 19.2287 41.5749 19.6432C41.8101 19.5984 42.135 19.8112 42.2582 19.4976C41.9446 19.0271 42.4262 19.9905 42.7735 19.6992L42.7623 19.8672C42.6615 19.6544 42.4374 19.688 42.247 19.6768C41.7205 19.9344 42.4935 20.1473 42.2134 20.5282L42.5383 20.8754C42.0678 21.2003 42.6167 21.5699 42.6727 21.906L42.5495 21.794L42.7175 21.6259L42.8407 21.7604L42.6727 21.9172L42.9863 22.2757C43.6136 20.9762 43.2664 18.7918 44.9018 17.7389L45.966 16.7643C45.2715 18.691 44.0617 20.3713 44.1737 22.6677L44.5658 25.4122C43.8041 25.4458 42.9975 25.7819 42.6391 26.5324C42.6279 27.4846 42.359 28.5488 43.3784 29.1201C43.7705 28.2799 42.6839 26.7901 43.8377 26.2412C44.409 26.4764 45.4059 26.7117 45.8988 26.1628C45.2379 25.4794 45.0699 24.6169 44.9915 23.7319C45.4059 22.791 46.4141 22.7125 47.1086 22.1076C46.3693 20.8194 46.6717 19.1279 46.4477 17.638C47.131 17.5148 46.5821 16.5066 47.0302 16.1258C46.9406 16.0249 46.8622 15.9017 46.6941 15.9465L46.3469 16.2602C46.5149 15.6553 47.243 15.0952 46.7613 14.4007C46.6045 13.8742 46.022 14.2214 45.7644 13.8406L45.9548 13.6837L43.58 13.4149C44.1289 13.2469 44.633 13.0116 45.2939 13.146C45.5851 13.7621 46.2573 13.146 46.8173 13.3813C45.9884 13.6389 46.7725 14.5799 47.2654 14.7703C47.4334 14.7255 47.5119 14.8599 47.6015 14.9496C47.8479 14.3334 48.5088 13.5941 49.2033 13.4821C48.4864 14.9608 46.5709 15.7561 46.963 17.8173C47.6911 19.408 46.5933 21.6596 47.5791 23.1382C46.7165 24.292 47.7919 27.0925 45.5403 26.8013C45.2155 27.5742 45.9436 27.9663 46.134 28.5376C49.0913 27.9663 49.7522 27.0253 52.5639 26.0843C53.3704 25.8939 53.9417 24.9866 54.8266 24.9978L54.6586 25.1546L54.9723 25.513C56.3053 24.3368 58.232 23.9672 59.6994 22.8246C60.0915 24.0008 58.6577 24.18 58.064 24.6169Z" fill="white"/>
<path d="M57.1135 23.0262L58.3233 22.3989L57.2816 23.0262H57.1135Z" fill="#080821"/>
<path d="M54.6477 24.628L55.163 24.4824V24.6505L54.6477 24.628Z" fill="#080821"/>
<path d="M50.0444 24.4152L50.2349 24.2584L50.0668 24.0679C50.5597 23.8999 51.7807 23.7431 52.2736 24.348C53.1921 23.9559 53.9427 23.127 55.0404 23.2726C53.6626 24.4264 51.9599 24.684 50.0444 24.4152Z" fill="white"/>
<path d="M52.8443 23.0151C53.0011 21.8725 52.1497 20.7075 51.8025 19.5537L52.0489 14.0871C52.217 14.1543 52.2954 14.0311 52.3962 13.9415L52.2394 13.7734L52.553 14.2999C52.721 17.1452 51.5 20.4722 53.3819 22.7014L52.8443 23.0151Z" fill="white"/>
<path d="M46.4805 27.843C46.0548 27.8542 46.1556 27.3725 45.9988 27.1485L48.5864 26.4091C48.2279 26.0619 47.6566 26.2859 47.231 26.3531C47.8023 26.5996 47.6566 25.905 47.9367 25.7034C47.8583 25.9498 48.1383 26.0619 48.2615 26.2299C48.4072 26.2971 48.4968 26.1627 48.5976 26.0843C48.1719 24.2808 48.2727 21.8723 48.8664 20.1136C48.6648 17.7276 49.4825 15.3752 50.5355 13.3588C51.0508 13.3252 51.5885 12.7875 52.0702 13.258C49.1577 14.535 49.617 18.03 48.844 20.6177C48.6872 22.3092 50.3339 23.7655 49.1353 25.4122L49.3033 25.5914C49.4377 25.2889 49.7626 25.5018 49.9866 25.457C50.8716 25.6586 51.8685 25.0201 52.8991 25.0761C50.9612 26.51 48.5416 26.6556 46.4805 27.843Z" fill="#080821"/>
<path d="M51.6572 22.7797L51.3435 22.4324C51.2427 22.522 51.0971 22.6005 51.1531 22.7573C50.6714 22.4436 49.7641 22.6677 49.6633 21.8499C49.9657 20.8978 49.2264 20.1136 49.7753 19.2847C50.1897 20.2704 50.0777 21.4579 51.0075 22.242C51.2763 21.5587 50.705 20.7633 50.593 20.0128C50.649 18.8702 50.649 17.2795 51.1083 16.1145L51.4443 16.1257C51.3883 18.0412 51.0747 20.0688 52.0492 21.6147C51.9596 22.018 52.2173 22.5893 51.6572 22.7797Z" fill="white"/>
<path d="M50.0879 23.3958L50.0991 23.0486L51.4545 23.2726C51.0064 23.3286 50.4463 23.0934 50.0879 23.3958Z" fill="white"/>
<path d="M42.996 37.2528L42.3015 37.2192C41.9767 39.1235 41.7862 41.0951 41.0245 42.809C41.5286 41.1175 41.7862 39.1011 41.775 37.376C40.4308 37.7345 40.9461 39.5828 40.2628 40.5462C40.2292 39.482 41.2037 38.6531 40.9013 37.6673C38.885 38.3506 36.667 39.6836 35.446 41.3639C35.502 41.644 35.278 42.0249 35.5916 42.2153C34.3146 42.7978 32.9704 43.1787 31.7606 43.9292L31.9174 44.1196C31.7606 43.7164 31.4806 44.1308 31.2453 44.086L30.8869 44.3997L31.0101 44.2989L31.1669 44.4669L31.0549 44.5901C30.8757 44.1756 30.618 44.6013 30.3604 44.5565C29.9571 44.8142 29.5987 45.3295 29.9571 45.7327L30.282 46.0912L32.0631 44.4557C31.391 45.5087 30.0243 45.968 30.394 47.2786C30.618 47.189 30.5732 46.9649 30.5956 46.7745C30.8309 47.189 30.0579 47.3122 30.562 47.6259C30.9429 47.357 31.3237 46.8529 30.9653 46.4497C30.8981 46.5953 31.0213 46.6849 31.1109 46.7857C31.391 46.4385 31.5814 46.1584 32.0071 45.7999C32.2423 46.4609 31.7942 46.9201 32.0967 47.5138C32.1639 47.3458 32.0295 47.2674 31.951 47.1666C31.727 47.2674 31.7718 47.4802 31.7494 47.6707C31.8502 47.7715 31.9174 47.8947 32.0855 47.8499C32.0183 48.1412 32.1975 48.5332 31.8838 48.7013L32.0407 48.8917C32.78 48.7013 32.4215 47.7155 32.7912 47.2114C32.4999 46.9649 32.7128 46.5281 32.668 46.1808L33.0264 45.8559C32.6792 46.6177 32.948 47.6595 32.5671 48.3988C34.3034 50.0343 36.9246 50.46 39.2658 51.0873L39.4563 50.9305C41.6406 51.513 43.8698 51.0761 45.7965 50.3592C45.7293 50.5272 45.8525 50.6056 45.9421 50.7064C41.6742 51.9834 36.3758 51.6026 32.9032 48.7573C32.5783 48.9253 32.7688 49.3174 32.6904 49.6086C34.6731 50.8744 36.8686 51.6922 39.2322 52.1291C39.4675 51.9274 39.8707 52.2523 40.2516 52.1739C42.2903 52.2411 44.1386 51.8042 45.9309 51.2217C43.3097 52.6444 39.5123 53.0588 36.7006 51.6698C34.9531 51.4121 33.4633 50.6728 32.1863 49.4182L30.4948 49.3398C30.6068 48.6676 30.4724 47.9395 30.0579 47.6035C29.9795 48.2308 30.1139 49.4182 29.7667 50.1463C31.4246 50.2247 30.6628 52.3419 31.503 53.3053L31.2005 52.7788C30.5172 51.6474 29.6099 50.5944 29.8227 49.1269C29.6323 48.9365 29.4866 48.6677 29.1618 48.7685L28.9938 48.9253C29.0834 49.0261 29.1618 49.1493 29.3186 49.1045C28.6017 49.9447 29.7331 50.9305 29.8899 51.8714C30.7188 53.07 31.4918 54.3023 31.7606 55.7137C31.391 54.952 31.0325 54.2014 30.674 53.4397C29.8899 53.6974 30.6404 54.235 30.618 54.6383C30.17 54.123 29.5315 53.6749 29.8451 52.8908C29.8675 53.2269 30.226 53.4509 30.3156 53.7646C31.1109 52.846 29.5427 51.9722 29.4194 50.9865C29.5315 50.6728 29.2738 50.4936 29.1058 50.2919C28.4337 50.8184 29.2514 51.625 29.1842 52.3419C28.7137 51.3673 29.117 49.4742 27.4367 49.5302C26.8878 49.2278 26.3501 48.3988 25.7789 48.6116L26.2605 49.3062L26.4286 49.1493C26.3613 49.295 26.4958 49.3846 26.5966 49.4854C25.9805 48.8133 25.1291 48.6452 24.7931 47.8723C24.7483 47.8611 25.5436 48.7573 25.9581 48.4324L23.5049 46.1136C23.7289 46.0576 24.065 46.2816 24.1882 45.968L24.3562 46.1584C24.6699 45.9904 24.4906 45.5871 24.5579 45.307L24.401 45.1166L24.5691 44.9598L23.9194 44.4221L23.7289 44.5789L22.9224 43.7052C22.6984 43.7948 22.7432 44.0188 22.7208 44.2093L22.3959 43.8508L22.5863 43.694L21.6006 42.7978L21.7686 42.6298L21.2869 42.0921C22.0823 41.588 20.5252 41.756 21.3205 41.2519C21.1525 41.0391 20.8949 40.8599 21.0069 40.5462C22.3847 41.3415 21.455 43.1003 22.9224 43.7164C23.5049 43.3467 23.9306 44.6685 24.6027 44.1196C24.4346 43.918 24.177 43.7388 24.289 43.4251L24.4794 43.2683C24.1098 42.0809 22.676 41.7224 22.5527 40.4454C22.4071 40.3894 22.3175 40.5126 22.2167 40.591L22.1943 41.1063L21.8694 40.759C22.9336 40.2101 21.3877 39.7845 21.4326 39.1908C21.1077 39.3588 21.2981 39.7621 21.2309 40.0421C21.0069 39.8517 20.9845 39.594 20.9173 39.3476L21.0741 39.5156C21.1749 39.1347 20.3348 38.1714 20.4804 37.6113C20.2676 37.4208 20.234 37.1632 20.1667 36.9167C20.2564 37.0064 20.3348 37.1408 20.5028 37.096C20.738 36.8383 20.3012 36.4127 20.2004 36.0542L20.3572 36.2222C20.8949 35.8414 19.8867 35.4157 20.4132 35.0348C20.1219 34.8444 20.3236 34.4635 20.29 34.1723L20.6484 33.8474C20.4916 33.7018 20.8613 34.3515 21.1301 34.5643C21.6118 34.0714 21.0629 33.5337 21.0293 33.0297C21.1749 33.0745 21.2645 32.9624 21.3653 32.8616C20.7604 32.604 21.1861 31.9431 21.0965 31.4838L21.5782 32.0215L21.7462 31.8646L21.903 32.0327L21.2085 32.3463L21.6902 33.0633C21.5222 32.996 21.4438 33.1193 21.3429 33.2089C21.511 33.5113 22.0262 33.657 21.8134 34.0826C21.6678 34.0154 21.5782 34.1387 21.4774 34.2283C21.4438 35.046 21.9814 35.6621 22.4071 36.3118C22.8104 36.1774 23.0904 36.8159 23.4265 36.3566C23.0008 35.987 22.3959 35.7069 22.2839 34.934C22.9672 35.9198 23.8969 34.8668 24.4682 35.8862C24.6811 35.7965 24.6475 35.5725 24.6587 35.3821L24.8267 35.5725L25.174 35.2476C24.0762 34.766 25.4092 33.7466 24.0538 33.6682C23.9754 32.7048 23.0344 32.3911 22.9448 31.5622C22.3175 31.7974 22.0038 31.0357 21.8022 30.666L21.4438 30.9797L21.5334 29.109C21.8806 30.7108 23.3145 31.6182 23.9306 32.9736C24.1882 33.3769 24.5579 33.5113 24.9163 33.713C25.3868 33.3881 24.8267 33.0185 24.7819 32.6712C25.3644 33.2089 26.3501 33.3097 26.9774 33.2985C26.5966 32.7944 25.7116 32.1895 25.8573 31.3718L26.0253 31.5398C26.2717 31.0805 25.6892 30.498 25.9245 29.8147C25.51 29.7027 25.2748 29.221 24.9387 28.9297L25.6556 28.448C25.174 28.4032 25.23 27.8431 25.0059 27.5631C25.8909 27.8879 25.8573 28.8401 26.2829 29.501C26.507 29.4002 26.4622 29.1874 26.4846 28.9969C26.6638 29.221 26.9662 29.2434 27.1343 29.5346C27.2575 29.3218 27.4591 29.3778 27.6496 29.3778C27.8736 30.1059 28.9042 29.8259 28.7921 30.6324L29.2738 31.1701C29.4866 31.0693 29.4418 30.8565 29.4642 30.666C29.061 30.2067 29.5875 30.8901 29.8115 30.6772L30.1251 31.0357C30.5172 30.6212 29.4978 29.8931 30.3716 29.501C29.8339 28.3248 28.893 27.5855 28.4449 26.5101C28.176 25.7371 27.2351 26.0956 27.1455 25.2667C26.9214 25.3675 26.9662 25.5803 26.9438 25.7708C26.5854 25.1322 26.5294 23.9448 25.4876 23.9896C25.4988 23.8104 25.5436 23.5864 25.342 23.4743L25.1515 23.6424L25.5548 22.455C25.2524 23.4743 26.1261 24.2249 26.8206 24.7402C27.2911 24.3593 26.7422 23.9336 26.7086 23.5304C26.8542 23.5976 26.9438 23.4743 27.0447 23.3847C26.8654 23.1271 27.0223 22.7462 26.7534 22.511C27.3919 22.0741 27.0335 21.1555 27.1791 20.4834L27.6608 21.0211C27.8848 20.9203 27.84 20.7074 27.8624 20.517C28.6577 20.9763 27.6496 21.7716 27.9408 22.567C27.8512 22.4774 27.7728 22.3429 27.6047 22.3877C27.2463 22.9254 27.4591 23.6648 27.5263 24.2697C27.9856 24.5497 27.8736 25.0426 28.3329 25.3339L27.9744 25.6587C28.6577 27.4399 30.2596 26.9918 31.2677 28.3584C31.4582 28.3584 31.6822 28.4144 31.7942 28.2128C31.2789 27.6527 31.6934 26.7565 31.3573 26.1292C32.2647 25.6587 31.1333 24.8746 31.783 24.2697L31.6486 24.3929L31.1669 23.8552L31.3013 23.732C31.391 23.8328 31.4694 23.9784 31.6374 23.9224C32.2087 23.1719 31.1333 23.0599 31.0213 22.3429C30.9317 22.4438 30.7973 22.5222 30.8421 22.679L30.5172 22.3205C30.4276 22.4326 30.2932 22.4998 30.338 22.6566C30.1476 22.6454 29.9347 22.679 29.8339 22.4662C29.7891 21.9509 30.3604 22.3093 30.5284 21.9845L29.5539 20.9203L29.1954 21.5812C29.0162 21.3796 28.7585 21.2003 28.8817 20.8867C29.0274 20.9539 29.117 20.8195 29.229 20.7187C29.117 20.5506 28.8257 20.4386 28.9042 20.1922L29.0722 20.0353C29.1618 20.4498 29.6099 20.7411 29.8787 21.0995C30.5172 21.0771 30.6852 21.6596 31.0213 22.1749C31.3461 21.9509 31.1781 21.5028 31.2453 21.1667C31.7494 21.2563 31.4358 20.6514 31.783 20.517C31.8726 20.6066 31.951 20.7523 32.1191 20.6962C32.948 19.1056 33.9674 17.4141 35.8605 16.9324L35.8493 17.2684C34.6059 17.5821 34.4602 18.4558 33.3737 19.2176C32.3543 20.3714 31.5926 21.6708 31.8166 23.4183C32.4327 25.9612 33.2393 28.448 34.2138 30.8677L34.7067 31.2373C33.7881 31.3606 32.8696 31.4838 31.951 31.6294L32.0855 31.5062L32.2423 31.6742L32.1303 31.7974C31.1893 31.5286 30.0691 31.9319 29.0386 31.9991C27.4703 32.1895 27.3247 33.9146 25.8685 34.4187C25.3196 34.766 25.4316 35.6397 25.6108 36.1214C26.3053 37.1744 27.784 36.928 28.2544 38.1266C28.6801 37.9809 28.9378 38.6083 29.2738 38.1714C29.341 38.0033 29.2178 37.9249 29.1282 37.8129C30.5396 38.0481 31.8054 39.0451 33.3625 38.5186C33.8666 38.2498 34.3146 37.8017 34.7851 37.376L34.6171 37.208C34.1914 37.208 34.7963 37.1744 34.7851 37.376C35.0763 37.0624 35.558 36.8047 35.67 36.3903L35.5132 36.2222C35.614 36.1326 35.7373 36.0542 35.6924 35.8862L35.5356 35.7069L34.8187 36.5359L34.9307 36.4127L35.0987 36.5919L34.9643 36.7151L34.8075 36.5471C34.169 37.208 33.2729 37.9473 32.1863 37.7793L34.5163 35.3261L34.3594 35.158C33.7097 35.4717 33.3625 35.931 32.7576 36.2782L32.892 36.1774L33.0488 36.3454L32.9368 36.4687L32.7688 36.2782L32.4215 36.6031L32.5335 36.4799L32.7016 36.6703L32.5671 36.7711L32.4103 36.6031C32.0519 36.984 31.5142 37.2864 31.3349 37.7457L30.4836 37.5441C31.2901 36.4239 32.5447 35.6285 33.6649 34.9452C33.004 34.6427 32.2759 35.3373 31.5926 35.5389C31.2901 36.2334 30.2708 36.5919 30.1476 37.3536C29.2626 36.5247 27.9744 35.5389 27.728 34.3403C27.9072 33.4441 28.7585 33.0184 29.4978 32.7048C28.9602 33.2425 27.6832 33.5113 27.896 34.3515C28.064 34.4187 28.1424 34.2843 28.2432 34.1835C28.2544 34.4299 27.8176 34.6763 28.2096 34.878L28.0864 34.7436L28.4449 34.4187L28.5681 34.5531C28.3665 34.7324 28.0976 34.8892 28.1984 35.214L28.3553 35.4045L29.4194 34.4299C29.229 34.878 28.5345 35.3037 28.8481 35.7741C29.9795 34.1611 31.9062 33.1305 33.7657 32.7496L33.4073 33.0633L33.5753 33.2537C32.1303 34.0154 30.3716 35.0908 29.6659 36.6591L29.8227 36.8495C31.3349 35.3373 33.1496 33.8362 35.11 33.1417C35.1772 32.996 35.0427 32.9064 34.9643 32.8056L34.9531 32.9736L34.4378 32.9512L34.4939 32.7832C34.0458 32.8616 35.0091 32.8728 35.1772 32.6376C35.502 33.1081 34.7963 33.5337 34.6059 33.9818C34.4154 33.9818 34.2138 33.9258 34.0906 34.1387C34.0234 34.2843 34.1578 34.3739 34.2362 34.4747C34.9531 34.1723 35.8829 33.6794 36.1741 33.0297C36.0845 32.9288 36.0061 32.8056 35.8381 32.8504L35.8493 32.5032C36.1853 32.4023 36.3197 32.6712 36.5214 32.884C36.7342 32.7832 36.7006 32.5704 36.7118 32.3799L36.387 32.0215C36.4878 31.9319 36.6334 31.8534 36.5774 31.6854C37.9104 33.1081 40.0611 33.4329 42.1223 33.6458C42.2791 33.601 42.3575 33.7354 42.4471 33.825C42.6712 33.6458 43.0856 33.9482 43.4665 33.8698C45.0908 33.4329 46.9727 33.7802 48.3057 32.548C47.1855 34.2619 44.7211 35.9758 42.996 37.2528Z" fill="white"/>
<path d="M44.6102 12.5636C35.3351 12.7989 25.0631 17.1565 21.4785 26.2077C20.9184 27.0814 20.616 28.2464 20.3247 29.0642C20.3807 28.8177 20.3583 28.3024 20.5823 27.5967C20.5599 27.5631 20.616 27.4959 20.7392 27.171C23.7637 18.2318 33.5316 12.8325 42.3923 12.2948C43.098 12.4516 44.0725 12.1604 44.9463 12.2388L48.8669 12.5748C47.5003 13.3142 46.1561 12.3284 44.6102 12.5636Z" fill="white"/>
<path d="M44.8672 44.8588L45.0576 44.5227L45.0464 44.8588H44.8672Z" fill="#080821"/>
<path d="M41.9001 42.6746L42.0681 42.6858L42.0457 43.1899H41.8777L41.9001 42.6746Z" fill="#080821"/>
<path d="M41.1615 20.9538C40.8815 20.0464 40.8479 19.6768 40.7471 18.7134C41.5872 19.4079 41.0831 19.968 41.1615 20.9538Z" fill="#080821"/>
<path d="M40.745 22.8023C40.6106 23.0039 40.2073 23.2952 40.5322 23.4856L40.2185 22.9591C39.8825 23.452 40.0393 24.1913 39.9609 24.8298C39.9049 24.2361 39.8713 23.4744 39.1767 23.2616L39.0087 23.4184C38.7959 23.5864 38.8743 22.6342 38.8967 22.2086C39.3336 22.0181 39.244 21.5925 39.2776 21.2004C38.3926 20.4947 39.0311 19.8674 38.7063 18.96C38.3814 18.0862 39.3448 18.2879 39.4456 17.627L40.2521 18.848C40.1625 18.6351 39.9385 18.6687 39.748 18.6575C39.4344 18.7696 39.6136 19.1056 39.5576 19.3297C39.3896 19.2848 39.3112 19.3969 39.2104 19.4977C39.3112 19.8337 39.7368 20.1026 39.1767 20.349C39.4008 20.5283 39.5352 20.8755 39.8377 20.8867C39.9161 20.6739 39.8265 20.1026 39.8937 19.6881C39.8601 20.1586 40.1849 20.5059 40.3529 20.9091C40.1849 20.9427 40.1065 20.8195 40.0169 20.7187C39.692 20.8307 39.8825 21.1668 39.8152 21.402C39.9049 21.4916 39.9833 21.6261 40.1401 21.5813L40.4986 21.2564C40.4313 22.1414 41.1595 22.2758 41.0923 23.1607L40.745 22.8023Z" fill="#080821"/>
<path d="M40.9494 18.2093C40.4005 18.411 40.0868 17.8397 39.9636 17.47C40.042 17.2348 40.098 16.9771 40.3221 16.8091C40.1765 17.414 40.6581 17.9181 40.9494 18.2093Z" fill="#080821"/>
<path d="M38.3254 41.431C38.2806 41.0725 38.4934 39.437 39.4568 39.2578L38.3254 41.431Z" fill="white"/>
<path d="M45.496 49.8325L45.5856 49.9893L45.0703 50.303L44.9807 50.1574L45.496 49.8325Z" fill="white"/>
<path d="M37.1389 49.9671C39.9618 50.4152 42.4038 49.7767 44.857 49.127L45.1706 49.4854C42.8854 50.684 39.7937 50.3256 37.1389 49.9671Z" fill="white"/>
<path d="M44.9703 42.473C45.228 40.9383 44.9143 39.594 43.9622 38.4962L43.9846 37.981C45.3624 39.1012 45.4184 40.9047 44.9703 42.473Z" fill="white"/>
<path d="M44.6222 45.6991L44.3533 45.6767L42.4714 45.251C42.8971 44.4781 43.0539 43.5932 43.278 42.7306C43.4796 43.2011 43.4236 43.75 43.8941 44.1308C44.2861 43.0555 43.39 42.0473 43.5244 40.8711C43.6028 41.7896 43.9725 42.6186 44.2637 43.4587C44.2301 42.8762 44.4766 41.7672 44.2077 41.0615C44.1069 40.5462 43.7708 40.1317 43.9277 39.5156C44.6334 41.364 44.2861 43.5708 44.6782 45.5199L44.6222 45.6991Z" fill="white"/>
<path d="M33.4629 48.2756L33.6309 48.1187C36.857 48.5444 40.4752 49.5078 43.3653 47.8611L43.8694 48.3988C40.7441 49.911 36.6666 49.3285 33.4629 48.2756Z" fill="white"/>
<path d="M40.532 46.36C42.4699 44.03 42.9292 40.9942 42.974 37.7568C43.4332 40.7926 42.6043 44.2428 40.532 46.36Z" fill="white"/>
<path d="M42.7281 50.7287L42.7169 50.908L42.3921 50.8968V50.7175L42.7281 50.7287Z" fill="white"/>
<path d="M33.3291 47.413L33.3403 47.0769C33.7212 47.1441 34.2476 46.9649 34.5165 47.3009C35.2782 47.2785 36.544 47.525 37.4178 47.2673C38.0451 47.2225 38.5603 47.4578 39.2997 47.1777L39.4677 47.0209C38.7508 46.4832 37.6418 47.1889 36.5776 46.8865C38.0899 46.7856 37.6082 46.6176 38.9972 46.304C39.0868 46.4048 39.1652 46.5504 39.3333 46.4944L39.1652 46.6512C39.3221 46.7744 39.4117 47.0769 39.6581 47.0209C40.263 47.0993 41.2712 47.0769 41.8873 46.6064L42.2121 46.9649C40.6663 47.9282 38.4371 47.6258 36.7344 47.5586C37.9666 48.4435 40.095 48.3427 41.4952 47.9506L42.7162 47.3121C40.2966 48.9252 36.1071 48.1411 33.3291 47.413Z" fill="white"/>
<path d="M42.4261 38.597L42.583 38.7875C42.1685 39.7957 42.5046 41.1623 42.0901 42.1817L42.6054 38.261C42.6502 38.429 42.5158 38.5074 42.4261 38.597Z" fill="white"/>
<path d="M40.0401 46.0128L40.2081 46.1808C38.147 45.5311 37.038 43.5259 36.1418 41.7224C36.3099 41.6216 36.4219 41.3303 36.6683 41.4199C36.7243 41.6552 36.4219 41.7448 36.2987 41.9128C36.3995 42.1257 36.6123 42.0809 36.8028 42.1033C37.0492 41.9016 37.0492 41.5992 37.3404 41.4535C37.4189 41.0615 37.1836 41.7784 37.5085 41.7896C38.1358 41.588 37.7661 40.8934 37.9005 40.4342C38.371 41.4311 37.4301 42.7306 37.4301 43.6603C38.539 42.2601 39.6704 40.5574 40.0401 38.6642L40.5778 38.1602C39.9281 40.3333 39.0655 42.3833 38.0798 44.3773L38.2366 44.5453C39.7488 43.4139 40.2641 41.8008 40.813 40.2213C40.6562 41.5432 40.4881 42.865 39.8048 43.9404L39.9393 44.6237C40.0065 44.4557 39.872 44.3661 39.7936 44.2765C39.4688 44.6461 39.1887 45.2398 39.3904 45.6319C40.1073 45.2622 41.2163 43.5819 41.5859 42.3161C41.1939 43.6155 40.981 44.971 40.0401 46.0128Z" fill="white"/>
<path d="M39.7377 41.3699L39.7212 41.7168L39.9002 41.7253L39.9168 41.3785L39.7377 41.3699Z" fill="white"/>
<path d="M33.5432 46.3937C35.0555 46.2257 36.4445 45.6768 37.8671 45.2175L38.3488 45.9345C36.9374 46.6066 35.2347 46.4946 33.5432 46.3937Z" fill="white"/>
<path d="M37.6094 20.4496C37.8222 19.8895 37.2733 19.6319 37.5086 19.0718L38.3151 19.9679C38.1695 19.9007 38.0799 20.0239 37.979 20.1136C38.696 20.5616 37.8558 21.5698 38.5727 22.0179C37.7886 21.8051 37.923 20.9761 37.6094 20.4496Z" fill="#080821"/>
<path d="M37.3064 34.7883C36.2086 34.3067 36.3542 35.6621 35.8837 36.099C35.6037 35.326 36.8023 34.6091 36.6567 33.9034C36.0406 34.1946 35.5477 34.822 34.9092 35.0124C35.4133 34.4635 36.175 33.2201 36.8471 33.5673C37.1495 33.6233 36.8359 34.5083 37.4968 34.2843L38.0345 33.7914C38.1465 34.2843 37.5416 34.4523 37.3064 34.7883Z" fill="#080821"/>
<path d="M32.6361 32.5142L32.7481 32.4134L32.9162 32.5814L32.7817 32.7047C31.9528 32.3238 31.1575 33.1527 30.3621 33.4552C29.8357 33.5224 29.3652 33.8025 28.9619 34.2393C30.3509 32.4246 32.961 31.9653 34.35 32.0885C33.7115 32.0549 33.2074 32.3798 32.6361 32.5142Z" fill="#080821"/>
<path d="M45.0691 32.9063C45.674 32.0661 46.8726 31.226 47.8695 30.9907C47.3879 32.0549 46.2005 32.8279 45.0691 32.9063Z" fill="#080821"/>
<path d="M33.6339 21.6372L33.7907 21.6484L33.7571 22.4886L33.5891 22.4774L33.6339 21.6372Z" fill="#080821"/>
<path d="M33.2077 31.002C33.0956 30.6883 32.7596 30.8676 32.5243 30.8004C32.5243 29.8706 31.2361 29.8482 31.7738 28.7168L32.7484 29.781L32.5579 29.9378C32.6028 30.3747 33.174 30.5875 33.2077 31.002Z" fill="#080821"/>
<path d="M32.9387 29.4561C32.8603 28.4592 31.5497 28.3247 31.8521 27.1821C32.289 28.0671 33.0507 28.3919 32.9387 29.4561Z" fill="#080821"/>
<path d="M29.2298 36.1215L29.073 35.9534L30.6525 34.822C30.4172 35.5277 29.5211 35.6062 29.2298 36.1215Z" fill="#080821"/>
<path d="M27.3825 31.7638C27.1361 31.0581 25.8591 31.1589 26.0831 30.1732L27.5506 31.607C27.8194 30.9461 26.6768 30.3524 26.7888 29.5234C26.7776 29.8259 26.9233 29.9939 27.0801 30.218L27.461 30.0611C27.6738 30.2628 27.6626 30.5652 27.9426 30.7557L28.6147 30.7893C28.1443 31.1141 28.6931 31.4838 28.7492 31.8198C28.2899 31.8086 27.6066 31.0133 27.3825 31.7638Z" fill="#080821"/>
<path d="M27.0913 49.6982L27.4161 49.8775L27.0801 49.8663L27.0913 49.6982Z" fill="#080821"/>
<path d="M27.4026 38.6082L27.7498 38.6306L27.3914 38.9442L27.4026 38.6082Z" fill="#080821"/>
<path d="M26.5521 38.7427L26.7089 38.9107L26.2273 38.2162L26.3953 38.0593L26.2833 38.1601L26.1152 37.9921L26.2497 37.8689L26.8994 38.5858C26.7425 38.5298 26.6529 38.653 26.5521 38.7427Z" fill="#080821"/>
<path d="M25.6345 40.0643L25.8137 39.8963L26.1274 40.602L25.993 40.7253L24.8616 39.4706L24.9848 39.3474L25.6345 40.0643Z" fill="#080821"/>
<path d="M25.6128 44.3438C25.288 44.4222 25.1423 44.1533 24.9519 43.9629C25.3552 43.8061 24.9295 43.5148 24.9855 43.2908C25.0751 43.6828 25.3888 44.1309 25.6128 44.3438Z" fill="#080821"/>
<path d="M25.3872 38.0144C25.4768 38.1153 25.6 38.2049 25.5328 38.3505C25.1855 38.1153 24.4126 38.1153 24.547 37.4543L25.5552 37.8464L25.3872 38.0144Z" fill="#080821"/>
<path d="M25.0416 37.992C24.7168 37.5663 25.0304 38.1152 25.2208 38.0032L25.0416 37.992Z" fill="#080821"/>
<path d="M25.355 27.4062C25.2878 27.1709 25.2654 26.9021 25.0413 26.7116C25.2654 26.5436 25.0861 26.0955 24.9181 25.8491L24.7501 25.6811C24.4924 26.2187 24.8509 27.0141 24.3244 27.5406L24.2908 28.3919L23.7755 28.3695C23.8539 27.5854 22.9354 27.5966 22.6329 26.9469C23.1706 26.6556 22.4201 26.4092 22.5097 26.0843C22.8458 26.3868 23.0922 27.675 23.8203 27.3277L23.8315 26.9917L23.9884 27.1597C24.2684 26.7116 24.302 25.9275 24.0668 25.457C24.4588 25.2106 24.6045 25.9947 24.9181 25.4906C24.7165 25.1322 24.7725 24.5384 24.2908 24.4264L24.3132 23.9111C24.8509 24.4152 25.2206 24.9865 25.2542 25.6698C24.7837 26.1067 25.3214 26.5884 25.355 27.0477L25.5118 27.2157L25.355 27.4062Z" fill="white"/>
<path d="M23.9198 40.3221C23.6958 40.591 24.1214 41.0279 24.2222 41.3751C24.0542 41.3079 23.9758 41.4311 23.875 41.5207C23.9646 41.6216 24.043 41.756 24.211 41.7L24.1886 41.8792C23.4605 42.1144 23.875 41.4311 23.5389 41.1623C23.9422 41.0054 23.5165 40.7142 23.5725 40.4902C21.7018 40.4453 22.1387 38.0929 20.6265 37.6224C20.8505 37.5328 21.1978 37.0175 20.6601 36.7711C20.8505 36.7823 21.0745 36.8271 21.1754 36.6255C20.9961 36.3678 21.1529 35.987 20.8841 35.7517C21.6682 36.6703 22.8108 37.8129 23.651 38.6082L23.819 38.4514L23.7966 38.9667C23.6285 38.8995 23.5501 39.0227 23.4493 39.1123C24.3567 39.2131 23.6061 40.1877 24.2446 40.5126C24.155 40.4117 24.0878 40.2885 23.9198 40.3221Z" fill="#080821"/>
<path d="M22.7439 28.6609C22.4302 28.5376 22.6431 28.2016 22.5983 27.9775C22.5535 28.2352 22.8671 28.3696 22.7439 28.6609Z" fill="#080821"/>
<path d="M22.3764 29.1538L22.6901 29.8595L22.354 29.5011L22.3764 29.1538Z" fill="#080821"/>
<path d="M18.0957 29.3105C18.2861 28.5152 19.1375 28.7952 19.664 28.5264L18.0957 29.3105Z" fill="white"/>
<path d="M17.3782 30.2963L19.6297 29.2097L19.1033 29.7026L17.3782 30.2963Z" fill="white"/>
<path d="M19.3526 28.1791L19.3414 28.336L19.0054 28.3248V28.1567L19.3526 28.1791Z" fill="white"/>
<path d="M28.291 15.084L29.4784 15.2968V15.4649L28.291 15.084Z" fill="white"/>
<path d="M27.9073 15.9018C27.2912 15.4873 26.5742 15.2296 25.7229 15.2968C26.4398 14.5911 27.56 15.2296 27.9073 15.9018Z" fill="white"/>
<path d="M25.5332 15.6328C26.2053 15.9577 27.2583 15.7672 27.5495 16.585C26.855 16.3161 26.3285 15.6664 25.5332 15.6328Z" fill="white"/>
<path d="M23.8088 16.2379C24.537 15.084 25.8812 16.3275 26.6765 16.8764L26.8221 17.2236C25.814 16.91 24.929 16.3163 23.8088 16.2379Z" fill="white"/>
<path d="M25.1318 17.1452C25.5127 17.47 26.2296 17.0892 26.4649 17.7165C26.0056 18.0525 25.6919 17.0892 25.1318 17.1452Z" fill="white"/>
<path d="M25.3664 19.2064C24.2462 18.3551 22.7452 18.2543 21.3337 18.0078C22.3419 18.0302 24.3806 18.0862 25.5568 18.8928C25.4672 18.9824 25.3216 19.0496 25.3664 19.2064Z" fill="white"/>
<path d="M22.2188 17.5372C22.5772 17.3468 22.5772 16.9883 22.7676 16.7083L25.0976 18.0189C24.1343 17.8509 23.2829 17.4364 22.2188 17.5372Z" fill="white"/>
<path d="M24.2911 16.7641L24.2799 16.9434L23.9438 16.9322V16.7529L24.2911 16.7641Z" fill="white"/>
<path d="M23.7759 20.685C22.1965 20.5618 20.6394 19.9121 19.0152 20.2929C20.1354 20.4946 21.2667 20.685 22.0397 21.626C21.7932 21.5476 21.6812 21.8276 21.5132 21.9396C21.4012 21.626 21.0651 21.8052 20.8299 21.738L20.6618 21.8948C20.3034 21.794 19.5641 21.794 19.1272 22.0068L18.9368 22.1637C19.228 21.5924 19.2616 20.7074 19.0264 20.1249C19.2616 20.0801 19.5865 20.2929 19.7209 19.9905C20.1354 20.1809 22.9246 19.7104 23.7759 20.685Z" fill="white"/>
<path d="M19.8982 19.6544C20.4023 19.3855 20.3799 18.8702 20.6263 18.4894C20.5479 18.3886 20.4135 18.2989 20.4807 18.1533C21.6457 18.4446 22.6314 19.0831 23.662 19.6656C22.1834 19.6432 21.2648 19.3967 19.8982 19.6544Z" fill="white"/>
<path d="M19.9438 22.3876L22.5091 22.4997C21.7809 22.9814 20.9184 22.1748 19.9438 22.3876Z" fill="white"/>
<path d="M20.5591 23.956L21.7577 23.6648L21.0744 23.9784L20.5591 23.956Z" fill="white"/>
<path d="M19.0119 24.2136L18.8887 22.8582L21.0954 23.127C20.4009 23.4967 19.6056 23.5975 19.0119 24.2136Z" fill="white"/>
<path d="M16.6845 30.2626C16.6957 30.5203 16.3932 30.6323 16.494 30.946L16.8189 31.2932C17.6702 30.834 18.5104 30.3075 19.4289 30.061L19.4177 30.229C18.488 30.7555 17.4574 31.0244 16.6173 31.8085C16.8525 31.5397 16.8413 31.1812 16.494 30.9572C15.6315 32.4134 15.3851 34.3738 15.4075 36.0205C16.5165 34.6202 18.432 33.2312 19.4849 32.6263L16.8189 35.0683L17.1438 35.4268L17.3118 35.2699C16.8861 35.8749 16.2812 36.4013 16.046 37.0735C16.2252 36.4462 16.7741 35.9757 17.1438 35.4268L16.8189 35.0683C16.2364 35.662 15.9228 36.3789 15.5419 37.0623C14.4777 33.1864 16.3148 29.2321 19.0705 26.6332L20.9972 25.5354C19.6754 27.0029 17.5582 28.3359 16.6845 30.2626Z" fill="white"/>
<path d="M19.4627 25.7819C19.2946 25.4795 19.3282 25.121 18.9922 24.9082L20.3476 24.8074L19.4627 25.7819Z" fill="white"/>
<path d="M16.225 33.1529C15.6537 32.6376 18.1853 31.5511 19.2271 30.8901L16.225 33.1529Z" fill="white"/>
<path d="M17.5802 33.2089L15.8103 34.8444C16.0903 33.1193 18.0619 32.772 19.1932 31.7415C19.2605 32.7048 18.0731 32.6264 17.5802 33.2089Z" fill="white"/>
<path d="M18.8022 36.3452L18.9703 36.6813L18.9143 37.8911L18.8022 36.3452Z" fill="white"/>
<path d="M17.5142 38.6866C18.1639 38.1265 17.8054 37.0959 17.951 36.3118C18.1975 37.0511 18.9256 38.4177 17.5142 38.6866Z" fill="white"/>
<path d="M17.3654 37.8127C17.455 37.9135 17.5894 38.0032 17.5334 38.1712C17.3429 38.1488 17.1189 38.1936 17.0293 37.9695L17.4326 36.4573C17.4102 36.9054 17.3766 37.5663 17.3654 37.8127Z" fill="white"/>
<path d="M16.7085 37.6223C16.014 37.387 16.6861 36.6253 16.9325 36.2668L16.7085 37.6223Z" fill="white"/>
<path d="M16.5168 38.1264C16.416 37.9024 16.1919 37.9472 16.0127 37.9248L16.528 37.9472L16.5168 38.1264Z" fill="white"/>
<path d="M50.961 13.202C50.6137 13.3141 50.3785 13.5045 50.1993 13.8182C50.1208 13.9638 50.132 14.1654 50.0648 14.2774C49.7736 14.8151 49.6392 15.3416 49.3815 15.8681C48.9671 16.7419 48.9671 17.7053 48.8886 18.6686C48.8438 19.2063 48.9895 19.7664 48.799 20.2481C48.6422 20.6626 48.4518 21.0659 48.4182 21.5027C48.407 21.6484 48.4854 21.8276 48.4518 21.9956C48.1157 23.5751 48.2053 25.1882 49.0343 26.4652C49.1799 26.7005 49.7848 26.7341 49.908 26.3196C49.9976 26.0171 49.74 25.7259 49.5383 25.4682C49.4711 25.5467 49.3815 25.4234 49.3255 25.5018C49.2471 25.2442 49.5383 25.0986 49.5383 24.9193C49.5383 24.5833 49.7736 24.3144 49.6728 23.956C49.572 23.6199 49.5944 23.2726 49.4935 22.959C49.2359 22.074 48.9671 21.2227 49.0343 20.2817C49.0343 20.2481 49.1687 20.2369 49.1799 20.1809C49.3255 19.7216 49.1015 19.1839 49.2695 18.7134C49.5047 18.0637 49.2471 17.3132 49.4487 16.6523C49.6616 15.9465 50.0088 15.3416 50.3673 14.6471C50.7593 13.8966 51.5323 13.5269 52.238 13.1796C51.6891 13.0564 50.8602 12.8436 50.5129 13.4037" fill="white"/>
<path d="M42.953 15.1737C42.673 15.3306 42.4266 15.5546 42.4042 15.8458C42.3481 16.3499 42.7514 16.8092 43.1659 16.9324C43.7148 17.1005 44.3533 16.8092 44.7005 16.2827C44.9582 15.8907 44.8013 15.4314 44.5101 15.1177C43.95 14.5128 42.953 14.6136 42.5834 15.353" fill="white"/>
<path d="M42.953 15.1737C42.673 15.3306 42.4266 15.5546 42.4042 15.8458C42.3481 16.3499 42.7514 16.8092 43.1659 16.9324C43.7148 17.1005 44.3533 16.8092 44.7005 16.2827C44.9582 15.8907 44.8013 15.4314 44.5101 15.1177C43.95 14.5128 42.953 14.6136 42.5834 15.353" stroke="#080821" stroke-width="0.313362" stroke-miterlimit="2" stroke-linecap="square"/>
<path d="M43.5802 16.6074C42.9417 16.5626 42.8409 16.1706 42.9529 15.5544C43.1546 15.3864 43.3338 15.1288 43.6474 15.252C43.5802 15.3976 43.7146 15.4872 43.7931 15.5881C43.8939 15.4984 44.0395 15.42 43.9835 15.2632C44.6108 15.6441 44.1963 16.6971 43.5802 16.6074Z" fill="#080821"/>
<path d="M38.1021 32.5592C39.7376 33.2873 41.4626 33.2313 43.1093 33.7354C44.9016 33.5226 46.8171 33.489 48.3741 32.4136C48.4078 32.9177 48.0269 33.3769 47.6796 33.7018C46.313 35.0012 44.9128 36.1662 43.3221 37.1968C43.1317 37.32 42.8965 36.9952 42.6388 37.0512C42.3252 37.1184 42.0563 37.1744 41.9555 37.5217C41.9331 37.3873 41.8211 37.2976 41.7315 37.264C41.429 37.152 41.2498 37.4993 40.9922 37.6001C40.9922 37.4993 40.8801 37.5105 40.8353 37.4433C38.8414 38.5187 36.4442 39.1796 35.2568 41.3528C35.2008 41.4536 35.0888 41.7224 35.2568 41.9129C34.1367 42.5962 32.9045 43.1003 31.8739 43.9404C31.9747 44.4221 31.325 44.4221 31.2242 44.747C31.1794 44.8702 31.4258 45.1054 31.2578 45.2063C30.6865 45.5423 30.1712 46.1472 30.1376 46.853C30.1264 46.9874 29.9808 47.0546 29.9248 47.1442C29.7456 47.4691 29.9472 47.8723 29.5999 48.1076C29.7343 48.018 29.6671 48.186 29.7231 48.1972C29.3535 48.3652 29.7007 48.5893 29.8352 48.7573C29.4655 48.6005 28.771 48.5669 28.8046 48.9253C28.8382 49.4182 28.9502 50.1799 28.7038 50.6952C28.6478 50.4936 28.6366 50.2696 28.4797 50.1127C28.3229 49.9559 28.1101 49.7991 27.9421 49.7207C27.4604 49.4966 27.0011 49.3062 26.5418 49.0261C26.217 48.8357 26.3962 48.466 26.4074 48.13C26.4074 48.0404 26.6315 48.13 26.6315 48.074C26.6539 47.5363 26.7659 46.9538 26.4634 46.4833C26.3626 46.3265 26.2842 46.1584 26.1946 46.0016C26.5754 46.136 26.8891 45.8896 27.2139 45.7328C26.9675 45.2399 26.7323 44.7358 26.497 44.2429C26.8443 44.3549 27.3372 44.4109 27.4268 44.2429C27.8076 43.4699 26.8891 42.7642 26.8555 41.9353C26.8443 41.4312 26.8219 40.9495 26.7323 40.4566C27.2588 40.6919 27.7068 41.1847 28.3005 40.8487C28.1549 40.7255 28.2669 40.5126 28.1549 40.3894C28.715 40.4118 29.1855 41.1175 29.7456 40.5574C29.8576 40.4454 29.7231 40.1318 29.6111 39.9189C29.824 39.8853 30.048 39.8629 30.2608 39.8629C30.5521 39.8629 30.8321 40.311 31.0898 39.9973C31.2242 39.8293 30.989 39.5268 31.0562 39.3252C31.1234 39.1572 31.4482 39.3028 31.6275 39.1684C31.437 39.2468 31.605 38.9891 31.4706 39.0116C31.4706 38.8995 31.5714 38.8659 31.6275 38.8771C31.9187 38.9443 32.1875 39.09 32.4676 39.1012C33.0053 39.1236 33.4645 38.7763 33.9126 38.4963C34.6295 38.037 35.2232 37.4657 35.7945 36.8384C36.3322 36.2335 36.5674 35.2925 37.2844 35.0124C37.5084 34.9228 38.0237 35.0797 38.1469 34.8108C38.3149 34.4523 38.6062 33.657 37.9453 33.5114C37.9677 33.5002 37.9901 33.489 38.0125 33.4778C37.8557 33.3994 37.71 33.6458 37.598 33.5226C37.3964 33.3097 37.3852 32.9737 37.5308 32.7496C37.6204 32.6152 37.822 32.548 38.0013 32.5032C38.0237 32.4696 38.0573 32.5368 38.1021 32.5592Z" fill="white"/>
<path d="M39.4441 29.4786C38.9736 29.4001 40.9675 31.3829 41.6733 31.6181C42.4574 31.8758 43.2303 31.4613 44.0144 31.2933C44.7986 31.1253 45.4371 30.4755 46.21 30.3859C46.9493 30.2963 47.6998 30.2179 48.4503 30.1843C49.1561 30.1619 49.8282 29.8818 50.4667 29.6242C52.1469 28.9745 53.8384 28.4816 55.3058 27.3054C55.5299 27.1261 54.9698 27.5294 54.925 27.1485C53.2111 27.7198 52.483 27.8767 50.7243 28.4368C50.1642 28.616 49.7049 28.9185 49.2233 29.2769C48.7976 29.5906 48.3047 29.669 47.8342 29.6802C47.319 29.6802 46.8037 29.7474 46.2996 29.7698C45.7955 29.7922 45.2914 29.893 44.7986 30.0947C44.4513 30.2291 43.9136 30.2627 43.7568 29.8818C43.6448 29.613 43.6896 29.0977 44.0816 29.1425C44.4849 29.1873 44.8546 29.1649 45.269 29.2545C45.8067 29.3777 46.3668 29.4113 46.9157 29.2545C48.3047 28.84 49.4809 28.1455 50.8139 27.6414C51.1948 27.4958 51.7101 27.4622 51.8557 26.9469C51.5644 26.9357 51.2956 27.0365 51.0156 27.1261C49.8618 27.4846 48.8536 27.9999 47.7222 28.3808C47.0837 28.5936 46.4452 28.784 45.7619 28.728C45.4259 28.7056 45.101 28.6048 44.7649 28.5152C44.5185 28.448 44.1713 28.2575 44.0144 28.4368C43.9136 28.5488 43.8016 28.7504 43.7792 28.9521C43.6224 28.7056 42.5134 29.2993 42.3118 29.3777C41.6957 29.613 40.5867 29.6802 39.4441 29.4786Z" fill="white"/>
<path d="M42.8848 32.9288C43.8145 32.5255 44.5986 31.8534 45.562 31.5061C45.5732 31.5061 45.6628 31.6405 45.6292 31.6629C44.4866 32.5143 44.453 32.4247 42.8848 32.9288Z" fill="white"/>
<path d="M40.6658 32.4694C41.2483 32.2789 41.7411 31.9541 42.346 31.8309C42.4021 31.8197 42.5029 31.9317 42.4805 31.9541C41.5283 32.5478 41.4275 32.4582 40.4865 32.671C40.4529 32.671 40.5538 32.5142 40.6658 32.4694Z" fill="white"/>
<path d="M46.583 32.8168C47.2663 32.5815 47.748 31.9542 48.3977 31.8534C48.4985 31.8422 48.2969 32.0886 48.2409 32.1222C47.7144 32.4023 47.3111 32.9512 46.583 32.8168Z" fill="white"/>
<path d="M36.6111 42.2263C36.8464 42.3048 37.1376 41.8903 37.3057 41.7447C37.2048 41.9015 37.2945 41.9351 37.3281 42.0807C37.4513 42.0247 37.4065 42.1479 37.3841 42.2151C37.3617 42.3048 37.6865 41.8231 37.7761 41.7447C37.7089 42.2712 37.2496 43.0889 37.4065 43.537C37.4289 43.6042 37.3617 43.8394 37.4961 43.761C37.5969 43.6938 37.7201 43.6826 37.7985 43.593C38.045 43.3241 38.9747 41.6326 39.2772 41.3078C39.378 41.1846 39.1988 41.4198 39.2996 41.4646C39.0419 41.8791 38.045 43.7946 37.989 44.2763C37.9666 44.4443 38.1346 44.702 38.325 44.6684C38.7283 44.6012 39.6356 43.481 40.3749 41.9463C40.4646 42.1031 39.2996 44.2763 39.2324 44.4219C39.2996 44.4219 39.6468 44.0411 39.7028 44.0411C39.5684 44.3435 39.0755 45.0156 39.1427 45.3629C39.1876 45.6205 39.4452 45.6654 39.6468 45.5869C39.9829 45.4637 40.1845 45.1613 40.4646 44.9372C40.3974 45.2845 40.2405 45.5981 39.9717 45.8222C39.9045 45.8782 39.7588 45.867 39.658 45.8334C39.1652 45.6766 38.8179 45.3293 38.3922 45.0156C37.9106 44.6684 37.6193 44.2091 37.272 43.7274C36.9136 43.2345 36.5439 42.7864 36.4431 42.1815C36.4767 42.2151 36.5551 42.2151 36.6111 42.2263Z" fill="white"/>
<path d="M42.6616 45.1949C42.9081 44.87 42.9977 44.1195 43.1881 43.7722C43.2441 44.0411 43.3897 44.2651 43.3113 44.534C43.5242 44.4555 43.3337 44.4331 43.4794 44.3323C43.5466 44.2763 43.4233 43.8282 43.5242 43.8842C43.6362 43.9403 43.8266 44.3099 43.8714 44.3211C44.1627 44.4219 44.1627 43.8282 44.2635 43.5818C44.3979 44.0747 44.3755 45.038 44.3083 45.5533C43.8042 45.3853 43.1545 45.3853 42.6616 45.1949Z" fill="white"/>
<path d="M42.9766 37.7119C42.9766 37.7119 43.1894 43.2457 40.5122 46.3823C40.5122 46.3823 43.8503 43.3129 42.9766 37.7119Z" fill="white"/>
<path d="M43.9929 38.3728C43.9929 38.3728 44.9899 39.1569 45.0347 40.77C45.0347 40.77 45.2027 39.437 44.0153 38.1824L43.9929 38.3728Z" fill="white"/>
<path d="M33.2966 24.1687C33.8231 26.3643 34.8089 28.9744 36.87 30.1282C37.7774 30.6323 39.1552 30.5091 39.9505 30.0722C40.2754 29.893 40.9475 30.0162 41.0035 30.3298C41.0931 30.7443 41.3395 31.0916 41.6868 31.3492C41.7428 31.5621 41.5524 31.7637 41.3619 31.8757C40.9587 32.0997 40.5554 32.3126 40.1185 32.4694C39.4016 32.7383 38.7519 32.3014 38.0014 32.2006C37.7549 32.167 37.5645 31.9317 37.3517 31.8981C37.15 31.8645 37.038 31.6965 36.8476 31.6517C36.5227 31.5733 36.2203 31.3268 35.8954 31.114C35.593 30.9235 35.0217 30.6323 34.8089 30.3298C33.6775 28.7503 33.4871 27.5741 32.927 25.8714C32.6133 24.9193 32.2661 24.0343 32.6805 22.8357C33.0502 23.1269 33.1398 23.7319 33.2966 24.1687Z" fill="white"/>
<path d="M33.2966 24.1687C33.8231 26.3643 34.8089 28.9744 36.87 30.1282C37.7774 30.6323 39.1552 30.5091 39.9505 30.0722C40.2754 29.893 40.9475 30.0162 41.0035 30.3298C41.0931 30.7443 41.3395 31.0916 41.6868 31.3492C41.7428 31.5621 41.5524 31.7637 41.3619 31.8757C40.9587 32.0997 40.5554 32.3126 40.1185 32.4694C39.4016 32.7383 38.7519 32.3014 38.0014 32.2006C37.7549 32.167 37.5645 31.9317 37.3517 31.8981C37.15 31.8645 37.038 31.6965 36.8476 31.6517C36.5227 31.5733 36.2203 31.3268 35.8954 31.114C35.593 30.9235 35.0217 30.6323 34.8089 30.3298C33.6775 28.7503 33.4871 27.5741 32.927 25.8714C32.6133 24.9193 32.2661 24.0343 32.6805 22.8357C33.0502 23.1269 33.1398 23.7319 33.2966 24.1687Z" stroke="#080821" stroke-width="0.626724"/>
<path d="M27.8967 34.441C27.9975 34.4635 28.0984 34.4523 28.1768 34.3962C28.0648 34.5195 27.9639 34.6987 28.0536 34.7995C28.132 34.8891 28.2776 34.7211 28.3896 34.6539C28.4008 34.7435 28.3224 34.7435 28.2776 34.7771C28.2216 34.8219 28.2216 34.9003 28.2104 34.9675C28.1768 35.0908 28.1768 35.214 28.2552 35.3148C28.3224 35.4156 28.4568 35.4604 28.5464 35.382C28.6697 35.27 28.7817 35.158 28.9161 35.0572C28.7481 35.2588 28.7145 35.5612 28.8825 35.7853C28.8937 35.7965 28.9497 35.8413 28.9833 35.8077C29.1401 35.6397 29.2746 35.4716 29.4538 35.326C29.577 35.214 29.7674 35.214 29.9243 35.1468C29.8346 35.2588 29.7002 35.3036 29.5882 35.382C29.4202 35.5164 29.297 35.6509 29.1625 35.8077C29.1289 35.8525 29.0617 35.8973 29.0841 35.9645C29.1065 36.0765 29.2073 36.1774 29.3194 36.1213C29.7674 35.8637 30.1035 35.494 30.5628 35.2812C30.4283 35.494 30.1483 35.6285 30.0027 35.8525C29.8794 36.0429 29.801 36.211 29.6666 36.4014C29.6218 36.4686 29.6218 36.7151 29.6778 36.7263C29.7674 36.7599 29.8122 36.9615 29.9243 36.8831C30.1147 36.7599 30.2603 36.5134 30.4395 36.379C30.5516 36.2894 30.6524 36.211 30.7532 36.1213C31.1453 35.7741 31.4589 35.3596 31.9518 35.1916C32.0414 35.158 32.131 35.0572 32.2318 35.0572C32.1646 35.2252 31.963 35.3372 31.8286 35.4044C31.7613 35.438 31.6829 35.438 31.6381 35.494C31.2797 36.0093 30.8428 36.3454 30.4059 36.7599C30.2715 36.8831 30.1707 37.0735 30.2155 37.2191C30.2827 37.4096 30.574 37.5104 30.798 37.4544C30.8764 37.432 30.9324 37.3312 30.966 37.264C31.2125 36.8831 31.4925 36.5694 31.8734 36.3118C32.0974 36.155 32.2766 36.0093 32.5119 35.8749C32.8255 35.6845 33.1504 35.5613 33.4864 35.438C33.6096 35.3932 33.52 35.3484 33.576 35.5164C32.7919 35.9309 32.355 36.3342 31.7613 37.0287C31.6269 37.1967 31.3917 37.376 31.3693 37.5888C31.6157 37.656 31.9854 37.7456 32.2094 37.6784C32.5343 37.5888 32.8255 37.3872 33.0832 37.1519C33.3744 36.8943 33.6096 36.5918 33.9121 36.3454C34.1249 36.1662 34.2369 35.8973 34.4834 35.7853C34.685 35.6957 34.9091 35.6397 35.1443 35.6061C35.2339 35.5949 35.3907 35.5837 35.3907 35.6957C35.3907 35.8637 35.1443 35.9309 35.0547 36.0653C34.8979 36.3006 34.7522 36.4462 34.5506 36.6254C34.1809 36.9615 33.8561 37.2527 33.4304 37.5216C33.2848 37.6112 33.1392 37.6448 32.9823 37.6784C32.6351 37.7344 32.3102 37.7344 31.963 37.7568C31.5037 37.7904 31.0892 37.6224 30.6412 37.5328C30.4955 37.4992 30.3275 37.4992 30.2155 37.3984C29.8122 36.9951 29.4874 36.5694 29.0617 36.1774C28.7705 35.9085 28.4568 35.7069 28.2328 35.3708C28.0424 35.0796 27.9415 34.7547 27.9303 34.4074C27.9079 34.4298 27.9079 34.4298 27.8967 34.441Z" fill="white"/>
<path d="M45.9892 51.132C45.9892 51.132 40.2427 54.459 32.4686 49.3285C32.379 49.2613 32.267 49.1717 32.1101 49.1269C32.0429 49.1157 31.9645 49.0821 31.9421 49.0485C31.6845 48.7796 31.5949 48.4099 31.2364 48.2083C31.0684 48.1075 30.8555 47.917 30.6651 47.8274C30.2394 47.6258 30.0266 47.0097 29.5561 47.0321C29.3321 47.0433 29.4441 47.4802 29.3433 47.7378C29.2761 47.8946 29.2201 48.1635 29.3769 48.2643C29.5001 48.3427 29.7466 48.3539 29.8586 48.2643C30.0938 48.0739 30.3739 48.0403 30.5419 48.2979C30.6987 48.5332 30.7323 48.6676 30.9452 48.8468C31.1916 49.0484 31.158 48.9476 31.4156 49.1381C31.5613 49.2389 31.9645 49.5637 32.1101 49.6758C32.1101 49.6758 38.82 54.459 45.9892 51.132Z" fill="white"/>
<path d="M29.925 50.2021C30.0034 50.2694 30.0482 50.3478 30.1154 50.4374C30.4179 50.8183 30.6195 50.8967 30.6979 51.2103C30.8771 51.9721 31.4708 52.5322 31.3476 53.2939C30.8435 52.6218 30.7091 51.804 30.1938 51.0871C30.0146 50.8295 29.8242 50.5494 29.925 50.2021Z" fill="white"/>
<path d="M41.1492 50.1349C41.1492 50.1349 42.7622 50.1349 43.804 49.7988C43.804 49.7988 42.8967 50.3701 41.1492 50.1349Z" fill="white"/>
<path d="M50.323 29.4897C50.5807 29.7362 50.9391 29.6802 51.264 29.7586C51.2976 29.7698 51.488 29.8146 51.3984 29.9042C50.9839 30.3075 50.4239 30.3971 49.9534 30.7332C49.819 30.834 49.5725 31.1028 49.7629 31.1476C50.267 31.2596 50.6703 30.834 51.1632 30.6883C51.5216 30.5875 51.8801 30.4531 52.1601 30.1842C52.2946 30.061 52.4066 29.9266 52.5634 29.837C53.0227 29.5569 53.4147 29.2769 53.874 28.9968C54.1092 28.8512 54.2549 28.6272 54.4677 28.4703C54.6469 28.3359 54.6805 28.1679 54.8598 28.0447C55.0502 27.899 55.1846 27.9102 55.095 27.6526C55.1062 27.6974 54.9158 27.3501 55.0726 27.2717C54.8038 27.395 54.5573 27.5294 54.2997 27.6638C53.986 27.8094 53.65 27.9326 53.3363 28.0559C52.5522 28.3695 51.7681 28.6608 50.9951 29.0192C50.8383 29.0977 50.8271 29.3105 50.6591 29.4001" fill="white"/>
<path d="M55.1947 25.8604C54.3434 25.9724 53.548 26.1852 52.7303 26.4429C52.7079 26.4429 52.7191 26.5549 52.7191 26.6109C52.8871 26.6109 53.0552 26.6669 53.1896 26.6669C53.9289 26.6557 54.601 26.2524 55.2731 25.95C55.2507 25.9164 55.2171 25.8604 55.1947 25.8604Z" fill="white"/>
<path d="M52.2613 51.2106H52.0149L51.9141 50.2808L51.4884 51.2106H51.2419L51.8804 49.8215H52.1269L52.2277 50.7513L52.6534 49.8215H52.911L52.2613 51.2106Z" fill="#080821"/>
<path d="M53.4259 51.2106H53.6724L53.8404 49.8215H53.538L52.4402 51.2106H52.709L52.9443 50.9081H53.4483L53.4259 51.2106ZM53.1347 50.6729L53.5716 50.1128L53.4932 50.6729H53.1347Z" fill="#080821"/>
<path d="M54.2425 51.2103H53.9736L54.5113 50.0565H54.1193L54.2313 49.8213H55.2506L55.1498 50.0565H54.769L54.2425 51.2103Z" fill="#080821"/>
<path d="M54.759 51.2106L55.4087 49.8215H55.6664L55.0167 51.2106H54.759Z" fill="#080821"/>
<path d="M55.5669 51.0871C55.6341 51.1767 55.7461 51.2327 55.8917 51.2327C56.015 51.2327 56.1494 51.1991 56.2726 51.1319C56.3958 51.0647 56.519 50.9638 56.6199 50.8294C56.7207 50.695 56.8103 50.5382 56.8439 50.3813C56.8887 50.2021 56.8775 50.0565 56.8103 49.9557C56.7319 49.8548 56.6199 49.7988 56.463 49.7988C56.3174 49.7988 56.1718 49.8436 56.0374 49.9221C55.9029 50.0117 55.7797 50.1349 55.6789 50.2917C55.6005 50.4149 55.5445 50.5382 55.5109 50.6614C55.4661 50.8294 55.4885 50.975 55.5669 51.0871ZM55.9365 50.3253C56.015 50.2245 56.0822 50.1461 56.1606 50.1013C56.239 50.0565 56.3174 50.0341 56.3846 50.0341C56.4742 50.0341 56.5302 50.0677 56.5638 50.1237C56.6086 50.1909 56.6087 50.2805 56.5862 50.3925C56.5526 50.5046 56.5078 50.6054 56.4294 50.7062C56.351 50.807 56.2726 50.8854 56.2054 50.9302C56.127 50.975 56.0598 50.9974 55.9925 50.9974C55.9141 50.9974 55.8469 50.9638 55.8133 50.9078C55.7685 50.8518 55.7685 50.7622 55.7909 50.6614C55.8133 50.5382 55.8693 50.4261 55.9365 50.3253Z" fill="#080821"/>
<path d="M57.7303 51.2103H57.4838L57.383 50.2806L56.9461 51.2103H56.6997L57.3382 49.8213H57.5846L57.6855 50.7511L58.1223 49.8213H58.3688L57.7303 51.2103Z" fill="#080821"/>
<path d="M58.881 51.2106H59.1275L59.2955 49.8215H58.993L57.8953 51.2106H58.1641L58.3993 50.9081H58.9034L58.881 51.2106ZM58.5898 50.6729L59.0266 50.1128L58.9482 50.6729H58.5898Z" fill="#080821"/>
<path d="M59.3062 51.2103L59.9447 49.8213H60.2135L59.6758 50.9751H60.3367L60.2247 51.2103H59.3062Z" fill="#080821"/>
<path d="M61.9287 50.583H61.4246L61.1446 51.2103H60.8757L61.5142 49.8213H61.7831L61.5366 50.359H62.0295L62.276 49.8213H62.5448L61.9063 51.2103H61.6375L61.9287 50.583Z" fill="#080821"/>
<path d="M62.1753 51.2106L62.8138 49.8215H63.7771L63.6651 50.0568H62.9706L62.825 50.3704H63.4971L63.3963 50.6057H62.7242L62.545 50.9753H63.2955L63.1835 51.2106H62.1753Z" fill="#080821"/>
<path d="M64.3362 50.6726L64.4146 50.1125L63.9777 50.6726H64.3362ZM64.3026 50.8967H63.7985L63.5632 51.1991H63.2832L64.381 49.8101H64.6834L64.5154 51.1991H64.269L64.3026 50.8967Z" fill="#080821"/>
<path d="M65.1438 51.2104C65.2446 51.2104 65.3118 51.2104 65.3567 51.1992C65.4239 51.188 65.5023 51.1656 65.5695 51.1319C65.6367 51.0983 65.7151 51.0423 65.7935 50.9751C65.8719 50.8967 65.9391 50.8183 65.9952 50.7175C66.0512 50.6167 66.096 50.5158 66.1296 50.4038C66.1632 50.2918 66.1632 50.2022 66.152 50.1238C66.1408 50.0454 66.1184 49.9781 66.0736 49.9333C66.0288 49.8885 65.9727 49.8549 65.9055 49.8437C65.8607 49.8325 65.7823 49.8325 65.6591 49.8325H65.3118L64.6733 51.2216H65.1438V51.2104ZM65.4911 50.0566H65.6479C65.7263 50.0566 65.7823 50.0678 65.8159 50.079C65.8607 50.1014 65.8831 50.135 65.8943 50.1798C65.9055 50.2358 65.9055 50.303 65.8831 50.3926C65.8495 50.5046 65.8159 50.5943 65.7599 50.6839C65.7039 50.7623 65.6479 50.8295 65.5919 50.8743C65.5359 50.9191 65.4799 50.9527 65.4239 50.9639C65.3791 50.9751 65.3118 50.9863 65.211 50.9863H65.0766L65.4911 50.0566Z" fill="#080821"/>
<path d="M66.9791 50.8742C67.0463 50.8182 67.1023 50.751 67.1696 50.6502C67.2256 50.5605 67.2704 50.4709 67.2928 50.3813C67.3264 50.2693 67.3152 50.1797 67.2816 50.1237C67.248 50.0676 67.1808 50.034 67.0911 50.034C67.0239 50.034 66.9455 50.0564 66.8783 50.1013C66.7999 50.1461 66.7215 50.2245 66.6543 50.3253C66.5759 50.4261 66.5311 50.5381 66.4974 50.639C66.4638 50.751 66.475 50.8406 66.5086 50.8966C66.5535 50.9526 66.6095 50.9862 66.6991 50.9862C66.7439 50.9862 66.7663 50.9862 66.7887 50.975C66.7999 50.975 66.7999 50.9638 66.7999 50.9638C66.7999 50.9526 66.7887 50.9414 66.7775 50.919C66.7551 50.8854 66.7215 50.863 66.6879 50.8518L66.8223 50.695C66.8895 50.7398 66.9343 50.7958 66.9791 50.8742ZM66.8783 51.1766C66.8335 51.1991 66.7887 51.2103 66.7439 51.2103C66.6991 51.2215 66.6543 51.2215 66.5983 51.2215C66.4414 51.2215 66.3406 51.1766 66.2734 51.0758C66.195 50.9638 66.1838 50.8182 66.2286 50.6502C66.2622 50.5381 66.3182 50.4149 66.3966 50.2805C66.4974 50.1237 66.6207 50.0004 66.7551 49.9108C66.8895 49.8212 67.0351 49.7876 67.1808 49.7876C67.3376 49.7876 67.4496 49.8436 67.528 49.9444C67.6064 50.0452 67.6176 50.1909 67.5616 50.3701C67.528 50.5045 67.4608 50.639 67.3712 50.7622C67.2816 50.8854 67.192 50.9862 67.0799 51.0646C67.1135 51.1206 67.1696 51.1654 67.2256 51.2103L67.0575 51.3895C66.9791 51.3447 66.9119 51.2775 66.8783 51.1766Z" fill="#080821"/>
<path d="M68.0221 49.8215H68.2909L67.9437 50.572L67.8541 50.7513C67.8429 50.7737 67.8429 50.7849 67.8317 50.7961C67.8205 50.8521 67.8205 50.8969 67.8541 50.9305C67.8877 50.9641 67.9325 50.9865 67.9997 50.9865C68.0557 50.9865 68.1117 50.9753 68.1565 50.9529C68.2013 50.9305 68.2461 50.8969 68.2797 50.8409C68.3133 50.7961 68.3693 50.7065 68.4254 50.572L68.7838 49.8103H69.0527L68.6942 50.5608C68.627 50.7177 68.5598 50.8297 68.5038 50.9081C68.4254 51.0089 68.3357 51.0873 68.2461 51.1433C68.1453 51.1994 68.0445 51.2218 67.9213 51.2218C67.7756 51.2218 67.6748 51.1881 67.6188 51.1097C67.5516 51.0313 67.5404 50.9305 67.574 50.7961C67.5852 50.7513 67.6188 50.6729 67.6748 50.5384L68.0221 49.8215Z" fill="#080821"/>
<path d="M69.5907 51.2106H69.8372L70.0052 49.8215H69.7028L68.605 51.2106H68.8738L69.1091 50.9081H69.6131L69.5907 51.2106ZM69.2995 50.6729L69.7364 50.1128L69.6579 50.6729H69.2995Z" fill="#080821"/>
<path d="M70.6327 50.4262H70.7783C70.9127 50.4262 71.0023 50.415 71.0583 50.4038C71.1143 50.3926 71.1592 50.359 71.204 50.3254C71.2488 50.2806 71.2712 50.247 71.2824 50.191C71.2936 50.1349 71.2824 50.1013 71.2488 50.0789C71.2264 50.0677 71.1816 50.0565 71.1031 50.0565H70.8119L70.6327 50.4262ZM70.2742 51.2103H70.0054L70.6439 49.8213H71.2152C71.3272 49.8213 71.3944 49.8325 71.4392 49.8549C71.484 49.8773 71.5176 49.9221 71.54 49.9781C71.5624 50.0341 71.5512 50.1013 71.5288 50.191C71.4952 50.3142 71.4392 50.415 71.3496 50.4822C71.26 50.5606 71.148 50.6054 71.0135 50.6166C71.0359 50.6502 71.0583 50.7062 71.0807 50.7623C71.1144 50.8743 71.1368 51.0199 71.148 51.1991H70.8567C70.8567 51.1655 70.8455 51.0535 70.8231 50.8855C70.8119 50.7959 70.8007 50.7286 70.7783 50.695C70.7671 50.6726 70.7447 50.6502 70.7335 50.639C70.7111 50.6278 70.6775 50.6278 70.6327 50.6278H70.5207L70.2742 51.2103Z" fill="#080821"/>
<path d="M71.8658 51.2106H71.6082L72.1346 50.0568H71.7538L71.8546 49.8215H72.8852L72.7731 50.0568H72.4035L71.8658 51.2106Z" fill="#080821"/>
<path d="M72.4126 51.2103L73.0511 49.8213H74.0145L73.9024 50.0565H73.2191L73.0735 50.3702H73.7344L73.6336 50.6054H72.9615L72.7935 50.9751H73.5328L73.4208 51.2103H72.4126Z" fill="#080821"/>
<path d="M74.1481 50.6278H74.2601C74.3161 50.6278 74.3497 50.6278 74.3609 50.639C74.3833 50.6502 74.3945 50.6614 74.4057 50.695C74.4281 50.7286 74.4393 50.7959 74.4505 50.8855C74.4729 51.0535 74.4841 51.1655 74.4841 51.1991H74.7754C74.753 51.0087 74.7306 50.8631 74.7082 50.7623C74.6858 50.695 74.6634 50.6502 74.6409 50.6166C74.7754 50.5942 74.8874 50.5494 74.977 50.4822C75.0666 50.4038 75.1226 50.3142 75.1562 50.191C75.1786 50.1125 75.1786 50.0341 75.1674 49.9781C75.145 49.9221 75.1226 49.8885 75.0666 49.8549C75.0218 49.8325 74.9434 49.8213 74.8426 49.8213H74.2601L73.6216 51.2103H73.8904L74.1481 50.6278ZM74.4169 50.0565H74.7082C74.7866 50.0565 74.8314 50.0677 74.8538 50.0789C74.8874 50.1013 74.8986 50.1461 74.8874 50.191C74.8762 50.2358 74.8426 50.2806 74.809 50.3254C74.7642 50.3702 74.7194 50.3926 74.6634 50.4038C74.6073 50.415 74.5177 50.4262 74.3833 50.4262H74.2377L74.4169 50.0565Z" fill="#080821"/>
<path d="M75.079 50.751L75.3367 50.7398C75.3255 50.8182 75.3143 50.863 75.3255 50.8966C75.3367 50.9302 75.3591 50.9526 75.3815 50.9638C75.4151 50.975 75.4599 50.9862 75.5271 50.9862C75.6055 50.9862 75.6727 50.975 75.7287 50.9414C75.7736 50.9078 75.8072 50.8742 75.8184 50.8182C75.8296 50.7846 75.8296 50.751 75.8072 50.7286C75.796 50.7062 75.7399 50.6726 75.6503 50.6166C75.5383 50.5606 75.4711 50.5158 75.4375 50.4822C75.4039 50.4485 75.3815 50.4149 75.3703 50.3589C75.3591 50.3141 75.3591 50.2581 75.3815 50.2021C75.4151 50.0789 75.4823 49.9781 75.5831 49.9108C75.6839 49.8324 75.8072 49.7988 75.9528 49.7988C76.0984 49.7988 76.1992 49.8324 76.2664 49.9108C76.3336 49.9893 76.356 50.0901 76.3224 50.2245L76.0648 50.2357C76.0872 50.1013 76.0312 50.0341 75.8856 50.0341C75.8184 50.0341 75.7624 50.0453 75.7175 50.0789C75.6727 50.1013 75.6503 50.1461 75.6391 50.1909C75.6279 50.2357 75.6391 50.2693 75.6615 50.2917C75.6839 50.3141 75.7399 50.3589 75.8184 50.4037C75.9304 50.4597 75.9976 50.5046 76.0312 50.5382C76.0648 50.5718 76.0872 50.6054 76.0984 50.6502C76.1096 50.695 76.1096 50.751 76.0872 50.807C76.0536 50.9414 75.9752 51.0422 75.8632 51.1319C75.7512 51.2103 75.6167 51.2551 75.4599 51.2551C75.3479 51.2551 75.2471 51.2327 75.1799 51.1879C75.1127 51.1431 75.0678 51.0871 75.0566 51.0086C75.0566 50.919 75.0566 50.8406 75.079 50.751Z" fill="#080821"/>
<path d="M50.7256 53.6973L51.2409 53.6749C51.2073 53.8205 51.1961 53.9325 51.2185 53.9885C51.2297 54.0445 51.2745 54.0894 51.3417 54.123C51.4089 54.1566 51.4985 54.1678 51.6329 54.1678C51.801 54.1678 51.9242 54.1342 52.025 54.0781C52.1258 54.0109 52.193 53.9325 52.2154 53.8317C52.2378 53.7645 52.2266 53.6973 52.193 53.6413C52.1594 53.5965 52.0586 53.5181 51.8794 53.4284C51.6553 53.3164 51.5097 53.2156 51.4537 53.1596C51.3865 53.0924 51.3417 53.014 51.3305 52.9243C51.3081 52.8347 51.3193 52.7227 51.3529 52.5995C51.4201 52.353 51.5545 52.1514 51.7562 52.0058C51.9578 51.8602 52.2042 51.7817 52.4955 51.7817C52.7867 51.7817 52.9996 51.8602 53.134 52.0058C53.2684 52.1514 53.3132 52.353 53.2572 52.6219L52.7419 52.6443C52.7867 52.3754 52.6635 52.2298 52.3723 52.2298C52.2266 52.2298 52.1146 52.2522 52.0362 52.3082C51.9578 52.3642 51.9018 52.4315 51.8794 52.5211C51.857 52.5995 51.8682 52.6779 51.9242 52.7227C51.969 52.7787 52.081 52.8459 52.249 52.9356C52.4731 53.0476 52.6075 53.1372 52.6747 53.2044C52.7419 53.2716 52.7867 53.35 52.7979 53.4396C52.8203 53.5293 52.8091 53.6413 52.7755 53.7533C52.7083 54.0109 52.5515 54.2238 52.3274 54.3918C52.0922 54.5598 51.8234 54.6382 51.5097 54.6382C51.2745 54.6382 51.084 54.5934 50.9496 54.5038C50.804 54.4142 50.7256 54.3022 50.7032 54.1566C50.6584 54.0109 50.6696 53.8653 50.7256 53.6973Z" fill="#080821"/>
<path d="M53.8419 53.5405H54.1779C54.4356 53.5405 54.6036 53.5293 54.6932 53.5181C54.8612 53.4957 55.0069 53.4397 55.1413 53.3725C55.2757 53.2941 55.3989 53.1821 55.5221 53.0252C55.6454 52.8684 55.7238 52.7004 55.7686 52.5212C55.8134 52.3643 55.8134 52.2411 55.7798 52.1291C55.7462 52.0283 55.679 51.9498 55.5894 51.8938C55.4997 51.849 55.3541 51.8154 55.1525 51.8154H54.1107L52.8225 54.5935H53.349L53.8419 53.5405ZM54.4244 52.2859H54.794C54.9845 52.2859 55.1077 52.2971 55.1525 52.3195C55.2309 52.3643 55.2533 52.4427 55.2197 52.566C55.1861 52.678 55.1301 52.7788 55.0517 52.8572C54.9621 52.9356 54.8724 53.0028 54.7604 53.0252C54.6596 53.0589 54.4692 53.07 54.2003 53.07H54.0435L54.4244 52.2859Z" fill="#080821"/>
<path d="M56.2931 53.4507H56.506C56.6068 53.4507 56.674 53.4619 56.7188 53.4843C56.7524 53.5067 56.786 53.5403 56.8196 53.5851C56.8532 53.6635 56.8868 53.7868 56.9092 53.966C56.9541 54.3133 56.9765 54.5261 56.9765 54.6045H57.5477C57.5141 54.2348 57.4581 53.9324 57.4021 53.7196C57.3685 53.5963 57.3237 53.4955 57.2677 53.4283C57.5365 53.3947 57.7606 53.3051 57.9286 53.1483C58.1078 53.0026 58.2311 52.801 58.2871 52.5545C58.3319 52.3865 58.3319 52.2521 58.2983 52.1401C58.2647 52.0281 58.1975 51.9496 58.1078 51.9048C58.0182 51.86 57.8614 51.8264 57.6486 51.8264H56.4948L55.2178 54.6045H55.7443L56.2931 53.4507ZM56.8308 52.2857H57.4133C57.5702 52.2857 57.671 52.2969 57.7046 52.3305C57.7718 52.3753 57.7942 52.4537 57.7606 52.5657C57.7382 52.6554 57.6822 52.745 57.5926 52.8234C57.5029 52.9018 57.4133 52.9578 57.3125 52.9914C57.2117 53.025 57.0213 53.0362 56.7524 53.0362H56.4724L56.8308 52.2857Z" fill="#080821"/>
<path d="M57.7734 54.5933L59.0728 51.8264H59.6105L58.3111 54.5933H57.7734Z" fill="#080821"/>
<path d="M60.8991 54.5934H60.4062L60.2045 52.7339L59.342 54.5934H58.8491L60.1261 51.8265H60.6302L60.8318 53.6861L61.6944 51.8265H62.1873L60.8991 54.5934Z" fill="#080821"/>
<path d="M63.2837 53.1148H64.4375L63.8886 54.3022C63.7206 54.403 63.5301 54.4814 63.3061 54.5486C63.0933 54.6046 62.8804 54.6382 62.69 54.6382C62.3427 54.6382 62.1187 54.5486 61.9843 54.3694C61.8386 54.1566 61.805 53.8541 61.9059 53.4844C61.9955 53.1596 62.1411 52.8571 62.3651 52.5771C62.578 52.297 62.8132 52.0954 63.0596 51.9722C63.3061 51.849 63.5525 51.7817 63.8102 51.7817C64.0902 51.7817 64.3142 51.849 64.4599 51.9946C64.6055 52.1402 64.6727 52.3642 64.6503 52.6555L64.135 52.7115C64.135 52.3979 63.9782 52.241 63.6757 52.241C63.5077 52.241 63.3509 52.2858 63.1829 52.3755C63.026 52.4651 62.8692 52.6107 62.7236 52.8011C62.578 53.0028 62.4772 53.2268 62.4099 53.4844C62.3427 53.7197 62.3539 53.8877 62.4211 53.9997C62.4884 54.1118 62.6228 54.1678 62.8132 54.1678C62.9252 54.1678 63.026 54.1566 63.1381 54.123C63.2837 54.0894 63.4181 54.0445 63.5189 53.9885L63.7093 53.5741H63.0484L63.2837 53.1148Z" fill="#080821"/>
<path d="M64.2681 54.5934L65.5563 51.8265H67.3598L67.1469 52.2858H65.8699L65.5563 52.9579H66.8109L66.598 53.4172H65.3434L64.8057 54.5934H64.2681Z" fill="#080821"/>
<path d="M66.409 54.5934L67.7085 51.8265H68.2461L66.9467 54.5934H66.409Z" fill="#080821"/>
<path d="M67.4829 54.5934L68.7599 51.8265H70.6754L70.4626 52.2858H69.0735L68.7823 52.9243H70.1265L69.9025 53.3836H68.5695L68.2222 54.1342H69.712L69.4992 54.5934H67.4829Z" fill="#080821"/>
<path d="M69.8906 54.5934L71.1788 51.8265H71.7053L70.6411 54.1341H71.9517L71.7389 54.5934H69.8906Z" fill="#080821"/>
<path d="M73.0176 54.5934C73.208 54.5934 73.3536 54.5822 73.4544 54.571C73.6001 54.5486 73.7345 54.5038 73.8801 54.4366C74.0257 54.3694 74.1713 54.2686 74.3282 54.1229C74.485 53.9773 74.6194 53.8093 74.7314 53.6077C74.8435 53.4172 74.9331 53.2044 75.0003 52.9691C75.0563 52.7563 75.0787 52.5659 75.0563 52.409C75.0339 52.2522 74.9779 52.129 74.8995 52.0394C74.8211 51.9498 74.709 51.8825 74.5634 51.8489C74.485 51.8265 74.317 51.8265 74.0817 51.8265H73.3872L72.1102 54.6046H73.0176V54.5934ZM73.7009 52.2858H74.0033C74.1601 52.2858 74.2722 52.297 74.3282 52.3194C74.4066 52.353 74.4626 52.4314 74.485 52.5323C74.5074 52.6331 74.4962 52.7787 74.4514 52.9579C74.3954 53.182 74.3058 53.3724 74.1937 53.5404C74.0817 53.7085 73.9697 53.8429 73.8577 53.9325C73.7457 54.0221 73.6337 54.0893 73.5216 54.1229C73.432 54.1453 73.2976 54.1565 73.096 54.1565H72.8271L73.7009 52.2858Z" fill="#080821"/>
<path d="M74.9456 54.0782H75.4497L75.2481 54.515C75.1361 54.7727 75.0016 54.9519 74.8672 55.0527C74.7328 55.1535 74.576 55.2096 74.4191 55.2096L74.5312 54.9631C74.6208 54.9407 74.6992 54.9071 74.7552 54.8511C74.8112 54.7951 74.8784 54.7167 74.9232 54.6046H74.688L74.9456 54.0782Z" fill="#080821"/>
<path d="M78.2158 54.5934H77.7006L78.2382 52.2858L77.2077 54.5934H76.726L78.003 51.8265H78.7647L78.3279 53.7645L79.7169 51.8265H80.4898L79.2128 54.5934H78.7311L79.8401 52.297L78.2158 54.5934Z" fill="#080821"/>
<path d="M80.2773 54.3582C80.4118 54.5486 80.6246 54.6382 80.9382 54.6382C81.1959 54.6382 81.4535 54.571 81.7 54.4478C81.9464 54.3134 82.1816 54.1118 82.3945 53.8429C82.6073 53.5741 82.7641 53.2716 82.8538 52.9467C82.9546 52.5883 82.921 52.3082 82.7753 52.0954C82.6297 51.8826 82.4057 51.7817 82.092 51.7817C81.7896 51.7817 81.5095 51.8714 81.2295 52.0394C80.9607 52.2074 80.7142 52.4539 80.5126 52.7787C80.3558 53.0364 80.2437 53.2828 80.1765 53.518C80.0869 53.8541 80.1205 54.1342 80.2773 54.3582ZM81.0279 52.8347C81.1735 52.6331 81.3303 52.4875 81.4871 52.3978C81.644 52.3082 81.7896 52.2634 81.924 52.2634C82.092 52.2634 82.2153 52.3194 82.2825 52.4315C82.3609 52.5547 82.3833 52.7339 82.3161 52.9579C82.2601 53.1708 82.1592 53.3836 82.0024 53.5965C81.8456 53.7981 81.7 53.9549 81.5431 54.0445C81.3863 54.1342 81.2519 54.179 81.1175 54.179C80.9495 54.179 80.8262 54.123 80.7478 53.9997C80.6694 53.8765 80.647 53.7197 80.703 53.5069C80.7814 53.2604 80.8822 53.0364 81.0279 52.8347Z" fill="#080821"/>
</svg>
