<svg width="121" height="60" viewBox="0 0 121 60" fill="none" xmlns="http://www.w3.org/2000/svg">
<path d="M32.1233 44.6639C32.1233 46.1897 32.6563 46.7872 33.4712 46.7872C35.5105 46.7872 38.7596 42.0272 38.6362 37.0297C41.7285 33.7676 45.4354 28.6575 45.4354 24.5646C45.4354 23.5738 45.1544 22.7395 43.9801 22.7395C42.1848 22.7395 39.6193 25.8338 37.9921 28.9065C36.4227 32.0898 34.9547 35.7206 33.006 40.7037C32.5506 41.9536 32.1233 43.4674 32.1233 44.6639ZM76.2345 37.8707V40.4353C76.2345 40.4353 77.5057 41.3538 79.986 41.3538C83.7505 41.3538 85.4044 39.2534 85.4044 36.9612C85.4044 31.9936 78.7156 33.181 78.7156 29.8846C78.7156 28.6458 79.702 27.7495 81.3577 27.7495C83.2913 27.7495 84.7156 28.7813 84.7156 28.7813V26.4075C84.7156 26.4075 83.3916 25.6739 81.483 25.6739C78.264 25.6739 76.2583 27.6842 76.2583 30.0993C76.2583 35.0106 82.9263 34.0499 82.9263 37.2504C82.9263 38.7213 81.7169 39.2544 80.153 39.2544C77.9142 39.2544 76.2345 37.8707 76.2345 37.8707ZM100.529 41.0015H98.1351V32.4754C98.1351 29.3024 96.9769 27.7159 94.6604 27.7159C93.4633 27.7159 92.4729 28.1661 91.6894 29.0664C90.9059 29.9667 90.5142 31.103 90.5142 32.4754V41.0015H88.1199V26.0516H90.5142V28.5335H90.5725C91.7016 26.6453 93.3367 25.7012 95.478 25.7012C97.1131 25.7012 98.3638 26.2292 99.2301 27.2852C100.096 28.3413 100.529 29.8669 100.529 31.8622L100.529 41.0015ZM73.6207 41.0015H71.2263V32.417C71.2263 30.7624 70.9708 29.5652 70.4598 28.8255C69.9488 28.0858 69.0899 27.7159 67.883 27.7159C66.861 27.7159 65.9924 28.1831 65.277 29.1175C64.5616 30.0519 64.2039 31.1712 64.2039 32.4754V41.0015H61.8096V32.125C61.8096 29.1856 60.6757 27.7159 58.4079 27.7159C57.3567 27.7159 56.4905 28.1564 55.8092 29.0372C55.1279 29.918 54.7872 31.0641 54.7872 32.4754V41.0015H52.3929V26.0516H54.7872V28.4167H54.8456C55.9065 26.6064 57.454 25.7012 59.4883 25.7012C60.5102 25.7012 61.4008 25.9859 62.16 26.5553C62.9191 27.1247 63.4399 27.8717 63.7221 28.7963C64.8317 26.7329 66.4863 25.7012 68.686 25.7012C71.9757 25.7012 73.6206 27.7305 73.6206 31.7892L73.6207 41.0015ZM23.2872 48C21.2426 48 19.5 46.7167 19.5 43.808C19.5 39.3176 23.3642 35.9076 25.1175 34.9432C25.1175 34.9432 27.5705 36.3563 30.1153 37.2656C25.0589 34.0665 21.828 28.2377 21.828 21.7682C21.828 15.7222 25.0193 13 27.9006 13C30.2185 13 35.7137 15.5498 35.7137 25.334C35.7137 35.8621 30.2201 48 23.2872 48Z" fill="#080821"/>
</svg>
