<svg width="121" height="60" viewBox="0 0 121 60" fill="none" xmlns="http://www.w3.org/2000/svg">
<path fill-rule="evenodd" clip-rule="evenodd" d="M24.4706 21.2274C24.5181 21.4528 24.5418 21.6901 24.5418 21.9274C24.5418 21.963 24.5418 21.9986 24.5299 22.0342C24.4943 23.9801 22.8925 25.5345 20.9466 25.4989H20.8992C18.9414 25.487 17.3515 23.8852 17.3633 21.9156C17.3633 21.2037 17.5769 20.5155 17.9685 19.9222C18.2295 19.5307 18.5617 19.1984 18.9533 18.9374C19.1431 18.8069 19.3567 18.7001 19.5703 18.6052C19.7957 18.5221 20.0212 18.4509 20.2466 18.4035C20.7093 18.3085 21.1839 18.3085 21.6467 18.4035C21.884 18.4509 22.1094 18.5103 22.323 18.6052C22.5366 18.7001 22.7502 18.8069 22.94 18.9374C23.1417 19.0679 23.3197 19.2222 23.4858 19.3883C23.6519 19.5544 23.8062 19.7442 23.9367 19.9341C24.1977 20.3256 24.3757 20.7646 24.4706 21.2274ZM33.0493 37.6014H31.222V27.1244H33.0493V37.6014ZM33.4527 23.4106C33.4527 24.0869 32.8476 24.6208 32.1 24.6208C31.4237 24.6208 30.8186 24.075 30.8186 23.4106C30.8186 22.7461 31.4237 22.0579 32.1712 22.0579C32.8476 22.0579 33.4527 22.663 33.4527 23.4106ZM54.3351 31.0518V37.6014H52.5078V31.6569C52.5078 29.6992 51.4281 28.6194 49.6009 28.6194C48.9839 28.5957 48.3669 28.75 47.8448 29.0941C47.5007 29.3195 47.2041 29.6161 46.9786 29.9602C46.6346 30.4823 46.4684 31.0993 46.504 31.7163V37.5895H44.6768V31.6451C44.6768 29.6873 43.5971 28.6076 41.7698 28.6076C40.0138 28.6076 38.5899 29.7585 38.5899 31.7163V37.5895H36.7627V27.0651H38.5899V28.4177C39.4205 27.3855 40.7019 26.8041 42.0308 26.8634C43.8581 26.8634 45.2701 27.6702 45.9464 28.9517C46.8244 27.3973 48.4499 26.9227 49.9331 26.9227C52.5078 26.9227 54.3351 28.5483 54.3351 31.0518ZM76.2979 36.1182C74.1266 36.1182 72.6434 34.4215 72.6434 32.3332C72.6434 30.2331 74.1147 28.6194 76.286 28.6194C78.4574 28.6194 79.9405 30.1737 79.9405 32.3332C79.9405 34.4927 78.4692 36.1182 76.2979 36.1182ZM79.81 37.6014H81.6254V27.1363H79.7981V28.5601C78.9913 27.5397 77.7692 26.9345 76.0843 26.9345C73.118 26.9345 70.8162 29.1652 70.8162 32.4044V32.6061C70.8162 35.5131 73.1892 37.8743 76.0962 37.8743C77.5082 37.9099 78.8727 37.3166 79.81 36.2487V37.6014ZM63.3292 36.1182C61.1579 36.1182 59.6748 34.4927 59.6748 32.3332C59.6748 30.1619 61.1579 28.6194 63.3292 28.6194C65.5006 28.6194 66.9837 30.3043 66.9837 32.3332C66.9837 34.4334 65.5599 36.1182 63.3292 36.1182ZM63.5309 37.8031C66.4972 37.8031 68.7991 35.5131 68.7991 32.3332V32.3214H68.7279C68.7279 29.1533 66.4379 26.8515 63.4598 26.8515C62.0478 26.8159 60.6833 27.4092 59.7459 28.477V27.1244H57.9187V41.9915H59.8171V36.1775C60.624 37.1268 61.8461 37.8031 63.5309 37.8031ZM104.062 28.8211H99.6006V33.8875C99.6006 35.4419 100.479 36.1894 101.63 36.1894C102.377 36.1894 103.184 35.8453 103.789 35.5131L104.667 36.8657C103.742 37.542 102.626 37.898 101.487 37.8742C99.1853 37.8742 97.7734 36.5216 97.7734 33.8875V28.8211H95.5427V27.1955H97.7734V23.814H99.6006V27.1955H104.062V28.8211ZM93.8579 28.5482L92.7069 29.7584C91.9713 28.9753 90.939 28.5363 89.8712 28.5482C87.8422 28.5482 86.2879 30.1025 86.2879 32.3332C86.2879 34.5638 87.8422 36.1182 89.8712 36.1182C90.9628 36.1182 92.0069 35.6792 92.7781 34.8961L93.8579 36.1775C92.8375 37.2454 91.4136 37.8386 89.9424 37.803C88.1032 37.8742 86.3709 36.9844 85.3505 35.4537C85.1488 35.1571 84.9827 34.8367 84.8522 34.5045C84.7217 34.1723 84.6149 33.8282 84.5555 33.4722C84.4962 33.1163 84.4606 32.7603 84.4725 32.4044C84.4725 29.2245 86.7031 26.8633 89.9424 26.8633C91.5679 26.8633 92.9917 27.4684 93.8579 28.5482ZM24.1975 31.9892C23.4619 31.0518 22.3109 30.506 20.9583 30.506C19.7125 30.506 18.5259 31.0518 17.731 31.9892C17.6716 31.8586 17.6123 31.7163 17.5649 31.5739C17.5174 31.4315 17.4818 31.2772 17.4581 31.1349C17.3987 30.8501 17.375 30.5416 17.3987 30.245C17.4106 30.0907 17.4343 29.9365 17.4581 29.7941C17.4818 29.6398 17.5174 29.4975 17.5649 29.3551C17.6123 29.2127 17.6716 29.0703 17.731 28.9398C17.7903 28.8093 17.8615 28.6788 17.9445 28.5482C18.0276 28.4177 18.1107 28.2991 18.2056 28.1804C18.3005 28.0618 18.4073 27.955 18.514 27.8482L18.5141 27.8482L18.531 27.8332C18.6333 27.7421 18.7457 27.6421 18.8582 27.5634C18.9768 27.4804 19.1073 27.3973 19.2379 27.3261C19.3684 27.2549 19.4989 27.1956 19.6413 27.1363C19.7836 27.077 19.926 27.0295 20.0684 26.9939C20.2108 26.9583 20.3532 26.9346 20.5074 26.9108C20.9583 26.8515 21.4092 26.8871 21.8482 26.9939C21.8957 27.0097 21.9431 27.0242 21.9906 27.0387C22.0855 27.0677 22.1804 27.0967 22.2753 27.1363C22.4177 27.1837 22.5482 27.2549 22.6788 27.3261C22.8093 27.3973 22.9398 27.4804 23.0584 27.5634C23.1771 27.6465 23.2958 27.7414 23.4025 27.8482L23.4026 27.8482C23.5094 27.955 23.6161 28.0618 23.711 28.1804C23.806 28.2991 23.889 28.4177 23.9721 28.5482C24.0433 28.6669 24.1263 28.8093 24.1856 28.9398C24.245 29.0703 24.3043 29.2127 24.3518 29.3551C24.3914 29.4739 24.4227 29.6011 24.4527 29.7226L24.4527 29.7227L24.4704 29.7941C24.506 29.9483 24.5179 30.0907 24.5297 30.245C24.5416 30.5416 24.5297 30.8382 24.4704 31.1349C24.4467 31.2891 24.4111 31.4315 24.3636 31.5739C24.3162 31.7163 24.2568 31.8586 24.1975 31.9892ZM24.5418 34.7656C24.5418 34.5283 24.5181 34.291 24.4706 34.0655C24.4232 33.8401 24.352 33.6146 24.2689 33.3892C24.091 32.9502 23.8299 32.5586 23.4977 32.2264C22.9994 31.7281 22.3586 31.384 21.6586 31.2416C21.1958 31.1467 20.7212 31.1467 20.2585 31.2416C20.0331 31.2891 19.8076 31.3603 19.5822 31.4433C18.7041 31.8111 18.0041 32.4993 17.6481 33.3773C17.5532 33.5909 17.4939 33.8164 17.4464 34.0537C17.3515 34.5164 17.3515 34.991 17.4464 35.4538C17.5888 36.1538 17.921 36.7827 18.4312 37.2929C18.7635 37.6251 19.155 37.8861 19.594 38.0641C19.8076 38.159 20.0331 38.2183 20.2704 38.2658C20.7331 38.3607 21.2077 38.3607 21.6704 38.2658C23.0943 37.981 24.1977 36.8776 24.4825 35.4538C24.5181 35.2283 24.5418 35.0029 24.5418 34.7656Z" fill="white"/>
</svg>
