<svg width="120" height="60" viewBox="0 0 120 60" fill="none" xmlns="http://www.w3.org/2000/svg">
<path fill-rule="evenodd" clip-rule="evenodd" d="M101.909 22.3747C102.326 22.7932 102.326 23.4727 101.909 23.8912L95.8321 30.0009L101.91 36.1074C102.11 36.3094 102.223 36.5825 102.223 36.8672C102.223 37.1519 102.11 37.4251 101.91 37.6271L100.544 39L92.3126 30.7295C92.1205 30.5359 92.0127 30.2743 92.0127 30.0016C92.0127 29.7289 92.1205 29.4672 92.3126 29.2737L100.541 21.0009L101.909 22.3747ZM112.843 29.3124C113.024 29.4948 113.125 29.7415 113.125 29.9986C113.125 30.2558 113.024 30.5025 112.843 30.6849L104.573 38.9996L103.145 37.5645C102.96 37.3791 102.857 37.1283 102.857 36.867C102.857 36.6057 102.96 36.3549 103.145 36.1695L109.282 29.9991L103.197 23.8845C102.998 23.6846 102.887 23.4144 102.887 23.1328C102.887 22.8511 102.998 22.5809 103.197 22.381L104.57 21L112.843 29.3124ZM89.0384 35.1309V35.2214H88.7824V35.8932H88.6789V35.2214H88.4228V35.1305L89.0384 35.1309ZM89.1302 35.1309H89.2774L89.4956 35.7753L89.7125 35.1304H89.8588V35.8932H89.7607V35.4432C89.7607 35.4275 89.7607 35.4018 89.7615 35.3658C89.7623 35.3298 89.7628 35.2911 89.7628 35.2497L89.5459 35.8932H89.4437L89.225 35.2497V35.2731C89.225 35.292 89.2256 35.3204 89.2269 35.3585L89.2283 35.4431V35.8931H89.1302V35.1309ZM83.7235 34.2134C85.456 34.2134 86.644 32.8242 86.644 30.9846C86.644 29.1648 85.456 27.7756 83.7235 27.7756C82.0103 27.7756 80.8228 29.2039 80.8228 31.0237C80.8228 32.8237 82.0103 34.2134 83.7235 34.2134ZM84.2104 36.053C82.711 36.053 81.4456 35.3091 80.7836 33.8808V35.8968H78.8369V22.5705L80.7836 22.179V28.1082C81.4456 26.6794 82.711 25.936 84.2104 25.936C86.7214 25.936 88.727 27.8733 88.727 31.0044C88.727 34.1157 86.7218 36.053 84.2104 36.053ZM68.7403 31.8455V26.0926H70.687V32.0021C70.687 33.2935 71.5046 34.1742 72.8677 34.1742C74.2303 34.1742 75.0484 33.294 75.0484 32.0021V26.0926H76.9951V31.8455C76.9951 34.5266 75.34 36.0332 72.8677 36.0332C70.3949 36.0332 68.7403 34.5266 68.7403 31.8455ZM67.3754 36.0332C65.3702 36.1115 64.2605 35.0548 64.2605 32.6874V22.5705L66.2072 22.179V32.6874C66.2072 33.6265 66.7135 34.0568 67.4141 34.0568H67.9204V35.9747C67.7415 36.0134 67.5585 36.0331 67.3754 36.0332ZM54.6211 30.9846C54.6211 27.8733 56.7631 25.936 59.7416 25.936C61.1434 25.936 62.3894 26.386 63.3434 27.345L62.1554 28.8124C61.4161 28.0691 60.5399 27.7756 59.761 27.7756C57.97 27.7756 56.7041 28.8516 56.7041 30.9652C56.7041 33.0789 57.97 34.194 59.761 34.194C60.5395 34.194 61.4161 33.8808 62.1752 33.0982L63.3628 34.5464C62.4088 35.5049 61.1821 36.0332 59.7416 36.0332C56.782 36.0332 54.6211 34.0959 54.6211 30.9846ZM43.0574 34.9963L43.9336 33.2157C44.5762 33.6851 45.7246 34.2134 46.6007 34.2134C47.6911 34.2134 48.1195 33.6851 48.1195 33.1176C48.1388 32.4525 47.5939 32.1978 46.445 31.8261C44.5177 31.2393 43.4273 30.5544 43.4273 28.7539C43.4273 27.1101 44.6738 25.936 46.9319 25.936C48.1001 25.936 49.1707 26.3078 50.0275 26.9143L49.1513 28.5389C48.6451 28.2257 47.7883 27.7558 46.8343 27.7558C45.9973 27.7558 45.491 28.0888 45.491 28.7341C45.491 29.2624 45.8609 29.6148 47.0876 29.9865C49.1711 30.6129 50.2025 31.3954 50.2025 33.0393C50.2025 34.8982 48.7036 36.0332 46.6205 36.0332C45.1985 36.0332 43.8364 35.5638 43.0574 34.9963ZM41.6539 23.2747H43.7562L42.53 27.1299H40.9141L41.6539 23.2747ZM34.3315 35.877H32.3843V29.928C32.3843 28.695 31.7417 27.7558 30.4376 27.7558C29.0161 27.7558 28.0233 29.0082 28.0233 30.6129V35.877H26.0762V26.0926H28.0233V27.8341C28.6075 26.6011 29.678 25.9167 30.924 25.9167C32.2291 25.9167 33.2996 26.6016 33.8832 27.7752C34.7014 26.4837 35.7913 25.9167 37.0963 25.9167C39.1402 25.9167 40.6391 27.4624 40.6391 29.9474V35.877H38.6924V29.928C38.6924 28.695 38.0498 27.7558 36.7453 27.7558C35.3242 27.7558 34.3315 29.0082 34.3315 30.6129V35.877ZM19.3635 27.7756C17.631 27.7756 16.443 29.1648 16.443 31.0044C16.443 32.8242 17.631 34.2134 19.3635 34.2134C21.0771 34.2134 22.2647 32.785 22.2647 30.9652C22.2647 29.1653 21.0767 27.7756 19.3635 27.7756ZM22.3034 33.8808C21.6419 35.3095 20.376 36.053 18.8771 36.053C16.3656 36.053 14.36 34.1157 14.36 30.9846C14.36 27.8733 16.3656 25.936 18.8771 25.936C20.376 25.936 21.6414 26.6794 22.3034 28.1082V26.0926H24.2505V35.8766H22.3034V33.8808ZM6.47554 34.9963L7.35169 33.2157C7.9943 33.6851 9.14269 34.2134 10.0188 34.2134C11.1092 34.2134 11.5376 33.6851 11.5376 33.1176C11.5569 32.4525 11.012 32.1978 9.8636 31.8261C7.93534 31.2393 6.84499 30.5544 6.84499 28.7539C6.84499 27.1101 8.09149 25.936 10.3496 25.936C11.5178 25.936 12.5883 26.3078 13.4451 26.9143L12.569 28.5389C12.0627 28.2257 11.2059 27.7558 10.2519 27.7558C9.41495 27.7558 8.90869 28.0888 8.90869 28.7341C8.90869 29.2624 9.27859 29.6148 10.5053 29.9865C12.5888 30.6129 13.6202 31.3954 13.6202 33.0393C13.6202 34.8982 12.1213 36.0332 10.0382 36.0332C8.61664 36.0332 7.25449 35.5638 6.47554 34.9963Z" fill="#080821"/>
</svg>
