<svg width="121" height="60" viewBox="0 0 121 60" fill="none" xmlns="http://www.w3.org/2000/svg">
<path fill-rule="evenodd" clip-rule="evenodd" d="M15.7982 23.95C22.3833 23.95 23.5755 27.867 23.5755 27.867H17.3877C17.2174 26.7884 13.8113 26.2775 13.6978 27.3561C13.57 28.1227 14.8802 28.2822 16.7173 28.5059C17.3288 28.5803 17.9987 28.6619 18.6934 28.7753C23.9161 29.6268 23.5755 32.6355 23.5755 32.6355C23.5755 34.6792 22.1563 36.95 15.5143 36.95C8.41828 36.95 8.64535 32.9762 8.64535 33.0329H13.9248C14.3222 34.0548 15.5143 34.1683 16.6497 34.1683C17.7283 34.1683 18.1825 33.6574 18.1825 33.4303C18.1257 32.9194 17.6716 32.7491 14.6061 32.4652C9.26981 31.8975 9.0995 28.832 9.0995 28.3779C9.0995 27.9238 9.21304 23.95 15.7982 23.95ZM101.69 23.95C108.275 23.95 109.467 27.867 109.467 27.867V27.9238H103.279C103.109 26.8451 99.7026 26.3342 99.5891 27.4128C99.4613 28.1795 100.772 28.339 102.609 28.5626C103.22 28.6371 103.89 28.7186 104.585 28.832C109.807 29.6836 109.467 32.6923 109.467 32.6923C109.467 34.736 108.048 37.0067 101.406 37.0067C94.3096 37.0067 94.5367 33.0329 94.5367 33.0329H99.8162C100.214 34.0548 101.406 34.1683 102.541 34.1683C103.676 34.1683 104.131 33.6574 104.131 33.4303C104.074 32.9194 103.62 32.7491 100.554 32.4652C95.2179 31.8975 95.0476 28.832 95.0476 28.3779C95.0476 27.9238 95.1044 23.95 101.69 23.95ZM33.3972 28.0373H39.1876C39.1876 28.0373 38.4496 23.95 31.7509 23.95C25.6199 23.95 24.4277 27.9805 24.4277 30.7054C24.4277 33.4303 26.9256 36.95 31.7509 36.95C38.4496 36.95 39.2443 32.7491 39.2443 32.7491H33.3972C33.3972 32.7491 33.4539 33.8277 31.7509 33.8277C30.0478 33.8277 29.5937 31.7272 29.5937 30.4216C29.5937 29.1159 30.1614 26.9587 31.7509 26.9587C33.3972 26.9587 33.3972 28.0373 33.3972 28.0373ZM48.9516 27.9237V24.0635H53.8904V36.6661H48.9516V30.8757H45.4319V36.6661H40.4363V24.0635H45.4319V27.9237H48.9516ZM67.5151 27.4696V24.0635H60.3055H55.3098V36.6661H55.5369H67.5151V33.26H60.3055V32.0678H66.2094V28.832H60.3055V27.4696H67.5151ZM81.4801 24.0635V27.4696H74.3273V28.832H80.1745L80.2312 32.0678H74.3273V33.26H81.4801V36.6661H69.5587H69.2749V24.0635H74.3273H81.4801ZM87.8948 24.0635H82.8992V36.6661H83.183H93.4581V33.26H87.8948V24.0635ZM109.951 35.2482C109.906 35.3005 109.864 35.3484 109.864 35.4172C109.808 35.5307 109.808 35.6443 109.808 35.7578C109.808 35.8146 109.822 35.8713 109.836 35.9281C109.85 35.9849 109.864 36.0417 109.864 36.0984C109.921 36.212 109.978 36.3255 110.035 36.3823C110.079 36.4047 110.115 36.4359 110.15 36.4655C110.202 36.5109 110.25 36.5526 110.319 36.5526C110.432 36.6093 110.546 36.6093 110.659 36.6093C110.716 36.6093 110.773 36.5951 110.829 36.581C110.886 36.5668 110.943 36.5526 111 36.5526C111.113 36.4958 111.227 36.439 111.284 36.3823C111.306 36.3375 111.337 36.3015 111.367 36.2674C111.412 36.2151 111.454 36.1672 111.454 36.0984C111.511 35.9849 111.511 35.8713 111.511 35.7578C111.511 35.701 111.496 35.6443 111.482 35.5875C111.468 35.5307 111.454 35.474 111.454 35.4172C111.397 35.3037 111.34 35.1901 111.284 35.1334C111.239 35.111 111.203 35.0797 111.169 35.0501C111.116 35.0047 111.069 34.963 111 34.963C110.886 34.9063 110.773 34.9063 110.659 34.9063C110.602 34.9063 110.546 34.9205 110.489 34.9347C110.432 34.9489 110.375 34.963 110.319 34.963C110.205 35.0198 110.091 35.0766 110.035 35.1334C110.012 35.1781 109.981 35.2141 109.951 35.2482ZM110.091 36.212C110.035 36.1552 109.978 36.0984 109.978 35.9849H110.035V35.701V35.4172C110.035 35.3037 110.091 35.2469 110.148 35.1901C110.205 35.0766 110.262 35.0198 110.375 35.0198H110.659H110.943C111.057 35.0766 111.113 35.1334 111.17 35.1901C111.227 35.2469 111.284 35.3604 111.284 35.4172V35.701V35.9849C111.227 36.0984 111.17 36.1552 111.113 36.212C111.057 36.3255 110.943 36.3823 110.886 36.3823H110.602H110.319C110.205 36.3255 110.148 36.2687 110.091 36.212ZM110.886 35.3037C110.886 35.2469 110.773 35.2469 110.659 35.2469L110.602 35.1901H110.205V36.1552H110.375V35.7578H110.432V35.474H110.659H110.716H110.773V35.5307V35.6443H110.716H110.602V35.7578H110.546L110.829 36.1552H111L110.716 35.7578C110.773 35.7578 110.886 35.701 110.886 35.701C110.943 35.701 110.943 35.6443 110.943 35.5307C111 35.4172 110.943 35.3037 110.886 35.3037Z" fill="#080821"/>
</svg>
