<svg width="121" height="60" viewBox="0 0 121 60" fill="none" xmlns="http://www.w3.org/2000/svg">
<path fill-rule="evenodd" clip-rule="evenodd" d="M47.3693 16.89L43.9869 20.9652L47.9163 25.5966H45.1448L42.2365 22.0137V25.5966H40.1943V14H42.2365V19.9168L44.6069 16.89H47.3693ZM60.2239 23.5362C60.0507 23.6547 59.8228 23.7459 59.5675 23.7459C59.2484 23.7459 58.6376 23.4997 58.6376 22.6792V18.9504H60.3242V16.89H58.6376V14.7202H56.6593V16.89H55.6108V18.9595H56.6593V22.7157C56.6593 24.6575 58.1271 25.8245 59.5949 25.8245C60.1419 25.8245 60.9077 25.6422 61.5276 25.2775L60.2239 23.5362ZM25.5892 22.2234V25.5966V25.6057H23.5288V14.7294H26.9476C29.008 14.7294 30.6946 16.4069 30.6946 18.4764C30.6946 19.7345 30.0747 20.8467 29.1174 21.5305L32.1715 25.5966H29.5824L27.0479 22.2234H25.5892ZM26.9385 16.7807H25.5892V20.1539H26.9385C27.8684 20.1539 28.6251 19.3972 28.6251 18.4673C28.6251 17.5373 27.8684 16.7807 26.9385 16.7807ZM37.0946 16.89V17.2729C36.502 16.89 35.9641 16.6712 35.2348 16.6712C32.9829 16.6712 31.2781 18.7225 31.2781 21.2387C31.2781 23.755 32.9829 25.8062 35.2348 25.8062C35.9641 25.8062 36.502 25.5874 37.0946 25.2045V25.5874H39.0729V16.89H37.0946ZM35.2348 23.7094C34.1225 23.7094 33.3111 22.6154 33.3111 21.2387C33.3111 19.8621 34.1225 18.7681 35.2348 18.7681C36.347 18.7681 37.122 19.8621 37.122 21.2387C37.122 22.6154 36.347 23.7094 35.2348 23.7094ZM66.2046 27.2285H34.1226L36.6753 29.7812L66.2046 27.2285ZM52.9214 22.0045V16.89H54.8907V25.5966H52.9123V25.2684C52.9123 25.2684 52.2103 25.8063 51.2348 25.8063C49.1288 25.8063 47.6975 24.1014 47.6975 22.0045V16.89H49.6759V22.0045C49.6759 22.9618 50.3414 23.7732 51.2986 23.7732C52.265 23.7732 52.9214 22.9618 52.9214 22.0045ZM71.3373 25.5966V20.4821C71.3373 19.5248 71.9937 18.7134 72.9601 18.7134C73.9174 18.7134 74.5829 19.5248 74.5829 20.4821V25.5966H76.543V20.4821C76.543 18.3852 75.1117 16.6804 73.0057 16.6804C72.0302 16.6804 71.3282 17.2183 71.3282 17.2183V16.89H69.3499V25.5966H71.3373ZM64.7914 16.6712C62.5031 16.6712 60.8621 18.6769 60.8621 21.2478C60.8621 23.9464 62.9225 25.8245 64.9829 25.8245C66.0222 25.8245 67.3623 25.4689 68.4837 23.8735L66.7424 22.8615C65.3931 24.849 63.1413 23.837 62.886 21.8496H68.5749C69.0581 18.7225 67.0341 16.6712 64.7914 16.6712ZM66.5145 20.1174H62.9589C63.3692 18.0752 66.1316 17.9567 66.5145 20.1174ZM27.139 32.3978L23.3008 42.7271H24.641L25.5435 40.1562H30.1931L31.1139 42.7271H32.527L28.6888 32.3978H27.139ZM29.7646 38.9254H25.9902L27.8683 33.6285L29.7646 38.9254ZM36.0915 42.8912C35.4078 42.8912 34.797 42.7089 34.2499 42.3442C33.7029 41.9795 33.2653 41.469 32.9462 40.8217C32.6272 40.1744 32.4722 39.4359 32.4722 38.6063C32.4722 37.7675 32.6272 37.02 32.9462 36.3818C33.2653 35.7436 33.7029 35.2331 34.2499 34.8684C34.797 34.5037 35.4169 34.3214 36.0915 34.3214C36.7206 34.3214 37.2767 34.4764 37.7599 34.7863C38.2431 35.0963 38.6169 35.5066 38.8631 36.0262V31.249H40.1576V42.7453H39.0363L38.8904 41.1955C38.6442 41.7151 38.2705 42.1254 37.769 42.4445C37.2767 42.7362 36.7206 42.8912 36.0915 42.8912ZM36.3377 41.624C36.8209 41.624 37.2585 41.4963 37.6414 41.241C38.0243 40.9858 38.3252 40.6302 38.544 40.1744C38.7628 39.7185 38.8722 39.1898 38.8722 38.5972C38.8722 37.9955 38.7628 37.4667 38.544 37.0108C38.3252 36.555 38.0243 36.1995 37.6414 35.9533C37.2585 35.698 36.8209 35.5704 36.3377 35.5704C35.8545 35.5704 35.4169 35.698 35.034 35.9533C34.6511 36.2086 34.3502 36.5641 34.1314 37.0108C33.9126 37.4667 33.8032 37.9955 33.8032 38.5972C33.8032 39.1898 33.9126 39.7185 34.1314 40.1744C34.3502 40.6302 34.6511 40.9858 35.034 41.241C35.4169 41.4963 35.8545 41.624 36.3377 41.624ZM40.9966 34.4673L44.1692 42.7271H45.6735L48.8462 34.4673H47.4877L44.9806 41.3049L42.4553 34.4673H40.9966ZM52.6113 42.9185C51.8273 42.9185 51.1344 42.7362 50.5509 42.3715C49.9674 42.0068 49.5207 41.5054 49.2016 40.8581C48.8825 40.2108 48.7275 39.4632 48.7275 38.6063C48.7275 37.7493 48.8825 37.0017 49.2016 36.3544C49.5207 35.7071 49.9583 35.1966 50.5144 34.8228C51.0706 34.449 51.7087 34.2667 52.429 34.2667C53.1492 34.2667 53.7874 34.449 54.3435 34.8228C54.8905 35.1966 55.3281 35.7071 55.6381 36.3544C55.9481 37.0017 56.103 37.7493 56.103 38.6063V38.9345H50.0495C50.1042 39.837 50.3686 40.5299 50.8426 40.9949C51.3167 41.4598 51.9367 41.6969 52.7025 41.6969C53.6871 41.6969 54.5076 41.2046 55.164 40.2199L56.0028 41.159C55.629 41.706 55.1367 42.1345 54.5349 42.4444C53.9424 42.7635 53.3042 42.9185 52.6113 42.9185ZM52.429 35.4883C51.7908 35.4883 51.2711 35.698 50.8609 36.1083C50.4506 36.5276 50.1953 37.102 50.0859 37.8496H54.7629C54.6535 37.102 54.3982 36.5276 53.9971 36.1083C53.5868 35.698 53.0671 35.4883 52.429 35.4883ZM57.124 34.4672V42.7271H58.4277V38.5333C58.4277 37.9954 58.5189 37.5031 58.7012 37.0746C58.8836 36.637 59.1388 36.2997 59.4488 36.0444C59.7588 35.7892 60.1052 35.6615 60.4972 35.6615C60.8984 35.6615 61.2813 35.8165 61.646 36.1265L62.1018 34.8319C61.6733 34.4763 61.181 34.294 60.6431 34.294C60.1508 34.294 59.7132 34.4581 59.3121 34.7681C58.9109 35.0872 58.6101 35.5065 58.3913 36.0353L58.2454 34.4672H57.124ZM66.6512 42.8912C65.0557 42.8912 64.2534 41.9613 64.2534 40.1105V35.6707H62.813V34.4764H64.2534V32.343H65.548V34.4764H68.4289V35.6707H65.548V40.0467C65.548 41.1043 65.9492 41.633 66.7606 41.633C67.0067 41.633 67.2438 41.5875 67.4626 41.4963C67.6814 41.4051 67.9275 41.2593 68.201 41.0496L68.5748 42.3168C68.046 42.6997 67.3987 42.8912 66.6512 42.8912ZM69.7143 32.9357C69.8967 33.1271 70.1155 33.2183 70.389 33.2183C70.6534 33.2183 70.8813 33.1271 71.0636 32.9357C71.2368 32.7442 71.328 32.5254 71.328 32.2792C71.328 32.0331 71.246 31.8143 71.0636 31.6228C70.8813 31.4314 70.6625 31.3402 70.389 31.3402C70.1155 31.3402 69.8967 31.4314 69.7143 31.6228C69.5411 31.8143 69.45 32.0331 69.45 32.2792C69.45 32.5254 69.532 32.7442 69.7143 32.9357ZM69.7417 34.4673V42.7271H71.0363V34.4673H69.7417ZM75.2665 42.9185C74.5828 42.9185 73.9628 42.7727 73.3885 42.4809C72.8141 42.1892 72.34 41.7698 71.948 41.2137L72.7867 40.2564C73.4067 41.2137 74.2181 41.6969 75.2483 41.6969C75.7771 41.6969 76.1873 41.5966 76.4791 41.396C76.7708 41.1955 76.9167 40.9128 76.9167 40.5482C76.9167 39.9009 76.4426 39.4541 75.4944 39.2171L74.5372 38.971C73.8716 38.7977 73.3429 38.506 72.9691 38.1049C72.5953 37.7037 72.4038 37.2205 72.4038 36.6553C72.4038 36.1903 72.5224 35.7801 72.7685 35.4154C73.0147 35.0507 73.3429 34.7681 73.7622 34.5675C74.1816 34.367 74.6557 34.2576 75.1845 34.2576C75.7679 34.2576 76.3058 34.3761 76.8164 34.6222C77.3178 34.8684 77.7098 35.2057 77.9924 35.6524L77.181 36.6279C76.8893 36.2177 76.5885 35.9259 76.2785 35.7436C75.9685 35.5613 75.6038 35.4792 75.1845 35.4792C74.756 35.4792 74.4004 35.5795 74.1178 35.7892C73.8352 35.9989 73.6984 36.2633 73.6984 36.6006C73.6984 36.9014 73.8078 37.1476 74.0266 37.3299C74.2454 37.5123 74.6101 37.6764 75.1298 37.8131L76.0323 38.0593C76.7343 38.2507 77.2722 38.5607 77.6642 38.971C78.0471 39.3903 78.2386 39.8826 78.2386 40.4661C78.2386 41.1863 77.9651 41.7789 77.4272 42.2348C76.8711 42.6997 76.16 42.9185 75.2665 42.9185ZM79.2324 32.9357C79.4147 33.1271 79.6335 33.2183 79.9071 33.2183C80.1806 33.2183 80.3994 33.1271 80.5817 32.9357C80.7549 32.7442 80.8461 32.5254 80.8461 32.2792C80.8461 32.0331 80.764 31.8143 80.5817 31.6228C80.3994 31.4314 80.1806 31.3402 79.9071 31.3402C79.6335 31.3402 79.4147 31.4314 79.2324 31.6228C79.0592 31.8143 78.968 32.0331 78.968 32.2792C78.968 32.5254 79.0501 32.7442 79.2324 32.9357ZM79.2598 34.4673V42.7271H80.5543V34.4673H79.2598ZM81.9856 42.7271V34.4673H83.107L83.2528 36.008C83.5263 35.4792 83.891 35.0599 84.3651 34.759C84.8392 34.4581 85.3679 34.3032 85.9605 34.3032C86.854 34.3032 87.5651 34.6131 88.0939 35.2422C88.6226 35.8713 88.887 36.7738 88.887 37.959V42.718H87.5924V38.0319C87.5924 37.2297 87.4192 36.6188 87.0637 36.1995C86.7081 35.7801 86.2431 35.5704 85.6506 35.5704C85.1856 35.5704 84.7753 35.698 84.4198 35.9533C84.0642 36.2086 83.7816 36.5459 83.5902 36.9653C83.3896 37.3846 83.2893 37.8496 83.2893 38.3419V42.7271H81.9856ZM91.6677 45.6627C92.2876 45.8906 92.9349 46 93.6278 46C94.8586 46 95.8067 45.6262 96.4905 44.8878C97.1742 44.1402 97.5115 43.0462 97.5115 41.5966V34.4673H96.3811L96.2534 35.9715C95.9981 35.4883 95.6244 35.0872 95.132 34.7772C94.6397 34.4581 94.0927 34.3032 93.491 34.3032C92.8073 34.3032 92.1873 34.4855 91.6494 34.8502C91.1115 35.2148 90.6922 35.7163 90.3822 36.3544C90.0722 36.9926 89.9172 37.7128 89.9172 38.5242C89.9172 39.3174 90.0813 40.0376 90.3913 40.6667C90.7013 41.2958 91.1298 41.7881 91.6677 42.1436C92.2147 42.4992 92.8164 42.6815 93.5001 42.6815C94.111 42.6815 94.6489 42.5265 95.132 42.1983C95.6152 41.8792 95.989 41.469 96.2443 40.9858V41.5875C96.2443 43.6844 95.36 44.7328 93.6004 44.7328C93.0352 44.7328 92.4973 44.6234 91.9868 44.4137C91.4762 44.204 91.0113 43.9032 90.601 43.502L90.0996 44.6872C90.5281 45.1157 91.0568 45.4348 91.6677 45.6627ZM95.0318 41.0678C94.6489 41.3231 94.2113 41.4507 93.7189 41.4507C93.2358 41.4507 92.8073 41.3231 92.4335 41.077C92.0597 40.8217 91.7679 40.4844 91.5491 40.0376C91.3303 39.5909 91.2209 39.0804 91.2209 38.4969C91.2209 37.9134 91.3303 37.4029 91.5491 36.9562C91.7679 36.5094 92.0597 36.163 92.4335 35.9168C92.8073 35.6707 93.2358 35.543 93.7189 35.543C94.2204 35.543 94.658 35.6707 95.0318 35.9168C95.4147 36.1721 95.7064 36.5094 95.9252 36.9562C96.144 37.4029 96.2534 37.9134 96.2534 38.4969C96.2534 39.0713 96.144 39.5727 95.9252 40.0194C95.7064 40.4661 95.4056 40.8126 95.0318 41.0678Z" fill="white"/>
</svg>
