<svg width="121" height="60" viewBox="0 0 121 60" fill="none" xmlns="http://www.w3.org/2000/svg">
<path d="M16.8207 36.216C16.0527 36.216 15.4227 36.096 14.9307 35.856C14.4387 35.604 14.0727 35.274 13.8327 34.866C13.5927 34.458 13.4727 34.008 13.4727 33.516C13.4727 32.688 13.7967 32.016 14.4447 31.5C15.0927 30.984 16.0647 30.726 17.3607 30.726H19.6287V30.51C19.6287 29.898 19.4547 29.448 19.1067 29.16C18.7587 28.872 18.3267 28.728 17.8107 28.728C17.3427 28.728 16.9347 28.842 16.5867 29.07C16.2387 29.286 16.0227 29.61 15.9387 30.042H13.6887C13.7487 29.394 13.9647 28.83 14.3367 28.35C14.7207 27.87 15.2127 27.504 15.8127 27.252C16.4127 26.988 17.0847 26.856 17.8287 26.856C19.1007 26.856 20.1027 27.174 20.8347 27.81C21.5667 28.446 21.9327 29.346 21.9327 30.51V36H19.9707L19.7547 34.56C19.4907 35.04 19.1187 35.436 18.6387 35.748C18.1707 36.06 17.5647 36.216 16.8207 36.216ZM17.3427 34.416C18.0027 34.416 18.5127 34.2 18.8727 33.768C19.2447 33.336 19.4787 32.802 19.5747 32.166H17.6127C17.0007 32.166 16.5627 32.28 16.2987 32.508C16.0347 32.724 15.9027 32.994 15.9027 33.318C15.9027 33.666 16.0347 33.936 16.2987 34.128C16.5627 34.32 16.9107 34.416 17.3427 34.416Z" fill="#080821"/>
<path d="M24.1313 36V27.072H26.1653L26.3453 28.584C26.6213 28.056 27.0173 27.636 27.5333 27.324C28.0613 27.012 28.6793 26.856 29.3873 26.856C30.4913 26.856 31.3493 27.204 31.9613 27.9C32.5733 28.596 32.8793 29.616 32.8793 30.96V36H30.5753V31.176C30.5753 30.408 30.4193 29.82 30.1073 29.412C29.7953 29.004 29.3093 28.8 28.6493 28.8C28.0013 28.8 27.4673 29.028 27.0473 29.484C26.6393 29.94 26.4353 30.576 26.4353 31.392V36H24.1313Z" fill="#080821"/>
<path d="M39.1865 36.216C38.3465 36.216 37.5965 36.012 36.9365 35.604C36.2765 35.196 35.7545 34.638 35.3705 33.93C34.9865 33.222 34.7945 32.418 34.7945 31.518C34.7945 30.618 34.9865 29.82 35.3705 29.124C35.7545 28.416 36.2765 27.864 36.9365 27.468C37.5965 27.06 38.3465 26.856 39.1865 26.856C39.8585 26.856 40.4465 26.982 40.9505 27.234C41.4545 27.486 41.8625 27.84 42.1745 28.296V23.04H44.4785V36H42.4265L42.1745 34.722C41.8865 35.118 41.5025 35.466 41.0225 35.766C40.5545 36.066 39.9425 36.216 39.1865 36.216ZM39.6725 34.2C40.4165 34.2 41.0225 33.954 41.4905 33.462C41.9705 32.958 42.2105 32.316 42.2105 31.536C42.2105 30.756 41.9705 30.12 41.4905 29.628C41.0225 29.124 40.4165 28.872 39.6725 28.872C38.9405 28.872 38.3345 29.118 37.8545 29.61C37.3745 30.102 37.1345 30.738 37.1345 31.518C37.1345 32.298 37.3745 32.94 37.8545 33.444C38.3345 33.948 38.9405 34.2 39.6725 34.2Z" fill="#080821"/>
<path d="M51.1138 36V27.072H53.1478L53.3457 28.278C53.6337 27.846 54.0118 27.504 54.4798 27.252C54.9598 26.988 55.5117 26.856 56.1357 26.856C57.5158 26.856 58.4938 27.39 59.0698 28.458C59.3938 27.966 59.8257 27.576 60.3657 27.288C60.9177 27 61.5177 26.856 62.1657 26.856C63.3298 26.856 64.2238 27.204 64.8478 27.9C65.4718 28.596 65.7838 29.616 65.7838 30.96V36H63.4798V31.176C63.4798 30.408 63.3298 29.82 63.0298 29.412C62.7417 29.004 62.2917 28.8 61.6797 28.8C61.0557 28.8 60.5518 29.028 60.1678 29.484C59.7957 29.94 59.6097 30.576 59.6097 31.392V36H57.3058V31.176C57.3058 30.408 57.1558 29.82 56.8558 29.412C56.5558 29.004 56.0938 28.8 55.4697 28.8C54.8577 28.8 54.3597 29.028 53.9757 29.484C53.6037 29.94 53.4178 30.576 53.4178 31.392V36H51.1138Z" fill="#080821"/>
<path d="M72.2552 36.216C71.3912 36.216 70.6112 36.018 69.9152 35.622C69.2312 35.226 68.6852 34.68 68.2772 33.984C67.8812 33.276 67.6832 32.46 67.6832 31.536C67.6832 30.612 67.8872 29.802 68.2952 29.106C68.7032 28.398 69.2492 27.846 69.9332 27.45C70.6292 27.054 71.4092 26.856 72.2732 26.856C73.1252 26.856 73.8932 27.054 74.5772 27.45C75.2732 27.846 75.8192 28.398 76.2152 29.106C76.6232 29.802 76.8272 30.612 76.8272 31.536C76.8272 32.46 76.6232 33.276 76.2152 33.984C75.8192 34.68 75.2732 35.226 74.5772 35.622C73.8812 36.018 73.1072 36.216 72.2552 36.216ZM72.2552 34.218C72.8552 34.218 73.3772 33.996 73.8212 33.552C74.2652 33.096 74.4872 32.424 74.4872 31.536C74.4872 30.648 74.2652 29.982 73.8212 29.538C73.3772 29.082 72.8612 28.854 72.2732 28.854C71.6612 28.854 71.1332 29.082 70.6892 29.538C70.2572 29.982 70.0412 30.648 70.0412 31.536C70.0412 32.424 70.2572 33.096 70.6892 33.552C71.1332 33.996 71.6552 34.218 72.2552 34.218Z" fill="#080821"/>
<path d="M78.8872 36V27.072H80.9392L81.1552 28.746C81.4792 28.17 81.9172 27.714 82.4692 27.378C83.0332 27.03 83.6932 26.856 84.4492 26.856V29.286H83.8012C83.2972 29.286 82.8472 29.364 82.4512 29.52C82.0552 29.676 81.7432 29.946 81.5152 30.33C81.2992 30.714 81.1912 31.248 81.1912 31.932V36H78.8872Z" fill="#080821"/>
<path d="M90.2037 36.216C89.3037 36.216 88.5057 36.024 87.8097 35.64C87.1137 35.256 86.5677 34.716 86.1717 34.02C85.7757 33.324 85.5777 32.52 85.5777 31.608C85.5777 30.684 85.7697 29.862 86.1537 29.142C86.5497 28.422 87.0897 27.864 87.7737 27.468C88.4697 27.06 89.2857 26.856 90.2217 26.856C91.0977 26.856 91.8717 27.048 92.5437 27.432C93.2157 27.816 93.7377 28.344 94.1097 29.016C94.4937 29.676 94.6857 30.414 94.6857 31.23C94.6857 31.362 94.6797 31.5 94.6677 31.644C94.6677 31.788 94.6617 31.938 94.6497 32.094H87.8637C87.9117 32.79 88.1517 33.336 88.5837 33.732C89.0277 34.128 89.5617 34.326 90.1857 34.326C90.6537 34.326 91.0437 34.224 91.3557 34.02C91.6797 33.804 91.9197 33.528 92.0757 33.192H94.4157C94.2477 33.756 93.9657 34.272 93.5697 34.74C93.1857 35.196 92.7057 35.556 92.1297 35.82C91.5657 36.084 90.9237 36.216 90.2037 36.216ZM90.2217 28.728C89.6577 28.728 89.1597 28.89 88.7277 29.214C88.2957 29.526 88.0197 30.006 87.8997 30.654H92.3457C92.3097 30.066 92.0937 29.598 91.6977 29.25C91.3017 28.902 90.8097 28.728 90.2217 28.728Z" fill="#080821"/>
<path d="M97.6135 36.126C97.1935 36.126 96.8455 35.994 96.5695 35.73C96.3055 35.466 96.1735 35.148 96.1735 34.776C96.1735 34.392 96.3055 34.068 96.5695 33.804C96.8455 33.54 97.1935 33.408 97.6135 33.408C98.0335 33.408 98.3755 33.54 98.6395 33.804C98.9155 34.068 99.0535 34.392 99.0535 34.776C99.0535 35.148 98.9155 35.466 98.6395 35.73C98.3755 35.994 98.0335 36.126 97.6135 36.126Z" fill="#080821"/>
<path d="M101.938 36.126C101.518 36.126 101.17 35.994 100.894 35.73C100.63 35.466 100.498 35.148 100.498 34.776C100.498 34.392 100.63 34.068 100.894 33.804C101.17 33.54 101.518 33.408 101.938 33.408C102.358 33.408 102.7 33.54 102.964 33.804C103.24 34.068 103.378 34.392 103.378 34.776C103.378 35.148 103.24 35.466 102.964 35.73C102.7 35.994 102.358 36.126 101.938 36.126Z" fill="#080821"/>
<path d="M106.262 36.126C105.842 36.126 105.494 35.994 105.218 35.73C104.954 35.466 104.822 35.148 104.822 34.776C104.822 34.392 104.954 34.068 105.218 33.804C105.494 33.54 105.842 33.408 106.262 33.408C106.682 33.408 107.024 33.54 107.288 33.804C107.564 34.068 107.702 34.392 107.702 34.776C107.702 35.148 107.564 35.466 107.288 35.73C107.024 35.994 106.682 36.126 106.262 36.126Z" fill="#080821"/>
</svg>
