<svg width="121" height="60" viewBox="0 0 121 60" fill="none" xmlns="http://www.w3.org/2000/svg">
<path fill-rule="evenodd" clip-rule="evenodd" d="M19.3081 27.099C19.4202 27.3045 19.5697 27.454 19.7379 27.5848C20.0929 27.8465 20.7843 28.5566 21.2328 29.3228C21.6626 30.0702 21.9429 30.9485 21.999 31.4157V31.4718C22.0364 31.6773 22.0924 31.9016 22.2046 32.0885C22.6717 32.9107 23.7182 33.191 24.5405 32.7238C25.3627 32.2566 25.643 31.2102 25.1758 30.3879C25.0637 30.1824 24.9142 30.0329 24.746 29.8834C24.7367 29.8834 24.732 29.8787 24.7273 29.874C24.7227 29.8694 24.718 29.8647 24.7086 29.8647C24.3349 29.5844 23.6995 28.8929 23.2697 28.1455C22.8212 27.3793 22.5596 26.4262 22.5036 25.9777C22.4662 25.7722 22.4101 25.5479 22.298 25.3611C21.8308 24.5388 20.7843 24.2585 19.9621 24.7257C19.1212 25.2489 18.8409 26.2954 19.3081 27.099ZM17.1961 34.7794C17.1588 35.0037 17.084 35.2092 16.9532 35.3961C16.4487 36.1996 15.4022 36.4239 14.5986 35.9193C13.8138 35.4148 13.5708 34.3683 14.0941 33.5647C14.2062 33.3779 14.3744 33.2284 14.5426 33.0976C14.8976 32.8546 15.6077 32.1632 16.0936 31.4157C16.5421 30.6869 16.8598 29.8086 16.9345 29.3414V29.3041V29.2854C16.9719 29.0611 17.0466 28.8556 17.1775 28.6687C17.682 27.8839 18.7285 27.6409 19.532 28.1455C20.3169 28.65 20.5598 29.6965 20.0553 30.5001C19.9431 30.6869 19.775 30.8364 19.6068 30.9672C19.6068 30.9788 19.5996 30.9832 19.5898 30.9893C19.5837 30.9931 19.5765 30.9975 19.5694 31.0046C19.177 31.2662 18.5229 31.9203 18.0557 32.6491C17.5699 33.4153 17.2522 34.3496 17.1961 34.7794ZM24.8394 33.191C25.045 33.1163 25.2692 33.0789 25.4935 33.0976C26.4278 33.135 27.1566 33.9198 27.1379 34.8729C27.1006 35.8072 26.297 36.536 25.3627 36.4986C25.1384 36.4986 24.9142 36.4426 24.7273 36.3491C24.3349 36.1623 23.3818 35.882 22.4849 35.8446C21.6253 35.8072 20.6909 35.9754 20.2611 36.1436C20.2517 36.1436 20.2471 36.1483 20.2424 36.1529C20.2377 36.1576 20.2331 36.1623 20.2237 36.1623H20.205C19.9995 36.237 19.7752 36.2744 19.551 36.2557C18.6166 36.2183 17.8878 35.4148 17.9252 34.4804C17.9626 33.5461 18.7661 32.8173 19.7005 32.8546C19.9247 32.8546 20.149 32.9107 20.3358 33.0041C20.3452 33.0041 20.3545 33.0088 20.3639 33.0135C20.3732 33.0182 20.3826 33.0228 20.3919 33.0228C20.8217 33.2284 21.7187 33.4713 22.5783 33.5087C23.4566 33.5461 24.4283 33.3592 24.8394 33.191ZM83.6475 25.4732H84.8247V35.9567H83.6475V25.4732ZM103.027 29.2854L107.175 25.4919H105.437L98.6352 31.7147V25.4919H97.4766V35.938H98.6352V33.2844L102.167 30.0889L106.409 35.938H107.848L103.027 29.2854ZM41.8447 33.3779L45.7877 25.6601H47.0958L41.8447 35.9567L37.3411 27.0803L36.6123 25.6601H37.9204L41.8447 33.3779ZM56.0098 27.94L65.1852 35.9568V25.492L64.0079 25.4733V33.4714L54.8325 25.4546V35.9755H56.0098V27.94ZM96.3365 35.9567L87.1612 27.9586V35.9754H85.9839V25.4732L95.1593 33.49V25.4919H96.3365V35.9567ZM69.9502 35.9754H71.1275V26.6505H74.8275V25.4919H66.2314V26.6505H69.9502V35.9754ZM77.07 25.4919V34.3122C77.07 34.5738 77.2942 34.7981 77.5558 34.7981H82.4332V35.9567H77.5558C76.6402 35.9567 75.9114 35.2279 75.9114 34.3122V25.4919H77.07ZM53.0942 34.5178L48.5719 25.6601L43.3208 35.9567H44.6289L45.9744 33.3218H51.1694L52.5149 35.9567H53.823L53.0942 34.5178ZM46.5724 32.1632L48.5719 28.2389L50.5714 32.1632H46.5724ZM35.3042 25.6601L39.8264 34.5178L40.5739 35.9567H39.2658L37.9204 33.3218H32.7253L31.3799 35.9567H30.0718L35.3042 25.6601ZM35.3042 28.2389L33.3046 32.1632H37.3037L35.3042 28.2389Z" fill="white"/>
</svg>
