<svg width="121" height="60" viewBox="0 0 121 60" fill="none" xmlns="http://www.w3.org/2000/svg">
<g clip-path="url(#clip0_10349_13682)">
<path d="M20.401 29.773C20.401 28.1617 19.1891 27.0293 17.7005 27.0293C16.2118 27.0293 14.9999 28.1808 14.9999 29.773C14.9999 31.3461 16.2118 32.5168 17.7005 32.5168C19.1906 32.5153 20.401 31.3843 20.401 29.773ZM20.4223 34.5688V33.3217C19.6879 34.1854 18.5946 34.7215 17.2853 34.7215C14.565 34.7215 12.5 32.6108 12.5 29.773C12.5 26.9529 14.644 24.8054 17.3461 24.8054C18.6174 24.8054 19.6894 25.343 20.4238 26.1861V24.9773H22.8659V34.5688H20.4223Z" fill="#080821"/>
<path d="M34.7291 32.4389C33.8745 32.4389 33.6373 32.1319 33.6373 31.327V27.0688H35.2065V24.9772H33.6373V22.6373H31.1344V24.9772H27.9107V24.3941C27.9107 23.5877 28.2286 23.2807 29.1029 23.2807H29.6518V21.4197H28.4475C26.3825 21.4197 25.4093 22.0718 25.4093 24.0665V24.9757H24.0195V27.0673H25.4093V34.5672H27.9123V27.0673H31.1359V31.7676C31.1359 33.7241 31.9099 34.5687 33.9353 34.5687H35.2263V32.4389H34.7291Z" fill="#080821"/>
<path d="M43.7058 28.9094C43.5279 27.6623 42.4742 26.9146 41.244 26.9146C40.0123 26.9146 38.9996 27.6432 38.7426 28.9094H43.7058ZM38.7213 30.4061C38.9008 31.825 39.953 32.6314 41.2835 32.6314C42.3358 32.6314 43.1508 32.151 43.6267 31.3843H46.1889C45.5929 33.4172 43.7058 34.7215 41.2242 34.7215C38.2256 34.7215 36.1211 32.6886 36.1211 29.7921C36.1211 26.8956 38.3458 24.804 41.285 24.804C44.2441 24.804 46.3882 26.9147 46.3882 29.7921C46.3882 30.0036 46.3684 30.2137 46.3288 30.4061H38.7213Z" fill="#080821"/>
<path d="M62.2981 29.773C62.2981 28.219 61.0862 27.0293 59.5975 27.0293C58.1089 27.0293 56.8969 28.1808 56.8969 29.773C56.8969 31.3461 58.1089 32.5168 59.5975 32.5168C61.0862 32.5153 62.2981 31.327 62.2981 29.773ZM54.4336 24.9773H56.8756V26.2243C57.6101 25.3415 58.7019 24.8054 60.0126 24.8054C62.6935 24.8054 64.798 26.9352 64.798 29.7539C64.798 32.5741 62.6539 34.723 59.9534 34.723C58.7019 34.723 57.6694 34.2427 56.9547 33.4378V38.5155H54.4336V24.9773Z" fill="#080821"/>
<path d="M73.6042 29.773C73.6042 28.1617 72.3937 27.0293 70.9034 27.0293C69.4149 27.0293 68.2029 28.1808 68.2029 29.773C68.2029 31.3461 69.4149 32.5168 70.9034 32.5168C72.3937 32.5153 73.6042 31.3843 73.6042 29.773ZM73.6256 34.5688V33.3217C72.8911 34.1854 71.7975 34.7215 70.4882 34.7215C67.7681 34.7215 65.7031 32.6108 65.7031 29.773C65.7031 26.9529 67.8472 24.8054 70.5478 24.8054C71.8189 24.8054 72.8911 25.343 73.6256 26.1861V24.9773H76.0678V34.5688H73.6256Z" fill="#080821"/>
<path d="M50.0319 25.9173C50.0319 25.9173 50.6539 24.8054 52.1759 24.8054C52.8268 24.8054 53.248 25.0213 53.248 25.0213V27.4684C53.248 27.4684 52.3295 26.9205 51.4856 27.0307C50.6417 27.1409 50.1079 27.89 50.111 28.8917V34.5702H47.5898V24.9787H50.0319V25.9173Z" fill="#080821"/>
<path d="M87.4698 24.9771L81.3038 38.4844H78.7037L81.1246 33.2627L77.0312 24.9771H79.9783L82.3731 30.5131L84.8304 24.9771H87.4698Z" fill="#080821"/>
<path d="M107.152 24.7598L101.04 21.3521C99.2452 20.3518 97.0025 21.6018 97.0025 23.6038V23.9534C97.0025 24.2692 97.1772 24.5615 97.46 24.7186L98.6143 25.362C98.9532 25.5515 99.3759 25.315 99.3759 24.9375V24.068C99.3759 23.6332 99.8629 23.3614 100.252 23.5788L105.547 26.5312C105.936 26.7486 105.936 27.292 105.547 27.508L100.252 30.4603C99.8629 30.6777 99.3759 30.406 99.3759 29.9712V29.5085C99.3759 27.5065 97.1332 26.2551 95.3376 27.2568L89.2248 30.6645C87.4303 31.6648 87.4303 34.1677 89.2248 35.1679L95.3376 38.5756C97.1315 39.5759 99.3759 38.3259 99.3759 36.3239V35.9743C99.3759 35.6585 99.2013 35.3677 98.9185 35.209L97.7642 34.5642C97.4253 34.3748 97.0025 34.6112 97.0025 34.9888V35.8583C97.0025 36.2931 96.5162 36.5648 96.1264 36.3474L90.8319 33.395C90.4427 33.1777 90.4427 32.6342 90.8319 32.4168L96.1264 29.4644C96.5162 29.247 97.0025 29.5188 97.0025 29.9536V30.4163C97.0025 32.4183 99.2452 33.6697 101.04 32.668L107.152 29.2603C108.947 28.2629 108.947 25.76 107.152 24.7598Z" fill="#080821"/>
</g>
<defs>
<clipPath id="clip0_10349_13682">
<rect width="96" height="17.9277" fill="white" transform="translate(12.5 21)"/>
</clipPath>
</defs>
</svg>
