<svg viewBox="0 0 120 60" fill="none" xmlns="http://www.w3.org/2000/svg">
<path d="M16.7421 36.9971L22.0441 20.9371H27.8741L33.3741 36.9971H29.6341L25.1901 23.4231L26.3341 23.8851H23.4961L24.6841 23.4231L20.3501 36.9971H16.7421ZM20.7681 33.0151L21.8681 30.0231H28.1601L29.2821 33.0151H20.7681ZM40.0497 37.3931C39.199 37.3931 38.4217 37.2391 37.7177 36.9311C37.0283 36.6231 36.427 36.1977 35.9137 35.6551C35.4003 35.0977 35.0043 34.4451 34.7257 33.6971C34.4617 32.9491 34.3297 32.1424 34.3297 31.2771V30.7711C34.3297 29.9057 34.4543 29.0991 34.7037 28.3511C34.9677 27.6031 35.3417 26.9504 35.8257 26.3931C36.3243 25.8211 36.9183 25.3811 37.6077 25.0731C38.297 24.7504 39.067 24.5891 39.9177 24.5891C40.8857 24.5891 41.7217 24.8017 42.4257 25.2271C43.1297 25.6377 43.6797 26.2537 44.0757 27.0751C44.4717 27.8817 44.6917 28.8791 44.7357 30.0671L43.8117 29.2091V20.9371H47.3537V36.9971H44.5597V32.0031H45.0437C44.9997 33.1471 44.7577 34.1224 44.3177 34.9291C43.8923 35.7357 43.313 36.3517 42.5797 36.7771C41.8463 37.1877 41.003 37.3931 40.0497 37.3931ZM40.9297 34.4451C41.4723 34.4451 41.9637 34.3277 42.4037 34.0931C42.8583 33.8437 43.2177 33.4844 43.4817 33.0151C43.7603 32.5457 43.8997 31.9811 43.8997 31.3211V30.5071C43.8997 29.8617 43.7603 29.3191 43.4817 28.8791C43.203 28.4391 42.8363 28.1017 42.3817 27.8671C41.927 27.6324 41.4357 27.5151 40.9077 27.5151C40.321 27.5151 39.793 27.6691 39.3237 27.9771C38.869 28.2704 38.5097 28.6811 38.2457 29.2091C37.9817 29.7224 37.8497 30.3237 37.8497 31.0131C37.8497 31.7171 37.9817 32.3257 38.2457 32.8391C38.5097 33.3524 38.8763 33.7484 39.3457 34.0271C39.815 34.3057 40.343 34.4451 40.9297 34.4451ZM53.9344 36.9971V23.6431H57.5424V36.9971H53.9344ZM49.4244 24.0831V20.9371H62.0744V24.0831H49.4244ZM68.1426 37.4151C67.116 37.4151 66.2066 37.2391 65.4146 36.8871C64.6373 36.5351 63.9846 36.0657 63.4566 35.4791C62.9433 34.8777 62.5473 34.2104 62.2686 33.4771C62.0046 32.7291 61.8726 31.9664 61.8726 31.1891V30.7491C61.8726 29.9424 62.0046 29.1724 62.2686 28.4391C62.5473 27.6911 62.9433 27.0237 63.4566 26.4371C63.97 25.8504 64.608 25.3884 65.3706 25.0511C66.148 24.6991 67.028 24.5231 68.0106 24.5231C69.3013 24.5231 70.3866 24.8164 71.2666 25.4031C72.1613 25.9751 72.8433 26.7304 73.3126 27.6691C73.782 28.5931 74.0166 29.6051 74.0166 30.7051V31.8931H63.3466V29.8911H71.8826L70.7386 30.8151C70.7386 30.0964 70.636 29.4804 70.4306 28.9671C70.2253 28.4537 69.9173 28.0651 69.5066 27.8011C69.1106 27.5224 68.612 27.3831 68.0106 27.3831C67.3946 27.3831 66.874 27.5224 66.4486 27.8011C66.0233 28.0797 65.7006 28.4904 65.4806 29.0331C65.2606 29.5611 65.1506 30.2137 65.1506 30.9911C65.1506 31.7097 65.2533 32.3404 65.4586 32.8831C65.664 33.4111 65.9866 33.8217 66.4266 34.1151C66.8666 34.4084 67.4386 34.5551 68.1426 34.5551C68.788 34.5551 69.316 34.4304 69.7266 34.1811C70.1373 33.9317 70.416 33.6237 70.5626 33.2571H73.7966C73.6206 34.0637 73.276 34.7824 72.7626 35.4131C72.2493 36.0437 71.604 36.5351 70.8266 36.8871C70.0493 37.2391 69.1546 37.4151 68.1426 37.4151ZM81.7612 37.4151C80.7198 37.4151 79.8105 37.2464 79.0332 36.9091C78.2705 36.5571 77.6325 36.0877 77.1192 35.5011C76.6058 34.9144 76.2245 34.2544 75.9752 33.5211C75.7258 32.7731 75.6012 32.0031 75.6012 31.2111V30.7931C75.6012 29.9717 75.7332 29.1871 75.9972 28.4391C76.2612 27.6764 76.6498 27.0017 77.1632 26.4151C77.6765 25.8284 78.3145 25.3664 79.0772 25.0291C79.8545 24.6917 80.7418 24.5231 81.7392 24.5231C82.8245 24.5231 83.7852 24.7357 84.6212 25.1611C85.4572 25.5717 86.1245 26.1511 86.6232 26.8991C87.1218 27.6471 87.4005 28.5051 87.4592 29.4731H84.0052C83.9465 28.9304 83.7265 28.4757 83.3452 28.1091C82.9785 27.7277 82.4432 27.5371 81.7392 27.5371C81.1525 27.5371 80.6612 27.6837 80.2652 27.9771C79.8838 28.2704 79.5978 28.6737 79.4072 29.1871C79.2165 29.7004 79.1212 30.3091 79.1212 31.0131C79.1212 31.6584 79.2092 32.2451 79.3852 32.7731C79.5612 33.2864 79.8398 33.6897 80.2212 33.9831C80.6172 34.2617 81.1305 34.4011 81.7612 34.4011C82.2305 34.4011 82.6265 34.3204 82.9492 34.1591C83.2865 33.9831 83.5505 33.7484 83.7412 33.4551C83.9465 33.1471 84.0712 32.7951 84.1152 32.3991H87.5472C87.5032 33.3964 87.2245 34.2764 86.7112 35.0391C86.1978 35.7871 85.5158 36.3737 84.6652 36.7991C83.8145 37.2097 82.8465 37.4151 81.7612 37.4151ZM89.7984 36.9971V20.9371H93.3184V30.1991H92.7904C92.7904 28.9817 92.9444 27.9551 93.2524 27.1191C93.5604 26.2831 94.015 25.6524 94.6164 25.2271C95.2177 24.7871 95.973 24.5671 96.8824 24.5671H97.0364C98.3711 24.5671 99.3904 25.0437 100.094 25.9971C100.798 26.9357 101.15 28.3144 101.15 30.1331V36.9971H97.6304V29.9131C97.6304 29.2531 97.4324 28.7251 97.0364 28.3291C96.655 27.9184 96.149 27.7131 95.5184 27.7131C94.8584 27.7131 94.323 27.9257 93.9124 28.3511C93.5164 28.7764 93.3184 29.3411 93.3184 30.0451V36.9971H89.7984Z" fill="#080821"/>
</svg>
