<svg width="121" height="60" viewBox="0 0 121 60" fill="none" xmlns="http://www.w3.org/2000/svg">
<path d="M49.6406 22.4705L51.5797 38.2578H70.5508L68.6118 22.4705H49.6406Z" fill="#080821"/>
<path d="M55.0539 16.4419C56.2647 17.5801 56.431 19.3701 55.4253 20.4399C54.4197 21.5097 52.6228 21.4543 51.4119 20.3161C50.2011 19.1779 50.0348 17.3878 51.0405 16.318C52.0463 15.2481 53.8431 15.3036 55.0539 16.4419Z" fill="#1A0826"/>
<path fill-rule="evenodd" clip-rule="evenodd" d="M90.4446 28.1544C90.0072 24.6056 87.2193 22.455 83.4306 22.4705H70.8125L72.75 38.257H78.4264L78.0379 35.1001H84.0452C88.7746 35.1001 90.9382 32.1536 90.4446 28.1544ZM83.4331 30.6747L77.498 30.6813L77.0329 26.8926L83.0013 26.8975C84.4055 26.9137 85.1234 27.704 85.2388 28.7861C85.3103 29.4813 84.9917 30.674 83.4331 30.674V30.6747Z" fill="#1A0826"/>
<path d="M29.8812 33.8463L30.4227 38.2578H49.379L48.7587 33.2056H39.9203L39.8431 32.5796L47.9839 26.8909L47.4401 22.4705H28.4844L29.1047 27.5226H37.9577L38.0358 28.1543L29.8812 33.8463Z" fill="#1A0826"/>
</svg>
