<svg width="120" height="60" viewBox="0 0 120 60" fill="none" xmlns="http://www.w3.org/2000/svg">
<path fill-rule="evenodd" clip-rule="evenodd" d="M42.5694 29.3005V16H46.133V24.7816C46.133 24.7816 47.6435 22.1567 52.5044 22.1567C57.6954 22.1567 60.769 25.823 60.769 30.3815C60.769 30.9391 60.7257 31.4776 60.6416 31.994C61.4813 29.6368 64.387 28.4724 69.1688 28.4724H73.496V27.7088C73.496 25.5634 71.6068 24.4475 69.1688 24.4475C65.417 24.4475 65.2235 26.8179 65.2235 26.8179H61.5326C61.5326 26.1691 62.0082 22.1089 69.4234 22.1089C71.9489 22.1089 74.7129 22.6362 76.121 24.7145L75.072 22.7459H79.2242L85.1832 34.6843L91.1285 22.7459H94.8897L84.0605 44H80.1151L83.24 38.0751L76.6043 25.6215C76.8955 26.3356 77.0596 27.1865 77.0596 28.198V35.87C77.0596 36.7576 77.1868 38.1449 77.1868 38.1449H73.9057C73.9057 38.1449 73.8181 37.0257 73.8181 35.8899C73.8181 35.8899 72.1534 38.7455 66.9854 38.7455C63.1933 38.7455 60.3872 36.9194 60.3872 33.5632C60.3872 33.375 60.3965 33.1921 60.4149 33.0144C59.4327 36.4636 56.4816 38.7018 52.4965 38.7018C47.8183 38.7018 46.0978 36.0101 46.0978 36.0101C46.0978 37.0295 45.9728 38.145 45.9728 38.145H42.4905C42.4905 38.145 42.5694 36.5919 42.5694 35.4858V31.3328H28.6189C28.6189 34.2686 30.8489 36.3632 33.9495 36.3632C37.7563 36.3632 38.5392 33.6905 38.5392 33.6905H42.1902C42.1902 33.6905 41.7072 38.654 34.1722 38.654C27.7706 38.654 25.0088 35.5067 25.0088 30.5088C25.0088 24.2 29.116 22.1089 34.0449 22.1089C40.5841 22.1089 42.4902 26.3951 42.5694 29.3005ZM57.0782 30.3815C57.0782 27.0497 54.9509 24.5669 51.6056 24.5669C47.8612 24.5669 46.133 27.5336 46.133 30.4133C46.133 33.5038 48.059 36.2916 51.6294 36.2916C54.6213 36.2916 57.0782 33.9543 57.0782 30.3815ZM38.8812 28.9815C38.8812 26.2715 36.8691 24.4634 33.9177 24.4634C31.3259 24.4634 28.6996 26.1046 28.6996 28.9815H38.8812ZM73.496 30.7633V31.7815C73.496 33.1094 72.6766 36.4109 67.8524 36.4109C65.2107 36.4109 64.078 35.0925 64.078 33.5632C64.078 30.7812 67.8923 30.7633 73.496 30.7633Z" fill="#080821"/>
</svg>
