<svg width="120" height="60" viewBox="0 0 120 60" fill="none" xmlns="http://www.w3.org/2000/svg">
<path fill-rule="evenodd" clip-rule="evenodd" d="M13.4404 25.8659L16.3358 17.0645L19.2311 25.8659H28.6272L21.0505 31.3092L23.9458 40.1546L16.3358 34.7113L8.75904 40.1546L11.6211 31.3092L4 25.8659H13.4404ZM105.315 22.6724L106.436 21.8932L107.556 22.6724L107.101 21.3664L108.255 20.5433H106.891L106.436 19.2703L106.025 20.5433H104.661L105.737 21.3664L105.315 22.6724ZM81.154 24.8014C80.2887 25.1636 79.4123 25.6574 78.5471 26.4366C77.8815 27.095 77.3046 27.9181 76.9607 28.84C76.5835 29.8167 76.3395 30.9251 76.3395 31.9896C76.3395 33.0541 76.5503 34.1187 76.9607 35.0625C77.3712 36.0392 77.9147 36.8623 78.658 37.5975C79.4012 38.256 80.1889 38.7938 81.1429 39.1998C82.0969 39.562 83.0953 39.7705 84.127 39.7705C85.8687 39.7705 87.5659 39.2766 88.886 38.256C90.0397 37.4439 90.9161 36.2916 91.3266 35.1064L91.3709 35.0295H92.447L92.3693 35.1942C91.7481 36.8293 90.6721 38.1902 89.2632 39.1669C87.8544 40.1436 86.1127 40.6813 84.3378 40.6813C81.6088 40.6813 79.3347 39.7376 77.715 37.9816C76.3062 36.4233 75.4409 34.2943 75.4409 32.0884C75.4409 29.7179 76.3506 27.5121 77.9702 25.9098C79.5898 24.3076 81.7863 23.4077 84.1825 23.4077C85.8021 23.4077 87.455 23.8137 88.8195 24.6368C90.4724 25.6135 91.7148 27.128 92.3804 28.9717L92.4581 29.1363H91.382L91.3377 29.0595C90.7608 27.5011 89.6848 26.272 88.2759 25.3721C87.0667 24.6697 85.6246 24.2637 84.2157 24.2637H84.1381C82.9733 24.2637 82.0193 24.4722 81.154 24.8014ZM89.718 26.3598C90.4613 27.0512 91.0825 27.962 91.493 29.0265C91.0825 27.995 90.4613 27.1389 89.718 26.3598ZM55.118 25.0867C54.5411 24.5161 53.9199 24.099 53.1323 23.8576C52.389 23.5723 51.5127 23.4515 50.5697 23.4515C49.6157 23.4515 48.7504 23.6162 47.874 23.9893C47.0088 24.3624 46.2988 24.8892 45.7219 25.4599L45.6776 25.5037C45.3891 25.833 45.134 26.1622 44.9343 26.5244C44.8913 26.6095 44.8482 26.6917 44.8067 26.771L44.8066 26.7712L44.8066 26.7713L44.8066 26.7713C44.6877 26.9984 44.5814 27.2015 44.5239 27.3804L44.5139 27.3592C44.4351 27.1921 44.3062 26.9186 44.1467 26.6451C43.8583 26.1073 43.6031 25.7013 43.4034 25.5367C42.8266 24.8782 42.161 24.4283 41.2957 24.0661C40.4304 23.693 39.5208 23.5284 38.478 23.5284C37.8124 23.5284 36.8584 23.6052 35.8267 24.099C34.6286 24.6697 33.6302 25.5696 32.9313 26.8865V23.9454H31.9773V40.3631H32.9313V31.0239C32.9313 29.9594 33.0534 29.0595 33.3085 28.2364C33.5525 27.4133 33.9297 26.7987 34.4289 26.1842C34.8394 25.6135 35.4606 25.1635 36.1706 24.8782C36.8695 24.549 37.6238 24.3844 38.4003 24.4283C39.3544 24.4722 40.1753 24.6368 40.9296 24.966C41.6285 25.2952 42.2164 25.7891 42.7045 26.3598C43.115 26.9304 43.4034 27.4243 43.5698 27.9949C43.8139 28.6863 43.9026 29.5094 43.9026 30.6617V40.3302H44.8567V31.0787C44.8567 29.9374 44.901 28.9936 45.1007 28.2144C45.3115 27.4791 45.5999 26.9085 46.1768 26.1622C46.676 25.5037 47.2972 25.0538 48.1625 24.7246C48.8614 24.4831 49.649 24.3185 50.3922 24.3185C51.2242 24.3185 51.9231 24.4392 52.5887 24.6916C53.2543 24.9441 53.7424 25.3062 54.2083 25.7562C54.7852 26.3268 55.2067 27.0292 55.4508 27.9291C55.7392 28.829 55.8612 29.8496 55.8612 31.1226V40.3302H56.8153L56.9817 31.0787C56.9817 29.7289 56.8153 28.5437 56.4825 27.556C56.194 26.5683 55.7725 25.7013 55.118 25.0867ZM73.9434 28.1156C73.4442 26.9743 72.4902 25.822 71.2477 24.9989C69.7945 24.0112 68.0639 23.5284 66.2446 23.5284C62.9388 23.5284 60.9087 24.9989 59.7439 26.2719C58.3351 27.8303 57.5142 29.9593 57.5142 32.1323C57.5142 34.3052 58.3462 36.4342 59.7439 37.9926C60.8643 39.2217 62.9277 40.7362 66.2446 40.7362C67.9419 40.7362 69.4728 40.3301 70.8372 39.551C72.1241 38.7279 73.1558 37.6634 73.9434 36.2367V40.374H74.8974V23.9893H73.9434V28.1156ZM73.4109 29.0594C73.5773 29.5094 73.7437 29.9593 73.8214 30.4093C73.9434 30.9031 73.9878 31.4299 73.9878 31.8799C74.0321 32.4176 73.9878 32.9005 73.9101 33.3504C73.8325 33.8882 73.6993 34.3381 73.5329 34.7442C72.9894 36.2586 72.0464 37.5646 70.7596 38.4316C69.5171 39.3315 67.9419 39.7814 66.3334 39.7814C63.9372 39.7814 61.9515 38.9254 60.4983 37.3671C59.2558 35.9733 58.4682 34.0528 58.4682 32.0445C58.4682 29.8715 59.3002 27.951 60.6979 26.5134C62.1512 25.1196 64.0925 24.3075 66.2446 24.3075C67.8199 24.3075 69.3507 24.7575 70.5932 25.5367C71.88 26.4805 72.8673 27.6657 73.4109 29.0594ZM105.859 23.9015H104.783L104.738 23.9783C104.738 24.0293 104.026 25.6884 103.076 27.8986L103.074 27.9034C102.593 29.0238 102.051 30.2853 101.51 31.5506L98.3265 38.9584L95.3091 31.5506C93.9066 27.9986 92.9325 25.6437 92.4998 24.5978L92.4997 24.5974C92.3336 24.1959 92.2474 23.9874 92.2474 23.9783L92.203 23.9015H91.127L97.7497 40.2424L94.7656 46.8709H95.8416L95.886 46.7941C95.886 46.7941 95.9636 46.5856 96.0968 46.2563C96.2178 45.9796 96.3897 45.5841 96.6032 45.093L96.6046 45.0898C97.2716 43.5555 98.3433 41.0903 99.5357 38.3987L99.6608 38.1109L99.6608 38.1108L99.6608 38.1107L99.6609 38.1107C100.032 37.2567 100.414 36.378 100.823 35.4904L104.716 26.6012C105.382 25.0867 105.792 24.099 105.792 24.0661L105.859 23.9015ZM110.163 31.1446C111.283 31.386 112.404 31.7153 113.313 32.3737C114.301 33.12 114.844 34.2174 114.911 35.7977C114.955 36.4562 114.867 37.0708 114.623 37.6414C114.412 38.2121 114.035 38.7498 113.624 39.1998C113.158 39.6497 112.626 40.0229 112.004 40.3082C111.383 40.5496 110.718 40.7143 110.019 40.7143C109.231 40.7143 108.532 40.5496 107.867 40.3082C107.201 40.0668 106.624 39.6607 106.125 39.1669C105.715 38.7937 105.426 38.3109 105.215 37.7731C105.005 37.2464 104.883 36.7086 104.883 36.1379V36.0172V35.8087L105.837 35.7648V35.8855C105.87 37.0708 106.247 38.0585 106.99 38.7937C107.734 39.4851 108.81 39.8583 110.008 39.8583C110.551 39.8583 111.084 39.7814 111.583 39.5729C112.038 39.3754 112.493 39.0901 112.825 38.7169C113.203 38.3877 113.447 37.9816 113.657 37.5317C113.868 37.1256 113.946 36.5989 113.946 36.0611V35.9404C113.901 34.843 113.613 34.0638 112.947 33.4053C112.326 32.8346 111.339 32.3847 109.93 32.0555C108.776 31.7701 107.612 31.397 106.746 30.7056C105.925 30.0033 105.471 29.0704 105.426 27.7974C105.426 26.4476 105.881 25.3391 106.835 24.56C107.667 23.9125 108.787 23.5393 109.941 23.5393C111.261 23.5393 112.337 23.9015 113.125 24.6807C113.868 25.4599 114.323 26.5244 114.323 27.7096V27.8084H113.369V27.6877C113.369 27.1938 113.291 26.7439 113.125 26.3378C112.97 25.9318 112.714 25.5586 112.426 25.2733C112.138 24.988 111.76 24.7465 111.35 24.5819C110.984 24.4173 110.529 24.3405 110.03 24.3405H109.952C109.42 24.3405 108.921 24.4173 108.421 24.6258C108.011 24.8343 107.6 25.0758 107.268 25.4489C106.979 25.7781 106.724 26.1073 106.602 26.5134C106.436 26.8865 106.391 27.3365 106.391 27.7864C106.436 28.7741 106.768 29.4216 107.39 29.9594C107.933 30.3654 108.754 30.7276 110.041 31.1007L110.163 31.1446Z" fill="#080821"/>
</svg>
