<svg width="121" height="60" viewBox="0 0 121 60" fill="none" xmlns="http://www.w3.org/2000/svg">
<path fill-rule="evenodd" clip-rule="evenodd" d="M42.4649 23.3486L34.8359 14.0885C34.7767 14.0174 34.6955 13.9924 34.6196 14.0023C34.48 13.9836 34.3326 14.0916 34.3444 14.2598L34.9678 23.1711L29.4638 18.4511C29.4061 18.4018 29.3389 18.3857 29.2763 18.3943C29.1204 18.3727 28.9637 18.5139 29.0082 18.6932L31.2006 27.509L25.9289 24.3958C25.8823 24.3684 25.8339 24.3584 25.7882 24.3619C25.6085 24.3251 25.4384 24.5103 25.5218 24.6986L34.907 45.8522C34.9533 45.9564 35.0505 46.0021 35.1439 45.9957C35.2651 46.0186 35.4012 45.9492 35.4291 45.8024L37.4688 34.9481L42.6808 26.1183C43.1996 25.2416 43.1127 24.1316 42.4649 23.3458V23.3486ZM48.2568 35.1443H52.8587L50.5583 29.0154L48.2568 35.1443ZM50.422 26.7139H50.7799C51.2665 26.7139 51.7009 27.0115 51.8778 27.4627L57.2587 41.2109H55.642C55.3484 41.2109 55.087 41.0292 54.9825 40.7549L53.5106 36.8809H47.6306L46.1909 40.7505C46.0883 41.0271 45.8249 41.2109 45.5285 41.2109H43.9697L49.3237 27.4643C49.5006 27.0119 49.9366 26.7139 50.422 26.7139ZM81.3646 41.2122H79.398V26.7155H81.3646V41.2122ZM86.8685 29.9302V29.9296H86.8681L86.8685 29.9302ZM86.8685 41.215V29.9302L94.4448 40.7139C94.6652 41.028 95.0251 41.2142 95.4092 41.2142H96.2819V26.7135L94.4621 26.7163V37.5421L87.1577 27.2267C86.9365 26.915 86.5786 26.7292 86.1965 26.7292H85.0487V41.215H86.8685ZM70.6241 41.2122H72.277L72.279 41.2142L76.6291 26.7195H75.1158C74.7985 26.7195 74.5186 26.9299 74.4341 27.2355L71.42 38.0536L67.936 27.326C67.8182 26.962 67.4788 26.7155 67.0955 26.7155H66.4151C66.0306 26.7155 65.6912 26.962 65.5746 27.326L62.0919 38.054L59.0652 27.2319C58.9795 26.9266 58.7012 26.7155 58.3843 26.7155H56.8159L61.1713 41.2122H62.8005L66.7123 29.4558L70.6241 41.2122Z" fill="white"/>
</svg>
