<svg width="120" height="60" viewBox="0 0 120 60" fill="none" xmlns="http://www.w3.org/2000/svg">
<path d="M55.0159 30.7379C54.8104 30.6526 54.4735 30.2746 55.034 29.222L56.3359 26.5011C56.3754 26.4188 56.2804 26.3159 56.221 26.3857L55.0827 27.5303C54.5441 28.0925 53.6304 29.6726 53.4535 29.9651L52.0705 32.2512C52.1732 32.2479 52.2592 32.3287 52.2625 32.4314C52.2635 32.4652 52.2554 32.4987 52.2388 32.5282L50.9748 34.6513C50.6661 35.1778 51.2206 35.5459 51.2958 35.4247C53.2826 32.2246 54.4381 32.4801 54.4381 32.4801L55.1013 30.9443C55.1363 30.8673 55.1022 30.7766 55.0252 30.7417C55.0224 30.7403 55.0192 30.7391 55.0159 30.7379ZM59.5329 4C48.1737 4 38.9653 13.2038 38.9653 24.5574C38.9593 28.9526 40.3693 33.2328 42.9864 36.7639C43.8492 36.3915 44.3287 35.8348 44.6712 35.4085L48.5007 30.5131C48.5813 30.4099 48.6866 30.3288 48.807 30.277L49.3835 30.0291L55.6802 22.0459L56.5933 21.3314L58.4695 18.7212C58.5179 18.6537 58.577 18.5943 58.6445 18.5454L59.4631 17.9506C59.6653 17.8037 59.9384 17.8013 60.143 17.9449L61.1364 18.6418C61.6634 19.0115 62.0905 19.5058 62.3799 20.0807L66.3588 27.0662C66.4237 27.1995 66.5341 27.3052 66.67 27.3644C67.4504 27.7527 67.927 27.8213 68.9483 28.9301C69.4248 29.4471 71.513 31.7813 74.4394 35.4091C74.8647 35.9911 75.4341 36.4525 76.0916 36.748C78.7007 33.2196 80.1059 28.9457 80.0997 24.5574C80.0997 13.2038 70.8918 4 59.5329 4ZM44.512 25.6905L43.1785 25.2576L42.3547 26.3908V24.9903L41.021 24.5573L42.3547 24.1243V22.7234L43.1785 23.8569L44.512 23.424L43.6881 24.5574L44.512 25.6905ZM44.1959 30.2744L43.7627 31.6068L43.3296 30.2744H41.928L43.0618 29.4508L42.6287 28.1185L43.7626 28.9421L44.8966 28.1185L44.4635 29.4508L45.5975 30.2744H44.1959ZM44.4636 19.6632L44.8967 20.9955L43.7627 20.172L42.6288 20.9955L43.0619 19.6632L41.9281 18.8396H43.3296L43.7628 17.5073L44.196 18.8396H45.5976L44.4636 19.6632ZM46.7142 16.6493L45.8909 15.5158L44.5573 15.9487L45.3812 14.8154L44.5573 13.682L45.8909 14.1149L46.7148 12.9815V14.3825L48.0483 14.8146L46.7148 15.2477V16.6486L46.7142 16.6493ZM50.2195 11.7448L49.7864 13.0771L49.3532 11.7448H47.9515L49.0855 10.9213L48.6525 9.58891L49.7864 10.4123L50.9202 9.58875L50.4871 10.9222L51.6211 11.7458H50.2194L50.2195 11.7448ZM54.6366 9.49514L53.8127 10.6286V9.22805L52.4791 8.79514L53.8127 8.36207V6.96114L54.6366 8.09464L55.9696 7.66173L55.1457 8.79514L55.9697 9.92847L54.6366 9.49514ZM60.2337 8.21097L60.6669 9.54328L59.5329 8.71976L58.3989 9.54328L58.8315 8.21155L57.6977 7.38803H59.0993L59.5326 6.05572L59.9658 7.38803H61.3674L60.2337 8.21097ZM65.2525 9.22805V10.629L64.429 9.49548L63.0955 9.92847L63.9193 8.79514L63.0956 7.66173L64.4291 8.09464L65.2526 6.96114V8.36207L66.5862 8.79514L65.2525 9.22805ZM74.5531 23.424L75.8866 23.8569L76.7102 22.7234V24.1243L78.0438 24.5573L76.7102 24.9903V26.3912L75.8866 25.2578L74.5531 25.6908L75.3779 24.5573L74.5531 23.424ZM69.2792 13.0775L68.8458 11.7451H67.4442L68.5778 10.9216L68.1457 9.58908L69.2792 10.4126L70.4127 9.58925L69.9804 10.9216L71.1141 11.7451H69.7125L69.2792 13.0775ZM72.3514 16.6496V15.2488L71.0178 14.8157L72.3514 14.3836V12.982L73.1749 14.1154L74.5085 13.6825L73.6849 14.8159L74.5085 15.9492L73.1749 15.5163L72.3514 16.6496ZM74.8691 18.8401L75.3027 17.5077L75.7361 18.8401H77.1376L76.0041 19.6636L76.4375 20.9959L75.3028 20.1724L74.1692 20.9959L74.6027 19.6636L73.4679 18.8401H74.8691ZM75.736 30.2744L75.3026 31.6068L74.869 30.2744H73.4675L74.6022 29.4508L74.1688 28.1185L75.3024 28.9421L76.4371 28.1185L76.0037 29.4508L77.1372 30.2744H75.736ZM66.9825 36.438C67.0813 36.2944 67.2418 35.9006 66.9405 35.1709L66.0304 32.7245C65.9069 32.4122 66.1774 32.2227 66.3589 32.428C66.3589 32.428 68.079 34.4105 68.5235 35.2383L69.3718 36.6459C70.1015 36.6931 72.1155 36.748 74.0541 36.748C73.8589 36.5542 73.6786 36.3459 73.5145 36.125C70.2064 32.0255 68.1084 29.7451 68.0874 29.7225C67.417 28.994 67.1071 28.8541 66.5957 28.6212C66.5217 28.5876 66.4414 28.5514 66.3587 28.512V29.1344C66.3638 29.1764 66.3337 29.2146 66.2916 29.2196C66.2576 29.2236 66.2249 29.2046 66.2118 29.1729L61.3483 20.6331L61.3348 20.6061C61.1319 20.2039 60.833 19.8579 60.4644 19.5989L59.99 19.2655L57.6698 24.6159C57.947 24.6158 58.1719 24.8405 58.172 25.1177C58.1721 25.1863 58.1581 25.2543 58.1308 25.3173L55.987 30.2741H57.9548C58.7153 30.2741 59.4687 30.4221 60.1725 30.7104L60.6912 30.9229C60.6912 30.9229 59.1263 34.1412 59.1263 35.8358C59.1285 36.144 59.1716 36.4505 59.2541 36.7474H62.8613L62.6942 35.7316C64.1093 36.0475 65.5409 36.2835 66.9824 36.4385V36.438H66.9825ZM39.1488 41.6528C39.1488 38.3421 35.6373 36.748 31.4655 36.748C27.0029 36.748 22.9084 38.7251 21.4055 41.7907C20.9907 42.6074 20.7752 43.5109 20.7763 44.427C20.7574 45.2192 20.9766 45.9988 21.4055 46.665C22.0494 47.6158 23.1994 48.2134 24.8864 48.2134C26.957 48.2134 28.598 47.0788 28.598 45.1016C28.598 45.1016 28.6284 44.5502 27.9845 44.5502C27.4631 44.5502 27.3248 44.9179 27.3403 45.1016C27.4174 46.6498 26.4969 47.8915 24.8559 47.8915C23.0161 47.8915 22.2486 46.3281 22.2486 44.6575C22.2486 41.2392 24.8251 38.9703 27.5089 37.9895C28.763 37.5159 30.0949 37.2817 31.4355 37.2993C34.472 37.2993 36.9564 38.4645 36.9564 41.5917C36.9564 44.1971 34.7635 46.4197 32.1407 46.6192L32.248 46.2667C32.785 44.3505 33.4444 42.2507 34.5176 40.7025C34.5794 40.61 34.6864 40.4571 34.8092 40.304L34.656 40.1199C34.4265 40.2591 34.2061 40.4126 33.996 40.5796C28.9664 44.5038 28.8136 55.54 22.1113 55.54C21.8804 55.54 21.65 55.5246 21.4213 55.494C20.0259 55.2641 19.2893 54.3289 19.2893 53.0266C19.2893 52.766 19.3815 52.4132 19.3815 52.2142C19.3921 51.844 19.1006 51.5354 18.7304 51.5246C18.7275 51.5245 18.7247 51.5245 18.722 51.5245H18.6455C18.0475 51.5245 17.8021 51.9991 17.7867 52.674C17.7409 54.6207 19.182 55.7546 21.4061 55.9696C21.6513 55.9848 21.8967 56 22.1575 56C27.3867 56 30.5919 52.0453 31.9569 47.2475C32.6483 47.1665 33.3309 47.023 33.9963 46.8187C36.42 46.1435 39.1488 44.5195 39.1488 41.6528ZM88.9606 42.8022H87.1196L86.706 43.7681L85.9848 45.3928H85.1266L84.8648 45.9447H85.755L84.6808 48.3207C83.9152 49.9914 82.7186 51.6316 82.0284 51.6316C81.8753 51.6316 81.7827 51.5699 81.7827 51.4172C81.7827 51.2645 81.8284 51.1256 81.9976 50.6966C82.2124 50.1904 82.5655 49.4549 82.8261 48.9185C83.2089 48.1368 83.8226 46.9259 83.8226 46.3281C83.8226 45.7302 83.4398 45.2549 82.6878 45.2549C81.8445 45.2549 81.0776 45.7613 80.3713 46.4963L80.8319 45.3928H79.0995L77.6881 48.6118C77.1213 49.7461 75.9704 51.6315 75.2493 51.6315C75.0962 51.6315 75.0344 51.5393 75.0344 51.3862C75.0494 51.2486 75.0855 51.114 75.1419 50.9875C75.2035 50.8496 76.047 48.8724 76.047 48.8724L77.5806 45.3621H75.7099L74.2219 48.7801C73.7626 49.8379 72.597 51.6313 71.8449 51.6313C71.714 51.6441 71.5972 51.5484 71.5844 51.4171C71.5844 51.4171 71.5844 51.4171 71.5844 51.4169V51.3552C71.5844 51.1715 71.7227 50.834 71.8302 50.5887L72.6119 48.8723L74.222 45.3621H72.3673L71.9981 46.1591C71.7228 46.6955 71.2622 47.3239 70.5263 47.3239C70.1732 47.3239 70.0052 47.1864 69.9287 47.0481C69.8213 45.8678 69.0693 45.2393 67.9653 45.2393C66.4317 45.2393 65.3427 46.1436 64.6215 47.2475C64.1491 48.0082 63.7779 48.8274 63.5178 49.6843C62.8582 50.7729 62.1685 51.6161 61.6162 51.6161C61.4781 51.6161 61.3859 51.5391 61.3859 51.3554C61.3859 51.1714 61.5701 50.7577 61.6314 50.6039L62.843 48.0289C63.1804 47.2322 63.411 46.711 63.411 46.1897C63.411 45.6378 63.0282 45.239 62.3984 45.239C61.5242 45.239 60.5732 45.7452 59.8218 46.5725C59.8473 46.4412 59.8575 46.3073 59.8524 46.1738C59.8524 45.5605 59.546 45.2385 58.9168 45.2385C58.1196 45.2385 57.2916 45.7142 56.5402 46.5722L57.031 45.376H55.3438L53.9179 48.5959C53.2432 50.1136 52.1543 51.6161 51.5406 51.6161C51.4028 51.6161 51.3107 51.5389 51.3107 51.3552C51.3107 51.0641 51.6328 50.3436 51.7553 50.0523L53.6418 45.7759C53.7798 45.4542 52.8748 45.2546 51.7247 45.2546C50.5439 45.2546 49.3322 45.8373 48.443 46.5881C47.8143 47.1091 47.3542 47.3699 47.1237 47.3699C47.0485 47.3859 46.9745 47.338 46.9583 47.263C46.9561 47.2528 46.9551 47.2424 46.9553 47.2321C46.9553 46.9714 47.584 46.2353 47.584 45.6683C47.584 45.4079 47.4462 45.239 47.093 45.239C46.4187 45.239 45.6208 45.883 45.0381 46.5571L45.5289 45.3767H43.873L42.447 48.5959C41.772 50.1136 40.6525 51.6926 40.0391 51.6926C39.9009 51.6926 39.8093 51.6161 39.8093 51.4318C39.8093 51.1407 40.116 50.4359 40.2846 50.0676L42.171 45.7759C42.309 45.4542 41.4041 45.2546 40.2537 45.2546C38.5514 45.2546 36.895 46.4042 36.021 47.5846C35.055 48.8564 34.3957 50.2055 34.3802 51.3093C34.3652 52.1983 34.8246 52.75 35.745 52.75C36.7726 52.75 37.601 51.9378 38.0761 51.3245C38.0479 51.4458 38.0273 51.5687 38.0143 51.6925C38.0143 52.3053 38.2598 52.75 39.0111 52.75C39.6704 52.75 40.5447 52.1981 41.2502 51.3244L40.6821 52.6274H42.4761L44.2399 48.6266C44.824 47.324 45.4835 46.6498 45.6668 46.6498C45.709 46.6417 45.7498 46.6693 45.758 46.7115C45.7588 46.7163 45.7594 46.7214 45.7594 46.7264C45.7594 46.8644 45.4835 47.2327 45.4835 47.5694C45.4835 47.9061 45.6669 48.167 46.1584 48.167C46.5412 48.167 46.9708 47.983 47.3543 47.7374C46.4496 48.9642 45.8356 50.2516 45.8356 51.3096C45.8204 52.1986 46.28 52.7503 47.2006 52.7503C48.1665 52.7503 49.0713 51.8306 49.5621 51.2174C49.5436 51.3598 49.5334 51.503 49.5315 51.6465C49.5315 52.2447 49.869 52.7503 50.559 52.7503C51.3255 52.7503 51.9392 52.2748 52.706 51.3402L52.138 52.6278H53.978L55.6647 48.8108C56.4009 47.1554 57.3975 46.266 57.8883 46.266C58.0109 46.2534 58.1208 46.3424 58.1336 46.4652C58.1336 46.4655 58.1336 46.4657 58.1337 46.466V46.5116C58.1135 46.6978 58.0616 46.8792 57.9804 47.048L55.5596 52.643H57.4459L59.1636 48.7493C59.8993 47.0788 60.7125 46.266 61.3258 46.266C61.5098 46.266 61.5867 46.3586 61.5867 46.5573C61.5704 46.7708 61.513 46.9791 61.418 47.1711L59.7615 50.6963C59.609 51.0356 59.5156 51.3983 59.4854 51.7691C59.4854 52.3057 59.7766 52.7816 60.6052 52.7816C61.6794 52.7816 62.4915 51.9692 63.4113 50.7583V51.0187C63.4883 51.9844 64.0249 52.8275 65.451 52.8275C67.1378 52.8275 68.5034 51.6625 69.3307 49.8082C69.6436 49.1562 69.8461 48.4566 69.9295 47.7381C70.1142 47.8318 70.3207 47.8743 70.5272 47.8616C70.8059 47.8647 71.0805 47.796 71.3249 47.6621L71.0335 48.2903C70.6951 48.9955 70.3272 49.7774 70.037 50.4369C69.8532 50.8269 69.7438 51.2477 69.7148 51.678C69.7148 52.3368 70.0827 52.8125 70.8335 52.8125C71.5843 52.8125 72.6129 52.1073 73.3489 51.111H73.3649C73.3156 51.317 73.2896 51.5276 73.2871 51.7393C73.2871 52.2913 73.4562 52.8125 74.223 52.8125C75.1133 52.8125 75.8023 52.1686 76.4777 51.356L75.9097 52.6438H77.7655L79.2536 49.2716C80.097 47.3709 80.9404 46.2215 81.7219 46.2215C81.8562 46.2168 81.971 46.3175 81.9837 46.4513V46.4966C81.9837 46.8188 81.5231 47.6926 81.1094 48.5661C80.7254 49.3633 80.434 49.9761 80.2352 50.4518C80.0507 50.8524 79.9415 51.2835 79.913 51.7237C79.913 52.3058 80.2352 52.7505 80.9564 52.7505C82.0294 52.7505 83.1185 51.7082 83.7001 50.9263C83.5689 51.3011 83.4968 51.694 83.4864 52.091C83.4864 53.1645 84.1297 53.7008 85.0348 53.7008C85.6361 53.6962 86.2207 53.5034 86.7067 53.1493C87.4118 52.6585 87.9799 51.9229 88.4552 51.2485L88.1331 50.9416C87.6885 51.5702 87.1971 52.1682 86.6908 52.5361C86.4239 52.7616 86.0891 52.8912 85.7399 52.904C85.3572 52.904 85.1114 52.7045 85.1114 52.2144C85.1114 51.7244 85.3411 51.0645 85.6943 50.1753C85.709 50.1604 86.2153 49.0258 86.6908 47.9378C87.0896 47.0175 87.4884 46.1288 87.565 45.9449H88.7764L89.0219 45.393H87.8256L88.9606 42.8022ZM36.6496 51.6468C36.389 51.6468 36.205 51.5549 36.205 51.2176C36.2202 50.3131 36.9714 48.7038 37.9075 47.416C38.5668 46.527 39.4255 45.8682 40.3457 45.8682L39.18 48.4735C38.3059 50.4358 37.355 51.6468 36.6496 51.6468ZM48.1209 51.6468C47.8604 51.6468 47.6763 51.5549 47.6612 51.2176C47.6764 50.3131 48.4277 48.7038 49.3635 47.416C50.0226 46.527 50.8816 45.8682 51.8017 45.8682L50.6359 48.4735C49.7467 50.4821 48.8419 51.6469 48.1206 51.6469L48.1209 51.6468ZM68.4865 46.5734C68.4408 47.5695 67.5665 49.9757 66.5392 51.4171C66.1256 51.9995 65.7723 52.1679 65.4662 52.1679C65.0364 52.1679 64.9129 51.8151 64.9746 51.2942C65.066 50.3899 65.818 48.2746 66.8614 46.8184C67.3368 46.1593 67.6591 45.8833 68.027 45.8833C68.3951 45.8834 68.5024 46.1901 68.4865 46.5734ZM97.1091 45.3927L98.7982 41.4941H96.7992L95.1099 45.3927H90.861L90.1522 47.0277H94.4024L92.7132 50.9262H94.7123L96.4016 47.0277H100.65L101.358 45.3927H97.1091Z" fill="#080821"/>
</svg>
