<svg width="120" height="60" viewBox="0 0 120 60" fill="none" xmlns="http://www.w3.org/2000/svg">
    <path d="M29.5567 43.6216C27.2515 43.54 25.3543 42.9076 23.8855 41.7244C23.5999 41.5 22.9267 40.8268 22.7023 40.5412C22.1107 39.7864 21.7027 39.052 21.4171 38.236C20.5807 35.7268 21.0091 32.4424 22.6411 28.8316C24.0487 25.7512 26.2111 22.6912 29.9851 18.448C30.5359 17.8156 32.1883 16 32.2087 16C32.2087 16 32.1271 16.1632 32.0047 16.3468C31.0255 17.9992 30.1891 19.9168 29.7199 21.61C28.9855 24.3028 29.0671 26.608 29.9851 28.4032C30.6175 29.6272 31.6783 30.7084 32.8819 31.3C34.9831 32.3404 38.0839 32.422 41.8375 31.5448C42.1027 31.4836 54.9547 28.0768 70.3975 23.956C85.8811 19.8352 98.5291 16.4692 98.5291 16.4692C98.5291 16.4692 62.6251 31.8304 43.9795 39.8068C41.0215 41.0716 40.2463 41.3776 38.8591 41.8672C35.3095 43.1116 32.1271 43.7236 29.5567 43.6216Z" fill="black"/>
    </svg>
    