<svg width="120" height="60" viewBox="0 0 120 60" fill="none" xmlns="http://www.w3.org/2000/svg">
    <path d="M29.29 22.6211H22.7067L20.0983 37.3404H24.1352L25.781 25.8817H26.1847L27.8616 37.3404H31.8985L29.29 22.6211Z" fill="black"/>
    <path d="M48.3568 37.3404L48.1705 26.2543H47.7979L45.9036 37.3404H41.9598L40.0656 26.2543H39.6929L39.5066 37.3404H35.7492L36.3392 22.6211H42.643L43.7609 30.7571H44.1025L45.1894 22.6211H51.4932L52.1143 37.3404H48.3568Z" fill="black"/>
    <path d="M71.4915 34.1108L71.4605 22.6211H75.5906V33.8934V33.9556V34.0177L75.6216 34.0798V34.1419V34.204V34.2661L75.6527 34.2971L75.6837 34.3592V34.4213L75.7148 34.4835L75.7458 34.5145L75.7769 34.5766L75.8079 34.6077L75.839 34.6698L75.87 34.7008L75.9011 34.7319L75.9321 34.794L75.9942 34.825L76.0253 34.8561L76.0874 34.8871L76.1185 34.9182L76.1806 34.9493L76.2116 34.9803L76.2737 35.0114L76.3358 35.0424H76.3669L76.429 35.0735H76.4911H76.5532L76.6153 35.1045H76.6774H76.7395H76.8016H76.8327L76.8948 35.0735H76.9569H77.019L77.0811 35.0424H77.1432L77.1743 35.0114L77.2364 34.9803L77.2985 34.9493L77.3295 34.9182L77.3916 34.8871L77.4227 34.8561L77.4538 34.825L77.5159 34.794L77.5469 34.7319L77.578 34.7008L77.609 34.6698L77.6401 34.6077L77.6711 34.5766L77.7022 34.5145L77.7332 34.4835L77.7643 34.4213L77.7953 34.3592V34.2971L77.8264 34.2661V34.204V34.1419L77.8574 34.0798V34.0177V33.9556V33.8934V22.6211H81.9875V34.1729V34.4213L81.9565 34.6387L81.9254 34.8871L81.8633 35.1045L81.8012 35.3219L81.7391 35.5393L81.646 35.7256L81.5217 35.9119L81.4286 36.0982L81.3044 36.2845L81.1491 36.4398L81.0249 36.5951L80.8696 36.7503L80.6833 36.9056L80.528 37.0298L80.3417 37.154L80.1554 37.2782L79.9691 37.4025L79.7517 37.4956L79.5343 37.6198L79.317 37.6819L79.0996 37.7751L78.8822 37.8372L78.6648 37.9304L78.4164 37.9614L78.199 38.0235L77.7022 38.1167L77.2053 38.1477H76.7395H76.2427L75.7458 38.0856L75.28 38.0235L75.0316 37.9614L74.7832 37.8993L74.5658 37.8372L74.3484 37.7751L74.131 37.6819L73.9137 37.5888L73.6963 37.4956L73.51 37.3714L73.2926 37.2782L73.1063 37.154L72.92 36.9988L72.7647 36.8746L72.6094 36.7193L72.4542 36.564L72.2989 36.4088L72.1747 36.2224L72.0505 36.0672L71.9263 35.8808L71.8331 35.6635L71.74 35.4772L71.6468 35.2598L71.5847 35.0424L71.5536 34.825L71.4915 34.5766V34.3592V34.1108Z" fill="black"/>
    <path d="M99.5326 22.6211H95.9615V31.8439H95.8683L91.7072 22.6211H87.2976V37.3404H90.8688V28.7386H90.9619L94.8746 37.3404H99.5326V22.6211Z" fill="black"/>
    <path d="M56.4928 34.4523V32.496H60.6229L60.5918 33.3655V33.5828V33.7692V33.8623L60.6229 33.9555V34.0486L60.6539 34.1418L60.685 34.2039V34.235L60.716 34.2971L60.7471 34.3281V34.3592L60.7781 34.3902V34.4213L60.8092 34.4523L60.8403 34.4834L60.8713 34.5144L60.9024 34.5455L60.9334 34.5765L60.9645 34.6076L60.9955 34.6386L61.0266 34.6697L61.0576 34.7008H61.0887L61.1197 34.7318L61.1818 34.7629H61.2129L61.2439 34.7939L61.3061 34.825H61.3682L61.4613 34.856L61.5855 34.8871H61.7097H61.834H61.865H61.8961H61.9271H61.9582H61.9892H62.0203H62.0513H62.0824L62.1134 34.856L62.1755 34.825L62.2376 34.7939L62.2998 34.7629L62.3619 34.7318L62.424 34.7008L62.4861 34.6386L62.5482 34.6076L62.5792 34.5455L62.6413 34.4834L62.6724 34.4213L62.7345 34.3592L62.7655 34.2971L62.7966 34.2039L62.8277 34.1418L62.8587 34.0486L62.8898 33.9865V33.8934V33.8002V33.707V33.6139V33.5207V33.3965L62.8587 33.3034L62.8277 33.2102L62.7966 33.086L62.7345 32.9618L62.6724 32.8686L62.6413 32.8065L62.6103 32.7444L62.5792 32.6823L62.5482 32.6512L62.5171 32.5891L62.4861 32.5581L62.3929 32.4649L62.2998 32.3718L62.2066 32.2786L62.0824 32.2165L61.9892 32.1233L61.7408 31.9991L61.4924 31.8438L60.9024 31.5644L60.2502 31.2538L59.536 30.8812L59.1323 30.6638L58.7597 30.4154L58.387 30.1359L57.9833 29.7943L57.9212 29.7633L57.8591 29.7322L57.8281 29.6701L57.766 29.608L57.7039 29.577L57.6728 29.5148L57.5486 29.3906L57.4865 29.2975L57.3933 29.1422L57.3002 29.018L57.2381 28.8938L57.176 28.7385L57.1139 28.5832L57.0517 28.428L57.0207 28.2727L56.9275 27.9311L56.8654 27.5895L56.8033 27.2169L56.7723 26.8753L56.7412 26.5337V26.1921V25.8506L56.7723 25.54L56.8033 25.2295L56.8344 24.9811L56.8965 24.7637L56.9275 24.5774L56.9896 24.3911L57.0828 24.2047L57.176 24.0495L57.2691 23.8631L57.3623 23.7079L57.4865 23.5526L57.6107 23.4284L57.7349 23.3042L57.8902 23.1489L58.0455 23.0558L58.2007 22.9315L58.356 22.8384L58.5113 22.7142L58.6976 22.621L58.8839 22.5589L59.0702 22.4658L59.2565 22.4036L59.4739 22.3415L59.8776 22.2173L60.2813 22.1242L60.716 22.0621L61.1508 22.031H61.6166H62.0513L62.4861 22.0621L62.9208 22.1242L63.3556 22.2173L63.7903 22.3105L64.1629 22.4347L64.5666 22.5589L64.9082 22.7142L65.0945 22.8073L65.2498 22.9005L65.4051 22.9937L65.5603 23.1179L65.7156 23.211L65.8398 23.3352L65.964 23.4284L66.0883 23.5526L66.2125 23.6768L66.3056 23.801L66.3988 23.9563L66.4298 24.0184L66.4609 24.0805L66.523 24.1426L66.5541 24.2358L66.5851 24.2979V24.36L66.6162 24.4532L66.6472 24.5153V24.5774L66.6783 24.6705V24.7326L66.7093 24.8258V24.919V24.9811V27.0306H62.9519L62.9829 26.1611V25.9748L62.9519 25.7885V25.6953V25.6332L62.9208 25.54L62.8898 25.4779V25.4469V25.4158L62.8587 25.3848V25.3227L62.8277 25.2916L62.7966 25.2605V25.2295H62.7655L62.7345 25.1984V25.1674L62.7034 25.1363L62.6724 25.1053L62.6413 25.0742H62.6103L62.5792 25.0432L62.5482 25.0121H62.4861L62.455 24.9811L62.424 24.95H62.3929L62.3308 24.919H62.2998L62.1755 24.8879L62.0824 24.8569H61.9582H61.834H61.7097H61.6476H61.5855H61.5545L61.4924 24.8879H61.4303L61.3682 24.919L61.3061 24.95L61.275 24.9811H61.2129L61.1508 25.0432L61.0887 25.0742L61.0576 25.1053L60.9955 25.1363L60.9645 25.1984L60.9024 25.2605L60.8713 25.2916L60.8403 25.3227L60.8092 25.3537V25.3848L60.7781 25.4158V25.4469L60.7471 25.4779V25.509L60.716 25.54V25.6021V25.6332L60.685 25.6642V25.6953V25.7263V25.7885V25.8195L60.6539 25.8506V25.9127V25.9437L60.685 26.0058V26.0369V26.13L60.716 26.2232L60.7471 26.3474L60.7781 26.4406L60.8092 26.5337L60.8713 26.6579L60.9645 26.7822L61.0887 26.9064L61.2129 27.0306L61.3061 27.1548L61.5545 27.3722L61.8029 27.5585L62.0513 27.7448L62.3308 27.9001L62.6103 28.0553L62.8587 28.1796L63.9456 28.6764L64.5045 28.9248L64.753 29.049L65.0014 29.2043L65.2498 29.3285L65.4672 29.4838L65.5914 29.577L65.7156 29.6701L65.8088 29.7633L65.9019 29.8564L65.9951 29.9496L66.1193 30.0738L66.1814 30.198L66.2746 30.2912L66.3677 30.4154L66.4609 30.5707L66.523 30.6949L66.5851 30.8501L66.6472 31.0054L66.7093 31.1607L66.7714 31.3159L66.8335 31.5023L66.8646 31.6886L66.8956 31.8749L66.9577 32.0612V32.2786L67.0199 32.7133V33.2102L66.9888 33.7381L66.9577 34.3281L66.9267 34.5455L66.8956 34.7318L66.8335 34.9492L66.7714 35.1355L66.6783 35.3218L66.5851 35.5081L66.4919 35.6945L66.3677 35.8497L66.2435 36.005L66.1193 36.1602L65.964 36.3155L65.8088 36.4708L65.6535 36.595L65.4982 36.7192L65.3119 36.8434L65.1256 36.9366L64.9393 37.0297L64.753 37.154L64.5356 37.2161L64.3493 37.3092L64.1319 37.4024L63.9145 37.4645L63.4487 37.5887L62.9829 37.6508L62.5171 37.7129L62.0513 37.775H61.5855L61.0887 37.744L60.6229 37.7129L60.1571 37.6508L59.7223 37.5576L59.2876 37.4334L58.8528 37.2782L58.6665 37.185L58.4491 37.0918L58.2628 36.9987L58.1076 36.9055L57.9212 36.8124L57.766 36.6882L57.6107 36.5639L57.4554 36.4397L57.3002 36.3155L57.176 36.1602L57.0517 36.036L56.9586 35.8808L56.8344 35.7255L56.8033 35.6323L56.7412 35.5392L56.7102 35.4771L56.6791 35.3839L56.6481 35.2908L56.617 35.1976L56.5859 35.1044L56.5549 35.0113V34.9181L56.5238 34.825V34.7318L56.4928 34.6386V34.5455V34.4523Z" fill="black"/>
    <path d="M11.0618 22L10.4407 22.0621L9.85072 22.1242L9.57124 22.1863L9.32281 22.2484L9.07438 22.3105L8.82596 22.3726L8.60858 22.4658L8.39121 22.559L8.17384 22.6521L7.98752 22.7453L7.8012 22.8384L7.64593 22.9627L7.49067 23.0869L7.3354 23.2111L7.21119 23.3353L7.05592 23.4595L6.96276 23.6148L6.83854 23.739L6.74539 23.8943L6.65223 24.0495L6.55907 24.2048L6.49696 24.3601L6.4038 24.5153L6.34169 24.6706L6.31064 24.8259L6.24853 25.0122L6.21748 25.1674L6.18643 25.3227L6.15537 25.509V25.6643L6.12432 26.0059V26.3475L6.15537 26.689L6.18643 27.0306L6.24853 27.3412L6.34169 27.6517L6.43485 27.9622L6.52801 28.2417L6.62117 28.5212L6.74539 28.7696L6.8696 29.018L6.99381 29.2354L7.11802 29.4217L7.18013 29.5149L7.24224 29.577L7.30434 29.6391L7.36645 29.7012L7.42856 29.7633L7.45961 29.7944H7.49067L7.89436 30.136L8.267 30.4154L8.67069 30.6639L9.04333 30.8812L9.75755 31.2539L10.4097 31.5644L10.9997 31.8439L11.2481 31.9992L11.4965 32.1234L11.6208 32.2165L11.7139 32.2786L11.8071 32.3718L11.9002 32.465L11.9934 32.5581L12.0244 32.5892L12.0555 32.6513L12.0866 32.6823L12.1176 32.7444L12.1487 32.8065L12.1797 32.8687L12.2418 32.9618L12.3039 33.086L12.335 33.2102L12.366 33.3034L12.3971 33.3966V33.5208L12.4281 33.6139V33.7071V33.8003L12.3971 33.8934V33.9866L12.366 34.0487L12.335 34.1418L12.3039 34.2039L12.2729 34.2971L12.2418 34.3592L12.2108 34.4213L12.1487 34.4834L12.0866 34.5455L12.0555 34.6076L11.9934 34.6387L11.9313 34.7008L11.8692 34.7319L11.8381 34.7629L11.776 34.794L11.7139 34.825L11.6518 34.8561L11.5897 34.8871H11.5586H11.5276H11.4965H11.4655H11.4344H11.4034H11.3723H11.3413H11.2171H11.0928L10.9686 34.8561L10.8755 34.825H10.8134L10.7823 34.794L10.7202 34.7629H10.6892L10.627 34.7319L10.596 34.7008H10.5649L10.5339 34.6697L10.5028 34.6387L10.4718 34.6076L10.4407 34.5766L10.4097 34.5455L10.3786 34.5145L10.3476 34.4834L10.3165 34.4524V34.4213L10.2855 34.3903L10.2544 34.3592V34.3282L10.2234 34.2971V34.235L10.1923 34.2039L10.1612 34.1418V34.0487L10.1302 33.9555V33.8624L10.0991 33.7692V33.5829V33.3655L10.1302 32.496H6.00011V34.4524V34.5455V34.6387L6.03116 34.7319V34.825L6.06221 34.9182V35.0113L6.09327 35.1045L6.12432 35.1977L6.15537 35.2908L6.18643 35.384L6.21748 35.4771L6.27959 35.5392L6.31064 35.6324L6.34169 35.7256L6.46591 35.8808L6.55907 36.0361L6.68328 36.1603L6.80749 36.3156L6.96276 36.4398L7.11802 36.564L7.27329 36.6882L7.42856 36.8124L7.61488 36.9056L7.8012 36.9987L7.98752 37.0919L8.17384 37.1851L8.36016 37.2782L8.7949 37.4335L9.22965 37.5577L9.6644 37.6509L10.1302 37.713L10.627 37.744L11.0928 37.7751H11.5586L12.0555 37.713L12.5213 37.6509L12.956 37.5888L13.4218 37.4645L13.6392 37.4024L13.8566 37.3093L14.0429 37.2161L14.2603 37.154L14.4466 37.0298L14.6329 36.9366L14.8192 36.8435L15.0056 36.7193L15.1608 36.5951L15.3471 36.4708L15.4714 36.3156L15.6266 36.1603L15.7508 36.005L15.8751 35.8498L15.9993 35.6945L16.0924 35.5082L16.1856 35.3219L16.2787 35.1355L16.3409 34.9492L16.403 34.7319L16.434 34.5455L16.4651 34.3282L16.4961 33.7381L16.5272 33.2102V32.7134L16.4961 32.2786L16.4651 32.0613L16.434 31.8749L16.3719 31.6886L16.3409 31.5023L16.2787 31.316L16.2477 31.1607L16.1856 31.0055L16.0924 30.8502L16.0303 30.6949L15.9682 30.5707L15.8751 30.4154L15.7819 30.2912L15.7198 30.1981L15.6266 30.0739L15.5335 29.9496L15.4093 29.8565L15.3161 29.7633L15.2229 29.6702L15.0987 29.577L15.0056 29.4838L14.7571 29.3286L14.5087 29.2044L14.2603 29.0491L14.0119 28.9249L13.4839 28.6765L12.366 28.1796L12.1176 28.0554L11.8381 27.9001L11.5897 27.7449L11.3102 27.5585L11.0618 27.3722L10.8444 27.1548L10.7202 27.0306L10.596 26.9064L10.5028 26.7822L10.3786 26.658L10.3165 26.5338L10.2855 26.4406L10.2544 26.3475L10.2234 26.2232L10.1923 26.1301V26.0369V26.0059V25.9438V25.9127V25.8506V25.8196V25.7885V25.7264V25.6953V25.6643L10.2234 25.6332V25.6022L10.2544 25.5401V25.509V25.478L10.2855 25.4469V25.4159L10.3165 25.3848L10.3476 25.3538V25.3227L10.3786 25.2917L10.4097 25.2606L10.4718 25.1985L10.5028 25.1364L10.5649 25.1053L10.627 25.0743L10.6581 25.0432L10.7202 24.9811H10.7823L10.8444 24.9501L10.8755 24.919L10.9376 24.888H10.9997L11.0618 24.8569H11.1239H11.155H11.2171H11.3413H11.4655H11.5897L11.7139 24.888L11.8071 24.919H11.8381L11.9002 24.9501H11.9313L11.9623 24.9811L12.0244 25.0122H12.0555L12.0866 25.0432L12.1176 25.0743H12.1487L12.1797 25.1053L12.2108 25.1364L12.2418 25.1674V25.1985L12.2729 25.2295H12.3039L12.335 25.2606V25.2917L12.366 25.3227V25.3848L12.3971 25.4159V25.4469L12.4281 25.478V25.5401L12.4592 25.6332V25.6953L12.4902 25.7885V25.9748V26.1611L12.4592 27.0306H16.2166V24.9811V24.888V24.7637L16.1856 24.6706V24.5464L16.1545 24.4532L16.1235 24.3601L16.0924 24.2669V24.1737L16.0303 24.0806L15.9993 23.9874L15.9682 23.9253L15.9061 23.8321L15.8751 23.739L15.8129 23.6769L15.7508 23.5837L15.7198 23.5216L15.6577 23.4595L15.5956 23.3974L15.5024 23.3042L15.4403 23.2421L15.3161 23.1179L15.1608 22.9937L14.9745 22.9005L14.8192 22.8074L14.6329 22.7142L14.4466 22.6211L14.2603 22.5279L14.0429 22.4658L13.6392 22.3416L13.2045 22.2484L12.8008 22.1553L12.335 22.0932L11.9002 22.0621L11.0618 22Z" fill="black"/>
    <path d="M109.998 38.303L110.463 38.334L110.929 38.303L111.333 38.2719L111.705 38.2409L112.047 38.1788L112.358 38.0856L112.513 38.0546L112.668 37.9925L112.792 37.9614L112.917 37.8993L113.041 37.8372L113.165 37.7751L113.289 37.713L113.382 37.6509L113.507 37.5888L113.6 37.4956L113.693 37.4335L113.755 37.3403L113.848 37.2782L113.91 37.1851L114.003 37.0919L114.066 36.9988L114.128 36.9366L114.19 36.8435L114.252 36.7503L114.283 36.6572L114.345 36.564L114.376 36.4708L114.438 36.2535L114.5 36.0672L114.562 35.8808L114.593 35.6635L114.624 35.4771L114.656 35.2598L114.687 35.0734V34.6698V34.2971V33.645V29.6391H109.811V31.7818H110.805V34.2971V34.3592V34.4213V34.4524L110.774 34.5145V34.5766V34.6076L110.743 34.6698L110.712 34.7008V34.7629L110.681 34.794L110.65 34.8561L110.619 34.8871L110.588 34.9492L110.557 34.9803L110.525 35.0113L110.494 35.0424L110.463 35.0734L110.432 35.1045L110.37 35.1356L110.339 35.1666L110.308 35.1977L110.246 35.2287L110.215 35.2598L110.153 35.2908H110.122L110.06 35.3219H110.029L109.966 35.3529H109.904H109.842H109.811H109.749H109.687H109.625H109.594H109.532L109.47 35.3219H109.439L109.376 35.2908H109.345L109.283 35.2598L109.252 35.2287L109.19 35.1977L109.159 35.1666L109.128 35.1356L109.066 35.1045L109.035 35.0734L109.004 35.0424L108.973 35.0113L108.942 34.9803L108.911 34.9492L108.88 34.8871L108.849 34.8561L108.818 34.794L108.786 34.7629V34.7008L108.755 34.6698L108.724 34.6076V34.5766V34.5145L108.693 34.4524V34.4213V34.3592V34.2971V26.068V26.0369V25.9748V25.9127L108.724 25.8506V25.8196V25.7575L108.755 25.7264L108.786 25.6643V25.6332L108.818 25.5711L108.849 25.5401L108.88 25.478L108.911 25.4469L108.942 25.4159L108.973 25.3538L109.004 25.3227L109.035 25.2917L109.066 25.2606L109.128 25.2296L109.159 25.1985L109.19 25.1674L109.252 25.1364H109.283L109.345 25.1053L109.376 25.0743H109.439L109.47 25.0432H109.532H109.594L109.625 25.0122H109.687H109.749H109.811H109.842L109.904 25.0432H109.966H110.029L110.06 25.0743H110.122L110.153 25.1053L110.215 25.1364H110.246L110.308 25.1674L110.339 25.1985L110.37 25.2296L110.432 25.2606L110.463 25.2917L110.494 25.3227L110.525 25.3538L110.557 25.4159L110.588 25.4469L110.619 25.478L110.65 25.5401L110.681 25.5711L110.712 25.6332V25.6643L110.743 25.7264L110.774 25.7575V25.8196V25.8506L110.805 25.9127V25.9748V26.0369V26.068V27.4343H114.687V25.7575L114.656 25.5401V25.4469V25.3227L114.624 25.2296V25.1364L114.593 25.0432L114.562 24.9501L114.531 24.8569L114.5 24.7638L114.469 24.6706L114.438 24.5774L114.376 24.4843L114.345 24.4222L114.252 24.2359L114.128 24.0806L114.034 23.9253L113.879 23.8011L113.755 23.6458L113.6 23.5216L113.444 23.3974L113.289 23.2732L113.134 23.18L112.948 23.0558L112.761 22.9627L112.575 22.8695L112.358 22.7763L112.171 22.7142L111.954 22.6521L111.519 22.5279L111.084 22.4348L110.619 22.3416L110.153 22.3105H109.687H109.221L108.786 22.3416L108.321 22.4037L107.886 22.4969L107.451 22.6211L107.234 22.6832L107.047 22.7763L106.83 22.8385L106.644 22.9316L106.457 23.0248L106.271 23.149L106.116 23.2421L105.961 23.3664L105.805 23.4906L105.65 23.6148L105.495 23.7701L105.371 23.8943L105.277 24.0495L105.153 24.2048L105.06 24.3601L105.029 24.4532L104.967 24.5464L104.936 24.6085L104.905 24.7016L104.874 24.7948L104.843 24.888L104.812 24.9811L104.781 25.0743V25.1674L104.75 25.2917V25.3848V25.478L104.718 25.6954V34.9492V35.0734L104.75 35.2287V35.3529V35.4771L104.781 35.6014L104.812 35.7256L104.843 35.8498L104.874 35.974L104.905 36.0672L104.936 36.1914L104.998 36.2845L105.029 36.3777L105.091 36.4708L105.153 36.564L105.184 36.6572L105.246 36.7503L105.34 36.8435L105.402 36.9366L105.464 36.9988L105.526 37.0919L105.619 37.154L105.681 37.2161L105.867 37.3714L106.023 37.4956L106.209 37.5888L106.395 37.6819L106.613 37.7751L106.799 37.8682L107.016 37.9614L107.234 38.0235L107.451 38.0856L107.886 38.1788L108.321 38.2409L108.786 38.303H109.221L109.625 38.334L109.998 38.303Z" fill="black"/>
    </svg>
    