<svg width="120" height="60" viewBox="0 0 120 60" fill="none" xmlns="http://www.w3.org/2000/svg">
    <path d="M25.1716 35.3336C28.0169 35.3336 30.4393 33.0169 30.4393 30.0659C30.4393 27.2206 28.1226 24.7982 25.1716 24.7982C22.3263 24.7982 19.9039 27.1149 19.9039 30.0659C19.9039 32.9112 22.3263 35.3336 25.1716 35.3336ZM25.1716 40.1803C26.4861 40.1806 27.7878 39.922 29.0023 39.4191C30.2168 38.9163 31.3204 38.1791 32.2499 37.2496C33.1794 36.3202 33.9167 35.2167 34.4197 34.0022C34.9226 32.7878 35.1814 31.4861 35.1812 30.1716C35.1812 24.6924 30.6499 20.1629 25.1725 20.1629C19.6951 20.1629 15.1629 24.6924 15.1629 30.1716C15.1629 35.6507 19.6836 40.1803 25.1716 40.1803ZM10 30.1716C10 21.7415 16.8481 15 25.1716 15C33.4951 15 40.3432 21.8472 40.3432 30.1716C40.3432 38.496 33.496 45.3432 25.1716 45.3432C16.8472 45.3432 10 38.6017 10 30.1716Z" fill="black"/>
    <path d="M49.2747 26.1193V37.0379H45.9872V26.1193H42.2382V23.3568H53.0907V26.1193H49.2747ZM69.337 26.1193H66.3112V28.8818H69.0067C69.9933 28.8818 70.6513 28.4871 70.6513 27.5005C70.7174 26.5139 70.0585 26.1193 69.3353 26.1193H69.337ZM63.088 23.3568H69.4683C73.0861 23.3568 73.612 25.8559 73.612 27.3032C73.612 29.4173 71.8361 30.4603 71.6388 30.5273C71.6388 30.5273 73.2834 31.1192 73.2834 32.8951V35.4603C73.2834 36.4469 73.8754 36.7754 74.0057 37.0388H71.3745C70.1237 36.9067 70.1906 35.9201 70.1906 35.3942V33.1664C70.1245 32.6396 69.9933 32.0477 68.8754 32.0477H66.2442V37.0467H63.1611V23.3665L63.088 23.3568ZM96.4359 28.5594H90.8449V26.1193H97.4225V23.3568H87.6226V37.0371H97.4234V34.2746H90.8457V31.1915H96.4368L96.4359 28.5594ZM104.988 37.0459V26.1193H109V23.3568H97.8832V26.1193H101.764V37.0379L104.988 37.0459ZM56.4434 28.2317L55.3247 31.7834H57.6925L56.4434 28.2317ZM54.5935 23.3647H58.1453L62.9461 36.9807H59.5353L58.5487 34.1618H54.5363L53.5497 36.9807H50.1953L54.5935 23.3647ZM86.4959 29.4165H80.6415V32.0477H83.4603C83.4603 32.5745 83.5264 33.1003 82.8684 33.8976C82.6041 34.1618 81.8818 34.752 80.8291 34.752C79.9086 34.752 79.2506 34.4878 78.715 34.0297C77.4641 32.977 77.1364 31.0699 77.1364 29.9512C77.1364 28.636 77.6632 25.478 80.7542 25.3467C80.7542 25.3467 82.9248 25.2146 83.4498 27.7806H86.4096C86.3435 26.4655 84.831 22.8477 80.8186 22.8477C79.4373 22.8477 77.6614 23.2423 76.1481 24.7548C75.0954 25.8075 74.1088 27.6494 74.1088 30.1485C74.1088 32.911 75.0954 34.6868 76.0159 35.6743C77.6606 37.385 79.3043 37.5242 80.1596 37.5242C80.8177 37.5242 82.1328 37.3921 83.7775 36.2733L84.1721 37.0626H86.4096L86.4959 29.4165Z" fill="black"/>
    </svg>
    