<svg width="121" height="60" viewBox="0 0 121 60" fill="none" xmlns="http://www.w3.org/2000/svg">
<path fill-rule="evenodd" clip-rule="evenodd" d="M26.612 21.2065C26.4745 21.069 26.303 21 26.0965 21C25.8899 21 25.7184 21.069 25.5809 21.2065L17.9811 28.2962C17.672 28.5717 17.5 28.9843 17.5 29.3973V39.0339C17.5 39.447 17.8436 39.791 18.2566 39.791H33.9023C34.3148 39.791 34.6584 39.447 34.6584 39.0339V29.3973C34.6584 28.9843 34.4869 28.5717 34.1773 28.2962L26.612 21.2065ZM21.1446 36.1774V30.327L26.0965 25.6807L31.0483 30.327V36.1774H21.1446ZM40.1603 37.6232C40.1603 36.4185 39.1976 35.4548 37.9939 35.4548C36.7562 35.4893 35.7935 36.453 35.8275 37.6232C35.8275 38.8274 36.7907 39.791 37.9939 39.791C39.1976 39.791 40.1603 38.8274 40.1603 37.6232ZM57.3191 21C58.5228 21 59.4855 21.9637 59.4855 23.1683C59.4855 24.3725 58.5228 25.3362 57.3191 25.3362C56.1154 25.3362 55.1528 24.3725 55.1528 23.1683C55.1183 21.9982 56.0814 21 57.3191 21ZM79.567 23.1683C79.567 21.9637 78.6043 21 77.4006 21C76.1629 21 75.2003 21.9982 75.2343 23.1683C75.2343 24.3725 76.1974 25.3362 77.4006 25.3362C78.6043 25.3362 79.567 24.3725 79.567 23.1683ZM55.4968 26.4724H59.1074V39.8255H55.4968V26.4724ZM79.189 26.4724H75.5784V39.8255H79.189V26.4724ZM85.0344 39.8255H81.4238V26.4724H85.0344V27.9521C85.8601 26.6784 87.4073 26.1278 88.7826 26.1278C92.0836 26.1278 93.5969 28.5027 93.5969 31.4282V39.8255H89.9863V32.0133C89.9863 30.533 89.2641 29.3633 87.5104 29.3633C85.9286 29.3633 85.0004 30.5675 85.0004 32.1163L85.0344 39.8255ZM45.4558 39.8255L40.1604 26.4724H44.0806L47.2441 35.4548L50.4076 26.4724H54.3623L49.0664 39.8255H45.4558ZM60.2422 26.4724L65.5376 39.8255H69.1482L74.4436 26.4724H70.4889L67.3254 35.4548L64.1619 26.4724H60.2422ZM100.164 35.2483V30.086H103.5V26.4724H100.199V22.5488H96.6228V26.4724H94.3875V30.086H96.6228V35.8679C96.6228 38.4488 98.2386 39.9976 100.852 39.9976C102.296 39.9976 103.122 39.6535 103.5 39.4815V36.625C102.95 36.7625 102.4 36.797 101.849 36.797C100.818 36.797 100.164 36.4185 100.164 35.2483Z" fill="#080821"/>
</svg>
