<svg width="120" height="60" viewBox="0 0 120 60" fill="none" xmlns="http://www.w3.org/2000/svg">
    <path d="M101.211 25.2394C101.93 25.2394 102.554 24.8558 102.603 24.3848L103.323 16.2748C103.323 15.4582 102.373 14.8352 101.211 14.8352C100.011 14.8352 99.0986 15.5075 99.0986 16.2748L99.8184 24.3848C99.8659 24.8644 100.491 25.2394 101.211 25.2394ZM96.7948 27.7845C97.1784 27.1606 97.131 26.4408 96.7473 26.153L90.0761 21.4979C89.4038 21.1142 88.3478 21.5929 87.7723 22.6014C87.1968 23.6099 87.2927 24.7608 87.9641 25.1445L95.3551 28.6012C95.8347 28.7455 96.4586 28.4093 96.7948 27.7845ZM105.579 27.7835C105.963 28.4074 106.586 28.7332 107.019 28.5432L114.41 25.0865C115.082 24.7029 115.226 23.551 114.601 22.5434C114.026 21.5368 112.97 21.0554 112.298 21.44L105.626 26.0951C105.243 26.4312 105.194 27.1511 105.579 27.7759M101.211 35.3569C101.93 35.3569 102.554 35.7406 102.603 36.2116L103.323 44.3215C103.323 45.1382 102.373 45.7612 101.211 45.7612C100.011 45.7612 99.0986 45.0888 99.0986 44.3215L99.8184 36.2116C99.8659 35.732 100.491 35.3569 101.211 35.3569ZM105.579 32.8214C105.963 32.1974 106.586 31.8717 107.019 32.0617L114.41 35.469C115.082 35.8526 115.226 37.0045 114.601 38.0121C114.026 39.0187 112.97 39.5002 112.298 39.1156L105.626 34.4604C105.243 34.1727 105.194 33.4538 105.579 32.829M96.7948 32.8309C97.1784 33.4548 97.131 34.1746 96.7473 34.4624L90.0761 39.1175C89.4038 39.5011 88.3478 39.0225 87.7723 38.014C87.1968 37.0055 87.2927 35.8545 87.9641 35.4709L95.3551 32.0636C95.8347 31.8717 96.4586 32.2079 96.7948 32.8233" fill="black"/>
    <path d="M65.979 33.6992C65.979 33.9005 65.979 34.1418 65.8983 34.3023C65.6571 35.0658 64.8537 35.7495 63.849 35.7495C62.9943 35.7495 62.322 35.2671 62.322 34.2624C62.322 32.6955 64.0503 32.2928 65.9781 32.2928L65.979 33.6992ZM69.0331 31.006C69.0331 28.442 67.9476 26.1819 64.2507 26.1819C62.3514 26.1819 60.8348 26.7042 60.0305 27.1866L60.6335 29.2359C61.397 28.7535 62.5613 28.3528 63.7293 28.3528C65.6286 28.3528 65.8992 29.3974 65.8992 30.0811V30.2425C61.7997 30.2425 59.228 31.648 59.228 34.5425C59.228 36.3107 60.5547 37.9583 62.8367 37.9583C64.2421 37.9583 65.4007 37.3962 66.1319 36.5111H66.2126C66.2126 36.5111 66.695 38.4807 69.2667 37.7172C69.1461 36.9138 69.1052 36.0287 69.1052 34.9841L69.0245 30.9956M5.32275 22.6863L8.41858 35.3867C8.901 37.4759 9.82405 38.2404 12.4071 37.7181L14.0547 30.9263L15.0195 26.3443H15.0594C15.2607 28.0726 15.5418 29.2882 15.8628 30.9662L16.9074 35.6687C17.2683 37.2765 18.234 38.3211 20.7658 37.758L24.7543 22.7271H21.5388L20.1713 29.2378L19.2065 34.3421H19.1666L18.2834 29.3584L16.878 22.7271H13.5305L12.0035 29.1979L10.918 34.4229H10.8781C10.5876 32.5955 10.2659 30.7731 9.91331 28.9567L8.70728 22.7271L5.3313 22.6872M30.8538 33.6992C30.8538 33.9005 30.8538 34.1418 30.7731 34.3023C30.5319 35.0658 29.7285 35.7495 28.7237 35.7495C27.8691 35.7495 27.1967 35.2671 27.1967 34.2624C27.1967 32.6955 28.9251 32.2928 30.8528 32.2928L30.8538 33.6992ZM33.9078 31.006C33.9078 28.442 32.8224 26.1819 29.1254 26.1819C27.2262 26.1819 25.7096 26.7042 24.9053 27.1866L25.5083 29.2359C26.2718 28.7535 27.436 28.3528 28.6041 28.3528C30.5034 28.3528 30.774 29.3974 30.774 30.0811V30.2425C26.6744 30.2425 24.1028 31.648 24.1028 34.5425C24.1028 36.3107 25.4295 37.9583 27.7114 37.9583C29.1169 37.9583 30.2755 37.3962 31.0067 36.5111H31.0874C31.0874 36.5111 31.5698 38.4807 34.1414 37.7172C34.0208 36.9138 33.98 36.0287 33.98 34.9841V30.9956M38.9618 34.5434V22.6872H35.9078V37.7181H38.9618V34.5434Z" fill="black"/>
    <path d="M78.9603 22.6871V33.7788C78.9603 35.3058 79.2414 36.3904 79.8435 37.0342C80.3658 37.5964 81.249 37.9582 82.3354 37.9582C83.2185 37.9582 84.1435 37.7968 84.5461 37.6353L84.5062 35.2641C84.1834 35.3448 83.8225 35.3847 83.341 35.3847C82.2964 35.3847 81.9356 34.7009 81.9356 33.3354V29.0753H84.5879V26.1817H81.9356V22.6453H78.9613M71.0432 26.4249V37.7179H74.177V31.9308C74.177 31.608 74.177 31.3278 74.2577 31.0761C74.4989 29.8701 75.4229 29.1066 76.7496 29.1066C77.1105 29.1066 77.3925 29.1465 77.6736 29.1874V26.2131C77.4324 26.1732 77.2719 26.1323 76.9898 26.1323C75.8246 26.1323 74.4581 26.8959 73.894 28.5036H73.8133V26.3736H71.0404M41.1419 26.4249V37.7179H44.196V31.0866C44.196 30.7638 44.2359 30.4437 44.3574 30.1626C44.5986 29.4789 45.2406 28.7154 46.2064 28.7154C47.4523 28.7154 48.0145 29.76 48.0145 31.2794V37.7084H51.0685V30.9964C51.0685 30.7153 51.1084 30.3535 51.1891 30.0724C51.4303 29.3089 52.1131 28.7049 53.0381 28.7049C54.284 28.7049 54.887 29.7495 54.887 31.5178V37.7075H57.9411V31.0363C57.9411 27.5397 56.1728 26.1333 54.1634 26.1333C53.3849 26.1259 52.6196 26.3346 51.9526 26.7363C51.4303 27.0592 50.9479 27.5397 50.5054 28.1418H50.4655C49.9831 26.9358 48.8578 26.1323 47.3697 26.1323C45.4419 26.1323 44.5967 27.0972 44.0744 27.9404H44.0345V26.4134H41.141" fill="black"/>
    </svg>
    