<svg width="120" height="60" viewBox="0 0 120 60" fill="none" xmlns="http://www.w3.org/2000/svg">
    <path d="M44.5326 24.3171H39.9955C39.7973 24.3176 39.6074 24.3968 39.4673 24.5375C39.3272 24.6782 39.2485 24.8689 39.2483 25.0678V26.0852C39.2522 26.2153 39.3065 26.3388 39.3997 26.4293C39.4928 26.5198 39.6175 26.5703 39.7472 26.5701H40.4952C40.5062 26.5701 40.5171 26.5728 40.5269 26.5779C40.5367 26.583 40.5451 26.5904 40.5515 26.5995C40.5596 26.6109 40.5649 26.624 40.5671 26.6378C40.5693 26.6516 40.5683 26.6658 40.5642 26.6791L38.7866 32.0264C38.7785 32.0426 38.7659 32.0562 38.7502 32.0654C38.7346 32.0746 38.7167 32.079 38.6986 32.0781C38.6829 32.0791 38.6675 32.0744 38.655 32.0649C38.6425 32.0554 38.6337 32.0418 38.6304 32.0264L35.9771 24.7932V24.7892C35.9416 24.7018 35.8823 24.6261 35.806 24.5708C35.7297 24.5155 35.6395 24.4828 35.5456 24.4764H33.9433C33.8492 24.4825 33.7586 24.5151 33.682 24.5704C33.6055 24.6257 33.5459 24.7015 33.5102 24.7892V24.7932L30.8522 32.0264C30.8494 32.0427 30.8407 32.0574 30.8279 32.0678C30.8151 32.0782 30.7989 32.0836 30.7824 32.0829C30.7643 32.0838 30.7464 32.0793 30.7308 32.0701C30.7151 32.061 30.7025 32.0474 30.6944 32.0312L28.9176 26.6799C28.9135 26.6665 28.9127 26.6522 28.9151 26.6384C28.9176 26.6245 28.9234 26.6115 28.9319 26.6003C28.938 26.5911 28.9462 26.5836 28.9559 26.5785C28.9656 26.5734 28.9764 26.5707 28.9874 26.5708H29.7362C29.8658 26.5711 29.9904 26.5206 30.0834 26.43C30.1765 26.3395 30.2306 26.2161 30.2343 26.086V25.0678C30.2343 24.8689 30.1556 24.6781 30.0155 24.5373C29.8754 24.3965 29.6854 24.3173 29.4871 24.3171H24.95C24.8709 24.3171 24.793 24.336 24.7227 24.3725C24.6525 24.4089 24.592 24.4617 24.5463 24.5265C24.5025 24.5858 24.4732 24.6546 24.4608 24.7273C24.4484 24.8001 24.4532 24.8747 24.4749 24.9452C24.5391 25.1307 24.6145 25.3552 24.6922 25.5821C24.77 25.809 24.8429 26.0287 24.9119 26.2277C24.9436 26.3254 25.0049 26.4107 25.0872 26.4717C25.1696 26.5326 25.2689 26.5662 25.3712 26.5677H26.1351C26.1545 26.5674 26.1735 26.5731 26.1895 26.5841C26.2056 26.5951 26.2178 26.6107 26.2247 26.629L29.7441 37.0417C29.7753 37.1397 29.8364 37.2254 29.9189 37.2866C30.0013 37.3477 30.1009 37.3813 30.2034 37.3824H31.2948C31.3943 37.382 31.4912 37.3514 31.5729 37.2945C31.6546 37.2377 31.7172 37.1573 31.7525 37.064C32.7242 34.2483 34.5779 28.8803 34.6509 28.6972C34.6561 28.6774 34.6678 28.66 34.684 28.6476C34.7003 28.6352 34.7201 28.6286 34.7405 28.6287C34.7599 28.6282 34.7789 28.634 34.7947 28.6452C34.8106 28.6564 34.8224 28.6724 34.8285 28.6908C34.9031 28.8803 36.7576 34.2483 37.7277 37.0608C37.7623 37.1552 37.8247 37.2367 37.9066 37.2945C37.9885 37.3524 38.086 37.3839 38.1862 37.3848H39.2776C39.3803 37.3835 39.48 37.3499 39.5626 37.2886C39.6451 37.2273 39.7064 37.1415 39.7377 37.0433L43.2563 26.6353C43.2904 26.574 43.3293 26.574 43.3467 26.574H44.1098C44.2115 26.5729 44.3102 26.5399 44.3923 26.4797C44.4743 26.4194 44.5356 26.335 44.5675 26.2381C44.6373 26.0359 44.7134 25.8122 44.7872 25.5925C44.861 25.3727 44.9419 25.1363 45.0053 24.9556C45.0278 24.8848 45.0331 24.8097 45.0209 24.7364C45.0086 24.6632 44.979 24.594 44.9347 24.5345C44.8901 24.4684 44.8302 24.4141 44.7602 24.3763C44.6902 24.3384 44.6121 24.3182 44.5326 24.3171Z" fill="black"/>
    <path d="M97.6437 35.2846H96.8172C96.7556 35.2834 96.6969 35.2583 96.6534 35.2145C96.6099 35.1707 96.585 35.1116 96.584 35.0498V24.7867C96.5833 24.7424 96.5738 24.6987 96.5561 24.658C96.5384 24.6174 96.5128 24.5808 96.4809 24.5502C96.4489 24.5196 96.4112 24.4957 96.3699 24.4798C96.3287 24.464 96.2847 24.4565 96.2406 24.4579H93.8403C93.7899 24.4587 93.7402 24.4703 93.6945 24.4918C93.6488 24.5134 93.6082 24.5444 93.5754 24.5829L92.5776 25.8344C92.5391 25.8832 92.5148 25.9417 92.5074 26.0035C92.5 26.0653 92.5097 26.1279 92.5354 26.1846C92.5611 26.2412 92.602 26.2896 92.6533 26.3244C92.7047 26.3593 92.7647 26.3792 92.8266 26.3821H93.1383C93.2004 26.3853 93.2591 26.4115 93.303 26.4556C93.3469 26.4997 93.3731 26.5586 93.3763 26.6209V35.018C93.3731 35.0851 93.3517 35.15 93.3144 35.2058C93.0487 35.5505 92.4721 36.2702 92.1921 36.63C92.1495 36.6787 92.1217 36.7386 92.112 36.8027C92.1022 36.8667 92.111 36.9322 92.1372 36.9914C92.1634 37.0506 92.2059 37.1011 92.2598 37.1368C92.3137 37.1725 92.3766 37.1919 92.4411 37.1929H96.6459C96.69 37.1962 96.7344 37.1895 96.7756 37.1733C96.8168 37.157 96.8538 37.1316 96.8838 37.0989L97.8658 35.8634C98.08 35.6126 97.9245 35.2846 97.6437 35.2846Z" fill="black"/>
    <path d="M94.9627 23.0816C95.9615 23.0816 96.7712 22.2689 96.7712 21.2665C96.7712 20.264 95.9615 19.4514 94.9627 19.4514C93.9639 19.4514 93.1542 20.264 93.1542 21.2665C93.1542 22.2689 93.9639 23.0816 94.9627 23.0816Z" fill="black"/>
    <path d="M110.878 25.5216C110.878 25.3497 110.785 25.1777 110.551 25.1777H110.13V26.2883H110.289V25.8815H110.429L110.71 26.2883H110.897L110.601 25.8663C110.801 25.8504 110.878 25.6785 110.878 25.5216ZM110.286 25.7254V25.3186H110.567C110.591 25.3197 110.616 25.3259 110.638 25.3368C110.661 25.3478 110.681 25.3633 110.697 25.3824C110.713 25.4015 110.725 25.4237 110.732 25.4477C110.739 25.4716 110.741 25.4968 110.738 25.5216C110.741 25.5477 110.738 25.5742 110.73 25.5991C110.722 25.6241 110.708 25.6469 110.69 25.6663C110.673 25.6856 110.651 25.7008 110.627 25.711C110.603 25.7213 110.577 25.7262 110.551 25.7254H110.286Z" fill="black"/>
    <path d="M110.473 24.7708C110.285 24.7708 110.101 24.8268 109.944 24.9317C109.788 25.0367 109.666 25.1859 109.594 25.3605C109.522 25.535 109.503 25.7271 109.539 25.9124C109.576 26.0977 109.667 26.2679 109.8 26.4015C109.933 26.5351 110.103 26.6261 110.287 26.663C110.472 26.6999 110.663 26.6809 110.837 26.6086C111.011 26.5363 111.16 26.4139 111.264 26.2568C111.369 26.0997 111.425 25.915 111.425 25.7261C111.425 25.4727 111.325 25.2297 111.146 25.0506C110.968 24.8714 110.725 24.7708 110.473 24.7708ZM110.473 26.5389C110.366 26.5396 110.261 26.5191 110.162 26.4784C110.063 26.4378 109.974 26.3779 109.898 26.3022C109.823 26.2265 109.763 26.1365 109.723 26.0375C109.682 25.9384 109.662 25.8323 109.662 25.7253C109.66 25.6178 109.679 25.5109 109.719 25.4111C109.759 25.3113 109.819 25.2207 109.894 25.1446C109.97 25.0686 110.061 25.0088 110.16 24.9687C110.259 24.9287 110.366 24.9093 110.473 24.9117C110.579 24.9117 110.685 24.9327 110.783 24.9736C110.882 25.0145 110.971 25.0744 111.046 25.15C111.121 25.2255 111.181 25.3152 111.222 25.4139C111.263 25.5126 111.284 25.6184 111.284 25.7253C111.284 25.8321 111.263 25.9379 111.222 26.0366C111.181 26.1353 111.121 26.225 111.046 26.3006C110.971 26.3761 110.882 26.436 110.783 26.4769C110.685 26.5178 110.579 26.5389 110.473 26.5389Z" fill="black"/>
    <path d="M56.3782 35.3316C55.677 35.3627 55.3336 35.0339 55.3336 34.2362V28.479C55.3336 25.9602 53.2292 24.364 50.8599 24.364C47.1811 24.364 45.8564 26.1154 45.7041 28.0722C45.7015 28.1188 45.7085 28.1654 45.7246 28.2092C45.7406 28.253 45.7655 28.293 45.7977 28.3267C45.8298 28.3604 45.8685 28.3872 45.9113 28.4053C45.9542 28.4234 46.0003 28.4325 46.0468 28.432H47.8553C47.9388 28.4297 48.0184 28.3964 48.0789 28.3387C48.1394 28.2809 48.1764 28.2027 48.1829 28.1191C48.2765 27.1017 48.9618 26.351 50.1 26.351C51.3628 26.351 52.1267 26.9927 52.1267 28.4471V29.6994H51.4715C49.2117 29.6994 47.653 29.9963 46.6084 30.6547C45.5637 31.313 45.0339 32.5326 45.0339 33.956C45.0339 35.0044 45.3924 35.8666 46.1095 36.5528C46.8265 37.2391 47.6681 37.5392 48.7754 37.5392C49.4349 37.54 50.086 37.39 50.6791 37.1005C51.2634 36.8392 51.8047 36.4903 52.2845 36.0656C52.3112 36.0403 52.3435 36.0215 52.3787 36.0107C52.4138 35.9999 52.451 35.9975 52.4873 36.0036C52.5236 36.0097 52.558 36.0241 52.5877 36.0458C52.6175 36.0675 52.6419 36.0958 52.6589 36.1285C53.1737 37.0361 53.7345 37.333 54.8101 37.333C55.777 37.333 56.2442 36.4255 56.6654 35.8778C56.8145 35.6596 56.6432 35.3157 56.3782 35.3316ZM52.1378 34.4082H52.1227C52.1227 34.4878 51.9982 34.5961 51.9514 34.643C51.6564 34.8914 51.3316 35.1016 50.9845 35.2688C50.6694 35.4033 50.3289 35.4674 49.9866 35.4566C49.4885 35.4566 48.9896 35.2687 48.662 34.9089C48.3299 34.5413 48.1513 34.0596 48.1631 33.5635C48.1631 32.812 48.4438 32.3121 49.0046 31.9363C49.5654 31.5606 50.4855 31.3894 51.5921 31.3894H52.137L52.1378 34.4082Z" fill="black"/>
    <path d="M90.8627 35.3316C90.1615 35.3627 89.818 35.0339 89.818 34.2362V28.479C89.818 25.9602 87.7137 24.364 85.3444 24.364C81.6655 24.364 80.3409 26.1154 80.1886 28.0722C80.186 28.1188 80.1929 28.1654 80.209 28.2092C80.2251 28.253 80.25 28.293 80.2821 28.3267C80.3142 28.3604 80.3529 28.3872 80.3958 28.4053C80.4386 28.4234 80.4847 28.4325 80.5312 28.432H82.3397C82.4232 28.4297 82.5029 28.3964 82.5634 28.3387C82.6238 28.2809 82.6609 28.2027 82.6673 28.1191C82.7609 27.1017 83.447 26.351 84.5845 26.351C85.8473 26.351 86.6111 26.9927 86.6111 28.4471V29.6994H85.9567C83.6961 29.6994 82.1375 29.9963 81.0928 30.6547C80.0482 31.313 79.5128 32.531 79.5128 33.9544C79.5128 35.0029 79.8713 35.865 80.5883 36.5512C81.3054 37.2375 82.147 37.5376 83.2543 37.5376C83.9138 37.5384 84.5649 37.3884 85.158 37.0989C85.7423 36.8377 86.2836 36.4887 86.7634 36.064C86.7901 36.0387 86.8224 36.0199 86.8575 36.0091C86.8927 35.9983 86.9299 35.9959 86.9662 36.002C87.0025 36.0081 87.0368 36.0226 87.0666 36.0442C87.0964 36.0659 87.1208 36.0942 87.1378 36.1269C87.6526 37.0345 88.2134 37.3314 89.289 37.3314C90.2559 37.3314 90.7231 36.4239 91.1443 35.8762C91.2989 35.6596 91.1276 35.3157 90.8627 35.3316ZM86.623 34.4082H86.6071C86.6071 34.4878 86.4826 34.5961 86.4358 34.643C86.1409 34.8914 85.816 35.1016 85.4689 35.2688C85.1541 35.4033 84.8139 35.4674 84.4719 35.4566C83.9729 35.4566 83.474 35.2687 83.1464 34.9089C82.8143 34.5413 82.6357 34.0596 82.6475 33.5635C82.6475 32.812 82.9283 32.3121 83.4891 31.9363C84.0499 31.5606 84.97 31.3886 86.0773 31.3886H86.623V34.4082Z" fill="black"/>
    <path d="M107.957 24.4135C107.79 24.3243 107.369 24.2837 107.005 24.2837C106.414 24.2837 105.949 24.3633 105.542 24.5384L105.51 24.5528C105.356 24.622 105.21 24.7062 105.073 24.8043C104.561 25.1237 104.102 25.5212 103.712 25.9825C103.712 25.9825 103.536 26.1147 103.506 25.8926V24.751C103.505 24.6617 103.47 24.5764 103.407 24.5132C103.344 24.4501 103.259 24.4143 103.17 24.4135H100.755C100.707 24.4134 100.66 24.4241 100.617 24.4447C100.574 24.4654 100.536 24.4955 100.506 24.5329C100.506 24.5329 99.7489 25.4842 99.4998 25.8066C99.3523 25.9961 99.4419 26.3559 99.7647 26.3559H100.066C100.129 26.3569 100.189 26.3824 100.233 26.427C100.278 26.4715 100.303 26.5317 100.304 26.5947V35.0332C100.304 35.0999 100.285 35.1653 100.249 35.2211C100.011 35.514 99.407 36.2775 99.1119 36.654C99.0736 36.7036 99.0498 36.7628 99.043 36.8252C99.0362 36.8876 99.0468 36.9506 99.0736 37.0073C99.1004 37.064 99.1424 37.1121 99.1948 37.1463C99.2472 37.1804 99.308 37.1994 99.3705 37.2009H104.578C104.667 37.2009 104.753 37.1654 104.816 37.1021C104.879 37.0388 104.914 36.9529 104.914 36.8634V35.6088C104.914 35.5192 104.879 35.4334 104.816 35.3701C104.753 35.3068 104.667 35.2712 104.578 35.2712H103.751C103.688 35.2712 103.628 35.2461 103.583 35.2013C103.538 35.1565 103.513 35.0957 103.513 35.0324V30.1214C103.608 27.7849 104.997 27.0724 105.664 26.8638L105.76 26.8351L105.786 26.8288C105.967 26.7813 106.154 26.7565 106.341 26.7547C107.134 26.7547 107.429 26.8733 107.861 26.9848C108.04 27.031 108.197 26.8335 108.197 26.6473V24.7367C108.193 24.5894 108.074 24.4755 107.957 24.4135Z" fill="black"/>
    <path d="M79.6135 24.4579H75.8355C75.7731 24.4568 75.7135 24.4312 75.6698 24.3865C75.626 24.3419 75.6015 24.2817 75.6015 24.2191V22.3459C75.6015 21.4384 76.0695 20.5308 77.0356 20.5308C78.127 20.5308 78.2984 21.4543 78.3452 22.158C78.3507 22.2434 78.3871 22.3238 78.4473 22.3843C78.5076 22.4447 78.5877 22.4812 78.6728 22.4868H80.2314C80.3163 22.4833 80.3965 22.4466 80.4549 22.3846C80.5133 22.3226 80.5452 22.2401 80.5439 22.1548C80.5122 19.8112 79.0313 18.8113 76.6461 18.8113C75.1961 18.8113 74.2459 19.265 73.5288 20.1415C72.8118 21.018 72.4533 21.9861 72.4533 23.7382V24.2079C72.452 24.2696 72.4271 24.3284 72.3836 24.3721C72.3401 24.4157 72.2815 24.4407 72.2201 24.442L65.7729 24.4579C65.7288 24.4565 65.6848 24.464 65.6435 24.4798C65.6023 24.4956 65.5646 24.5195 65.5326 24.5501C65.5007 24.5807 65.4751 24.6174 65.4574 24.658C65.4397 24.6986 65.4302 24.7424 65.4295 24.7867V26.0556C65.4305 26.1467 65.467 26.2336 65.5313 26.2979C65.5955 26.3622 65.6822 26.3987 65.7729 26.3995H66.4646C66.5034 26.3999 66.5415 26.4098 66.5756 26.4284C66.6098 26.4469 66.6389 26.4736 66.6604 26.506C66.6819 26.5384 66.6952 26.5756 66.6991 26.6144C66.703 26.6531 66.6973 26.6922 66.6827 26.7283C66.6827 26.7283 64.906 30.8743 64.1889 32.5326C64.1704 32.5752 64.1399 32.6114 64.1011 32.6369C64.0624 32.6624 64.0171 32.6759 63.9708 32.6759C63.9245 32.6759 63.8791 32.6624 63.8404 32.6369C63.8017 32.6114 63.7712 32.5752 63.7526 32.5326C63.0197 30.8608 61.2271 26.7283 61.2271 26.7283C61.2125 26.6922 61.2069 26.6531 61.2108 26.6144C61.2147 26.5756 61.2279 26.5384 61.2494 26.506C61.271 26.4736 61.3 26.4469 61.3342 26.4284C61.3683 26.4098 61.4064 26.3999 61.4452 26.3995H61.9283C62.019 26.3987 62.1057 26.3622 62.1699 26.2979C62.2342 26.2336 62.2707 26.1467 62.2717 26.0556V24.7867C62.271 24.7424 62.2615 24.6986 62.2438 24.658C62.2261 24.6174 62.2005 24.5807 62.1686 24.5501C62.1366 24.5195 62.0989 24.4956 62.0577 24.4798C62.0164 24.464 61.9724 24.4565 61.9283 24.4579H56.0975C56.0393 24.4588 55.9823 24.4746 55.932 24.5039C55.8816 24.5332 55.8396 24.5749 55.8099 24.6252C55.7802 24.6754 55.7639 24.7324 55.7624 24.7908C55.761 24.8492 55.7745 24.907 55.8016 24.9586C55.9729 25.2715 56.3624 26.0071 56.4718 26.226C56.5006 26.2759 56.5413 26.3179 56.5904 26.3479C56.6395 26.3779 56.6952 26.3951 56.7526 26.3979H57.875C57.9211 26.3977 57.9662 26.4109 58.0049 26.4359C58.0436 26.461 58.0743 26.4967 58.0932 26.5389C58.0932 26.5389 62.2392 35.8857 62.3955 36.2136C62.5547 36.6312 62.553 37.0933 62.3907 37.5097C62.2011 38.2723 60.9233 39.64 60.2205 39.3964C59.7335 39.2276 59.6708 38.3479 59.0942 38.2349C58.987 38.2165 58.8769 38.2295 58.7769 38.2723C58.6762 38.3121 57.7338 39.5277 57.5268 39.7411C57.4751 39.8052 57.4469 39.8851 57.4469 39.9676C57.4469 40.05 57.4751 40.13 57.5268 40.194C58.044 40.7266 58.9101 41.4463 60.1563 41.4933C61.6919 41.5553 63.2117 41.3492 64.6101 38.6735C64.6101 38.6735 69.0758 27.7226 69.6073 26.5389C69.6295 26.5007 69.6614 26.469 69.6997 26.4471C69.7379 26.4251 69.7813 26.4137 69.8254 26.4139H72.182C72.2443 26.4139 72.3041 26.4384 72.3486 26.4821C72.3931 26.5259 72.4187 26.5854 72.4199 26.6479V35.0649C72.4212 35.1328 72.3994 35.199 72.3581 35.2528C72.0773 35.6126 71.5157 36.3171 71.2357 36.677C71.1954 36.7265 71.1701 36.7866 71.1628 36.85C71.1554 36.9135 71.1663 36.9778 71.1942 37.0353C71.222 37.0928 71.2657 37.1411 71.32 37.1745C71.3743 37.2079 71.4369 37.225 71.5006 37.2239H76.7691C76.8598 37.2232 76.9467 37.1868 77.011 37.1225C77.0752 37.0582 77.1117 36.971 77.1125 36.88V35.6285C77.1117 35.5374 77.0752 35.4503 77.011 35.386C76.9467 35.3216 76.8598 35.2852 76.7691 35.2846H75.864C75.8024 35.2834 75.7437 35.2582 75.7002 35.2144C75.6567 35.1706 75.6318 35.1116 75.6308 35.0498V26.6328C75.6318 26.571 75.6567 26.5119 75.7002 26.4681C75.7437 26.4243 75.8024 26.3992 75.864 26.3979H78.645C78.6954 26.397 78.7451 26.3854 78.7908 26.3639C78.8364 26.3424 78.877 26.3114 78.9099 26.273C79.1479 25.9601 79.6238 25.3344 79.8768 25.0056C79.9153 24.9556 79.9391 24.8959 79.9457 24.8331C79.9522 24.7703 79.9412 24.7069 79.9138 24.6501C79.8865 24.5932 79.8439 24.5451 79.7909 24.5111C79.7378 24.4772 79.6764 24.4588 79.6135 24.4579Z" fill="black"/>
    <path d="M22.764 28.5077L21.855 25.0646C21.8401 25.0071 21.8103 24.9547 21.7684 24.9127C21.7266 24.8707 21.6743 24.8407 21.617 24.8258L18.1864 23.9135C18.1306 23.899 18.0721 23.8993 18.0164 23.9144C17.9608 23.9294 17.9101 23.9588 17.8691 23.9995L15.5688 26.3081L20.3796 31.1363L22.6799 28.8277C22.7204 28.7863 22.7494 28.735 22.7642 28.6789C22.7789 28.6228 22.7788 28.5638 22.764 28.5077Z" fill="black"/>
    <path d="M8.3721 33.7665L9.28191 37.2087C9.29673 37.2662 9.32661 37.3187 9.36845 37.3607C9.4103 37.4027 9.46258 37.4327 9.51987 37.4476L12.9513 38.3607C13.0071 38.375 13.0657 38.3745 13.1213 38.3593C13.1769 38.3441 13.2276 38.3147 13.2685 38.2739L15.5688 35.9653L10.7588 31.1362L8.45856 33.4449C8.4174 33.4862 8.38776 33.5377 8.37259 33.5941C8.35741 33.6505 8.35725 33.71 8.3721 33.7665Z" fill="black"/>
    <path d="M12.9481 23.9136L9.51751 24.8267C9.46021 24.8416 9.40793 24.8716 9.36609 24.9136C9.32425 24.9556 9.29436 25.008 9.27954 25.0655L8.37212 28.5062C8.35786 28.5622 8.35832 28.621 8.37348 28.6769C8.38863 28.7327 8.41795 28.7836 8.45858 28.8246L10.7589 31.1333L15.5688 26.3058L13.2686 23.9972C13.227 23.9564 13.1756 23.9273 13.1194 23.9126C13.0632 23.8979 13.0041 23.8983 12.9481 23.9136Z" fill="black"/>
    <path d="M22.6458 33.4124L20.3796 31.1372L15.5688 35.9639L17.8358 38.2399C17.8868 38.2909 17.9503 38.3277 18.0199 38.3466C18.0894 38.3654 18.1627 38.3657 18.2324 38.3473L21.5726 37.4589C21.643 37.4401 21.7072 37.4029 21.7588 37.3512C21.8103 37.2995 21.8473 37.235 21.8661 37.1643L22.7521 33.812C22.7708 33.7419 22.7708 33.6681 22.7521 33.598C22.7335 33.5279 22.6968 33.4639 22.6458 33.4124Z" fill="black"/>
    <path d="M15.568 26.3098L10.7589 31.1357L15.5688 35.9639L20.3796 31.1373L15.568 26.3098Z" fill="black"/>
    <path d="M22.764 28.5077L21.855 25.0646C21.8401 25.0071 21.8103 24.9547 21.7684 24.9127C21.7266 24.8707 21.6743 24.8407 21.617 24.8258L18.1864 23.9135C18.1306 23.899 18.0721 23.8993 18.0164 23.9144C17.9608 23.9294 17.9101 23.9588 17.8691 23.9995L15.5688 26.3081L20.3796 31.1363L22.6799 28.8277C22.7204 28.7863 22.7494 28.735 22.7642 28.6789C22.7789 28.6228 22.7788 28.5638 22.764 28.5077Z" fill="#4D4D4D"/>
    <path d="M8.3721 33.7665L9.28191 37.2087C9.29673 37.2662 9.32661 37.3187 9.36845 37.3607C9.4103 37.4027 9.46258 37.4327 9.51987 37.4476L12.9513 38.3607C13.0071 38.375 13.0657 38.3745 13.1213 38.3593C13.1769 38.3441 13.2276 38.3147 13.2685 38.2739L15.5688 35.9653L10.7588 31.1362L8.45856 33.4449C8.4174 33.4862 8.38776 33.5377 8.37259 33.5941C8.35741 33.6505 8.35725 33.71 8.3721 33.7665Z" fill="#4D4D4D"/>
    <path d="M12.9481 23.9136L9.51751 24.8267C9.46021 24.8416 9.40793 24.8716 9.36609 24.9136C9.32425 24.9556 9.29436 25.008 9.27954 25.0655L8.37212 28.5062C8.35786 28.5622 8.35832 28.621 8.37348 28.6769C8.38863 28.7327 8.41795 28.7836 8.45858 28.8246L10.7589 31.1333L15.5688 26.3058L13.2686 23.9972C13.227 23.9564 13.1756 23.9273 13.1194 23.9126C13.0632 23.8979 13.0041 23.8983 12.9481 23.9136Z" fill="#4D4D4D"/>
    <path d="M22.6458 33.4124L20.3796 31.1372L15.5688 35.9639L17.8358 38.2399C17.8868 38.2909 17.9503 38.3277 18.0199 38.3466C18.0894 38.3654 18.1627 38.3657 18.2324 38.3473L21.5726 37.4589C21.643 37.4401 21.7072 37.4029 21.7588 37.3512C21.8103 37.2995 21.8473 37.235 21.8661 37.1643L22.7521 33.812C22.7708 33.7419 22.7708 33.6681 22.7521 33.598C22.7335 33.5279 22.6968 33.4639 22.6458 33.4124Z" fill="#4D4D4D"/>
    <path d="M15.568 26.3098L10.7589 31.1357L15.5688 35.9639L20.3796 31.1373L15.568 26.3098Z" fill="black"/>
    </svg>
    