<?xml version="1.0" encoding="utf-8"?>
<!-- Generator: Adobe Illustrator 27.9.0, SVG Export Plug-In . SVG Version: 6.00 Build 0)  -->
<svg version="1.1" id="Layer_1" xmlns="http://www.w3.org/2000/svg" xmlns:xlink="http://www.w3.org/1999/xlink" x="0px" y="0px"
	 viewBox="0 0 236 80" style="enable-background:new 0 0 236 80;" xml:space="preserve">
<style type="text/css">
	.st0{fill:#D5FA52;}
</style>
<g>
	<path class="st0" d="M55.3,40c0,0,0,0.1,0,0.1v-0.2C55.3,39.9,55.3,39.9,55.3,40z"/>
	<path class="st0" d="M73.7,21.5c-4.6,0-8.7,1.7-11.9,4.4c3.9,2.2,7.5,4.3,10.7,6.2c6.1,3.5,6.1,12.3,0,15.8
		C69,50,65.4,52,61.8,54.1c3.2,2.7,7.4,4.4,11.9,4.4c10.2,0,18.5-8.3,18.5-18.5C92.2,29.8,83.9,21.5,73.7,21.5z"/>
	<path d="M25.1,65c0.1,0,0.2,0.1,0.2,0.1c0.1,0,0.2,0,0.2-0.1l3-1.8c0.1-0.1,0.2-0.2,0.2-0.4V21.5l5.1,3v34.9c0,0.2,0.1,0.3,0.2,0.4
		c0.1,0.1,0.3,0.1,0.5,0l3-1.8c0.1-0.1,0.2-0.2,0.2-0.4V26.8l5.1,3v24.3c0,0.2,0.1,0.3,0.2,0.4c0.1,0.1,0.3,0.1,0.5,0l3-1.8
		c0.1-0.1,0.2-0.2,0.2-0.4V27.7c0-0.2-0.1-0.3-0.2-0.4L25.6,15c-0.1-0.1-0.3-0.1-0.5,0c-0.1,0.1-0.2,0.2-0.2,0.4v49.2
		C24.9,64.8,25,64.9,25.1,65z"/>
	<g>
		<path d="M72.5,32.1c-3.2-1.9-6.8-4-10.7-6.2C48.6,18.3,32.6,9,20.8,2.2c-1.4-0.8-3-1.2-4.6-1.2s-3.2,0.4-4.6,1.2
			c-2,1.2-4.1,2.3-6.1,3.5C2.7,7.4,1,10.4,1,13.6v52.7c0,3.3,1.7,6.3,4.6,7.9c2,1.2,4.1,2.3,6.1,3.5c1.4,0.8,3,1.2,4.6,1.2
			c1.6,0,3.2-0.4,4.6-1.2C34.5,69.9,48.2,62,61.8,54.1C65.4,52,69,50,72.5,47.9C78.6,44.4,78.6,35.6,72.5,32.1z M72.5,42.6
			c-0.5,0.8-1.1,1.5-2,2l-11.5,6.6l-1.9,1.1C44.4,59.7,31.6,67,18.8,74.4c-0.8,0.5-1.7,0.7-2.6,0.7c-0.9,0-1.8-0.2-2.6-0.7l-0.8-0.5
			l-5.2-3c-1.6-0.9-2.6-2.7-2.6-4.6V13.6c0-1.9,1-3.6,2.6-4.6c2-1.2,4.1-2.3,6.1-3.5c0.8-0.5,1.7-0.7,2.6-0.7c0.9,0,1.8,0.2,2.6,0.7
			C30.4,12.2,46,21.3,59.1,28.8c4.2,2.4,8.1,4.7,11.5,6.6c0.9,0.5,1.5,1.2,2,2c0.4,0.8,0.7,1.7,0.7,2.6C73.2,40.9,73,41.8,72.5,42.6
			z"/>
		<path d="M68.2,39.6l-11.5-6.6L49.9,29c-0.1-0.1-0.3-0.1-0.5,0c-0.1,0.1-0.2,0.2-0.2,0.4V33c0,0.2,0.1,0.3,0.2,0.4l5.8,3.4v3.1v0.2
			V47c0,0.2,0.1,0.3,0.2,0.4c0.1,0,0.2,0.1,0.2,0.1s0.2,0,0.2-0.1l0.7-0.4l2.4-1.4c0.1-0.1,0.2-0.2,0.2-0.4v-6.2l5.4,3.1
			c0.1,0.1,0.3,0.1,0.5,0l3-1.8c0.1-0.1,0.2-0.2,0.2-0.4S68.3,39.7,68.2,39.6z"/>
	</g>
	<path d="M16,9.7l-6.1,3.5c-0.1,0.1-0.2,0.2-0.2,0.4v52.7c0,0.2,0.1,0.3,0.2,0.4l6.1,3.5c0.1,0,0.2,0.1,0.2,0.1c0.1,0,0.2,0,0.2-0.1
		l6.1-3.5c0.1-0.1,0.2-0.2,0.2-0.4v-3.5c0-0.2-0.1-0.3-0.2-0.4c-0.1-0.1-0.3-0.1-0.5,0l-5.8,3.4l-2.6-1.5V15.7l2.6-1.5l5.8,3.4
		c0.1,0.1,0.3,0.1,0.5,0c0.1-0.1,0.2-0.2,0.2-0.4v-3.5c0-0.2-0.1-0.3-0.2-0.4l-6.1-3.5C16.3,9.6,16.1,9.6,16,9.7z"/>
	<g>
		<path d="M101.3,16.1c0-3.8,2.9-6.7,6.8-6.7c2.6,0,4.7,1.3,5.9,3.2l-2.4,1.5c-0.7-1.2-1.9-2-3.4-2c-2.3,0-4,1.7-4,4
			c0,2.3,1.7,4,4,4c1.5,0,2.8-0.8,3.4-2l2.4,1.5c-1.2,1.9-3.3,3.2-5.9,3.2C104.3,22.8,101.3,19.9,101.3,16.1z"/>
		<path d="M116.1,16.1c0-3.8,2.9-6.7,6.8-6.7c3.9,0,6.8,2.9,6.8,6.7c0,3.8-3,6.7-6.8,6.7C119,22.8,116.1,19.9,116.1,16.1z
			 M126.9,16.1c0-2.3-1.7-4-3.9-4c-2.3,0-4,1.7-4,4c0,2.3,1.7,4,4,4C125.2,20.1,126.9,18.4,126.9,16.1z"/>
		<path d="M153.3,14.2v8.3h-2.8V15c0-1.8-1.1-2.9-2.8-2.9c-1.8,0-3,1.2-3,3v7.4h-2.8V15c0-1.8-1.1-2.9-2.8-2.9c-1.8,0-3,1.2-3,3v7.4
			h-2.8V9.7h2.8v1.5c1-1.2,2.3-1.8,4-1.8c1.9,0,3.3,0.9,4.1,2.3c1-1.5,2.6-2.3,4.5-2.3C151.4,9.4,153.3,11.3,153.3,14.2z"/>
		<path d="M177.5,14.2v8.3h-2.8V15c0-1.8-1.1-2.9-2.8-2.9c-1.8,0-3,1.2-3,3v7.4h-2.8V15c0-1.8-1.1-2.9-2.8-2.9c-1.8,0-3,1.2-3,3v7.4
			h-2.8V9.7h2.8v1.5c1-1.2,2.3-1.8,4-1.8c1.9,0,3.3,0.9,4.1,2.3c1-1.5,2.6-2.3,4.5-2.3C175.6,9.4,177.5,11.3,177.5,14.2z"/>
		<path d="M194.2,17.2h-10.3c0.5,1.8,2,3,4.1,3c1.7,0,3.1-0.8,3.8-1.8l1.9,1.6c-1.3,1.6-3.4,2.7-5.8,2.7c-4.1,0-7.1-2.9-7.1-6.7
			c0-3.8,2.9-6.6,6.7-6.6c3.8,0,6.7,2.9,6.7,6.7C194.3,16.5,194.3,16.9,194.2,17.2z M183.8,14.9h7.4c-0.4-1.8-1.9-3-3.7-3
			S184.3,13.2,183.8,14.9z"/>
		<path d="M204.9,9.5v2.9h-0.5c-2.5,0-4,1.5-4,3.9v6.2h-2.8V9.7h2.8v1.9c1-1.3,2.3-2.1,4-2.1H204.9z"/>
		<path d="M206.8,16.1c0-3.8,2.9-6.7,6.8-6.7c2.6,0,4.7,1.3,5.9,3.2l-2.4,1.5c-0.7-1.2-1.9-2-3.4-2c-2.3,0-4,1.7-4,4
			c0,2.3,1.7,4,4,4c1.5,0,2.8-0.8,3.4-2l2.4,1.5c-1.2,1.9-3.3,3.2-5.9,3.2C209.7,22.8,206.8,19.9,206.8,16.1z"/>
		<path d="M234.9,17.2h-10.3c0.5,1.8,2,3,4.1,3c1.7,0,3.1-0.8,3.8-1.8l1.9,1.6c-1.3,1.6-3.4,2.7-5.8,2.7c-4.1,0-7.1-2.9-7.1-6.7
			c0-3.8,2.9-6.6,6.7-6.6c3.8,0,6.7,2.9,6.7,6.7C235,16.5,235,16.9,234.9,17.2z M224.6,14.9h7.4c-0.4-1.8-1.9-3-3.7-3
			C226.4,12,225,13.2,224.6,14.9z"/>
		<path d="M122.2,38.1v8.3h-2.8v-7.5c0-1.8-1.1-2.9-2.8-2.9c-1.8,0-3,1.2-3,3v7.4h-2.8v-7.5c0-1.8-1.1-2.9-2.8-2.9c-1.8,0-3,1.2-3,3
			v7.4h-2.8V33.6h2.8v1.5c1-1.2,2.3-1.8,4-1.8c1.9,0,3.3,0.9,4.1,2.3c1-1.5,2.6-2.3,4.5-2.3C120.4,33.3,122.2,35.2,122.2,38.1z"/>
		<path d="M138.9,41.1h-10.3c0.5,1.8,2,3,4.1,3c1.7,0,3.1-0.8,3.8-1.8l1.9,1.6c-1.3,1.6-3.4,2.7-5.8,2.7c-4.1,0-7.1-2.9-7.1-6.7
			c0-3.8,2.9-6.6,6.7-6.6s6.7,2.9,6.7,6.7C139,40.4,139,40.8,138.9,41.1z M128.6,38.8h7.4c-0.4-1.8-1.9-3-3.7-3S129,37.1,128.6,38.8
			z"/>
		<path d="M155.2,28.4v18h-2.8v-1.8c-1.1,1.3-2.6,2.1-4.5,2.1c-3.6,0-6.3-2.9-6.3-6.7c0-3.8,2.7-6.7,6.3-6.7c1.9,0,3.4,0.8,4.5,2.1
			v-7.1H155.2z M152.4,40c0-2.3-1.7-4-3.9-4c-2.3,0-4,1.7-4,4c0,2.3,1.7,4,4,4C150.7,44,152.4,42.3,152.4,40z"/>
		<path d="M159,29.7c0-1,0.8-1.8,1.8-1.8c1,0,1.8,0.8,1.8,1.8c0,1-0.8,1.8-1.8,1.8C159.8,31.5,159,30.7,159,29.7z M159.4,33.6h2.8
			v12.8h-2.8V33.6z"/>
		<path d="M179.1,33.6v12.8h-2.8v-1.8c-1.1,1.3-2.6,2.1-4.5,2.1c-3.6,0-6.3-2.9-6.3-6.7c0-3.8,2.7-6.7,6.3-6.7
			c1.9,0,3.4,0.8,4.5,2.1v-1.8H179.1z M176.3,40c0-2.3-1.7-4-3.9-4c-2.3,0-4,1.7-4,4c0,2.3,1.7,4,4,4C174.6,44,176.3,42.3,176.3,40z
			"/>
		<path d="M106.2,60.1v6c0,1.2,0.7,1.8,1.9,1.8c0.7,0,1.3-0.2,1.8-0.5v2.6c-0.7,0.4-1.4,0.5-2.3,0.5c-2.8,0-4.1-1.6-4.1-4v-6.5h-2.2
			v-2.6h2.2v-3.3h2.8v3.3h3.6v2.6H106.2z"/>
		<path d="M125.4,65H115c0.5,1.8,2,3,4.1,3c1.7,0,3.1-0.8,3.8-1.8l1.9,1.6c-1.3,1.6-3.4,2.7-5.8,2.7c-4.1,0-7.1-2.9-7.1-6.7
			c0-3.8,2.9-6.6,6.7-6.6c3.8,0,6.7,2.9,6.7,6.7C125.4,64.3,125.4,64.7,125.4,65z M115,62.7h7.4c-0.4-1.8-1.9-3-3.7-3
			S115.4,61,115,62.7z"/>
		<path d="M128,63.9c0-3.8,2.9-6.7,6.8-6.7c2.6,0,4.7,1.3,5.9,3.2l-2.4,1.5c-0.7-1.2-1.9-2-3.4-2c-2.3,0-4,1.7-4,4c0,2.3,1.7,4,4,4
			c1.5,0,2.8-0.8,3.4-2l2.4,1.5c-1.2,1.9-3.3,3.2-5.9,3.2C130.9,70.6,128,67.7,128,63.9z"/>
		<path d="M155.9,62.3v8h-2.8v-7.1c0-2-1.3-3.3-3.2-3.3c-2,0-3.4,1.3-3.4,3.3v7.1h-2.8v-18h2.8v7c1-1.3,2.5-2,4.3-2
			C153.9,57.2,155.9,59.2,155.9,62.3z"/>
	</g>
</g>
</svg>
