<svg width="425" height="56" viewBox="0 0 425 56" fill="none" xmlns="http://www.w3.org/2000/svg">
<g clip-path="url(#clip0_6989_3451)">
<path d="M35.1758 25.4685H50.2975V53.4836C50.2975 54.1203 49.82 54.5978 49.1833 54.5978H36.29C35.6533 54.5978 35.1758 54.1203 35.1758 53.4836V25.4685Z" fill="#080821"/>
<path d="M35.1758 25.4685H50.2975V38.2026L35.1758 25.4685Z" fill="white" fill-opacity="0.15"/>
<path d="M51.5714 7.56016C51.5714 11.6988 48.2287 15.1211 44.0106 15.1211L36.6089 8.83358C36.5293 8.43563 36.5293 7.9581 36.5293 7.56016C36.5293 3.42157 39.872 -0.000732422 44.0902 -0.000732422C48.3083 -0.000732422 51.5714 3.34198 51.5714 7.56016Z" fill="#080821"/>
<path d="M31.1189 44.5697C31.0393 43.933 30.4822 43.4555 29.8455 43.6147C28.8904 43.7738 27.7762 43.8534 26.5824 43.8534C23.956 43.8534 22.603 42.2617 22.603 38.919V25.4685H50.22L36.5309 13.9282C35.735 13.2915 34.7004 12.8936 33.6657 12.8936H22.6826V1.43284C22.6826 0.796134 22.2051 0.318604 21.5684 0.318604H8.67509C8.03839 0.318604 7.56086 0.796134 7.56086 1.43284V12.8936H1.11423C0.477528 12.8936 0 13.3711 0 14.0078V24.3543C0 24.991 0.477528 25.4685 1.11423 25.4685H7.56086V39.0781C7.56086 40.5107 7.48127 47.5941 11.3811 51.6531C13.9279 54.3591 17.6685 55.7121 22.8418 55.7121C25.6273 55.7121 28.4129 55.3937 31.1985 54.8366C31.7556 54.6774 32.1536 54.1999 32.074 53.6428L31.1189 44.5697Z" fill="#080821"/>
<path d="M420.22 48.3108C416.48 48.3904 414.172 44.5702 416.082 41.3071C418.39 37.5664 425.234 38.999 424.996 43.6947C425.075 46.4007 422.767 48.3904 420.22 48.3108Z" fill="#202037"/>
<path d="M79.2728 38.4412C78.9545 47.5142 87.2316 49.9019 94.2354 46.5592L93.2803 41.5451C91.7681 42.2614 88.3458 42.7389 86.9929 40.988C86.197 40.1921 85.8786 38.8391 85.8786 37.0086V25.0703H93.2007V19.8971H85.8786V11.8586H79.3524V19.8971H73.4629V25.0703H79.3524C79.2728 25.0703 79.2728 38.4412 79.2728 38.4412Z" fill="#080821"/>
<path d="M262.408 38.4419C262.089 47.515 270.366 49.9026 277.37 46.5599L276.415 41.5458C274.903 42.2621 271.481 42.7397 270.128 40.9887C269.332 40.1928 269.013 38.8398 269.013 37.0093V25.071H276.335V19.8978H269.013V11.8594H262.487V19.8978H256.598V25.071H262.487V38.4419H262.408Z" fill="#080821"/>
<path d="M396.749 38.4419C396.431 47.515 404.708 49.9026 411.712 46.5599L410.757 41.5458C409.245 42.2621 405.822 42.7397 404.469 40.9887C403.674 40.1928 403.355 38.8398 403.355 37.0093V25.071H410.677V19.8978H403.355V11.8594H396.829V19.8978H390.939V25.071H396.829V38.4419H396.749Z" fill="#080821"/>
<path d="M137.137 18.7845C133.237 18.7845 129.019 19.9783 126.075 21.8885L127.746 26.3454C132.362 22.7639 143.982 22.1272 143.027 30.882C136.262 30.2452 128.462 30.9615 125.597 35.4185C124.085 37.647 124.085 41.5468 125.677 43.9344C127.268 46.5609 130.213 47.9139 133.874 47.9139C136.739 47.9139 141.276 47.118 143.584 43.2181C143.584 43.9344 143.584 46.3221 143.584 47.0384H149.235V29.8473C149.553 21.6497 143.027 18.7049 137.137 18.7845ZM142.072 40.353C140.798 42.1835 138.57 43.2181 135.784 43.2181C134.193 43.2181 132.84 42.8998 131.884 42.1835C130.213 41.1488 129.895 38.1245 131.327 36.7715C134.193 34.0655 139.047 34.543 143.027 34.941C143.106 36.6919 143.186 38.9204 142.072 40.353Z" fill="#080821"/>
<path d="M221.655 19.9768H215.129V47.196H221.655V19.9768Z" fill="#080821"/>
<path d="M109.594 19.1022C90.015 18.7838 89.3783 48.2315 109.594 47.9927C112.936 47.9927 117.552 47.1173 120.656 44.7296L118.428 40.3523C113.096 44.2521 100.68 44.7296 100.759 34.9403H122.566C123.283 30.7221 122.248 26.5835 119.701 23.5591C117.314 20.6939 113.732 19.1022 109.594 19.1022ZM101.157 30.4833C101.396 26.4243 104.58 23.7979 109.116 23.7979C113.573 23.7183 116.279 26.3447 116.279 30.4833H101.157Z" fill="#080821"/>
<path d="M196.032 20.6149C191.098 17.5906 182.025 19.3415 179.558 24.7535C177.249 17.1926 165.311 17.4314 161.809 24.4352V19.9782H155.283V47.1974H161.809V31.3594C161.65 27.8575 164.754 25.4698 166.823 25.0719C172.235 24.1168 174.543 27.5391 174.464 31.2798V47.1179H180.99V31.3594C180.911 29.688 182.025 25.2311 187.437 24.9923C191.416 24.8331 193.645 27.6187 193.645 31.3594V47.1974H200.171V29.2901C200.171 26.982 199.614 22.923 196.032 20.6149Z" fill="#080821"/>
<path d="M243.466 19.1025C239.884 19.1025 236.462 20.5351 234.313 23.9574V19.978H227.787V47.1972H234.313V32.0754C234.313 28.1756 237.417 24.7533 241.317 24.9921C245.217 24.9921 247.764 27.6185 247.764 31.5183V47.1972H254.29V29.2898C254.29 27.6185 253.892 25.9471 253.096 24.435C251.504 21.1718 247.684 19.1025 243.466 19.1025Z" fill="#080821"/>
<path d="M292.807 19.1027C273.228 18.7843 272.591 48.232 292.807 47.9932C296.149 47.9932 300.765 47.1178 303.949 44.7301L301.72 40.3528C296.388 44.2526 283.972 44.7301 284.052 34.9407H305.859C306.575 30.7226 305.541 26.584 302.994 23.5596C300.527 20.6944 296.866 19.1027 292.807 19.1027ZM284.291 30.4838C284.529 26.4248 287.713 23.7984 292.249 23.7984C296.706 23.7188 299.412 26.3452 299.412 30.4838H284.291Z" fill="#080821"/>
<path d="M328.069 19.3413C324.568 18.7842 319.474 18.7046 316.688 24.5146V19.978H310.162V47.1972H316.688V32.7122C316.45 26.9022 322.259 24.3554 327.274 26.1063L328.069 19.3413Z" fill="#080821"/>
<path d="M347.009 19.1023C343.427 19.1023 340.005 20.5349 337.856 23.9572V19.9778H331.33V47.197H337.856V32.0752C337.856 28.1754 340.96 24.7531 344.86 24.9918C348.76 24.9918 351.307 27.6182 351.307 31.5181V47.197H357.833V29.2896C357.833 27.6182 357.435 25.9469 356.639 24.4347C354.968 21.1716 351.227 19.1023 347.009 19.1023Z" fill="#080821"/>
<path d="M376.853 19.1024C357.275 18.7841 356.638 48.2318 376.853 47.993C380.196 47.993 384.812 47.1175 387.996 44.7299L385.767 40.3525C380.435 44.2523 368.019 44.7299 368.099 34.9405H389.906C390.622 30.7223 389.587 26.5837 387.041 23.5594C384.573 20.6942 380.912 19.1024 376.853 19.1024ZM368.417 30.4836C368.656 26.4245 371.839 23.7981 376.376 23.7981C380.833 23.7185 383.539 26.345 383.539 30.4836H368.417Z" fill="#080821"/>
<path d="M218.394 14.6451C216.166 14.6451 214.096 13.0533 214.176 10.6657C214.176 5.41287 222.612 5.41287 222.533 10.6657C222.612 13.0533 220.623 14.6451 218.394 14.6451Z" fill="#080821"/>
</g>
<defs>
<clipPath id="clip0_6989_3451">
<rect width="425" height="55.7118" fill="white"/>
</clipPath>
</defs>
</svg>
