<svg width="275" height="55" viewBox="0 0 275 55" fill="none" xmlns="http://www.w3.org/2000/svg">
<path d="M271.9 49.5251C269.5 49.5818 268.001 47.0944 269.212 45.019C270.705 42.5882 275.124 43.5152 274.995 46.5897C275.041 48.3046 273.548 49.5663 271.895 49.5251H271.9Z" fill="white"/>
<path d="M32.5063 42.4697V52.8468C32.5063 53.2536 32.1767 53.5781 31.775 53.5781H23.7772C23.3755 53.5781 23.0459 53.2536 23.0459 52.8468V34.4874L32.5063 42.4697Z" fill="white"/>
<path d="M33.361 22.9928C33.361 20.3869 31.2393 18.26 28.6283 18.26C26.0173 18.26 23.8955 20.3818 23.8955 22.9928C23.8955 23.24 23.9161 23.482 23.9522 23.7189L28.7004 27.7255C31.2753 27.6843 33.361 25.578 33.361 22.9979V22.9928Z" fill="white"/>
<path d="M19.1474 46.8008C19.5542 46.7544 19.9147 47.0531 19.9559 47.46L20.4915 52.991C20.5275 53.3618 20.2855 53.7068 19.925 53.7789C18.1895 54.1343 16.4282 54.3145 14.6824 54.3145C11.4276 54.3145 8.96084 53.4493 7.35922 51.7344C6.25199 50.5499 4.93361 48.1913 4.93876 43.6748V34.4925H0.731287C0.329594 34.4925 0 34.1629 0 33.7612V27.4114C0 27.0097 0.329594 26.675 0.736437 26.675H4.93876V19.1767C4.93876 18.7698 5.26836 18.4402 5.67005 18.4402H13.673C14.0747 18.4402 14.4043 18.7698 14.4043 19.1767V26.675H22.0983C22.7883 26.675 23.4527 26.9221 23.978 27.3599L32.5114 34.4925H14.4043V43.5512C14.4094 45.812 15.3467 46.9604 17.1955 46.9604C17.6487 46.9604 18.5191 46.8729 19.1474 46.8059V46.8008Z" fill="white"/>
<path opacity="0.33" d="M32.5063 34.4874V42.4697L23.0459 34.4874H32.5063Z" fill="white"/>
<path d="M51.2931 43.1444C51.0922 49.005 56.443 50.5397 60.9646 48.423L60.3209 45.1528C59.3475 45.6369 57.1485 45.9202 56.2524 44.813C55.7529 44.2928 55.5108 43.4482 55.5108 42.2277V34.5028H60.2539V31.1657H55.5108V25.9385H51.2931V31.1657H47.4924V34.5028H51.2931V43.1444Z" fill="white"/>
<path d="M169.808 43.1444C169.607 49.005 174.958 50.5397 179.479 48.423L178.836 45.1528C177.862 45.6369 175.663 45.9202 174.767 44.813C174.268 44.2928 174.026 43.4482 174.026 42.2277V34.5028H178.769V31.1657H174.026V25.9385H169.808V31.1657H166.007V34.5028H169.808V43.1444Z" fill="white"/>
<path d="M256.738 43.1444C256.538 49.005 261.888 50.5397 266.41 48.423L265.766 45.1528C264.793 45.6369 262.594 45.9202 261.698 44.813C261.198 44.2928 260.956 43.4482 260.956 42.2277V34.5028H265.699V31.1657H260.956V25.9385H256.738V31.1657H252.938V34.5028H256.738V43.1444Z" fill="white"/>
<path d="M88.7123 30.4241C86.1631 30.4241 83.4336 31.1863 81.5436 32.4274L82.6509 35.3165C85.6584 33.0145 93.1567 32.5716 92.5541 38.2571C88.1664 37.8606 83.1246 38.2932 81.281 41.1926C80.3025 42.6603 80.3231 45.1426 81.3325 46.7236C82.3831 48.4025 84.2679 49.3243 86.642 49.3243C88.4754 49.35 91.4366 48.8145 92.9301 46.2962C92.9301 46.7442 92.9301 48.3149 92.9301 48.7836H96.5917V37.598C96.7462 32.2935 92.549 30.3572 88.7175 30.4293L88.7123 30.4241ZM91.9155 44.3649C91.0658 45.5649 89.6238 46.2344 87.8729 46.2344C86.8326 46.2344 85.9829 46.0078 85.37 45.5546C84.2988 44.8645 84.0877 42.9333 85.0095 42.032C86.8583 40.2862 89.9998 40.6158 92.5593 40.8527C92.5799 42.0166 92.652 43.4431 91.9155 44.3649Z" fill="white"/>
<path d="M143.415 31.1657H139.197V48.7784H143.415V31.1657Z" fill="white"/>
<path d="M70.9296 30.6198C58.2402 30.4189 57.854 49.4581 70.9193 49.3139C73.0823 49.2882 76.0795 48.7269 78.1034 47.2231L76.6718 44.37C73.2059 46.8832 65.2029 47.1767 65.2184 40.8784H79.3446C79.7874 38.1283 79.118 35.4607 77.5009 33.5295C75.925 31.6498 73.5921 30.6146 70.9296 30.6146V30.6198ZM65.4655 38.0099C65.62 35.404 67.6852 33.6685 70.6155 33.7046C73.4994 33.6582 75.271 35.3474 75.2452 38.0099H65.4707H65.4655Z" fill="white"/>
<path d="M126.822 31.5828C123.644 29.6052 117.768 30.7434 116.166 34.2762C114.678 29.3632 106.933 29.5434 104.682 34.0702V31.1657H100.459V48.7784H104.682V38.5712C104.579 36.3053 106.577 34.7758 107.921 34.5286C111.418 33.89 112.907 36.1353 112.881 38.53V48.7784H117.099L117.119 38.5712C117.093 37.5001 117.789 34.5852 121.296 34.4307C123.881 34.3174 125.318 36.1353 125.297 38.53V48.7784H129.515V37.1962C129.505 35.7388 129.139 33.066 126.816 31.5828H126.822Z" fill="white"/>
<path d="M157.546 30.6044C155.203 30.6044 153.004 31.5262 151.608 33.7613V31.1606H147.385V48.7732H151.608V39.0193C151.608 36.4959 153.606 34.2711 156.14 34.4256C158.653 34.3999 160.332 36.1251 160.291 38.6331V48.7732H164.514V37.1911C164.514 36.0993 164.256 35.0384 163.741 34.0394C162.711 31.9485 160.281 30.6044 157.541 30.6044H157.546Z" fill="white"/>
<path d="M189.444 30.6198C176.755 30.4189 176.369 49.4581 189.434 49.3139C191.597 49.2882 194.594 48.7269 196.618 47.2231L195.187 44.37C191.721 46.8832 183.718 47.1767 183.733 40.8784H197.859C198.302 38.1283 197.633 35.4607 196.016 33.5295C194.44 31.6498 192.107 30.6146 189.444 30.6146V30.6198ZM183.98 38.0099C184.135 35.404 186.2 33.6685 189.13 33.7046C192.014 33.6582 193.786 35.3474 193.76 38.0099H183.986H183.98Z" fill="white"/>
<path d="M212.269 30.7794C210.024 30.3984 206.707 30.3675 204.884 34.1217V31.1657H200.666V48.7784H204.884V39.4004C204.724 35.6513 208.51 33.993 211.749 35.1002L212.274 30.7794H212.269Z" fill="white"/>
<path d="M224.51 30.6044C222.167 30.6044 219.968 31.5262 218.573 33.7613V31.1606H214.35V48.7732H218.573V39.0193C218.573 36.4959 220.571 34.2711 223.104 34.4256C225.618 34.3999 227.296 36.1251 227.255 38.6331V48.7732H231.478V37.1911C231.478 36.0993 231.221 35.0384 230.706 34.0394C229.676 31.9485 227.245 30.6044 224.505 30.6044H224.51Z" fill="white"/>
<path d="M243.833 30.6198C231.143 30.4189 230.757 49.4581 243.822 49.3139C245.985 49.2882 248.983 48.7269 251.006 47.2231L249.575 44.37C246.109 46.8832 238.106 47.1767 238.121 40.8784H252.248C252.691 38.1283 252.021 35.4607 250.404 33.5295C248.828 31.6498 246.495 30.6146 243.833 30.6146V30.6198ZM238.369 38.0099C238.523 35.404 240.588 33.6685 243.519 33.7046C246.402 33.6582 248.174 35.3474 248.148 38.0099H238.374H238.369Z" fill="white"/>
<path d="M141.308 27.7359C139.866 27.7565 138.553 26.6904 138.594 25.1712C138.584 21.7774 144.033 21.7774 144.022 25.1712C144.063 26.6853 142.75 27.7513 141.308 27.7359Z" fill="white"/>
<path d="M87.2705 13.216C87.0185 13.216 86.7711 13.188 86.5285 13.132C86.2858 13.076 86.0478 12.9804 85.8145 12.845L86.1645 11.529C86.3091 11.6224 86.4678 11.6924 86.6405 11.739C86.8131 11.7857 86.9671 11.809 87.1025 11.809C87.4291 11.809 87.6858 11.732 87.8725 11.578C88.0591 11.424 88.2061 11.186 88.3135 10.864L88.5445 10.192L85.8145 3.15002H87.5015L89.4195 8.52602L91.2885 3.15002H92.9195L89.9235 11.081C89.7088 11.6364 89.4685 12.068 89.2025 12.376C88.9365 12.6887 88.6425 12.9057 88.3205 13.027C87.9985 13.153 87.6485 13.216 87.2705 13.216Z" fill="white"/>
<path d="M81.7251 10.29C81.2631 10.29 80.8454 10.2223 80.4721 10.087C80.1034 9.95167 79.7838 9.765 79.5131 9.527C79.2424 9.28433 79.0231 9.00667 78.8551 8.694L79.0791 8.351V10.08H77.6931V0H79.2261V4.746L78.9111 4.403C79.2191 3.955 79.6041 3.60033 80.0661 3.339C80.5281 3.073 81.0741 2.94 81.7041 2.94C82.3948 2.94 83.0014 3.10567 83.5241 3.437C84.0515 3.76367 84.4621 4.20467 84.7561 4.76C85.0501 5.31533 85.1971 5.93367 85.1971 6.615C85.1971 7.14233 85.1108 7.63 84.9381 8.078C84.7701 8.526 84.5321 8.91567 84.2241 9.247C83.9161 9.57367 83.5498 9.83033 83.1251 10.017C82.7004 10.199 82.2338 10.29 81.7251 10.29ZM81.4451 8.925C81.8698 8.925 82.2478 8.83167 82.5791 8.645C82.9151 8.45367 83.1788 8.18533 83.3701 7.84C83.5615 7.49467 83.6571 7.08633 83.6571 6.615C83.6571 6.14367 83.5615 5.73533 83.3701 5.39C83.1835 5.04 82.9221 4.77167 82.5861 4.585C82.2548 4.39833 81.8744 4.305 81.4451 4.305C81.0158 4.305 80.6331 4.39833 80.2971 4.585C79.9658 4.77167 79.7044 5.04 79.5131 5.39C79.3218 5.73533 79.2261 6.14367 79.2261 6.615C79.2261 7.08633 79.3218 7.49467 79.5131 7.84C79.7044 8.18533 79.9658 8.45367 80.2971 8.645C80.6331 8.83167 81.0158 8.925 81.4451 8.925Z" fill="white"/>
<path d="M68.0877 10.29C67.4111 10.29 66.8114 10.1313 66.2887 9.814C65.7661 9.492 65.3554 9.05567 65.0567 8.505C64.7627 7.94967 64.6157 7.31967 64.6157 6.615C64.6157 6.10633 64.6997 5.63033 64.8677 5.187C65.0357 4.739 65.2737 4.347 65.5817 4.011C65.8944 3.675 66.2631 3.41367 66.6877 3.227C67.1171 3.03567 67.5907 2.94 68.1087 2.94C68.7387 2.94 69.2847 3.066 69.7467 3.318C70.2087 3.57 70.5937 3.92 70.9017 4.368L70.5797 4.711V0H72.1197V10.08H70.7337V8.414L70.9577 8.764C70.7057 9.20267 70.3441 9.56667 69.8727 9.856C69.4061 10.1453 68.8111 10.29 68.0877 10.29ZM68.3677 8.925C68.7971 8.925 69.1774 8.83167 69.5087 8.645C69.8447 8.45367 70.1084 8.18533 70.2997 7.84C70.4911 7.49467 70.5867 7.08633 70.5867 6.615C70.5867 6.14367 70.4911 5.73533 70.2997 5.39C70.1084 5.04 69.8447 4.77167 69.5087 4.585C69.1774 4.39833 68.7971 4.305 68.3677 4.305C67.9384 4.305 67.5581 4.39833 67.2267 4.585C66.8954 4.77167 66.6341 5.04 66.4427 5.39C66.2514 5.73533 66.1557 6.14367 66.1557 6.615C66.1557 7.08633 66.2514 7.49467 66.4427 7.84C66.6341 8.18533 66.8954 8.45367 67.2267 8.645C67.5627 8.83167 67.9431 8.925 68.3677 8.925Z" fill="white"/>
<path d="M60.2946 10.2899C59.548 10.2899 58.8923 10.1383 58.3276 9.83494C57.763 9.52694 57.322 9.09761 57.0046 8.54694C56.692 7.99628 56.5356 7.35694 56.5356 6.62894C56.5356 6.09694 56.6266 5.60694 56.8086 5.15894C56.9906 4.70628 57.2473 4.31428 57.5786 3.98294C57.91 3.65161 58.2973 3.39494 58.7406 3.21294C59.1886 3.03094 59.6763 2.93994 60.2036 2.93994C60.7776 2.93994 61.2886 3.04261 61.7366 3.24794C62.1846 3.44861 62.5556 3.73094 62.8496 4.09494C63.1483 4.45894 63.3583 4.88594 63.4796 5.37594C63.6056 5.86128 63.6266 6.38861 63.5426 6.95794H58.0126C58.0033 7.37328 58.0943 7.73728 58.2856 8.04994C58.477 8.35794 58.75 8.59828 59.1046 8.77094C59.464 8.94361 59.8863 9.02994 60.3716 9.02994C60.7636 9.02994 61.1416 8.97161 61.5056 8.85494C61.8743 8.73361 62.208 8.55628 62.5066 8.32294L63.1016 9.42894C62.8776 9.61094 62.607 9.76728 62.2896 9.89794C61.9723 10.0239 61.641 10.1196 61.2956 10.1849C60.9503 10.2549 60.6166 10.2899 60.2946 10.2899ZM58.1036 5.82394H62.0306C62.0166 5.30128 61.8486 4.89061 61.5266 4.59194C61.2093 4.29328 60.7566 4.14394 60.1686 4.14394C59.5993 4.14394 59.1256 4.29328 58.7476 4.59194C58.3743 4.89061 58.1596 5.30128 58.1036 5.82394Z" fill="white"/>
<path d="M54.0679 10.29C53.3913 10.29 52.8499 10.094 52.4439 9.70195C52.0379 9.30995 51.8349 8.71029 51.8349 7.90295V1.12695H53.3749V3.14995H55.2999V4.42395H53.3749V7.56695C53.3749 8.05229 53.4659 8.39529 53.6479 8.59595C53.8346 8.79195 54.0959 8.88995 54.4319 8.88995C54.5953 8.88995 54.7493 8.87129 54.8939 8.83395C55.0386 8.79662 55.1693 8.74762 55.2859 8.68695L55.5589 9.93295C55.3583 10.0356 55.1273 10.1196 54.8659 10.185C54.6093 10.255 54.3433 10.29 54.0679 10.29ZM50.3159 4.42395V3.14995H52.0379V4.42395H50.3159Z" fill="white"/>
<path d="M47.1153 10.2899C46.3873 10.2899 45.7386 10.1313 45.1693 9.81394C44.6 9.49194 44.1519 9.05561 43.8253 8.50494C43.5033 7.94961 43.3423 7.31961 43.3423 6.61494C43.3423 6.08294 43.438 5.59528 43.6293 5.15194C43.8206 4.70394 44.0913 4.31428 44.4413 3.98294C44.7913 3.65161 45.2019 3.39494 45.6733 3.21294C46.1493 3.03094 46.665 2.93994 47.2203 2.93994C47.687 2.93994 48.1186 3.00294 48.5153 3.12894C48.9166 3.25028 49.2853 3.43928 49.6213 3.69594L48.8793 4.87194C48.6646 4.68061 48.4173 4.53828 48.1373 4.44494C47.8619 4.35161 47.5679 4.30494 47.2553 4.30494C46.7699 4.30494 46.3523 4.39594 46.0023 4.57794C45.6523 4.75994 45.3793 5.02361 45.1833 5.36894C44.992 5.70961 44.8963 6.12261 44.8963 6.60794C44.8963 7.33128 45.1063 7.89828 45.5263 8.30894C45.9509 8.71961 46.5273 8.92494 47.2553 8.92494C47.6006 8.92494 47.9273 8.86194 48.2353 8.73594C48.5433 8.60528 48.8 8.43494 49.0053 8.22494L49.7403 9.39394C49.3716 9.67394 48.961 9.89328 48.5083 10.0519C48.0556 10.2106 47.5913 10.2899 47.1153 10.2899Z" fill="white"/>
<path d="M39.0212 10.2899C38.2745 10.2899 37.6189 10.1383 37.0542 9.83494C36.4895 9.52694 36.0485 9.09761 35.7312 8.54694C35.4185 7.99628 35.2622 7.35694 35.2622 6.62894C35.2622 6.09694 35.3532 5.60694 35.5352 5.15894C35.7172 4.70628 35.9739 4.31428 36.3052 3.98294C36.6365 3.65161 37.0239 3.39494 37.4672 3.21294C37.9152 3.03094 38.4029 2.93994 38.9302 2.93994C39.5042 2.93994 40.0152 3.04261 40.4632 3.24794C40.9112 3.44861 41.2822 3.73094 41.5762 4.09494C41.8749 4.45894 42.0849 4.88594 42.2062 5.37594C42.3322 5.86128 42.3532 6.38861 42.2692 6.95794H36.7392C36.7299 7.37328 36.8209 7.73728 37.0122 8.04994C37.2035 8.35794 37.4765 8.59828 37.8312 8.77094C38.1905 8.94361 38.6129 9.02994 39.0982 9.02994C39.4902 9.02994 39.8682 8.97161 40.2322 8.85494C40.6009 8.73361 40.9345 8.55628 41.2332 8.32294L41.8282 9.42894C41.6042 9.61094 41.3335 9.76728 41.0162 9.89794C40.6989 10.0239 40.3675 10.1196 40.0222 10.1849C39.6769 10.2549 39.3432 10.2899 39.0212 10.2899ZM36.8302 5.82394H40.7572C40.7432 5.30128 40.5752 4.89061 40.2532 4.59194C39.9359 4.29328 39.4832 4.14394 38.8952 4.14394C38.3259 4.14394 37.8522 4.29328 37.4742 4.59194C37.1009 4.89061 36.8862 5.30128 36.8302 5.82394Z" fill="white"/>
<path d="M27.2439 10.0799V3.14994H28.7839V4.03194C29.0732 3.64461 29.4092 3.36694 29.7919 3.19894C30.1746 3.02627 30.5712 2.93994 30.9819 2.93994C31.6166 2.93994 32.1416 3.06594 32.5569 3.31794C32.9722 3.56994 33.2802 3.89427 33.4809 4.29094C33.6862 4.68761 33.7889 5.09594 33.7889 5.51594V10.0799H32.2489V5.99194C32.2489 5.49728 32.0996 5.10061 31.8009 4.80194C31.5069 4.50328 31.0962 4.35394 30.5689 4.35394C30.2236 4.35394 29.9156 4.43094 29.6449 4.58494C29.3789 4.73894 29.1689 4.95361 29.0149 5.22894C28.8609 5.49961 28.7839 5.81694 28.7839 6.18094V10.0799H27.2439Z" fill="white"/>
<path d="M18.6306 10.0799V3.14994H20.1706V4.03194C20.4599 3.64461 20.7959 3.36694 21.1786 3.19894C21.5613 3.02627 21.9579 2.93994 22.3686 2.93994C23.0033 2.93994 23.5283 3.06594 23.9436 3.31794C24.359 3.56994 24.667 3.89427 24.8676 4.29094C25.073 4.68761 25.1756 5.09594 25.1756 5.51594V10.0799H23.6356V5.99194C23.6356 5.49728 23.4863 5.10061 23.1876 4.80194C22.8936 4.50328 22.4829 4.35394 21.9556 4.35394C21.6103 4.35394 21.3023 4.43094 21.0316 4.58494C20.7656 4.73894 20.5556 4.95361 20.4016 5.22894C20.2476 5.49961 20.1706 5.81694 20.1706 6.18094V10.0799H18.6306Z" fill="white"/>
<path d="M13.3248 10.2899C12.6014 10.2899 11.9551 10.1243 11.3858 9.79294C10.8211 9.45694 10.3778 9.01128 10.0558 8.45594C9.73375 7.89594 9.57275 7.28228 9.57275 6.61494C9.57275 6.12028 9.66375 5.65361 9.84575 5.21494C10.0324 4.77161 10.2938 4.37961 10.6298 4.03894C10.9704 3.69828 11.3694 3.42994 11.8268 3.23394C12.2841 3.03794 12.7858 2.93994 13.3318 2.93994C14.0551 2.93994 14.6991 3.10794 15.2638 3.44394C15.8331 3.77528 16.2788 4.22094 16.6008 4.78094C16.9228 5.33628 17.0838 5.94761 17.0838 6.61494C17.0838 7.10494 16.9904 7.57161 16.8038 8.01494C16.6218 8.45828 16.3628 8.85028 16.0268 9.19094C15.6908 9.53161 15.2941 9.79994 14.8368 9.99594C14.3794 10.1919 13.8754 10.2899 13.3248 10.2899ZM13.3248 8.92494C13.7541 8.92494 14.1344 8.83161 14.4658 8.64494C14.8018 8.45361 15.0654 8.18528 15.2568 7.83994C15.4481 7.49461 15.5438 7.08628 15.5438 6.61494C15.5438 6.14361 15.4481 5.73528 15.2568 5.38994C15.0654 5.03994 14.8018 4.77161 14.4658 4.58494C14.1344 4.39828 13.7541 4.30494 13.3248 4.30494C12.8954 4.30494 12.5128 4.39828 12.1768 4.58494C11.8454 4.77161 11.5841 5.03994 11.3928 5.38994C11.2061 5.73528 11.1128 6.14361 11.1128 6.61494C11.1128 7.08628 11.2084 7.49461 11.3998 7.83994C11.5911 8.18528 11.8524 8.45361 12.1838 8.64494C12.5198 8.83161 12.9001 8.92494 13.3248 8.92494Z" fill="white"/>
<path d="M5.075 10.2899C4.05767 10.2899 3.16867 10.0799 2.408 9.65995C1.64733 9.23995 1.05467 8.64728 0.63 7.88195C0.21 7.11195 0 6.21361 0 5.18695C0 4.44028 0.123667 3.75661 0.371 3.13595C0.623 2.51061 0.975333 1.96928 1.428 1.51195C1.88533 1.05461 2.42433 0.699946 3.045 0.447946C3.66567 0.195946 4.347 0.0699463 5.089 0.0699463C5.83567 0.0699463 6.47967 0.16328 7.021 0.349946C7.567 0.536613 8.043 0.802613 8.449 1.14795L7.637 2.42895C7.329 2.14428 6.96967 1.93195 6.559 1.79195C6.14833 1.65195 5.69567 1.58195 5.201 1.58195C4.655 1.58195 4.16267 1.66595 3.724 1.83395C3.28533 2.00195 2.90967 2.24228 2.597 2.55495C2.289 2.86295 2.051 3.23861 1.883 3.68195C1.71967 4.12061 1.638 4.61761 1.638 5.17295C1.638 5.92895 1.785 6.57528 2.079 7.11195C2.37767 7.64861 2.79767 8.05928 3.339 8.34395C3.885 8.62395 4.529 8.76395 5.271 8.76395C5.76567 8.76395 6.24167 8.69161 6.699 8.54695C7.161 8.39761 7.59267 8.15728 7.994 7.82595L8.722 9.14895C8.25067 9.51761 7.71167 9.79995 7.105 9.99595C6.503 10.1919 5.82633 10.2899 5.075 10.2899Z" fill="white"/>
</svg>
