<svg width="1550" height="728" viewBox="0 0 1550 728" fill="none" xmlns="http://www.w3.org/2000/svg">
    <path fill-rule="evenodd" clip-rule="evenodd" d="M603.597 0L465.833 14.6345L415.55 52.8111L423.126 68.0801L465.833 73.807L484.433 92.2599L494.075 138.072L506.473 178.793L534.027 189.612L565.026 146.343L624.952 115.8L634.594 59.1725L669.035 17.8137L603.597 0Z" fill="#F2F2F2"/>
    <path fill-rule="evenodd" clip-rule="evenodd" d="M337.049 65.1521L377.308 68.487L453.185 7.96382L392.279 4.15209L332.921 17.0209L302.467 33.7L322.596 52.2849L337.049 65.1521Z" fill="#F2F2F2"/>
    <path fill-rule="evenodd" clip-rule="evenodd" d="M379.374 78.0196L366.47 72.3004L341.178 76.1122L326.726 66.5813L307.629 65.1523L317.953 70.393L326.21 83.2619L372.664 86.123L379.374 78.0196Z" fill="#F2F2F2"/>
    <path fill-rule="evenodd" clip-rule="evenodd" d="M313.822 56.0977L298.855 47.5205L301.435 55.144L313.822 56.0977Z" fill="#F2F2F2"/>
    <path fill-rule="evenodd" clip-rule="evenodd" d="M286.982 95.1758L280.788 105.183L302.467 109.472L300.402 92.7915L286.982 95.1758Z" fill="#F2F2F2"/>
    <path fill-rule="evenodd" clip-rule="evenodd" d="M313.306 77.0665L304.016 80.4014L316.92 83.2625L313.306 77.0665Z" fill="#F2F2F2"/>
    <path fill-rule="evenodd" clip-rule="evenodd" d="M435.119 175.714L453.7 139.973L394.342 97.5582L341.694 92.3159L338.083 117.098L379.374 121.864L407.761 139.02C407.761 139.02 389.18 155.7 387.631 155.7L435.119 175.714Z" fill="#F2F2F2"/>
    <path fill-rule="evenodd" clip-rule="evenodd" d="M312.79 92.316L308.661 108.518L306.596 122.818L322.081 122.341L316.919 111.853C316.919 111.853 328.275 94.2234 328.791 92.7929L312.79 92.316Z" fill="#F2F2F2"/>
    <path fill-rule="evenodd" clip-rule="evenodd" d="M291.111 80.8787L296.788 66.1071L270.981 68.0114L291.111 80.8787Z" fill="#F2F2F2"/>
    <path fill-rule="evenodd" clip-rule="evenodd" d="M218.849 61.8165L192.009 66.1051L209.044 73.7316L218.849 61.8165Z" fill="#F2F2F2"/>
    <path fill-rule="evenodd" clip-rule="evenodd" d="M2.58032 127.105L12.9016 144.26L0 149.029L21.1618 157.129L1.54509 183.342L34.581 199.068L3.09483 223.847L62.4532 187.631L111.489 192.872L129.899 201.289L146.589 213.841L159.49 217.496L181.857 252.758L185.814 297.713L213.687 333.933L270.5 344L298.851 361.574L312.274 346.798L358.727 344.416L369.052 364.432L374.212 365.384L370.6 341.555L391.247 321.541L407.247 295.808L415.505 291.043L417.053 283.893L432.538 274.841L444.929 276.747L461.962 265.31L439.249 251.486L469.701 244.816L466.087 257.68L490.349 259.588L481.572 239.574L440.281 186.677L426.862 194.777L397.956 173.331L377.309 234.331L353.05 213.841L316.402 198.588L364.921 159.987L371.117 130.439L262.722 133.777L179.104 123.77H112.003L40.7769 112.331L2.58032 127.105Z" fill="#F2F2F2"/>
    <path fill-rule="evenodd" clip-rule="evenodd" d="M233.817 126.152L282.851 123.294L266.336 97.5577H230.721L213.17 89.9343L187.364 90.4111L174.977 104.707L210.59 113.285L233.817 126.152Z" fill="#F2F2F2"/>
    <path fill-rule="evenodd" clip-rule="evenodd" d="M290.595 58.0038L289.561 48.9498L268.917 42.7538L272.013 52.2847L290.595 58.0038Z" fill="#F2F2F2"/>
    <path fill-rule="evenodd" clip-rule="evenodd" d="M247.754 51.3319L235.367 50.3782L227.624 59.9122L240.529 58.9585L247.754 51.3319Z" fill="#F2F2F2"/>
    <path fill-rule="evenodd" clip-rule="evenodd" d="M232.785 84.2145L261.691 79.9259L259.625 68.9645L232.27 70.8704L221.428 64.2006L217.817 78.9722L232.785 84.2145Z" fill="#F2F2F2"/>
    <path fill-rule="evenodd" clip-rule="evenodd" d="M569.05 492.354L508.386 469.72L500.252 454.474L500.24 454.499L489.403 448.191L488.112 454.624L488.888 458.315L486.968 461.98H486.96L478.174 463.317L466.564 466.029L463.855 458.405L463.597 451.137L460.799 450.424L460.788 450.43L459.587 444.577L462.857 437.272L457.524 432.664L438.764 429.33L420.695 424.407L413.294 429.488L414.325 423.374L414.067 421.31L398.15 426.708L394.879 433.38L387.565 436.397L383.95 433.658L378.399 433.063L372.463 435.801L369.624 435.444L364.675 432.504L360.458 427.286L362.007 410.251L353.359 406.202L340.066 407.451L337.487 407.019L340.194 403.281L340.494 396.611L346.346 382L338.776 382.317L328.794 392.163L310.895 396.294L301.258 385.175L298.503 361.83L273.5 313.5L213.315 334.194L243.087 374.375L246.53 374.692L232.762 351.821L225.19 339.436H230.698L265.805 379.46L266.148 389.306L301.602 407.092L312.614 405.505L322.942 412.177L332.449 415.671L338.776 417.735L341.659 418.052L342.167 416.901L343.681 417.496L344.196 418.609L342.971 419.184L351.361 426.631L351.941 431.473L354.265 430.917L363.128 437.828L367.043 438.065L371.043 440.803L374.657 441.28L374.787 438.185L377.884 435.801L381.883 436.039L385.629 442.116L388.425 455.853L381.111 465.463L375.862 468.879L372.677 480.549L375.089 485.395L370.096 490.159L374.744 496.991L392.641 524.943L392.298 528.755L418.198 546.224L417.251 579.578L412.605 601.496L412.346 611.266L404.861 629.37L403.052 650.574L402.022 661.297L396.858 675.828L397.374 699.176L404.346 716.568L416.993 724.428L429.901 728L431.708 724.905L426.03 723.237L443.324 723.712L425.772 711.801L426.03 709.498L435.323 681.545L432.223 672.017L441.519 655.813L443.067 647.716L452.361 646.762L453.909 638.187L472.752 633.899L476.367 627.227L470.429 613.766L485.015 618.888L493.319 611.978L474.388 597.049L474.41 597.029L493.327 611.949L511.743 589.079L514.324 575.737L542.203 564.778L555.11 526.661L572.148 504.267L569.05 492.354ZM416.651 389.941L424.91 393.594L426.889 394.944L425.77 396.452L415.53 396.612L413.466 399.152L411.745 397.564L400.645 396.612L401.676 395.26L408.561 394.944L407.872 392.243L405.033 390.339L412.26 390.578L416.651 389.941ZM383.949 395.898L390.059 396.134L392.727 398.041L388.166 398.835L384.725 397.485L383.949 395.898ZM367.344 375.328L383.435 380.252L401.678 388.193L386.791 390.257L387.91 386.685L383.606 385.335L380.078 381.92L368.719 379.619L357.104 381.127L358.135 378.266L367.344 375.328Z" fill="#F2F2F2"/>
    <path fill-rule="evenodd" clip-rule="evenodd" d="M475.851 447.357L472.881 453.789L478.175 463.318L466.558 466.059L463.846 458.434L463.588 451.168L460.792 450.453L459.589 444.578L462.856 437.27L475.851 447.357Z" fill="#F2F2F2"/>
    <path fill-rule="evenodd" clip-rule="evenodd" d="M486.951 462.008L478.172 463.319L472.883 453.788L475.851 447.357L489.403 448.191L488.111 454.622L488.887 458.317L486.951 462.008Z" fill="#F2F2F2"/>
    <path fill-rule="evenodd" clip-rule="evenodd" d="M458.813 430.561L459.039 428.267L459.426 427.521L456.554 428.147L456.974 429.22L455.329 430.651L458.813 430.561Z" fill="#F2F2F2"/>
    <path fill-rule="evenodd" clip-rule="evenodd" d="M1132.49 40.8417L1148.15 48.4669L1159.17 47.1935L1160.89 40.0481L1148.15 36.0771C1148.15 36.0771 1133.01 40.3649 1132.49 40.8417Z" fill="#F2F2F2"/>
    <path fill-rule="evenodd" clip-rule="evenodd" d="M1147.12 34.9648L1148.67 29.7234L1141.96 23.5285L1124.92 31.3106L1130.08 37.0287L1147.12 34.9648Z" fill="#F2F2F2"/>
    <path fill-rule="evenodd" clip-rule="evenodd" d="M1159.68 54.1832L1181.03 52.7529L1181.37 48.1482L1168.29 43.2237C1168.29 43.2237 1160.54 54.1832 1159.68 54.1832Z" fill="#F2F2F2"/>
    <path fill-rule="evenodd" clip-rule="evenodd" d="M1355.53 79.4363L1338.67 69.907L1321.46 72.2878L1327.82 85.1544L1355.53 79.4363Z" fill="#F2F2F2"/>
    <path fill-rule="evenodd" clip-rule="evenodd" d="M1510.59 114.537L1518.68 113.266L1511.8 110.566L1502.16 112.79L1503.37 115.33L1510.59 114.537Z" fill="#F2F2F2"/>
    <path fill-rule="evenodd" clip-rule="evenodd" d="M1378.94 84.3601L1381.17 80.549L1364.48 77.0547L1361.21 78.3251L1368.78 84.3601H1378.94Z" fill="#F2F2F2"/>
    <path fill-rule="evenodd" clip-rule="evenodd" d="M972.785 115.728L966.072 109.056L969.428 98.5747L960.652 96.9083L949.551 109.533L955.747 115.49L972.785 115.728Z" fill="#F2F2F2"/>
    <path fill-rule="evenodd" clip-rule="evenodd" d="M992.404 80.2305L1025.45 67.8422L1016.15 63.7919L986.468 70.9404L962.2 94.2851L970.979 95.9546L992.404 80.2305Z" fill="#F2F2F2"/>
    <path fill-rule="evenodd" clip-rule="evenodd" d="M1340.64 226.985L1341.94 268.199L1346.58 262.723L1348.39 252.237V239.136L1346.84 221.983L1340.64 226.985Z" fill="#F2F2F2"/>
    <path fill-rule="evenodd" clip-rule="evenodd" d="M823.705 219.005L816.993 217.097L815.895 218.408L812.153 219.005L811.015 220.632L822.371 221.586L823.705 219.005Z" fill="#F2F2F2"/>
    <path fill-rule="evenodd" clip-rule="evenodd" d="M1098.76 91.6662L1080.17 96.4308L1070.37 103.102L1051.26 99.2883L1047.13 123.59L1039.39 134.549V105.962L1028.03 100.722L1015.12 125.497L928.382 141.455L918.313 129.545L898.309 159.685L878.432 161.349L866.299 141.339L894.307 147.057L904.503 135.503L859.639 120.288L854.382 124.223L849.391 131.85L854.551 134.706L851.799 140.899L861.952 171.873L845.95 186.483L855.2 189.701L846.723 193.552L843.88 197.918L845.261 202.209L843.646 205.306L846.875 212.751L840.034 215.194L835.901 222.339L826.499 223.808L826.843 236.516L828.912 242.868L822.371 251.445L820.735 256.05L824.159 258.732L825.899 258.196L833.322 259.623L840.741 257.003L847.39 265.582L847.003 272.608L853.779 273.263L853.713 270.704L856.814 269.271L858.815 266.056L863.006 265.463L863.33 267.963L871.205 268.972L866.492 272.549L870.171 273.919L870.687 277.373L882.434 274.158L883.014 272.549L877.979 272.19L876.945 267.367L891.017 263.079L895.253 263.756L889.317 266.056L889.146 271.776L885.013 272.332L883.95 273.74L898.502 282.794L904.698 286.01L906.311 290L905.495 292.104L911.173 292.5L913.756 294.089L914.53 298.933L917.802 299.567L919.691 301.157L922.402 304.174L925.285 305.168L926.964 305.008L932.944 301.317L934.449 302.151L933.589 305.325L937.248 307.193L937.98 304.135L938.622 304.295L940.387 298.616L943.528 297.74L940.427 296.313L936.17 290.674L928.382 275.823L937.675 267.486L949.035 264.149L955.747 267.247L944.905 278.207L953.165 289.643L958.328 303.618L958.673 312.118L973.816 308.781L989.308 315.769L991.716 320.694L996.019 322.164L998.255 321.167L1008.84 312.908L1013.96 312.037L1019.6 312.908L1026.61 312.037L1034.09 307.906L1036.68 315.095L1041.1 312.93L1050.31 312.674L1049.97 307.827L1046.27 306.159L1044.55 302.269L1073.46 288.691L1074.24 274.396L1081.98 272.965L1086.45 263.355L1096.26 263.038L1097.64 256.609L1101.08 255.812L1102.29 252.714L1104.67 251.91L1107.08 252.001L1125.67 242.174L1148.58 246.283L1154.52 235.086L1191.69 249.38L1233 247.473L1244.36 246.997L1247.97 230.798L1267.59 228.414L1282.56 249.38L1311.47 259.861L1295.47 275.585L1295.98 283.686L1292.72 286.774L1293.49 287.938L1297.92 283.746L1311.47 284.162L1335.74 246.522L1335.22 224.126L1314.57 216.503L1347.1 194.584L1390.98 195.537L1410.09 178.387L1441.58 174.096L1424.54 192.203L1402.34 214.599L1408.02 239.374L1431.77 215.549L1429.71 199.825L1446.74 188.869L1502.5 173.62L1496.82 162.185L1511.28 148.841L1535.03 159.804L1550 145.03L1498.37 124.543L1458.62 127.401L1405.95 114.537L1361.04 102.626L1333.16 107.39L1287.21 114.537L1283.59 97.8611L1242.81 94.5268L1187.56 99.2883L1220.09 71.1759L1178.27 58.7891L1098.76 91.6662Z" fill="#F2F2F2"/>
    <path fill-rule="evenodd" clip-rule="evenodd" d="M1345.81 515.016L1365.94 551.942L1393.56 582.678L1376.01 632.945L1335.74 634.611L1323.09 611.265L1315.35 616.269L1296.24 604.118L1227.84 620.318L1218.8 565.285L1254.42 547.417L1276.36 527.881L1286.95 529.31L1299.86 518.351L1316.89 520.972L1314.05 531.932L1336.51 543.606L1345.81 515.016ZM1360.78 660.104L1367.75 657.006L1369.56 648.43L1354.32 646.762L1360.78 660.104Z" fill="#F2F2F2"/>
    <path fill-rule="evenodd" clip-rule="evenodd" d="M1448.46 672.175L1468.77 656.769L1476.86 645.809L1484.09 650.734L1474.45 662.486L1464.12 677.416L1448.46 672.175ZM1490.28 649.304L1500.61 632.626L1492.35 632.149L1479.1 618.81L1486.15 630.244L1482.02 639.614L1486.33 642.952V648.51L1490.28 649.304Z" fill="#F2F2F2"/>
    <path fill-rule="evenodd" clip-rule="evenodd" d="M1351.74 502.549L1347.27 508.427L1338.15 508.267V481.901L1358.11 489.683L1366.72 496.354L1365.34 498.894L1379.8 513.348L1368.78 512.238L1358.8 502.072L1351.74 502.549ZM1370.16 494.29L1372.83 495.877L1380.48 496.194L1386.42 493.336L1387.76 488.572L1384.92 488.491C1384.92 488.491 1380.87 493.695 1380.27 493.773C1379.67 493.852 1371.62 493.496 1371.62 493.496L1370.16 494.29Z" fill="#F2F2F2"/>
    <path fill-rule="evenodd" clip-rule="evenodd" d="M1039.73 379.617L1031.81 386.446L1024.93 378.984L1027.86 376.917L1020.28 373.146L1033.58 368.974L1027.25 360.042L1029.06 355.039L1036.8 354.086L1051.65 335.145L1046.36 324.543L1059.78 322.759L1058.66 319.82L1067.1 324.983L1067.61 339.116L1076.56 344.516L1073.46 350.394L1091.87 357.144L1107.62 361.432L1108.22 355.636L1111.49 353.569L1112.01 356.113L1111.22 358.613L1117.02 359.447L1125.35 359.208L1123.33 355.119L1137.48 348.327L1146.95 351.505L1146.45 357.183L1136.45 366.594L1130 379.814L1127.61 381.007L1126.06 374.693L1121.48 373.68L1126.96 367.724L1116.19 366.476L1115.41 363.913L1111.28 361.77L1107.86 362.781L1111.22 366.594L1108.05 368.678L1111.99 380.352L1075.35 407.73L1072.6 426.153L1064.68 439.176L1057.8 437.272L1039.73 379.617Z" fill="#F2F2F2"/>
    <path fill-rule="evenodd" clip-rule="evenodd" d="M874.905 320.177L868.192 321.526L865.611 322.918L865.913 324.465L868.192 324.982L872.711 323.235L872.58 321.644L874.905 320.177Z" fill="#F2F2F2"/>
    <path fill-rule="evenodd" clip-rule="evenodd" d="M840.57 296.749L838.849 299.253L844.229 295.043L850.509 294.645L850.896 293.654L846.81 291.508L846.292 289.88L842.097 289.582L839 291.311L840.421 292.622L837.84 296.015L840.57 296.749Z" fill="#F2F2F2"/>
    <path fill-rule="evenodd" clip-rule="evenodd" d="M934.149 346.74L934.879 346.9L934.922 346.383L934.149 345.787V346.74Z" fill="#F2F2F2"/>
    <path fill-rule="evenodd" clip-rule="evenodd" d="M1290.82 338.958L1295.81 338.798L1299.08 328.952L1294.09 327.838L1289.96 331.493L1290.82 338.958Z" fill="#F2F2F2"/>
    <path fill-rule="evenodd" clip-rule="evenodd" d="M1310.44 328.158L1307.17 326.727L1300.63 328.951L1302.01 333.399L1307.34 330.382L1310.44 328.158Z" fill="#F2F2F2"/>
    <path fill-rule="evenodd" clip-rule="evenodd" d="M1341.94 272.489L1334.71 287.736L1349.94 288.213L1359.23 280.591L1341.94 272.489Z" fill="#F2F2F2"/>
    <path fill-rule="evenodd" clip-rule="evenodd" d="M1330.32 309.416L1314.31 320.136L1302.95 320.852L1295.99 326.331L1308.89 325.854L1315.6 328.715L1338.32 319.659L1340.9 294.168L1334.45 296.312L1330.32 309.416Z" fill="#F2F2F2"/>
    <path fill-rule="evenodd" clip-rule="evenodd" d="M1255.28 368.658L1253.48 366.514L1249.78 370.089L1247.88 376.521L1250.55 380.809C1250.55 380.809 1255.2 368.897 1255.28 368.658Z" fill="#F2F2F2"/>
    <path fill-rule="evenodd" clip-rule="evenodd" d="M1073.01 432.943L1071.79 441.162L1073.72 447.059L1077.33 446.998L1080.95 443.426L1074.88 432.049L1073.01 432.943Z" fill="#F2F2F2"/>
    <path fill-rule="evenodd" clip-rule="evenodd" d="M1145.57 401.615L1150.13 407.333L1152.97 429.25L1152.71 437.587L1160.37 444.816L1165.3 459.863L1174.53 465.583L1178.2 465.699L1175.17 459.627L1174.07 450.811L1169.06 446.087L1161.92 442.035L1158.99 434.652L1157.27 432.982L1160.54 417.1L1163.47 416.623L1164.16 419.8L1171.64 422.658L1174.49 427.583L1179.82 429.171C1179.82 429.171 1181.54 436.317 1181.37 436.556L1199.78 424.009V412.495L1194.02 404.87L1184.55 393.833L1188.42 386.844L1194.92 382.792L1206.02 384.462L1219.06 378.267L1230.68 376.837L1254.85 345.787L1244.36 323.55L1256.06 314.022L1235.06 307.351L1251.93 296.868L1255.03 302.269L1265.85 299.587L1269.85 302.567L1267.85 308.702L1275.66 310.427L1276.04 317.933L1275.85 325.737L1287.72 322.221L1287.4 313.407L1283.21 306.318L1279.01 303.044L1283.79 298.992L1289.27 295.36L1289.53 291.251L1293.5 287.941L1292.72 286.776L1295.99 283.686L1295.47 275.587L1311.47 259.863L1282.56 249.379L1267.59 228.414L1247.97 230.799L1244.36 246.997L1233 247.475L1191.69 249.379L1154.52 235.085L1148.59 246.284L1125.67 242.174L1107.09 252L1104.67 251.912L1102.29 252.716L1101.09 255.811L1097.64 256.605L1096.27 263.039L1086.46 263.357L1081.98 272.965L1074.24 274.396L1073.46 288.688L1044.55 302.269L1046.27 306.159L1049.97 307.827L1050.32 312.673L1041.1 312.93L1036.68 315.094L1034.09 307.906L1026.61 312.036L1019.6 312.912L1013.96 312.036L1008.84 312.912L996.018 322.162L991.717 320.693L989.306 315.769L973.816 308.781L958.674 312.115L948.863 315.929L937.245 307.194L933.59 305.327L934.45 302.15L932.945 301.316L926.963 305.007L925.287 305.167L922.405 304.173L919.693 301.156L917.799 299.569L914.529 298.935L913.756 294.089L911.174 292.502L905.494 292.103L888.114 294.167L871.077 289.404L859.803 294.368L851.282 293.97L850.939 294.764L854.295 296.431L841.583 297.803L838.935 299.946L838.679 302.389H841.387L841.776 305.961L840.097 308.225L843.454 309.775L842.55 311.202L846.293 314.659L855.329 317.397L858.814 314.539L867.073 317.993L881.402 314.539L880.884 318.469L881.228 324.664L877.444 331.812L875.377 337.21L873.483 339.672L876.54 347.535L876.798 348.251L875.721 353.253L888.114 369.691L894.825 378.505L898.698 388.75L911.603 403.999L913.928 419.364L933.032 414.66L951.231 407.512L955.491 403.6L963.149 401.854L965.643 398.836L975.452 393.912L977.088 387.557L985.089 378.744L973.732 372.549L969.945 367.707L969.817 364.689L970.289 362.703L970.03 361.672L968.656 362.86L960.61 371.238L950.929 372.151L949.079 370.682L947.96 369.572L949.207 367.11L948.648 363.099L946.582 362.622L945.509 366.317L945.809 368.578L935.353 351.704L933.375 348.21L932.687 347.654L933.892 346.857L933.459 345.39H935.44L942.409 344.436L947.66 352.538L962.975 361.431L972.613 357.381L974.247 363.653L993.092 366.276L1013.57 365.759L1020.29 373.145L1033.58 368.977L1027.25 360.041L1029.06 355.039L1036.81 354.085L1051.65 335.146L1046.36 324.544L1059.78 322.756L1058.66 319.818L1067.1 324.98L1067.61 339.117L1076.56 344.516L1073.46 350.392L1091.88 357.143L1107.62 361.431L1108.22 355.633L1111.5 353.57L1112.01 356.11L1111.22 358.614L1117.03 359.445L1125.35 359.208L1123.33 355.119L1137.48 348.328L1146.95 351.506L1146.45 357.183L1136.45 366.593L1130 379.817L1127.61 381.008L1126.06 374.693L1121.48 373.681L1126.96 367.725L1116.19 366.473L1115.41 363.914L1111.28 361.769L1107.86 362.782L1111.22 366.593L1108.05 368.678L1111.99 380.353L1123.16 377.492L1126.19 385.355L1133.78 394.626L1135.33 405.586L1140.32 406.219L1145.57 401.615Z" fill="#F2F2F2"/>
    <path fill-rule="evenodd" clip-rule="evenodd" d="M1206.58 388.273L1200.81 389.227L1198.23 392.244L1197.89 395.422L1202.36 396.692L1207.36 391.291L1206.58 388.273Z" fill="#F2F2F2"/>
    <path fill-rule="evenodd" clip-rule="evenodd" d="M1233.38 443.187L1225.9 449.977L1220.99 453.193L1215.66 458.992L1210.07 460.222L1207.87 464.788L1201.59 463.637L1198.47 469.393L1204.86 482.854L1230.29 485.712C1230.61 485.593 1237.77 467.131 1237.77 467.131L1240.29 466.058L1237.13 454.265L1243.06 450.454L1233.38 443.187Z" fill="#F2F2F2"/>
    <path fill-rule="evenodd" clip-rule="evenodd" d="M1269.91 506.32L1268.27 507.482L1266.36 508.435L1265.2 508.763L1264.33 509.418L1262.75 510.728L1263.13 513.408L1266.46 512.127L1269.04 509.746L1278.43 505.545L1277.27 505.068L1269.91 506.32Z" fill="#F2F2F2"/>
    <path fill-rule="evenodd" clip-rule="evenodd" d="M1184.98 480.392L1187.13 483.093L1189.37 482.139L1186.27 477.852L1183.09 478.645L1184.98 480.392Z" fill="#F2F2F2"/>
    <path fill-rule="evenodd" clip-rule="evenodd" d="M1185.76 484.879L1180.08 476.423L1165.23 463.676L1150 451.049L1139.55 448.787L1141.23 453.313L1153.75 464.51L1162.39 477.97L1177.88 494.408L1184.47 494.646L1185.76 484.879Z" fill="#F2F2F2"/>
    <path fill-rule="evenodd" clip-rule="evenodd" d="M1274.64 485.793L1277.57 485.872L1277.22 483.886L1273.18 483.569L1274.64 485.793Z" fill="#F2F2F2"/>
    <path fill-rule="evenodd" clip-rule="evenodd" d="M1215.66 499.452L1216.6 500.484L1219.44 500.166L1221.04 499.292L1219.1 498.618L1215.66 499.452Z" fill="#F2F2F2"/>
    <path fill-rule="evenodd" clip-rule="evenodd" d="M1284.5 470.108L1283.34 468.619L1284.95 465.522L1281.34 467.251L1281.53 463.974L1281.46 462.603L1280.11 463.556L1279.66 467.546L1282.05 474.753L1281.4 470.108H1284.5Z" fill="#F2F2F2"/>
    <path fill-rule="evenodd" clip-rule="evenodd" d="M1257.46 490.598L1256.88 492.621L1257.91 492.741L1258.94 490.121L1257.46 490.598Z" fill="#F2F2F2"/>
    <path fill-rule="evenodd" clip-rule="evenodd" d="M1259.84 489.584L1258.3 493.934L1259.39 493.991L1260.36 491.312L1260.69 489.048L1259.84 489.584Z" fill="#F2F2F2"/>
    <path fill-rule="evenodd" clip-rule="evenodd" d="M1288.07 482.854L1282.3 483.014L1283.51 484.918L1288.93 484.68L1293.92 486.665L1292.89 483.808L1288.07 482.854Z" fill="#F2F2F2"/>
    <path fill-rule="evenodd" clip-rule="evenodd" d="M1262.17 466.773L1251.45 466.296L1245.65 469.87L1243.07 483.211L1245 487.023L1244.61 493.694L1248.36 493.575L1248.74 482.854L1250.42 482.02L1254.81 489.644L1259.2 488.096L1253.78 479.877L1259.07 475.229L1251.33 476.183L1247.58 472.014L1251.07 469.276L1262.17 469.511L1268.75 464.866L1262.17 466.773Z" fill="#F2F2F2"/>
    <path fill-rule="evenodd" clip-rule="evenodd" d="M1310.61 482.854L1308.03 474.752L1305.11 473.482L1298.57 473.802L1295.3 477.773L1305.28 480.47L1300.29 483.331L1308.89 487.462L1324.72 493.974L1327.31 503.185L1338.15 508.266V481.901L1323.69 478.09L1310.61 482.854Z" fill="#F2F2F2"/>
    <path fill-rule="evenodd" clip-rule="evenodd" d="M1295.02 503.342L1296.76 502.985L1297.99 500.959L1297.6 499.889L1295.02 503.342Z" fill="#F2F2F2"/>
    <path fill-rule="evenodd" clip-rule="evenodd" d="M1224.05 505.248L1225.98 506.839L1228.26 505.286L1227.96 504.376L1223.75 504.295L1224.05 505.248Z" fill="#F2F2F2"/>
    <path fill-rule="evenodd" clip-rule="evenodd" d="M1258.01 505.576L1254.39 505.725L1252.07 505.784L1249.26 504.563L1246.19 505.546L1246.16 506.767L1253 507.095L1258.78 506.231L1259.94 504.385L1259.04 504.742L1258.01 505.576Z" fill="#F2F2F2"/>
    <path fill-rule="evenodd" clip-rule="evenodd" d="M1215.61 500.96L1212.09 499.053L1203.31 499.213L1192.04 495.958L1185.67 495.164L1183.86 498.659L1195.83 502.31L1222.93 506.279L1222.33 502.945L1215.61 500.96Z" fill="#F2F2F2"/>
    <path fill-rule="evenodd" clip-rule="evenodd" d="M1238.42 504.414L1237.99 505.208L1238.24 505.964L1233.64 505.565L1233.39 507.83L1235.36 508.028L1239.71 506.716L1242.25 506.598L1241.95 505.011L1238.42 504.414Z" fill="#F2F2F2"/>
    <path fill-rule="evenodd" clip-rule="evenodd" d="M1230.29 504.693L1229.64 506.876L1231.79 507.471L1232.44 505.289L1231.49 504.533L1230.29 504.693Z" fill="#F2F2F2"/>
    <path fill-rule="evenodd" clip-rule="evenodd" d="M1243.26 509.328L1243.03 510.55L1246.55 511.086L1249.03 512.841L1250.39 511.384L1247.45 509.238L1243.26 509.328Z" fill="#F2F2F2"/>
    <path fill-rule="evenodd" clip-rule="evenodd" d="M1252.1 421.984L1253.13 420.316L1253 417.577L1248.87 416.862L1252.1 421.984Z" fill="#F2F2F2"/>
    <path fill-rule="evenodd" clip-rule="evenodd" d="M1261.26 416.028L1264.49 418.529L1262.17 415.075L1255.07 413.644L1253.13 409.596L1257.14 402.686V396.611L1250.94 395.302L1248.36 405.904L1246.94 406.855L1247.32 411.026L1249.91 412.098L1250.29 415.432L1254.42 414.837L1261.26 416.028Z" fill="#F2F2F2"/>
    <path fill-rule="evenodd" clip-rule="evenodd" d="M1275.08 443.903L1272.62 432.586L1265.4 438.424H1259.33L1254.81 443.188L1260.1 441.281L1264.62 442.353L1266.17 446.76L1270.56 447.714L1270.43 444.379L1272.11 442.353L1275.08 443.903Z" fill="#F2F2F2"/>
    <path fill-rule="evenodd" clip-rule="evenodd" d="M1260.81 422.639L1262.17 422.103L1264.36 422.58L1261.2 420.316L1260.81 422.639Z" fill="#F2F2F2"/>
    <path fill-rule="evenodd" clip-rule="evenodd" d="M1255.59 423.294L1255.33 429.013L1258.04 427.94L1260.49 424.962L1255.59 423.294Z" fill="#F2F2F2"/>
    <path fill-rule="evenodd" clip-rule="evenodd" d="M1267.52 428.297L1267.65 430.503L1269.59 429.608L1268.43 427.046L1267.98 425.32L1266.17 425.497L1267.52 428.297Z" fill="#F2F2F2"/>
    <path fill-rule="evenodd" clip-rule="evenodd" d="M1244.61 426.153L1235.58 437.47L1245.65 428.657L1244.61 426.153Z" fill="#F2F2F2"/>
    <path fill-rule="evenodd" clip-rule="evenodd" d="M1261.46 426.808L1259.39 430.619L1257.39 432.526L1260.81 434.552L1260.75 432.466L1261.97 428.358L1261.46 426.808Z" fill="#F2F2F2"/>
    <path fill-rule="evenodd" clip-rule="evenodd" d="M1261.57 432.308L1261.7 433.302L1263.5 430.401L1264.58 425.995L1263.85 426.989L1261.57 432.308Z" fill="#F2F2F2"/>
    <path fill-rule="evenodd" clip-rule="evenodd" d="M1271.59 425.915L1270.17 421.031L1266.43 420.913L1268.62 424.961L1271.59 425.915Z" fill="#F2F2F2"/>
    <path fill-rule="evenodd" clip-rule="evenodd" d="M1263.85 431.909L1265.18 432.703L1266.51 432.069L1266.64 431.076L1265.35 430.52L1263.85 431.909Z" fill="#F2F2F2"/>
    <path fill-rule="evenodd" clip-rule="evenodd" d="M772.763 219.956L774.054 220.396L775.301 220.276L775.606 219.602L772.938 218.925L772.763 219.956Z" fill="#F2F2F2"/>
    <path fill-rule="evenodd" clip-rule="evenodd" d="M770.742 219.401L771.3 219.64L772.073 218.211L770.742 219.401Z" fill="#F2F2F2"/>
    <path fill-rule="evenodd" clip-rule="evenodd" d="M767.557 216.683L769.233 218.11H771.172L771.494 216.325L768.655 215.609L767.557 216.683Z" fill="#F2F2F2"/>
    <path fill-rule="evenodd" clip-rule="evenodd" d="M779.432 213.168L775.237 213.466L772.847 215.075L776.335 219.363L779.432 213.168Z" fill="#F2F2F2"/>
    <path fill-rule="evenodd" clip-rule="evenodd" d="M820.521 196.808L822.845 197.999L823.577 197.482L824.607 197.522L824.523 196.889L823.142 196.055L820.521 196.808Z" fill="#F2F2F2"/>
    <path fill-rule="evenodd" clip-rule="evenodd" d="M821.769 201.533L825.898 199.707L824.695 198.993L822.801 198.796L819.833 199.626L820.822 201.653L820.649 202.607L821.769 201.533Z" fill="#F2F2F2"/>
    <path fill-rule="evenodd" clip-rule="evenodd" d="M847.389 265.58L840.742 257.004L833.321 259.624L825.898 258.194L824.155 258.73L820.735 256.051L822.371 251.445L828.912 242.869L826.845 236.514L826.5 223.809L835.902 222.34L840.032 215.193L846.875 212.752L843.647 205.307L845.261 202.21L843.883 197.919L846.722 193.553L835.366 192.76L826.845 195.38L828.049 200.065L830.891 200.542L830.351 203.459L830.804 206.557L829.383 208.104L826.609 208.045L822.349 204.174C822.349 204.174 818.734 205.664 818.541 205.723C818.348 205.783 816.282 209.355 816.282 209.355L816.412 213.169L816.992 217.099L823.705 219.006L822.371 221.586L811.011 220.633L805.505 221.904L804.128 219.361L786.919 224.444L779.519 221.745L771.086 222.697L766.437 220.158L767.042 215.788L771.108 211.859L770.074 210.071L770.205 204.292L762.137 207.925L760.201 213.404L762.482 219.521L763.17 223.651L755.252 227.622L750.39 227.283L745.613 229.842L740.193 237.348L743.743 238.362L739.225 238.659L735.547 240.387L731.76 241.599L730.211 246.84L723.415 250.889L716.359 248.665L717.821 253.906L703.451 255.02L705.514 259.225L713.261 261.055L719.198 267.565L719.024 276.144L716.961 282.812L691.748 281.621L686.413 283.37L685.554 289.562L684.521 303.859L685.21 311.956L692.266 312.433L695.707 314.18L699.665 318.151L714.638 314.657L722.726 306.399L724.101 299.888L735.977 291.945L738.214 287.737L741.226 282.099L750.951 284.163L757.618 280.588L762.651 277.85L768.849 279.874L778.271 291.428L790.532 298.1L793.631 302.029L794.791 305.367L792.855 308.701L795.567 309.058L799.309 303.579L797.115 300.841L798.277 298.338L804.473 300.006L804.6 298.338L793.631 291.905L794.791 290.478L787.046 288.451L783.305 282.019L778.787 278.804L778.142 272.252L783.777 270.426L784.767 271.536L783.562 273.045L784.853 275.19L787.09 273.205L789.24 275.03L790.789 278.841L794.922 282.179L801.032 284.957L801.718 285.434L804.86 287.061L805.123 287.636L805.821 287.696L808.719 290.416L809.506 291.509L809.204 297.98L811.7 301.236L816.54 307.331L822.994 307.688L824.995 308.701L824.092 309.415L818.672 308.045L816.605 309.833L819.51 314.478L824.93 315.849L823.897 311.74L825.964 311.978L824.995 310.131L825.898 309.356L829.579 310.488L828.61 308.104L823.187 305.486L825.188 303.102L822.607 298.1L824.284 297.206L826.802 299.589L828.027 298.279L828.61 296.375L834.546 295.123L837.838 296.016L840.42 292.619L838.999 291.309L842.098 289.583L846.292 289.882L844.678 287.498L848.938 281.065L850.486 275.765L852.809 275.288L853.778 273.264L847.002 272.609L847.389 265.58Z" fill="#F2F2F2"/>
    <path fill-rule="evenodd" clip-rule="evenodd" d="M760.759 295.519L761.018 301.791L762.137 304.731L766.525 303.301L766.868 297.187L765.491 294.088L760.759 295.519Z" fill="#F2F2F2"/>
    <path fill-rule="evenodd" clip-rule="evenodd" d="M779.863 308.781L779.087 310.607L790.103 315.213L790.275 311.877L792.34 308.304L786.143 309.097L779.863 308.781Z" fill="#F2F2F2"/>
    <path fill-rule="evenodd" clip-rule="evenodd" d="M765.406 284.798L761.791 287.895L764.115 292.74L766.095 289.086L765.406 284.798Z" fill="#F2F2F2"/>
    <path fill-rule="evenodd" clip-rule="evenodd" d="M637.193 147.413L632.029 151.701L627.642 145.269L620.155 150.748L627.385 151.462L625.061 156.704C625.833 156.943 639.259 168.14 639.259 168.14L655.265 163.852L664.814 153.608L654.231 144.318L637.193 147.413Z" fill="#F2F2F2"/>
    <path fill-rule="evenodd" clip-rule="evenodd" d="M703.622 220.156L708.27 219.839L711.712 224.287L703.451 236.197L709.646 238.263L701.214 245.251L730.299 239.85L731.331 230.799L725.135 227.145L718.768 219.203L712.227 212.531L715.497 204.59L708.097 204.274L711.194 198.555L700.525 200.619L700.696 213.328L703.622 220.156Z" fill="#F2F2F2"/>
    <path fill-rule="evenodd" clip-rule="evenodd" d="M697.771 223.65L700.009 220.793L697.946 217.455L694.674 217.615L690.199 216.978L685.726 221.743L682.111 223.65L683.489 227.781L681.595 232.862L680.388 237.469L696.912 233.499L697.771 223.65Z" fill="#F2F2F2"/>
    <path fill-rule="evenodd" clip-rule="evenodd" d="M755.597 202.367L770.053 193.155L773.151 195.379L774.528 196.649L780.55 212.373L783.991 216.344L788.983 213.01L794.147 211.74L797.588 199.35L807.055 190.773L800.343 185.374L801.203 174.572L818.241 161.867V153.768L828.739 149.48L834.935 153.291L817.379 171.874L817.897 185.691L825.296 190.773L845.948 186.485L861.953 171.874L851.8 140.901L854.551 134.706L849.391 131.849L854.381 124.225L859.636 120.29L856.447 116.126L824.093 118.03L792.255 132.325L764.89 165.836L746.474 176.639L747.852 198.08L755.597 202.367Z" fill="#F2F2F2"/>
    <path fill-rule="evenodd" clip-rule="evenodd" d="M813.645 307.763L813.11 308.234L813.788 308.571L814.954 308.838L814.2 307.29L813.645 307.763Z" fill="#F2F2F2"/>
    <path fill-rule="evenodd" clip-rule="evenodd" d="M810.096 301.035L810.875 302L811.846 302.539L810.994 301.327L811.116 300.81L810.17 300.745L810.096 301.035Z" fill="#F2F2F2"/>
    <path fill-rule="evenodd" clip-rule="evenodd" d="M814.009 305.835L814.155 306.574L814.711 306.06L814.64 305.386L814.009 305.835Z" fill="#F2F2F2"/>
    <path fill-rule="evenodd" clip-rule="evenodd" d="M838.42 310.906L837.805 311.353L838.646 311.233L839.163 310.906H838.42Z" fill="#F2F2F2"/>
    <path fill-rule="evenodd" clip-rule="evenodd" d="M833.868 299.826V300.54L834.448 300.452L834.933 300.601L835.224 299.647L833.868 299.826Z" fill="#F2F2F2"/>
    <path fill-rule="evenodd" clip-rule="evenodd" d="M837.171 303.422L838.421 304.652L840.311 304.175L839.15 302.825L837.171 303.422Z" fill="#F2F2F2"/>
    <path fill-rule="evenodd" clip-rule="evenodd" d="M837.773 308.543L838.375 306.875L837.299 306.677L837.773 308.543Z" fill="#F2F2F2"/>
    <path fill-rule="evenodd" clip-rule="evenodd" d="M840.419 310.399L841.356 310.667L842.26 310.607L841.709 310.161L840.419 310.399Z" fill="#F2F2F2"/>
    <path fill-rule="evenodd" clip-rule="evenodd" d="M842.532 320.296L842.751 321.192L843.09 320.968L843.042 319.466L842.532 320.296Z" fill="#F2F2F2"/>
    <path fill-rule="evenodd" clip-rule="evenodd" d="M825.985 304.612L824.694 305.168L828.48 307.469L830.931 309.179L829.727 306.597L827.061 305.645L825.985 304.612Z" fill="#F2F2F2"/>
    <path fill-rule="evenodd" clip-rule="evenodd" d="M845.776 317.358L845.389 318.748L846.766 318.271L847.411 316.961L847.11 316.565L845.776 317.358Z" fill="#F2F2F2"/>
    <path fill-rule="evenodd" clip-rule="evenodd" d="M827.513 320.435L827.255 321.806L832.546 323.412L838.289 323.173L838.935 321.985L835.127 321.746L827.513 320.435Z" fill="#F2F2F2"/>
    <path fill-rule="evenodd" clip-rule="evenodd" d="M832.594 310.252L833.261 310.653L833.388 310.384L833.177 309.876L832.415 309.445L832.594 310.252Z" fill="#F2F2F2"/>
    <path fill-rule="evenodd" clip-rule="evenodd" d="M835.548 297.415L835.967 297.743L836.389 297.505L835.871 297.146L835.548 297.415Z" fill="#F2F2F2"/>
    <path fill-rule="evenodd" clip-rule="evenodd" d="M831.32 296.252L831.451 296.85H832.093L832.48 296.372L831.87 295.925L831.32 296.252Z" fill="#F2F2F2"/>
    <path fill-rule="evenodd" clip-rule="evenodd" d="M824.574 317.604L824.865 317.875L824.994 317.455L824.574 316.92V317.604Z" fill="#F2F2F2"/>
    <path fill-rule="evenodd" clip-rule="evenodd" d="M814.495 310.05L815.005 310.789L815.807 310.479L814.761 309.758L814.495 310.05Z" fill="#F2F2F2"/>
    <path fill-rule="evenodd" clip-rule="evenodd" d="M835.061 313.765L835.514 314.239L836.03 313.732L835.416 313.197L835.061 313.765Z" fill="#F2F2F2"/>
    <path fill-rule="evenodd" clip-rule="evenodd" d="M831.415 305.455L831.9 305.306L831.288 304.621L831.415 305.455Z" fill="#F2F2F2"/>
    <path fill-rule="evenodd" clip-rule="evenodd" d="M735.29 301.496L736.193 302.268L738.387 302.509L739.547 301.139L737.869 300.066L735.29 301.496Z" fill="#F2F2F2"/>
    <path fill-rule="evenodd" clip-rule="evenodd" d="M782.486 220.276L782.184 222.183H783.302L784.293 222.02L783.991 221.229L783.864 220.276H782.486Z" fill="#F2F2F2"/>
    <path fill-rule="evenodd" clip-rule="evenodd" d="M804.021 204.65L803.633 206.915L803.955 208.521L806.667 205.961L807.377 203.279H805.635L804.021 204.65Z" fill="#F2F2F2"/>
    <path fill-rule="evenodd" clip-rule="evenodd" d="M918.058 428.774L912.701 424.843L910.378 424.249L913.283 421.804L912.205 419.961L903.688 412.415L896.719 408.204L892.63 398.043L884.756 380.889L865.739 347.692L865.913 345.628L873.655 354.84L876.537 347.535L873.483 339.672L866.859 340.309L860.75 338.402L851.282 341.736L834.074 338.085L814.669 333.597L810.151 343.96L793.242 340.029L790.661 335.266L774.914 331.573L768.46 327.521L772.59 321.208L770.268 317.04L772.851 314.42L767.557 312.156L761.749 314.301L731.674 316.087L715.5 322.757L705.689 322.123L701.385 319.262L696.05 328.158L684.865 334.83L682.113 345.311L669.376 353.887L667.482 355.715L659.653 368.5L655.908 372.072L650.488 383.866L653.544 391.371L652.681 404.235L651.651 409.08L648.163 411.461L652.423 416.266L651.778 418.214V421.231L654.919 423.255L659.092 427.106L667.011 434.969L668.816 440.328L691.597 453.788L701.344 450.931L711.476 450.87L715.671 451.884L729.524 446.88L732.278 445.849L736.236 445.689L745.787 446.643L750.262 452.995L761.965 452.361L766.955 457.759L767.557 462.365L766.266 467.25L763.169 474.278L772.72 486.783L776.722 491.671L777.753 494.606L778.616 495.322L783.304 521.21L775.646 542.017L787.177 564.092L789.929 581.883L796.039 591.333L796.926 590.71L796.041 591.333L804.041 605.785L802.323 609.835L810.067 618.253L834.161 615.552L852.831 605.864L865.481 591.016L867.806 583.074L867.977 577.356L879.507 571.796L876.237 552.659L901.73 531.334L900.762 513.824L895.211 502.51L895.083 490.161L905.407 477.85L930.448 456.649L946.452 431.632L947.616 423.175L918.058 428.774Z" fill="#F2F2F2"/>
    <path fill-rule="evenodd" clip-rule="evenodd" d="M926.663 534.949L916.855 537.807L916.167 556.073L913.584 564.332L916.51 575.927L929.589 574.18L941.98 537.967L939.571 520.179L926.663 534.949Z" fill="#F2F2F2"/>
    </svg>
    