<svg width="214" height="113" viewBox="0 0 214 113" fill="none" xmlns="http://www.w3.org/2000/svg">
<g clip-path="url(#clip0_1533_5441)">
<path d="M4.62905 4.41966H209.369V108.58H4.62905V4.41966ZM-0.000976562 0V113H213.999V0H-0.000976562Z" fill="#080821" fill-opacity="0.9"/>
<path d="M72.7039 20.7047H71.0371V95.5868H72.7039V20.7047Z" fill="#080821" fill-opacity="0.9"/>
<path d="M83.4331 37.9852H86.8064V21.3418H84.6237L79.5703 23.837V27.2214L83.4331 25.2969V37.9852Z" fill="#080821" fill-opacity="0.9"/>
<path d="M95.8279 24.1688C98.0371 24.1688 98.9896 26.571 98.9896 29.6635C98.9896 32.7559 98.0371 35.1582 95.8279 35.1582C93.6187 35.1582 92.6663 32.7559 92.6663 29.6635C92.6663 26.571 93.5923 24.1688 95.8279 24.1688ZM95.8279 38.2639C99.7172 38.2639 102.363 34.7335 102.363 29.6768C102.363 24.62 99.7172 21.0896 95.8279 21.0896C91.9387 21.0896 89.293 24.62 89.293 29.6768C89.293 34.7335 91.9387 38.2639 95.8279 38.2639Z" fill="#080821" fill-opacity="0.9"/>
<path d="M110.632 24.1688C112.841 24.1688 113.793 26.571 113.793 29.6635C113.793 32.7559 112.841 35.1582 110.632 35.1582C108.422 35.1582 107.47 32.7559 107.47 29.6635C107.47 26.571 108.396 24.1688 110.632 24.1688ZM110.632 38.2639C114.521 38.2639 117.167 34.7335 117.167 29.6768C117.167 24.62 114.521 21.0896 110.632 21.0896C106.742 21.0896 104.097 24.62 104.097 29.6768C104.097 34.7335 106.742 38.2639 110.632 38.2639Z" fill="#080821" fill-opacity="0.9"/>
<path d="M125.446 24.1688C127.655 24.1688 128.608 26.571 128.608 29.6635C128.608 32.7559 127.655 35.1582 125.446 35.1582C123.237 35.1582 122.284 32.7559 122.284 29.6635C122.284 26.571 123.21 24.1688 125.446 24.1688ZM125.446 38.2639C129.335 38.2639 131.981 34.7335 131.981 29.6768C131.981 24.62 129.335 21.0896 125.446 21.0896C121.557 21.0896 118.911 24.62 118.911 29.6768C118.911 34.7335 121.557 38.2639 125.446 38.2639Z" fill="#080821" fill-opacity="0.9"/>
<path d="M85.9202 47.7934V46.1874H79.9541V54.9869H85.9202V53.3677H81.7532V51.2707H85.5234V49.7179H81.7532V47.7934H85.9202Z" fill="#080821" fill-opacity="0.9"/>
<path d="M89.3724 55.1329C90.1132 55.1329 90.7217 54.8011 91.0921 54.4029V54.9869H92.8647V48.5764H91.0789V52.651C90.9466 53.2217 90.4836 53.5402 89.9412 53.5402C89.2401 53.5402 88.9094 53.089 88.9094 52.4121V48.5764H87.1367V52.7704C87.1367 54.1906 87.9569 55.1329 89.3856 55.1329" fill="#080821" fill-opacity="0.9"/>
<path d="M94.3994 48.5764V54.9869H96.172V51.0053C96.3043 50.4213 96.7938 50.1028 97.3891 50.1028C97.7198 50.1028 98.0373 50.1691 98.2754 50.3151V48.5366C98.1696 48.4703 97.905 48.4172 97.6007 48.4172C96.9658 48.4172 96.4366 48.7357 96.172 49.187V48.5632H94.3994V48.5764Z" fill="#080821" fill-opacity="0.9"/>
<path d="M103.368 51.8016C103.368 52.8634 102.879 53.6332 101.993 53.6332C101.106 53.6332 100.617 52.8634 100.617 51.8016C100.617 50.7398 101.106 49.9435 101.993 49.9435C102.879 49.9435 103.368 50.7266 103.368 51.8016ZM98.8574 51.8016C98.8574 53.7659 100.141 55.1462 101.993 55.1462C103.845 55.1462 105.128 53.7659 105.128 51.8016C105.128 49.8373 103.845 48.4437 101.993 48.4437C100.141 48.4437 98.8574 49.824 98.8574 51.8016Z" fill="#080821" fill-opacity="0.9"/>
<path d="M109.229 53.5934C108.713 53.5934 108.237 53.2881 108.026 52.8501V50.7398C108.237 50.3151 108.7 49.9966 109.229 49.9966C110.195 49.9966 110.751 50.7796 110.751 51.8016C110.751 52.8236 110.182 53.5934 109.229 53.5934ZM112.55 51.8016C112.55 49.9966 111.491 48.4437 109.626 48.4437C108.938 48.4437 108.317 48.7755 108.026 49.1206V48.5897H106.253V57.3627H108.026V54.4693C108.317 54.8144 108.938 55.1462 109.626 55.1462C111.491 55.1462 112.55 53.6066 112.55 51.8016Z" fill="#080821" fill-opacity="0.9"/>
<path d="M117.51 51.0318H115.089C115.287 50.2355 115.79 49.8639 116.372 49.8639C117.073 49.8639 117.457 50.3549 117.497 51.0318M113.316 51.8414C113.316 53.8721 114.652 55.1462 116.597 55.1462C117.457 55.1462 118.171 54.9737 118.7 54.5888V53.1156C118.079 53.5137 117.576 53.673 116.875 53.673C115.936 53.673 115.168 53.2483 115.036 52.1998H119.15V51.6291C119.15 49.7311 118.185 48.4437 116.333 48.4437C114.586 48.4437 113.33 49.8373 113.33 51.8414" fill="#080821" fill-opacity="0.9"/>
<path d="M120.855 49.7444L121.649 48.5499C121.9 48.165 122.125 47.6872 122.125 47.2625C122.125 46.4794 121.609 46.0414 121.001 46.0414C120.392 46.0414 119.89 46.506 119.89 47.1298C119.89 47.7005 120.273 48.0721 120.763 48.165L119.744 49.7444H120.869H120.855Z" fill="#080821" fill-opacity="0.9"/>
<path d="M124.534 53.7261C123.833 53.7261 122.947 53.3943 122.325 52.8368V54.4826C122.867 54.9073 123.74 55.1329 124.587 55.1329C126.095 55.1329 127.219 54.4428 127.219 53.1554C127.219 52.1201 126.651 51.5494 125.447 51.2044L124.732 50.992C124.296 50.846 124.044 50.7398 124.044 50.3947C124.044 50.0364 124.415 49.8506 124.904 49.8506C125.632 49.8506 126.293 50.1824 126.862 50.6337V49.0144C126.293 48.6428 125.632 48.4437 124.812 48.4437C123.383 48.4437 122.312 49.2002 122.312 50.4611C122.312 51.5627 123.013 52.0936 124.124 52.3989L124.746 52.5714C125.182 52.7174 125.473 52.8501 125.473 53.2085C125.473 53.5934 125.063 53.7526 124.534 53.7526" fill="#080821" fill-opacity="0.9"/>
<path d="M137.075 47.1829V46.1874H131.718V55.0002H132.842V51.1645H136.824V50.1558H132.842V47.1829H137.075Z" fill="#080821" fill-opacity="0.9"/>
<path d="M141.81 53.4076C141.638 53.8854 141.003 54.2039 140.342 54.2039C139.561 54.2039 138.82 53.8456 138.82 53.0758C138.82 52.306 139.561 51.9742 140.342 51.9742C141.016 51.9742 141.638 52.2794 141.81 52.7572V53.4209V53.4076ZM140.461 48.4836C139.667 48.4836 138.913 48.7225 138.49 49.0145V50.0364C139.019 49.6914 139.588 49.479 140.289 49.479C141.215 49.479 141.81 49.9701 141.81 50.7531V51.5893C141.545 51.3504 140.884 51.0717 140.223 51.0717C138.86 51.0717 137.802 51.8813 137.802 53.0625C137.802 54.3234 138.86 55.0932 140.156 55.0932C140.897 55.0932 141.559 54.7614 141.797 54.5092V54.987H142.842V50.6735C142.842 49.3197 141.956 48.4969 140.447 48.4969" fill="#080821" fill-opacity="0.9"/>
<path d="M148.781 53.2748C148.781 52.3723 148.252 51.8149 147.3 51.4831L146.321 51.1513C145.712 50.9389 145.382 50.7664 145.382 50.2487C145.382 49.7311 145.924 49.4126 146.585 49.4126C147.353 49.4126 147.948 49.7311 148.477 50.1824V49.0675C147.961 48.7092 147.313 48.5101 146.585 48.5101C145.329 48.5101 144.336 49.187 144.336 50.3018C144.336 51.3371 144.985 51.8016 145.937 52.1069L146.81 52.4121C147.366 52.5979 147.723 52.8501 147.723 53.3279C147.723 53.9517 147.101 54.2171 146.413 54.2171C145.633 54.2171 144.905 53.8986 144.323 53.3544V54.5091C144.799 54.8808 145.58 55.1329 146.413 55.1329C147.749 55.1329 148.781 54.456 148.781 53.2881" fill="#080821" fill-opacity="0.9"/>
<path d="M152.037 46.944H150.965V48.6163H149.643V49.5453H150.965V55.0002H152.037V49.5453H153.519V48.6163H152.037V46.944Z" fill="#080821" fill-opacity="0.9"/>
<path d="M155.356 51.1513C155.555 49.97 156.243 49.4126 157.089 49.4126C158.121 49.4126 158.584 50.2089 158.637 51.1513H155.356ZM157.076 48.4968C155.383 48.4968 154.245 49.8904 154.245 51.868C154.245 53.8455 155.475 55.133 157.301 55.133C158.055 55.133 158.716 54.9737 159.232 54.5755V53.5934C158.663 54.0181 158.148 54.1906 157.433 54.1906C156.269 54.1906 155.343 53.4872 155.303 52.014H159.682V51.6291C159.682 49.7577 158.796 48.5101 157.076 48.5101" fill="#080821" fill-opacity="0.9"/>
<path d="M165.291 53.2748C165.291 52.3723 164.762 51.8149 163.796 51.4831L162.831 51.1513C162.235 50.9389 161.891 50.7664 161.891 50.2487C161.891 49.7311 162.434 49.4126 163.095 49.4126C163.862 49.4126 164.444 49.7311 164.987 50.1824V49.0675C164.471 48.7092 163.809 48.5101 163.095 48.5101C161.838 48.5101 160.846 49.187 160.846 50.3018C160.846 51.3371 161.494 51.8016 162.447 52.1069L163.32 52.4121C163.876 52.5979 164.233 52.8501 164.233 53.3279C164.233 53.9517 163.624 54.2171 162.923 54.2171C162.143 54.2171 161.415 53.8986 160.833 53.3544V54.5091C161.309 54.8808 162.09 55.1329 162.923 55.1329C164.259 55.1329 165.304 54.456 165.304 53.2881" fill="#080821" fill-opacity="0.9"/>
<path d="M168.545 55.0002V49.5453H170.027V48.6163H168.545V46.944H167.474V48.6163H166.138V49.5453H167.474V55.0002H168.545Z" fill="#080821" fill-opacity="0.9"/>
<path d="M83.7372 72.1347C84.8219 72.1347 85.986 71.8029 86.8194 70.8739V67.4364H83.843V68.3787H85.7744V70.4624C85.2055 70.9402 84.5573 71.1393 83.7504 71.1393C81.9248 71.1393 80.7475 69.7325 80.7475 67.6089C80.7475 65.4853 82.0307 64.0918 83.8562 64.0918C84.8219 64.0918 85.6421 64.397 86.3829 65.0739V63.8661C85.7744 63.3751 84.8881 63.0831 83.8562 63.0831C81.4354 63.0831 79.623 64.8748 79.623 67.6222C79.623 70.3695 81.2899 72.1613 83.7239 72.1613" fill="#080821" fill-opacity="0.9"/>
<path d="M89.6243 66.4675V65.6313H88.5527V72.002H89.6243V67.7283C89.8359 66.9851 90.418 66.5338 91.0926 66.5338C91.3572 66.5338 91.635 66.5869 91.807 66.7064V65.6048C91.6879 65.5384 91.463 65.4986 91.1852 65.4986C90.4841 65.4986 89.8888 65.9233 89.611 66.4675" fill="#080821" fill-opacity="0.9"/>
<path d="M95.405 66.4542C96.5559 66.4542 97.2438 67.4231 97.2438 68.8167C97.2438 70.2102 96.5559 71.1791 95.405 71.1791C94.2541 71.1791 93.5794 70.2102 93.5794 68.8167C93.5794 67.4231 94.2673 66.4542 95.405 66.4542ZM92.4814 68.8167C92.4814 70.7677 93.6588 72.1347 95.405 72.1347C97.1512 72.1347 98.3285 70.781 98.3285 68.8167C98.3285 66.8524 97.1379 65.4986 95.405 65.4986C93.672 65.4986 92.4814 66.8656 92.4814 68.8167Z" fill="#080821" fill-opacity="0.9"/>
<path d="M106.531 65.6313L105.129 70.5023L103.832 65.6313H102.866L101.57 70.5023L100.168 65.6313H99.083L100.961 72.002H102.007L103.343 67.1709L104.652 72.002H105.697L107.576 65.6313H106.531Z" fill="#080821" fill-opacity="0.9"/>
<path d="M109.864 65.6313H108.792V72.002H109.864V65.6313Z" fill="#080821" fill-opacity="0.9"/>
<path d="M109.321 63.0167C108.95 63.0167 108.633 63.3219 108.633 63.7068C108.633 64.0784 108.95 64.397 109.321 64.397C109.691 64.397 110.022 64.0784 110.022 63.7068C110.022 63.3219 109.704 63.0167 109.321 63.0167Z" fill="#080821" fill-opacity="0.9"/>
<path d="M116.954 72.002V67.8212C116.954 66.4277 116.16 65.4986 114.719 65.4986C113.912 65.4986 113.224 65.9233 112.84 66.4277V65.618H111.769V71.9887H112.84V67.6753C113.065 66.9851 113.713 66.4807 114.454 66.4807C115.406 66.4807 115.856 67.1045 115.856 67.9805V71.9887H116.941L116.954 72.002Z" fill="#080821" fill-opacity="0.9"/>
<path d="M121.307 71.0332C120.103 71.0332 119.402 70.0643 119.402 68.7503C119.402 67.4364 120.103 66.4542 121.307 66.4542C121.994 66.4542 122.59 66.8391 122.92 67.4496V70.051C122.59 70.6483 121.994 71.0332 121.307 71.0332ZM120.91 73.608C120.169 73.608 119.494 73.4089 118.859 72.8116V74.0061C119.349 74.3512 120.089 74.5768 120.91 74.5768C122.431 74.5768 124.018 73.7142 124.018 71.4844V65.6181H122.934V66.3348C122.616 65.8835 121.942 65.4854 121.161 65.4854C119.296 65.4854 118.33 67.0249 118.33 68.7371C118.33 70.4492 119.296 72.002 121.161 72.002C121.942 72.002 122.616 71.5773 122.934 71.1393V71.5508C122.934 72.9045 122.047 73.5947 120.923 73.5947" fill="#080821" fill-opacity="0.9"/>
<path d="M128.648 67.5956C128.648 70.343 130.421 72.1347 132.763 72.1347C133.781 72.1347 134.548 71.8427 135.117 71.3782V70.1837C134.403 70.834 133.675 71.126 132.776 71.126C131.003 71.126 129.773 69.7324 129.773 67.6089C129.773 65.4853 131.003 64.0917 132.776 64.0917C133.675 64.0917 134.403 64.3704 135.117 65.0208V63.8263C134.548 63.3485 133.768 63.0698 132.763 63.0698C130.421 63.0698 128.648 64.8482 128.648 67.6089" fill="#080821" fill-opacity="0.9"/>
<path d="M139.257 71.1791C138.119 71.1791 137.418 70.197 137.418 68.8167C137.418 67.4363 138.106 66.4542 139.257 66.4542C140.407 66.4542 141.095 67.4363 141.095 68.8167C141.095 70.197 140.407 71.1791 139.257 71.1791ZM139.257 65.4986C137.51 65.4986 136.333 66.8656 136.333 68.8167C136.333 70.7677 137.497 72.1347 139.257 72.1347C141.016 72.1347 142.18 70.7677 142.18 68.8167C142.18 66.8656 140.989 65.4986 139.257 65.4986Z" fill="#080821" fill-opacity="0.9"/>
<path d="M150.065 65.4986C149.179 65.4986 148.544 65.9499 148.134 66.5206C147.83 65.9233 147.221 65.4986 146.414 65.4986C145.607 65.4986 145.012 65.8702 144.695 66.3746V65.6313H143.623V72.002H144.695V67.6089C144.893 66.9187 145.449 66.4807 146.097 66.4807C146.917 66.4807 147.301 67.0647 147.301 67.954V72.002H148.372V67.6089C148.571 66.9187 149.126 66.4807 149.774 66.4807C150.595 66.4807 150.978 67.0647 150.978 67.954V72.002H152.063V67.7814C152.063 66.4011 151.349 65.4986 150.052 65.4986" fill="#080821" fill-opacity="0.9"/>
<path d="M156.587 71.1526C155.913 71.1526 155.291 70.7677 154.96 70.1041V67.516C155.291 66.8656 155.926 66.4807 156.587 66.4807C157.804 66.4807 158.519 67.4629 158.519 68.8167C158.519 70.1704 157.804 71.1526 156.587 71.1526ZM156.746 65.4986C155.952 65.4986 155.291 65.91 154.96 66.3746V65.6313H153.889V74.4441H154.96V71.2588C155.291 71.7233 155.966 72.1347 156.746 72.1347C158.611 72.1347 159.603 70.5819 159.603 68.8167C159.603 67.0515 158.611 65.4986 156.746 65.4986Z" fill="#080821" fill-opacity="0.9"/>
<path d="M164.604 70.4226C164.432 70.9004 163.797 71.2189 163.136 71.2189C162.355 71.2189 161.614 70.8606 161.614 70.0908C161.614 69.321 162.355 68.9892 163.136 68.9892C163.81 68.9892 164.432 69.2945 164.604 69.7723V70.4359V70.4226ZM163.255 65.4986C162.461 65.4986 161.707 65.7375 161.284 66.0295V67.0515C161.813 66.7064 162.382 66.494 163.083 66.494C164.009 66.494 164.604 66.9851 164.604 67.7682V68.6043C164.339 68.3654 163.678 68.0867 163.017 68.0867C161.654 68.0867 160.596 68.8963 160.596 70.0775C160.596 71.3384 161.654 72.1082 162.95 72.1082C163.691 72.1082 164.353 71.7764 164.591 71.5242V72.002H165.636V67.6885C165.636 66.3348 164.75 65.5119 163.241 65.5119" fill="#080821" fill-opacity="0.9"/>
<path d="M170.425 65.4986C169.618 65.4986 168.93 65.9233 168.56 66.4277V65.6313H167.488V72.002H168.56V67.6753C168.785 66.9851 169.433 66.4807 170.174 66.4807C171.139 66.4807 171.576 67.1045 171.576 67.9938V72.002H172.661V67.8212C172.661 66.4277 171.88 65.4986 170.425 65.4986Z" fill="#080821" fill-opacity="0.9"/>
<path d="M175 63.0167C174.63 63.0167 174.312 63.3219 174.312 63.7068C174.312 64.0784 174.63 64.397 175 64.397C175.371 64.397 175.702 64.0784 175.702 63.7068C175.702 63.3219 175.384 63.0167 175 63.0167Z" fill="#080821" fill-opacity="0.9"/>
<path d="M175.543 65.6313H174.472V72.002H175.543V65.6313Z" fill="#080821" fill-opacity="0.9"/>
<path d="M178.11 68.153C178.309 66.9718 178.997 66.4144 179.843 66.4144C180.875 66.4144 181.338 67.2107 181.378 68.153H178.11ZM179.83 65.4986C178.137 65.4986 176.999 66.8922 176.999 68.8698C176.999 70.8473 178.229 72.1215 180.055 72.1215C180.809 72.1215 181.47 71.9622 181.986 71.564V70.5819C181.417 71.0066 180.901 71.1791 180.187 71.1791C179.023 71.1791 178.097 70.4757 178.057 69.0025H182.436V68.6176C182.436 66.7462 181.55 65.4986 179.83 65.4986Z" fill="#080821" fill-opacity="0.9"/>
<path d="M186.55 68.4848L185.584 68.153C184.989 67.9407 184.632 67.7681 184.632 67.2505C184.632 66.7329 185.174 66.4276 185.835 66.4276C186.603 66.4276 187.185 66.7329 187.727 67.1841V66.0693C187.211 65.7109 186.55 65.5118 185.835 65.5118C184.579 65.5118 183.586 66.1887 183.586 67.3036C183.586 68.3388 184.235 68.8034 185.187 69.1086L186.06 69.4139C186.616 69.5997 186.973 69.8519 186.973 70.3297C186.973 70.9667 186.364 71.2189 185.663 71.2189C184.883 71.2189 184.155 70.9004 183.573 70.3562V71.4976C184.049 71.8693 184.83 72.1347 185.663 72.1347C186.999 72.1347 188.045 71.4578 188.045 70.2766C188.045 69.3741 187.515 68.8166 186.55 68.4848Z" fill="#080821" fill-opacity="0.9"/>
<path d="M87.5325 91.844C89.12 89.7071 90.5355 87.7296 90.5355 85.5264C90.5355 82.5136 88.485 80.5891 85.2704 80.5891C83.1406 80.5891 81.1828 81.4651 80.0054 82.5667V85.9644C81.1034 84.9291 82.8364 83.7877 84.6487 83.7877C86.2097 83.7877 87.0431 84.6504 87.0431 85.9644C87.0431 87.703 85.9319 89.0568 84.3974 91.0609L79.5557 97.4051V97.5112H90.9059V94.4984H85.4953L87.5193 91.844H87.5325Z" fill="#080821" fill-opacity="0.9"/>
<path d="M98.9891 94.6976C96.7402 94.6976 95.8274 92.2953 95.8274 89.2028C95.8274 86.1104 96.7534 83.6949 98.9891 83.6949C101.225 83.6949 102.151 86.1104 102.151 89.2028C102.151 92.2953 101.198 94.6976 98.9891 94.6976ZM98.9891 80.6024C95.0998 80.6024 92.4541 84.1196 92.4541 89.1896C92.4541 94.2596 95.0998 97.7767 98.9891 97.7767C102.878 97.7767 105.524 94.2463 105.524 89.1896C105.524 84.1328 102.878 80.6024 98.9891 80.6024Z" fill="#080821" fill-opacity="0.9"/>
<path d="M26.5102 91.061C26.5102 90.769 26.7218 90.6097 27.0261 90.6097C27.4097 90.6097 27.6214 90.8619 27.7008 91.3264L28.7061 91.1539C28.5342 90.2646 27.8992 89.6276 26.96 89.6276C26.0207 89.6276 25.3593 90.2514 25.3593 91.1672C25.3593 92.7333 27.5949 93.1049 27.5949 94.1003C27.5949 94.4189 27.37 94.6047 27.0658 94.6047C26.5234 94.6047 26.3514 94.1799 26.2853 93.7021L25.2402 93.9941C25.4254 94.9896 26.0207 95.5868 27.0526 95.5868C28.0183 95.5868 28.7194 95.0692 28.7194 94.0472C28.7194 92.3484 26.4837 91.9768 26.4837 91.0875" fill="#080821" fill-opacity="0.9"/>
<path d="M31.061 88.1809H29.8704V89.7205H29.209V90.7026H29.8704V94.2728C29.8704 95.1488 30.3731 95.5602 31.2594 95.5602C31.5637 95.5602 31.696 95.5337 31.8547 95.4939V94.4719H31.4579C31.1801 94.4719 31.0478 94.2994 31.0478 93.9941V90.6893H31.8415V89.7072H31.0478V88.1676L31.061 88.1809Z" fill="#080821" fill-opacity="0.9"/>
<path d="M34.9633 94.0605C34.7649 94.3525 34.5003 94.5914 34.1696 94.5914C33.8124 94.5914 33.614 94.4454 33.614 94.0738C33.614 93.5694 33.8785 93.1713 34.9633 92.5607V94.0605ZM36.1539 91.1804C36.1539 90.1452 35.5321 89.6276 34.4209 89.6276C33.3097 89.6276 32.5689 90.2514 32.5028 91.4193H33.6933C33.7198 90.9282 33.8389 90.6097 34.368 90.6097C34.7649 90.6097 34.9501 90.8619 34.9501 91.353V91.698C33.2436 92.3484 32.4102 93.0385 32.4102 94.2994C32.4102 95.0426 32.8202 95.5868 33.614 95.5868C34.1828 95.5868 34.5532 95.3877 35.003 95.0294C35.003 95.1621 35.0559 95.3214 35.0691 95.4806H36.2068C36.1671 95.2815 36.1274 95.0559 36.1274 94.8701V91.1937L36.1539 91.1804Z" fill="#080821" fill-opacity="0.9"/>
<path d="M38.7456 88.1809H37.555V89.7205H36.8936V90.7026H37.555V94.2728C37.555 95.1488 38.0577 95.5602 38.9572 95.5602C39.2483 95.5602 39.3938 95.5337 39.5525 95.4939V94.4719H39.1557C38.8779 94.4719 38.7456 94.2994 38.7456 93.9941V90.6893H39.5393V89.7072H38.7456V88.1676V88.1809Z" fill="#080821" fill-opacity="0.9"/>
<path d="M41.5246 89.7338H40.334V95.4807H41.5246V89.7338Z" fill="#080821" fill-opacity="0.9"/>
<path d="M41.5246 88.1676H40.334V89.2559H41.5246V88.1676Z" fill="#080821" fill-opacity="0.9"/>
<path d="M43.641 91.061C43.641 90.769 43.8527 90.6097 44.157 90.6097C44.5406 90.6097 44.7523 90.8619 44.8316 91.3264L45.837 91.1539C45.665 90.2646 45.0301 89.6276 44.0908 89.6276C43.1516 89.6276 42.4902 90.2514 42.4902 91.1672C42.4902 92.7333 44.7258 93.1049 44.7258 94.1003C44.7258 94.4189 44.5009 94.6047 44.1966 94.6047C43.6543 94.6047 43.4823 94.1799 43.4162 93.7021L42.3711 93.9941C42.5563 94.9896 43.1516 95.5868 44.1834 95.5868C45.1491 95.5868 45.8502 95.0692 45.8502 94.0472C45.8502 92.3484 43.6146 91.9768 43.6146 91.0875" fill="#080821" fill-opacity="0.9"/>
<path d="M48.1919 88.1809H47.0013V89.7205H46.3398V90.7026H47.0013V94.2728C47.0013 95.1488 47.504 95.5602 48.3903 95.5602C48.6945 95.5602 48.8268 95.5337 48.9856 95.4939V94.4719H48.5887C48.3109 94.4719 48.1786 94.2994 48.1786 93.9941V90.6893H48.9723V89.7072H48.1786V88.1676L48.1919 88.1809Z" fill="#080821" fill-opacity="0.9"/>
<path d="M52.0941 94.0605C51.8957 94.3525 51.6311 94.5914 51.3004 94.5914C50.9433 94.5914 50.7448 94.4454 50.7448 94.0738C50.7448 93.5694 51.0094 93.1713 52.0941 92.5607V94.0605ZM53.2847 91.1804C53.2847 90.1452 52.663 89.6276 51.5518 89.6276C50.4406 89.6276 49.6998 90.2514 49.6336 91.4193H50.8242C50.8506 90.9282 50.9697 90.6097 51.4989 90.6097C51.8957 90.6097 52.0809 90.8619 52.0809 91.353V91.698C50.3744 92.3484 49.541 93.0385 49.541 94.2994C49.541 95.0426 49.9379 95.5868 50.7448 95.5868C51.3137 95.5868 51.6841 95.3877 52.1338 95.0294C52.1338 95.1621 52.1867 95.3214 52.2 95.4806H53.3376C53.298 95.2815 53.2583 95.0559 53.2583 94.8701V91.1937L53.2847 91.1804Z" fill="#080821" fill-opacity="0.9"/>
<path d="M61.3276 90.9018C60.7323 91.207 60.2958 91.8441 60.2958 91.8441C60.19 92.0034 60.0577 92.1892 60.018 92.2423C59.9783 92.2954 59.9386 92.3484 59.9254 92.3617C59.9254 92.375 59.8725 92.4413 59.846 92.4812C59.8196 92.521 59.7005 92.6802 59.5947 92.8395C59.5947 92.8395 58.9332 93.8084 57.9808 94.3127C57.0019 94.8171 55.7054 94.7905 55.5996 94.7905V95.3214C55.5996 95.4674 55.7187 95.5736 55.851 95.5736H62.7034C62.8489 95.5736 62.9547 95.4542 62.9547 95.3214V90.623C62.9547 90.623 62.9151 90.623 62.8886 90.623C62.8886 90.623 61.7774 90.6496 61.3012 90.8885" fill="#080821" fill-opacity="0.9"/>
<path d="M55.851 88.1809C55.7054 88.1809 55.5996 88.3004 55.5996 88.4331V93.1182H55.6393C55.6393 93.1182 56.7505 93.0916 57.2267 92.8527C57.8088 92.5475 58.2586 91.9104 58.2586 91.9104C58.3644 91.7511 58.4967 91.5653 58.5364 91.5122C58.5761 91.4591 58.6157 91.4061 58.6157 91.3928C58.6157 91.3795 58.6687 91.3132 58.6951 91.2733C58.7216 91.2335 58.8274 91.0743 58.9465 90.915C58.9465 90.915 59.6211 89.9461 60.5604 89.455C61.5922 88.9242 62.9547 88.9772 62.9547 88.9772C62.9547 88.9772 62.968 88.9772 62.9812 88.9772V88.4463C62.9812 88.3004 62.8621 88.1942 62.7299 88.1942H55.8642L55.851 88.1809Z" fill="#080821" fill-opacity="0.9"/>
<path d="M59.542 30.8714H58.8541C58.497 27.2613 57.7826 26.6508 54.568 26.6508H53.6817V40.3743C53.6817 41.675 54.1844 41.8741 56.2613 41.8741V42.6306H47.9934V41.8741C50.0703 41.8741 50.5994 41.675 50.5994 40.3743V26.6508H49.7131C46.5118 26.6508 45.7842 27.2613 45.427 30.8714H44.7392V25.6819C45.1757 25.7615 45.6784 25.8279 47.0939 25.8279H57.2138C58.616 25.8279 59.1187 25.7748 59.5553 25.6819V30.8714H59.542ZM42.8739 30.8714H42.186C41.8288 27.2613 41.1145 26.6508 37.8999 26.6508H35.36V33.5258H37.384C39.5667 33.5258 39.6726 33.1675 39.8446 31.4421H40.4795V36.459H39.8446C39.6726 34.7468 39.5667 34.4018 37.384 34.4018H35.36V40.361C35.36 41.5821 35.6908 41.8608 37.9264 41.8608V42.6173H30.0421V41.8608C31.6692 41.8608 32.2513 41.7811 32.2513 40.4539V27.9647C32.2513 26.6375 31.6692 26.5579 30.0421 26.5579V25.8013H40.5192C41.9347 25.8013 42.4241 25.7483 42.8739 25.6554V30.8448V30.8714ZM62.664 20.6915H25.8486V57.6415H62.6772V20.6915H62.664Z" fill="#080821" fill-opacity="0.9"/>
<path d="M27.9512 64.6625C27.3294 64.6625 27.2368 64.5828 27.2368 64.251V62.592H27.8718C28.4803 62.592 28.52 62.6849 28.5597 63.1627H28.7185V61.7691H28.5597C28.5068 62.2469 28.4803 62.3531 27.8718 62.3531H27.2368V60.4419H28.0173C28.9037 60.4419 29.1418 60.5215 29.2344 61.4904H29.4063L29.3799 60.1765C29.2608 60.203 29.1153 60.2163 28.7317 60.2163H25.7949V60.4154C26.2182 60.4154 26.3638 60.4552 26.3638 60.8268V64.2643C26.3638 64.6359 26.2182 64.6757 25.7949 64.6757V64.8881H27.938V64.6757L27.9512 64.6625Z" fill="#080821" fill-opacity="0.9"/>
<path d="M29.8574 64.6624V64.8748H31.8549V64.6624C31.4316 64.6624 31.2861 64.6226 31.2861 64.251V60.8135C31.2861 60.4418 31.4316 60.402 31.8549 60.402V60.2029H29.8574V60.402C30.2807 60.402 30.4263 60.4418 30.4263 60.8135V64.251C30.4263 64.6226 30.2807 64.6624 29.8574 64.6624Z" fill="#080821" fill-opacity="0.9"/>
<path d="M36.3638 64.9544H36.4431V60.8533C36.4431 60.4816 36.6812 60.4285 37.1178 60.4285V60.2162H35.4378V60.4285C35.8743 60.4285 36.1389 60.4816 36.1389 60.8533V63.3617L33.7048 60.2162H32.21V60.4285C32.5407 60.4285 32.6862 60.4418 32.8979 60.6542V64.251C32.8979 64.6226 32.6597 64.6889 32.21 64.6889V64.888H33.9032V64.6889C33.4667 64.6889 33.2021 64.6358 33.2021 64.251V61.0125L36.377 64.9677L36.3638 64.9544Z" fill="#080821" fill-opacity="0.9"/>
<path d="M39.1828 61.1055L39.8443 62.7645H38.5875L39.196 61.1055H39.1828ZM39.9501 63.03L40.4395 64.2776C40.5851 64.6359 40.5321 64.689 39.9236 64.689V64.8881H41.8682V64.689C41.5375 64.689 41.4714 64.6359 41.3259 64.2776L39.6987 60.1897H39.2754L37.7541 64.2377C37.6218 64.6094 37.4234 64.6757 36.9736 64.6757V64.8748H38.6537V64.6757C38.1378 64.6757 37.9261 64.5961 38.0716 64.2245L38.4949 63.0167H39.9501V63.03Z" fill="#080821" fill-opacity="0.9"/>
<path d="M46.2342 64.9544H46.3136V60.8533C46.3136 60.4816 46.5517 60.4285 46.9883 60.4285V60.2162H45.3082V60.4285C45.7448 60.4285 46.0093 60.4816 46.0093 60.8533V63.3617L43.5753 60.2162H41.9746V60.4285C42.345 60.4285 42.5302 60.4418 42.7551 60.6674V64.251C42.7551 64.6226 42.517 64.6889 42.1069 64.6889V64.888H43.7605V64.6889C43.3239 64.6889 43.0594 64.6358 43.0594 64.251V61.0125L46.2342 64.9677V64.9544Z" fill="#080821" fill-opacity="0.9"/>
<path d="M49.6332 60.3888C50.4005 60.3888 50.8238 60.8135 50.9428 61.6098H51.1148L51.0487 60.203H50.9296C50.8767 60.3357 50.8238 60.402 50.7312 60.402C50.5592 60.402 50.2417 60.1366 49.62 60.1366C48.3103 60.1366 47.2256 61.1453 47.2256 62.5787C47.2256 64.0121 48.4162 64.9412 49.5803 64.9412C50.374 64.9412 50.9561 64.5961 51.2471 64.1581L51.1148 64.0254C50.7576 64.4103 50.374 64.5297 49.9639 64.5297C49.0115 64.5297 48.0987 63.7068 48.0987 62.2602C48.0987 61.1187 48.7601 60.3888 49.62 60.3888" fill="#080821" fill-opacity="0.9"/>
<path d="M51.6572 60.4153C52.0805 60.4153 52.2261 60.4551 52.2261 60.8267V64.2642C52.2261 64.6359 52.0805 64.6757 51.6572 64.6757V64.8748H53.6548V64.6757C53.2314 64.6757 53.0859 64.6359 53.0859 64.2642V60.8267C53.0859 60.4551 53.2314 60.4153 53.6548 60.4153V60.2029H51.6572V60.4153Z" fill="#080821" fill-opacity="0.9"/>
<path d="M56.0623 61.1055L56.7238 62.7645H55.4671L56.0756 61.1055H56.0623ZM54.9379 64.2245L55.3612 63.0167H56.8164L57.3058 64.2643C57.4513 64.6227 57.3984 64.6757 56.7899 64.6757V64.8748H58.7345V64.6757C58.4038 64.6757 58.3377 64.6227 58.1922 64.2643L56.565 60.1765H56.1417L54.6204 64.2245C54.4749 64.5961 54.3029 64.6625 53.959 64.6625V64.8616H55.52V64.6625C55.004 64.6625 54.7924 64.5828 54.9247 64.2112" fill="#080821" fill-opacity="0.9"/>
<path d="M59.0791 64.6624V64.8748H62.6112L62.7567 63.4945L62.5847 63.4679C62.3334 64.5032 62.0555 64.6226 61.156 64.6226H60.9179C60.6665 64.6226 60.5078 64.5961 60.5078 64.2775V60.8135C60.5078 60.4418 60.6401 60.402 61.0634 60.402V60.2029H59.0791V60.402C59.5024 60.402 59.6479 60.4418 59.6479 60.8135V64.251C59.6479 64.6226 59.5024 64.6624 59.0791 64.6624Z" fill="#080821" fill-opacity="0.9"/>
<path d="M28.3602 71.4712V67.662H28.6512C29.5376 67.662 29.7757 67.7815 29.8815 68.7769H30.0535L30.027 67.3833C29.908 67.4098 29.7625 67.4231 29.3788 67.4231H26.495C26.0981 67.4231 25.9658 67.4098 25.8468 67.3833L25.8203 68.7769H25.9923C26.0981 67.7815 26.3362 67.662 27.2225 67.662H27.5004V71.4712C27.5004 71.8295 27.3548 71.8826 26.7728 71.8826V72.095H29.0613V71.8826C28.4925 71.8826 28.347 71.8295 28.347 71.4712" fill="#080821" fill-opacity="0.9"/>
<path d="M32.476 67.6487V67.4363H30.4785V67.6487C30.9018 67.6487 31.0473 67.6885 31.0473 68.0601V71.4976C31.0473 71.8693 30.9018 71.9091 30.4785 71.9091V72.1082H32.476V71.9091C32.0527 71.9091 31.9072 71.8693 31.9072 71.4976V68.0601C31.9072 67.6885 32.0527 67.6487 32.476 67.6487Z" fill="#080821" fill-opacity="0.9"/>
<path d="M36.8663 71.8959V72.1082H38.8506V71.8959C38.4273 71.8959 38.295 71.856 38.2553 71.511L37.8982 68.0469C37.8585 67.6753 38.0437 67.6487 38.467 67.6487V67.4496H36.8663L35.808 70.635L34.8291 67.4496H33.202V67.6487C33.6253 67.6487 33.8105 67.6753 33.7708 68.0469L33.4137 71.4977C33.3872 71.8295 33.2417 71.8959 32.8184 71.8959V72.1082H34.3661V71.8959C33.9428 71.8959 33.6915 71.8693 33.7311 71.4977L34.0883 67.8744L35.5038 72.1878H35.5699L37.0383 67.8744L37.4219 71.511C37.4484 71.856 37.3029 71.8959 36.8928 71.8959" fill="#080821" fill-opacity="0.9"/>
<path d="M43.0052 70.7146L42.8332 70.688C42.5951 71.7233 42.304 71.8427 41.4045 71.8427H41.0209C40.7695 71.8427 40.624 71.8029 40.624 71.4976V69.7988H41.3251C41.9336 69.7988 41.9733 69.8917 42.0262 70.3695H42.185V68.9759H42.0262C41.9733 69.4537 41.9469 69.5466 41.3251 69.5466H40.624V67.6487H41.3119C42.2379 67.6487 42.4363 67.7549 42.5422 68.5777H42.7141V67.4098H39.1953V67.6221C39.6186 67.6221 39.7641 67.662 39.7641 68.0203V71.4446C39.7641 71.8162 39.6186 71.856 39.1953 71.856V72.0684H42.8464L43.0052 70.688V70.7146Z" fill="#080821" fill-opacity="0.9"/>
<path d="M45.5583 69.4803L44.9234 69.1352C44.553 68.9361 44.2223 68.7503 44.2223 68.3123C44.2223 67.9009 44.5397 67.6222 45.016 67.6222C45.6509 67.6222 46.1007 68.1132 46.2066 68.7503H46.3785L46.3124 67.4364H46.1801C46.1272 67.5691 46.0875 67.6354 45.9817 67.6354C45.8229 67.6354 45.5451 67.37 44.9763 67.37C44.1693 67.37 43.5476 67.9274 43.5476 68.6574C43.5476 69.2414 43.8783 69.5599 44.4339 69.8652L45.1747 70.2501C45.6377 70.5023 45.9023 70.7146 45.9023 71.1393C45.9023 71.6968 45.479 71.9224 44.9763 71.9224C44.381 71.9224 43.7857 71.564 43.6534 70.7013L43.4814 70.7279L43.574 72.1215H43.7063C43.7592 71.9755 43.8122 71.8826 43.918 71.8826C44.09 71.8826 44.3942 72.1878 45.016 72.1878C45.9023 72.1878 46.6166 71.6038 46.6166 70.7677C46.6166 70.1439 46.1933 69.8121 45.598 69.4936" fill="#080821" fill-opacity="0.9"/>
<path d="M114.401 91.844C115.988 89.7071 117.404 87.7296 117.404 85.5264C117.404 82.5136 115.353 80.5891 112.139 80.5891C110.009 80.5891 108.051 81.4651 106.874 82.5667V85.9644C107.972 84.9291 109.705 83.7877 111.517 83.7877C113.078 83.7877 113.911 84.6504 113.911 85.9644C113.911 87.703 112.8 89.0568 111.266 91.0609L106.424 97.4051V97.5112H117.774V94.4984H112.364L114.387 91.844H114.401Z" fill="#080821" fill-opacity="0.9"/>
<path d="M126.955 91.844C128.543 89.7071 129.958 87.7296 129.958 85.5264C129.958 82.5136 127.908 80.5891 124.693 80.5891C122.563 80.5891 120.606 81.4651 119.428 82.5667V85.9644C120.526 84.9291 122.272 83.7877 124.072 83.7877C125.633 83.7877 126.466 84.6504 126.466 85.9644C126.466 87.703 125.355 89.0568 123.82 91.0609L118.979 97.4051V97.5112H130.329V94.4984H124.918L126.942 91.844H126.955Z" fill="#080821" fill-opacity="0.9"/>
</g>
<defs>
<clipPath id="clip0_1533_5441">
<rect width="214" height="113" fill="white"/>
</clipPath>
</defs>
</svg>
