<svg width="214" height="113" viewBox="0 0 214 113" fill="none" xmlns="http://www.w3.org/2000/svg">
<g clip-path="url(#clip0_1533_5371)">
<path d="M209.37 108.58H4.63003V4.41942H209.37V108.58ZM0 -0.000244141V113H214V-0.000244141H0Z" fill="#080821" fill-opacity="0.9"/>
<path d="M72.7181 20.6913H71.0381V95.5734H72.7181V20.6913Z" fill="#080821" fill-opacity="0.9"/>
<path d="M83.4341 37.9851H86.8074V21.3417H84.6246L79.5713 23.8369V27.2213L83.4341 25.2968V37.9851Z" fill="#080821" fill-opacity="0.9"/>
<path d="M95.8289 24.1686C98.0381 24.1686 98.9906 26.5709 98.9906 29.6633C98.9906 32.7557 98.0381 35.158 95.8289 35.158C93.6197 35.158 92.6673 32.7557 92.6673 29.6633C92.6673 26.5709 93.5933 24.1686 95.8289 24.1686ZM95.8289 38.2637C99.7181 38.2637 102.364 34.7333 102.364 29.6766C102.364 24.6198 99.7181 21.0894 95.8289 21.0894C91.9397 21.0894 89.2939 24.6198 89.2939 29.6766C89.2939 34.7333 91.9397 38.2637 95.8289 38.2637Z" fill="#080821" fill-opacity="0.9"/>
<path d="M110.632 24.1686C112.841 24.1686 113.793 26.5709 113.793 29.6633C113.793 32.7557 112.854 35.158 110.632 35.158C108.409 35.158 107.47 32.7557 107.47 29.6633C107.47 26.5709 108.396 24.1686 110.632 24.1686ZM110.632 38.2637C114.521 38.2637 117.167 34.7333 117.167 29.6766C117.167 24.6198 114.521 21.0894 110.632 21.0894C106.742 21.0894 104.097 24.6198 104.097 29.6766C104.097 34.7333 106.742 38.2637 110.632 38.2637Z" fill="#080821" fill-opacity="0.9"/>
<path d="M125.447 24.1686C127.656 24.1686 128.609 26.5709 128.609 29.6633C128.609 32.7557 127.656 35.158 125.447 35.158C123.238 35.158 122.285 32.7557 122.285 29.6633C122.285 26.5709 123.211 24.1686 125.447 24.1686ZM125.447 38.2637C129.336 38.2637 131.982 34.7333 131.982 29.6766C131.982 24.6198 129.336 21.0894 125.447 21.0894C121.558 21.0894 118.912 24.6198 118.912 29.6766C118.912 34.7333 121.558 38.2637 125.447 38.2637Z" fill="#080821" fill-opacity="0.9"/>
<path d="M85.9202 47.7932V46.1873H79.9541V55H85.9202V53.3675H81.7532V51.2705H85.5234V49.7177H81.7532V47.7932H85.9202Z" fill="#080821" fill-opacity="0.9"/>
<path d="M89.3733 55.1327C90.1141 55.1327 90.7227 54.8009 91.0931 54.4028V54.9867H92.8657V48.5762H91.0798V52.6508C90.9475 53.2215 90.4845 53.5401 89.9422 53.5401C89.241 53.5401 88.9103 53.0888 88.9103 52.4119V48.5762H87.1377V52.7703C87.1377 54.1904 87.9579 55.1327 89.3866 55.1327" fill="#080821" fill-opacity="0.9"/>
<path d="M94.3994 48.5763V54.9868H96.172V51.0051C96.3043 50.4211 96.7938 50.1026 97.3891 50.1026C97.7198 50.1026 98.0373 50.1689 98.2754 50.3149V48.5364C98.1696 48.4701 97.905 48.417 97.6007 48.417C96.979 48.417 96.4366 48.7355 96.172 49.1868V48.563H94.3994V48.5763Z" fill="#080821" fill-opacity="0.9"/>
<path d="M101.994 49.9433C102.88 49.9433 103.369 50.7264 103.369 51.8014C103.369 52.8765 102.88 53.633 101.994 53.633C101.107 53.633 100.618 52.8632 100.618 51.8014C100.618 50.7397 101.107 49.9433 101.994 49.9433ZM101.994 55.1328C103.846 55.1328 105.129 53.7525 105.129 51.7882C105.129 49.8239 103.859 48.4303 101.994 48.4303C100.128 48.4303 98.8584 49.8106 98.8584 51.7882C98.8584 53.7657 100.128 55.1328 101.994 55.1328Z" fill="#080821" fill-opacity="0.9"/>
<path d="M109.229 49.9831C110.195 49.9831 110.751 50.7662 110.751 51.7882C110.751 52.8101 110.182 53.5799 109.229 53.5799C108.713 53.5799 108.237 53.2746 108.026 52.8367V50.7264C108.237 50.3017 108.7 49.9831 109.229 49.9831ZM106.253 48.5763V57.3625H108.026V54.4691C108.317 54.8142 108.938 55.146 109.626 55.146C111.491 55.146 112.55 53.6197 112.55 51.8014C112.55 49.9831 111.491 48.4435 109.626 48.4435C108.938 48.4435 108.317 48.7753 108.026 49.1204V48.5895H106.253V48.5763Z" fill="#080821" fill-opacity="0.9"/>
<path d="M117.511 51.0316H115.09C115.288 50.2353 115.791 49.8637 116.373 49.8637C117.074 49.8637 117.458 50.3547 117.498 51.0316M113.317 51.8412C113.317 53.8719 114.653 55.146 116.598 55.146C117.458 55.146 118.172 54.9735 118.701 54.5886V53.1154C118.08 53.5135 117.577 53.6728 116.876 53.6728C115.923 53.6728 115.169 53.2481 115.037 52.1996H119.151V51.6289C119.151 49.731 118.186 48.4435 116.334 48.4435C114.587 48.4435 113.331 49.8371 113.331 51.8412" fill="#080821" fill-opacity="0.9"/>
<path d="M120.856 49.7442L121.65 48.5497C121.901 48.1648 122.126 47.687 122.126 47.2623C122.126 46.4792 121.61 46.0413 121.002 46.0413C120.393 46.0413 119.891 46.5058 119.891 47.1296C119.891 47.7003 120.274 48.0719 120.764 48.1648L119.745 49.7442H120.87H120.856Z" fill="#080821" fill-opacity="0.9"/>
<path d="M124.905 49.8372C125.633 49.8372 126.294 50.169 126.863 50.6202V49.001C126.294 48.6294 125.633 48.4303 124.813 48.4303C123.384 48.4303 122.312 49.1868 122.312 50.4477C122.312 51.5493 123.014 52.0802 124.125 52.3854L124.747 52.558C125.183 52.704 125.474 52.8367 125.474 53.195C125.474 53.5799 125.051 53.7392 124.535 53.7392C123.834 53.7392 122.947 53.4074 122.326 52.85V54.4957C122.868 54.9204 123.741 55.1461 124.588 55.1461C126.096 55.1461 127.22 54.4559 127.22 53.1552C127.22 52.12 126.665 51.5493 125.448 51.2042L124.733 50.9918C124.297 50.8458 124.045 50.7397 124.045 50.3946C124.045 50.0495 124.416 49.8504 124.905 49.8504" fill="#080821" fill-opacity="0.9"/>
<path d="M131.719 54.9868H132.843V51.1644H136.825V50.1557H132.843V47.1827H137.076V46.1873H131.719V54.9868Z" fill="#080821" fill-opacity="0.9"/>
<path d="M141.811 53.4074C141.639 53.8852 141.017 54.2037 140.343 54.2037C139.562 54.2037 138.835 53.8454 138.835 53.0756C138.835 52.3058 139.575 51.974 140.343 51.974C141.017 51.974 141.639 52.2793 141.811 52.7571V53.4207V53.4074ZM140.224 51.0715C138.874 51.0715 137.803 51.8811 137.803 53.0623C137.803 54.3232 138.861 55.093 140.157 55.093C140.898 55.093 141.56 54.7612 141.798 54.509V54.9868H142.843V50.66C142.843 49.3195 141.957 48.4834 140.448 48.4834C139.668 48.4834 138.901 48.7223 138.477 49.0143V50.0363C139.007 49.6912 139.575 49.4788 140.276 49.4788C141.203 49.4788 141.798 49.9699 141.798 50.753V51.5891C141.533 51.3502 140.872 51.0715 140.21 51.0715" fill="#080821" fill-opacity="0.9"/>
<path d="M148.782 53.2746C148.782 52.3721 148.253 51.8147 147.301 51.4829L146.322 51.1511C145.713 50.9387 145.383 50.7662 145.383 50.2486C145.383 49.7309 145.925 49.4124 146.586 49.4124C147.354 49.4124 147.949 49.7309 148.478 50.1822V49.0673C147.962 48.709 147.314 48.5099 146.586 48.5099C145.33 48.5099 144.337 49.1868 144.337 50.3016C144.337 51.3369 144.986 51.8014 145.938 52.1067L146.811 52.4119C147.367 52.5977 147.724 52.8499 147.724 53.3277C147.724 53.9515 147.102 54.217 146.414 54.217C145.634 54.217 144.906 53.8984 144.324 53.3543V54.5089C144.8 54.8806 145.581 55.1327 146.414 55.1327C147.75 55.1327 148.782 54.4559 148.782 53.2879" fill="#080821" fill-opacity="0.9"/>
<path d="M150.965 55H152.037V49.5452H153.519V48.6161H152.037V46.9438H150.965V48.6161H149.643V49.5452H150.965V55Z" fill="#080821" fill-opacity="0.9"/>
<path d="M157.09 49.4124C158.122 49.4124 158.585 50.2088 158.638 51.1511H155.357C155.556 49.9699 156.244 49.4124 157.09 49.4124ZM157.302 55.1195C158.056 55.1195 158.717 54.9602 159.233 54.5621V53.5799C158.664 54.0046 158.149 54.1772 157.434 54.1772C156.27 54.1772 155.344 53.4737 155.304 52.0005H159.683V51.6156C159.683 49.7442 158.797 48.4966 157.077 48.4966C155.357 48.4966 154.246 49.8902 154.246 51.8678C154.246 53.8454 155.476 55.1328 157.302 55.1328" fill="#080821" fill-opacity="0.9"/>
<path d="M165.292 53.2746C165.292 52.3721 164.763 51.8147 163.797 51.4829L162.832 51.1511C162.236 50.9387 161.892 50.7662 161.892 50.2486C161.892 49.7309 162.435 49.4124 163.096 49.4124C163.863 49.4124 164.445 49.7309 164.988 50.1822V49.0673C164.472 48.709 163.81 48.5099 163.096 48.5099C161.839 48.5099 160.847 49.1868 160.847 50.3016C160.847 51.3369 161.495 51.8014 162.448 52.1067L163.321 52.4119C163.877 52.5977 164.234 52.8499 164.234 53.3277C164.234 53.9515 163.625 54.217 162.924 54.217C162.144 54.217 161.416 53.8984 160.834 53.3543V54.5089C161.31 54.8806 162.091 55.1327 162.924 55.1327C164.26 55.1327 165.305 54.4559 165.305 53.2879" fill="#080821" fill-opacity="0.9"/>
<path d="M167.475 55H168.546V49.5452H170.028V48.6161H168.546V46.9438H167.475V48.6161H166.139V49.5452H167.475V55Z" fill="#080821" fill-opacity="0.9"/>
<path d="M83.8571 68.3786H85.7885V70.4623C85.2197 70.9401 84.5715 71.1392 83.7777 71.1392C81.939 71.1392 80.7748 69.7323 80.7748 67.6088C80.7748 65.4852 82.058 64.0916 83.8836 64.0916C84.836 64.0916 85.6694 64.3969 86.4102 65.0738V63.866C85.7885 63.3749 84.9154 63.0829 83.8836 63.0829C81.4627 63.0829 79.6504 64.8747 79.6504 67.6221C79.6504 70.3694 81.304 72.1612 83.7513 72.1612C84.836 72.1612 86.0001 71.8294 86.8468 70.9003V67.4628H83.8703V68.4051L83.8571 68.3786Z" fill="#080821" fill-opacity="0.9"/>
<path d="M89.6252 66.4673V65.6311H88.5537V72.0018H89.6252V67.7282C89.8369 66.9849 90.4189 66.5337 91.0936 66.5337C91.3582 66.5337 91.636 66.5867 91.808 66.7062V65.6046C91.6889 65.5382 91.464 65.4984 91.1862 65.4984C90.4851 65.4984 89.8898 65.9231 89.612 66.4673" fill="#080821" fill-opacity="0.9"/>
<path d="M95.405 66.454C96.5559 66.454 97.2438 67.4229 97.2438 68.8165C97.2438 70.2101 96.5559 71.1789 95.405 71.1789C94.2541 71.1789 93.5794 70.2101 93.5794 68.8165C93.5794 67.4229 94.2673 66.454 95.405 66.454ZM92.4814 68.8165C92.4814 70.7675 93.6588 72.1345 95.405 72.1345C97.1512 72.1345 98.3285 70.7808 98.3285 68.8165C98.3285 66.8522 97.1379 65.4984 95.405 65.4984C93.672 65.4984 92.4814 66.8655 92.4814 68.8165Z" fill="#080821" fill-opacity="0.9"/>
<path d="M106.531 65.6312L105.129 70.5021L103.819 65.6312H102.866L101.57 70.5021L100.168 65.6312H99.083L100.961 72.0018H102.007L103.343 67.1707L104.652 72.0018H105.697L107.563 65.6312H106.531Z" fill="#080821" fill-opacity="0.9"/>
<path d="M109.322 63.0165C108.951 63.0165 108.634 63.3217 108.634 63.7066C108.634 64.0783 108.951 64.3968 109.322 64.3968C109.692 64.3968 110.023 64.0783 110.023 63.7066C110.023 63.3217 109.705 63.0165 109.322 63.0165Z" fill="#080821" fill-opacity="0.9"/>
<path d="M109.864 65.6312H108.793V72.0018H109.864V65.6312Z" fill="#080821" fill-opacity="0.9"/>
<path d="M116.954 72.0018V67.8211C116.954 66.4275 116.16 65.4984 114.719 65.4984C113.912 65.4984 113.224 65.9231 112.84 66.4275V65.6179H111.769V71.9886H112.84V67.6751C113.065 66.9849 113.713 66.4806 114.454 66.4806C115.406 66.4806 115.856 67.1044 115.856 67.9803V71.9886H116.941L116.954 72.0018Z" fill="#080821" fill-opacity="0.9"/>
<path d="M121.307 66.4673C121.995 66.4673 122.59 66.8522 122.921 67.4627V70.064C122.59 70.6613 121.995 71.0462 121.307 71.0462C120.103 71.0462 119.402 70.0773 119.402 68.7634C119.402 67.4494 120.103 66.4673 121.307 66.4673ZM118.317 68.7634C118.317 70.4755 119.283 72.0283 121.148 72.0283C121.929 72.0283 122.603 71.6036 122.921 71.1656V71.5771C122.921 72.9308 122.035 73.621 120.91 73.621C120.169 73.621 119.495 73.4219 118.86 72.8247V74.0192C119.349 74.3643 120.09 74.5899 120.91 74.5899C122.431 74.5899 124.019 73.7272 124.019 71.5107V65.6444H122.934V66.3611C122.617 65.9098 121.942 65.5117 121.162 65.5117C119.296 65.5117 118.331 67.0512 118.331 68.7634" fill="#080821" fill-opacity="0.9"/>
<path d="M128.648 67.5954C128.648 70.3428 130.421 72.1345 132.763 72.1345C133.781 72.1345 134.548 71.8425 135.117 71.378V70.1835C134.403 70.8339 133.675 71.1258 132.776 71.1258C131.003 71.1258 129.773 69.7323 129.773 67.6087C129.773 65.4851 131.003 64.0915 132.776 64.0915C133.675 64.0915 134.403 64.3703 135.117 65.0206V63.8261C134.548 63.3483 133.768 63.0696 132.763 63.0696C130.421 63.0696 128.648 64.8481 128.648 67.6087" fill="#080821" fill-opacity="0.9"/>
<path d="M139.258 66.454C140.395 66.454 141.096 67.4362 141.096 68.8165C141.096 70.1968 140.408 71.1789 139.258 71.1789C138.107 71.1789 137.432 70.1968 137.432 68.8165C137.432 67.4362 138.12 66.454 139.258 66.454ZM139.258 72.1345C140.99 72.1345 142.181 70.7808 142.181 68.8165C142.181 66.8522 140.99 65.4984 139.258 65.4984C137.525 65.4984 136.334 66.8655 136.334 68.8165C136.334 70.7675 137.511 72.1345 139.258 72.1345Z" fill="#080821" fill-opacity="0.9"/>
<path d="M144.708 67.6087C144.907 66.9185 145.462 66.4806 146.11 66.4806C146.931 66.4806 147.314 67.0645 147.314 67.9538V72.0018H148.386V67.6087C148.584 66.9185 149.14 66.4806 149.788 66.4806C150.608 66.4806 150.992 67.0645 150.992 67.9538V72.0018H152.077V67.7812C152.077 66.4009 151.362 65.4984 150.079 65.4984C149.193 65.4984 148.545 65.9497 148.148 66.5204C147.843 65.9231 147.235 65.4984 146.428 65.4984C145.621 65.4984 145.026 65.87 144.708 66.3744V65.6311H143.637V72.0018H144.708V67.6087Z" fill="#080821" fill-opacity="0.9"/>
<path d="M154.96 67.5158C155.291 66.8655 155.926 66.4806 156.587 66.4806C157.804 66.4806 158.519 67.4627 158.519 68.8165C158.519 70.1703 157.804 71.1524 156.587 71.1524C155.913 71.1524 155.291 70.7675 154.96 70.1039V67.5158ZM154.96 71.2453C155.291 71.7099 155.966 72.1213 156.746 72.1213C158.611 72.1213 159.603 70.5684 159.603 68.8032C159.603 67.038 158.611 65.4852 156.746 65.4852C155.952 65.4852 155.291 65.9099 154.96 66.3611V65.6179H153.889V74.4307H154.96V71.2453Z" fill="#080821" fill-opacity="0.9"/>
<path d="M163.122 68.9757C163.797 68.9757 164.418 69.281 164.59 69.7588V70.4224C164.418 70.9002 163.797 71.2187 163.122 71.2187C162.341 71.2187 161.601 70.8604 161.601 70.0906C161.601 69.3208 162.341 68.989 163.122 68.989M162.95 72.1212C163.691 72.1212 164.352 71.7894 164.59 71.5372V72.015H165.635V67.7016C165.635 66.3478 164.749 65.5249 163.241 65.5249C162.447 65.5249 161.693 65.7638 161.27 66.0558V67.0778C161.799 66.7327 162.368 66.5203 163.069 66.5203C163.995 66.5203 164.59 67.0114 164.59 67.7945V68.6306C164.326 68.3917 163.664 68.113 163.003 68.113C161.64 68.113 160.582 68.9226 160.582 70.1038C160.582 71.3647 161.64 72.1345 162.937 72.1345" fill="#080821" fill-opacity="0.9"/>
<path d="M168.546 65.6311H167.475V72.0018H168.546V67.6883C168.771 66.9981 169.419 66.4938 170.16 66.4938C171.112 66.4938 171.562 67.1176 171.562 68.0068V72.0151H172.647V67.8343C172.647 66.4407 171.853 65.5117 170.411 65.5117C169.604 65.5117 168.917 65.9364 168.533 66.4407V65.6444L168.546 65.6311Z" fill="#080821" fill-opacity="0.9"/>
<path d="M175.001 64.3968C175.385 64.3968 175.702 64.0783 175.702 63.7066C175.702 63.3217 175.385 63.0165 175.001 63.0165C174.618 63.0165 174.313 63.3217 174.313 63.7066C174.313 64.0783 174.631 64.3968 175.001 64.3968Z" fill="#080821" fill-opacity="0.9"/>
<path d="M175.544 65.6312H174.473V72.0018H175.544V65.6312Z" fill="#080821" fill-opacity="0.9"/>
<path d="M179.843 66.4274C180.875 66.4274 181.338 67.2371 181.378 68.1661H178.11C178.309 66.9849 178.997 66.4274 179.843 66.4274ZM180.055 72.1345C180.809 72.1345 181.47 71.9752 181.986 71.5771V70.5949C181.417 71.0196 180.901 71.1922 180.187 71.1922C179.023 71.1922 178.097 70.4888 178.057 69.0155H182.436V68.6306C182.436 66.7592 181.55 65.5117 179.83 65.5117C178.11 65.5117 176.999 66.9052 176.999 68.8828C176.999 70.8604 178.229 72.1345 180.055 72.1345Z" fill="#080821" fill-opacity="0.9"/>
<path d="M188.046 70.2764C188.046 69.3739 187.517 68.8165 186.551 68.4847L185.585 68.1529C184.99 67.9405 184.646 67.768 184.646 67.2504C184.646 66.7327 185.189 66.4142 185.85 66.4142C186.617 66.4142 187.199 66.7327 187.742 67.1707V66.0559C187.226 65.6975 186.564 65.4984 185.85 65.4984C184.593 65.4984 183.601 66.1753 183.601 67.2902C183.601 68.3254 184.249 68.7899 185.202 69.0952L186.075 69.4005C186.63 69.5863 186.988 69.8384 186.988 70.3162C186.988 70.94 186.379 71.2055 185.678 71.2055C184.898 71.2055 184.17 70.887 183.588 70.3428V71.4975C184.064 71.8691 184.845 72.1213 185.678 72.1213C187.014 72.1213 188.059 71.4444 188.059 70.2764" fill="#080821" fill-opacity="0.9"/>
<path d="M87.5335 91.8438C89.121 89.707 90.5364 87.7294 90.5364 85.5262C90.5364 82.5134 88.486 80.5889 85.2714 80.5889C83.1416 80.5889 81.1838 81.4649 80.0064 82.5665V85.9642C81.1044 84.929 82.8374 83.7875 84.6497 83.7875C86.2107 83.7875 87.0441 84.6502 87.0441 85.9642C87.0441 87.7029 85.9329 89.0566 84.3983 91.0607L79.5566 97.4049V97.5111H90.9068V94.4982H85.4963L87.5203 91.8438H87.5335Z" fill="#080821" fill-opacity="0.9"/>
<path d="M98.99 94.6974C96.7412 94.6974 95.8284 92.2951 95.8284 89.2027C95.8284 86.1102 96.7544 83.6947 98.99 83.6947C101.226 83.6947 102.152 86.1102 102.152 89.2027C102.152 92.2951 101.199 94.6974 98.99 94.6974ZM98.99 80.6022C95.1008 80.6022 92.4551 84.1194 92.4551 89.1894C92.4551 94.2594 95.1008 97.7765 98.99 97.7765C102.879 97.7765 105.525 94.2461 105.525 89.1894C105.525 84.1327 102.879 80.6022 98.99 80.6022Z" fill="#080821" fill-opacity="0.9"/>
<path d="M106.847 83.3629V86.7606L110.709 84.8361V97.5111H114.096V80.8677H111.9L106.847 83.3629Z" fill="#080821" fill-opacity="0.9"/>
<path d="M122.313 89.4681C120.646 89.4681 119.455 88.1674 119.455 86.5349C119.455 84.9024 120.646 83.6018 122.313 83.6018C123.98 83.6018 125.157 84.8759 125.157 86.5349C125.157 88.194 123.966 89.4681 122.313 89.4681ZM122.313 80.6022C118.834 80.6022 116.347 83.1505 116.347 86.5349C116.347 89.6805 118.529 92.1491 121.784 92.2553C122.048 92.2553 122.432 92.2287 122.617 92.1491L119.561 97.5111H123.186L126.652 91.5253C127.869 89.4416 128.305 87.9949 128.305 86.5349C128.305 83.1505 125.792 80.6022 122.339 80.6022" fill="#080821" fill-opacity="0.9"/>
<path d="M27.0912 94.5912C26.5488 94.5912 26.3768 94.1665 26.3107 93.6887L25.2656 93.9806C25.4376 94.9761 26.0461 95.5866 27.0779 95.5866C28.0436 95.5866 28.7448 95.069 28.7448 94.047C28.7448 92.3349 26.5091 91.9765 26.5091 91.074C26.5091 90.782 26.7208 90.6228 27.0383 90.6228C27.4219 90.6228 27.6336 90.8749 27.7129 91.3395L28.7183 91.1669C28.5331 90.2777 27.9114 89.6406 26.9721 89.6406C26.0329 89.6406 25.3715 90.2777 25.3715 91.1802C25.3715 92.7463 27.6071 93.118 27.6071 94.1134C27.6071 94.4319 27.3822 94.6177 27.0779 94.6177" fill="#080821" fill-opacity="0.9"/>
<path d="M31.061 88.1807H29.8704V89.7203H29.209V90.7024H29.8704V94.2727C29.8704 95.1486 30.3731 95.5601 31.2594 95.5601C31.5637 95.5601 31.696 95.5335 31.8547 95.4937V94.4717H31.4579C31.1801 94.4717 31.0478 94.2992 31.0478 93.9939V90.6892H31.8415V89.707H31.0478V88.1674L31.061 88.1807Z" fill="#080821" fill-opacity="0.9"/>
<path d="M34.976 94.0604C34.7776 94.3524 34.513 94.5913 34.1823 94.5913C33.8251 94.5913 33.6267 94.4453 33.6267 94.0736C33.6267 93.5693 33.8912 93.1711 34.976 92.5606V94.0604ZM36.1666 91.1803C36.1666 90.1318 35.5448 89.6274 34.4336 89.6274C33.3224 89.6274 32.5816 90.2512 32.5155 91.4192H33.706C33.7325 90.9281 33.8515 90.6096 34.3807 90.6096C34.7776 90.6096 34.9628 90.8618 34.9628 91.3528V91.6846C33.2563 92.335 32.4229 93.0251 32.4229 94.286C32.4229 95.0293 32.8329 95.5734 33.6267 95.5734C34.1955 95.5734 34.5791 95.3743 35.0157 95.016C35.0157 95.1487 35.0686 95.308 35.0818 95.4672H36.2195C36.1798 95.2682 36.1401 95.0425 36.1401 94.8567V91.1803H36.1666Z" fill="#080821" fill-opacity="0.9"/>
<path d="M38.7465 88.1807H37.556V89.7203H36.8945V90.7024H37.556V94.2727C37.556 95.1486 38.0587 95.5601 38.9582 95.5601C39.2492 95.5601 39.3947 95.5335 39.5535 95.4937V94.4717H39.1566C38.8788 94.4717 38.7465 94.2992 38.7465 93.9939V90.6892H39.5403V89.707H38.7465V88.1674V88.1807Z" fill="#080821" fill-opacity="0.9"/>
<path d="M41.5119 89.7335H40.3213V95.4804H41.5119V89.7335Z" fill="#080821" fill-opacity="0.9"/>
<path d="M41.5119 88.1674H40.3213V89.2557H41.5119V88.1674Z" fill="#080821" fill-opacity="0.9"/>
<path d="M43.642 91.0608C43.642 90.7689 43.8537 90.6096 44.1579 90.6096C44.5416 90.6096 44.7532 90.8618 44.8326 91.3263L45.838 91.1538C45.666 90.2645 45.031 89.6274 44.0918 89.6274C43.1526 89.6274 42.4911 90.2512 42.4911 91.167C42.4911 92.7332 44.7268 93.1048 44.7268 94.1002C44.7268 94.4187 44.5019 94.6045 44.1976 94.6045C43.6553 94.6045 43.4833 94.1798 43.4171 93.702L42.3721 93.994C42.5573 94.9894 43.1526 95.5867 44.1844 95.5867C45.1501 95.5867 45.8512 95.0691 45.8512 94.0471C45.8512 92.3483 43.6156 91.9766 43.6156 91.0874" fill="#080821" fill-opacity="0.9"/>
<path d="M48.1928 88.1807H47.0023V89.7203H46.3408V90.7024H47.0023V94.2727C47.0023 95.1486 47.5049 95.5601 48.3913 95.5601C48.6955 95.5601 48.8278 95.5335 48.9866 95.4937V94.4717H48.5897C48.3119 94.4717 48.1796 94.2992 48.1796 93.9939V90.6892H48.9733V89.707H48.1796V88.1674L48.1928 88.1807Z" fill="#080821" fill-opacity="0.9"/>
<path d="M52.0951 94.0604C51.8967 94.3524 51.6321 94.5913 51.3014 94.5913C50.9442 94.5913 50.7458 94.4453 50.7458 94.0736C50.7458 93.5693 51.0104 93.1711 52.0951 92.5606V94.0604ZM53.2857 91.1803C53.2857 90.1318 52.664 89.6274 51.5527 89.6274C50.4415 89.6274 49.7007 90.2512 49.6346 91.4192H50.8252C50.8516 90.9281 50.9707 90.6096 51.4998 90.6096C51.8967 90.6096 52.0819 90.8618 52.0819 91.3528V91.6846C50.3754 92.335 49.542 93.0251 49.542 94.286C49.542 95.0293 49.9389 95.5734 50.7458 95.5734C51.3146 95.5734 51.685 95.3743 52.1348 95.016C52.1348 95.1487 52.1877 95.308 52.201 95.4672H53.3386C53.2989 95.2682 53.2592 95.0425 53.2592 94.8567V91.1803H53.2857Z" fill="#080821" fill-opacity="0.9"/>
<path d="M61.3286 90.9016C60.7333 91.2068 60.2968 91.8439 60.2968 91.8439C60.1909 92.0032 60.0586 92.189 60.019 92.2421C59.9793 92.2952 59.9396 92.3483 59.9264 92.3615C59.9264 92.3748 59.8734 92.4412 59.847 92.481C59.8205 92.5208 59.7015 92.6801 59.5956 92.8393C59.5956 92.8393 58.921 93.8082 57.9817 94.3125C57.0028 94.8169 55.7064 94.7904 55.6006 94.7904V95.3212C55.6006 95.4672 55.7196 95.5734 55.8519 95.5734H62.7044C62.8499 95.5734 62.9557 95.454 62.9557 95.3212V90.6229C62.9557 90.6229 62.916 90.6229 62.8896 90.6229C62.8896 90.6229 61.7784 90.6494 61.3021 90.8883" fill="#080821" fill-opacity="0.9"/>
<path d="M55.8519 88.1807C55.7064 88.1807 55.6006 88.3002 55.6006 88.4329V93.118H55.6403C55.6403 93.118 56.7515 93.0915 57.2277 92.8526C57.8098 92.5473 58.2595 91.9102 58.2595 91.9102C58.3654 91.751 58.4977 91.5651 58.5373 91.5121C58.577 91.459 58.6167 91.4059 58.6167 91.3926C58.6167 91.3793 58.6696 91.313 58.6961 91.2732C58.7225 91.2333 58.8284 91.0741 58.9474 90.9148C58.9474 90.9148 59.6221 89.9459 60.5613 89.4549C61.5932 88.924 62.9557 88.9771 62.9557 88.9771C62.9557 88.9771 62.969 88.9771 62.9822 88.9771V88.4462C62.9822 88.3002 62.8631 88.194 62.7308 88.194H55.8652L55.8519 88.1807Z" fill="#080821" fill-opacity="0.9"/>
<path d="M59.542 30.8712H58.8541C58.497 27.2611 57.7826 26.6506 54.568 26.6506H53.6817V40.3741C53.6817 41.6748 54.1844 41.8739 56.2481 41.8739V42.6304H47.9802V41.8739C50.0571 41.8739 50.5862 41.6748 50.5862 40.3741V26.6506H49.6999C46.4986 26.6506 45.771 27.2611 45.4138 30.8712H44.7259V25.6817C45.1625 25.7613 45.6652 25.8144 47.0674 25.8144H57.1873C58.5896 25.8144 59.1055 25.7613 59.542 25.6817V30.8712ZM42.8739 30.8712H42.186C41.8288 27.2611 41.1145 26.6506 37.8999 26.6506H35.36V33.5256H37.384C39.5667 33.5256 39.6858 33.1673 39.8446 31.4551H40.4795V36.4721H39.8446C39.6858 34.7599 39.5667 34.4281 37.384 34.4281H35.36V40.3874C35.36 41.6084 35.6908 41.8871 37.9264 41.8871V42.6437H30.0421V41.8871C31.6692 41.8871 32.2513 41.8075 32.2513 40.4803V27.9911C32.2513 26.6639 31.6692 26.5842 30.0421 26.5842V25.8277H40.5192C41.9347 25.8277 42.4241 25.7746 42.8607 25.695V30.8844L42.8739 30.8712ZM62.664 20.6913H25.8486V57.6413H62.6772V20.6913H62.664Z" fill="#080821" fill-opacity="0.9"/>
<path d="M27.9522 64.6623C27.3304 64.6623 27.2378 64.5827 27.2378 64.2509V62.5918H27.8728C28.4813 62.5918 28.521 62.6847 28.5607 63.1625H28.7327V61.7689H28.5607C28.5078 62.2467 28.4813 62.3529 27.8728 62.3529H27.2378V60.4417H28.0183C28.9046 60.4417 29.1427 60.5214 29.2354 61.4902H29.4073L29.3809 60.1763C29.2618 60.2028 29.1163 60.2161 28.7327 60.2161H25.7959V60.4152C26.2192 60.4152 26.3647 60.455 26.3647 60.8266V64.2641C26.3647 64.6357 26.2192 64.6756 25.7959 64.6756V64.8879H27.9389V64.6756L27.9522 64.6623Z" fill="#080821" fill-opacity="0.9"/>
<path d="M29.8574 64.6622V64.8746H31.8549V64.6622C31.4316 64.6622 31.2861 64.6224 31.2861 64.2508V60.8133C31.2861 60.4417 31.4316 60.4018 31.8549 60.4018V60.2028H29.8574V60.4018C30.2807 60.4018 30.4263 60.4417 30.4263 60.8133V64.2508C30.4263 64.6224 30.2807 64.6622 29.8574 64.6622Z" fill="#080821" fill-opacity="0.9"/>
<path d="M32.2109 64.6622V64.8746H33.9042V64.6622C33.4677 64.6622 33.2031 64.6091 33.2031 64.2243V60.9858L36.378 64.941H36.4573V60.8398C36.4573 60.4682 36.7087 60.4151 37.132 60.4151V60.216H35.4387V60.4151C35.8753 60.4151 36.1398 60.4682 36.1398 60.8398V63.3483L33.7058 60.2028H32.2109V60.4018C32.5417 60.4018 32.6872 60.4151 32.8988 60.6275V64.211C32.8988 64.5826 32.6607 64.649 32.2109 64.649" fill="#080821" fill-opacity="0.9"/>
<path d="M38.5748 62.7644L39.1834 61.1053L39.8448 62.7644H38.5881H38.5748ZM41.3132 64.2641L39.686 60.1763H39.2627L37.7414 64.2243C37.6091 64.5959 37.4107 64.6623 36.9609 64.6623V64.8747H38.641V64.6623C38.1251 64.6623 37.9134 64.5827 38.0457 64.211L38.4822 63.0033H39.9374L40.4136 64.2509C40.5591 64.6092 40.5062 64.6623 39.8977 64.6623V64.8747H41.8423V64.6623C41.5116 64.6623 41.4455 64.6092 41.2999 64.2509" fill="#080821" fill-opacity="0.9"/>
<path d="M43.5763 60.216H41.9756V60.4284C42.3592 60.4284 42.5312 60.4416 42.7561 60.654V64.2375C42.7561 64.6224 42.518 64.6755 42.1079 64.6755V64.8878H43.7615V64.6755C43.3249 64.6755 43.0603 64.6224 43.0603 64.2375V60.9991L46.2352 64.9542H46.3146V60.8531C46.3146 60.4814 46.5659 60.4284 46.9892 60.4284V60.216H45.296V60.4284C45.7325 60.4284 45.9971 60.4814 45.9971 60.8531V63.3615L43.563 60.216H43.5763Z" fill="#080821" fill-opacity="0.9"/>
<path d="M49.6337 60.3886C50.401 60.3886 50.8243 60.8 50.9434 61.6096H51.1153L51.0492 60.2028H50.9301C50.8772 60.3355 50.8243 60.4019 50.7317 60.4019C50.5597 60.4019 50.2423 60.1364 49.6073 60.1364C48.2976 60.1364 47.2129 61.1451 47.2129 62.5785C47.2129 64.0119 48.4035 64.941 49.5676 64.941C50.3613 64.941 50.9434 64.5959 51.2344 64.1579L51.1021 64.0252C50.7449 64.4101 50.3613 64.5295 49.9512 64.5295C48.9988 64.5295 48.086 63.7066 48.086 62.26C48.086 61.1186 48.7474 60.3886 49.6073 60.3886" fill="#080821" fill-opacity="0.9"/>
<path d="M51.6582 60.4284C52.0815 60.4284 52.227 60.4682 52.227 60.8398V64.2773C52.227 64.6489 52.0815 64.6888 51.6582 64.6888V64.8878H53.6557V64.6888C53.2324 64.6888 53.0869 64.6489 53.0869 64.2773V60.8398C53.0869 60.4682 53.2324 60.4284 53.6557 60.4284V60.216H51.6582V60.4284Z" fill="#080821" fill-opacity="0.9"/>
<path d="M56.0633 61.1053L56.7248 62.7644H55.468L56.0765 61.1053H56.0633ZM54.9389 64.2243L55.3622 63.0165H56.8174L57.3068 64.2641C57.4523 64.6225 57.3994 64.6756 56.7909 64.6756V64.8747H58.7355V64.6756C58.4048 64.6756 58.3386 64.6225 58.1931 64.2641L56.566 60.1763H56.1427L54.6214 64.2243C54.4759 64.5959 54.3039 64.6623 53.96 64.6623V64.8614H55.5209V64.6623C55.005 64.6623 54.7934 64.5827 54.9257 64.211" fill="#080821" fill-opacity="0.9"/>
<path d="M61.1433 64.6357H60.9052C60.6538 64.6357 60.4951 64.5959 60.4951 64.2906V60.8266C60.4951 60.4549 60.6274 60.4151 61.0507 60.4151V60.2028H59.0664V60.4151C59.4897 60.4151 59.6352 60.4549 59.6352 60.8266V64.2641C59.6352 64.6357 59.4897 64.6755 59.0664 64.6755V64.8746H62.5985L62.744 63.4943L62.572 63.4677C62.3207 64.503 62.0429 64.6224 61.1433 64.6224" fill="#080821" fill-opacity="0.9"/>
<path d="M28.3617 71.4709V67.6618H28.6528C29.5391 67.6618 29.7772 67.7812 29.8698 68.7766H30.0418L30.0153 67.3831C29.8962 67.4096 29.7507 67.4229 29.3671 67.4229H26.4833C26.0864 67.4229 25.9541 67.4096 25.8351 67.3831L25.8086 68.7766H25.9806C26.0864 67.7812 26.3245 67.6618 27.2108 67.6618H27.4886V71.4709C27.4886 71.8293 27.3431 71.8824 26.7611 71.8824V72.0947H29.0496V71.8824C28.4808 71.8824 28.3353 71.8293 28.3353 71.4709" fill="#080821" fill-opacity="0.9"/>
<path d="M30.4795 67.6485C30.9028 67.6485 31.0483 67.6883 31.0483 68.0599V71.4975C31.0483 71.8691 30.9028 71.9089 30.4795 71.9089V72.108H32.477V71.9089C32.0537 71.9089 31.9082 71.8691 31.9082 71.4975V68.0599C31.9082 67.6883 32.0537 67.6485 32.477 67.6485V67.4362H30.4795V67.6485Z" fill="#080821" fill-opacity="0.9"/>
<path d="M36.8678 71.8824V72.0947H38.8521V71.8824C38.4288 71.8824 38.2965 71.8425 38.2568 71.4975L37.8997 68.0334C37.86 67.6618 38.0452 67.6352 38.4685 67.6352V67.4362H36.8678L35.8095 70.6215L34.8174 67.4362H33.1903V67.6352C33.6136 67.6352 33.7988 67.6618 33.7591 68.0334L33.4019 71.4842C33.3755 71.816 33.23 71.8824 32.8066 71.8824V72.0947H34.3544V71.8824C33.9311 71.8824 33.6797 71.8558 33.7194 71.4842L34.0766 67.8609L35.4921 72.1744H35.5582L37.0266 67.8609L37.4102 71.4975C37.4367 71.8425 37.2912 71.8824 36.8811 71.8824" fill="#080821" fill-opacity="0.9"/>
<path d="M39.1963 67.6485C39.6196 67.6485 39.7651 67.6883 39.7651 68.0466V71.4842C39.7651 71.8558 39.6196 71.8956 39.1963 71.8956V72.108H42.8474L43.0061 70.7276L42.8342 70.7011C42.5961 71.7363 42.305 71.8558 41.4055 71.8558H41.0218C40.7705 71.8558 40.625 71.816 40.625 71.5107V69.8119H41.3261C41.9346 69.8119 41.9743 69.9048 42.0272 70.3826H42.1992V68.989H42.0272C41.9743 69.4668 41.9479 69.5597 41.3261 69.5597H40.625V67.6618H41.3129C42.2389 67.6618 42.4373 67.7679 42.5431 68.5908H42.7151V67.4229H39.1963V67.6352V67.6485Z" fill="#080821" fill-opacity="0.9"/>
<path d="M45.5599 69.4801L44.9249 69.135C44.5545 68.9359 44.2238 68.7501 44.2238 68.3121C44.2238 67.9007 44.5412 67.622 45.0175 67.622C45.6525 67.622 46.1022 68.1131 46.1948 68.7501H46.3668L46.3007 67.4362H46.1684C46.1155 67.5689 46.0758 67.6353 45.9699 67.6353C45.8112 67.6353 45.5334 67.3698 44.9646 67.3698C44.1576 67.3698 43.5359 67.9272 43.5359 68.6572C43.5359 69.2412 43.8666 69.5597 44.4222 69.865L45.163 70.2499C45.626 70.5021 45.8906 70.7144 45.8906 71.1391C45.8906 71.6966 45.4673 71.9222 44.9646 71.9222C44.3693 71.9222 43.774 71.5638 43.6417 70.7012L43.4697 70.7277L43.5623 72.1213H43.6946C43.7475 71.9753 43.8004 71.8824 43.9063 71.8824C44.0782 71.8824 44.3825 72.1876 45.0043 72.1876C45.8906 72.1876 46.6049 71.6037 46.6049 70.7675C46.6049 70.1437 46.1816 69.8119 45.5863 69.4934" fill="#080821" fill-opacity="0.9"/>
</g>
<defs>
<clipPath id="clip0_1533_5371">
<rect width="214" height="113" fill="white"/>
</clipPath>
</defs>
</svg>
