<svg width="214" height="113" viewBox="0 0 214 113" fill="none" xmlns="http://www.w3.org/2000/svg">
    <g clip-path="url(#clip0_5512_26852)">
        <mask id="mask0_5512_26852" style="mask-type:luminance" maskUnits="userSpaceOnUse" x="0" y="0" width="214" height="113">
            <path d="M214 0H0V113H214V0Z" fill="white"/>
        </mask>
        <g mask="url(#mask0_5512_26852)">
            <path d="M4.6 4.4H209.3V108.6H4.6V4.4ZM0 0V113H214V0H0Z" fill="#080820" fill-opacity="0.9"/>
            <path d="M72.7 20.7H71V95.6H72.7V20.7Z" fill="#080820" fill-opacity="0.9"/>
            <path d="M83.4 38H86.8V21.3H84.6L79.5 23.8V27.2L83.4 25.3V38Z" fill="#080820" fill-opacity="0.9"/>
            <path d="M95.8008 24.2C98.0008 24.2 99.0008 26.6 99.0008 29.7C99.0008 32.8 98.0008 35.2 95.8008 35.2C93.6008 35.2 92.6008 32.8 92.6008 29.7C92.7008 26.6 93.6008 24.2 95.8008 24.2ZM95.8008 38.3C99.7008 38.3 102.301 34.8 102.301 29.7C102.301 24.6 99.7008 21.1 95.8008 21.1C91.9008 21.1 89.3008 24.6 89.3008 29.7C89.3008 34.7 91.9008 38.3 95.8008 38.3Z" fill="#080820" fill-opacity="0.9"/>
            <path d="M110.6 24.2C112.8 24.2 113.8 26.6 113.8 29.7C113.8 32.8 112.8 35.2 110.6 35.2C108.4 35.2 107.4 32.8 107.4 29.7C107.5 26.6 108.4 24.2 110.6 24.2ZM110.6 38.3C114.5 38.3 117.1 34.8 117.1 29.7C117.1 24.6 114.5 21.1 110.6 21.1C106.7 21.1 104.1 24.6 104.1 29.7C104.1 34.7 106.7 38.3 110.6 38.3Z" fill="#080820" fill-opacity="0.9"/>
            <path d="M125.4 24.2C127.6 24.2 128.6 26.6 128.6 29.7C128.6 32.8 127.6 35.2 125.4 35.2C123.2 35.2 122.2 32.8 122.2 29.7C122.3 26.6 123.2 24.2 125.4 24.2ZM125.4 38.3C129.3 38.3 131.9 34.8 131.9 29.7C131.9 24.6 129.3 21.1 125.4 21.1C121.5 21.1 118.9 24.6 118.9 29.7C118.9 34.7 121.6 38.3 125.4 38.3Z" fill="#080820" fill-opacity="0.9"/>
            <path d="M85.9004 47.8V46.2H79.9004V55H85.9004V53.4H81.7004V51.3H85.5004V49.7H81.7004V47.8H85.9004Z" fill="#080820" fill-opacity="0.9"/>
            <path d="M89.4009 55.1C90.1009 55.1 90.7009 54.8 91.1009 54.4V55H92.9009V48.6H91.1009V52.7C91.0009 53.3 90.5009 53.6 90.0009 53.6C89.3009 53.6 89.0009 53.1 89.0009 52.5V48.7H87.2009V52.9C87.1009 54.2 88.0009 55.1 89.4009 55.1Z" fill="#080820" fill-opacity="0.9"/>
            <path d="M94.4004 48.6V55H96.2004V51C96.3004 50.4 96.8004 50.1 97.4004 50.1C97.7004 50.1 98.0004 50.2 98.3004 50.3V48.5C98.2004 48.4 97.9004 48.4 97.6004 48.4C97.0004 48.4 96.4004 48.7 96.2004 49.2V48.6H94.4004Z" fill="#080820" fill-opacity="0.9"/>
            <path d="M103.4 51.8C103.4 52.9 102.9 53.6 102 53.6C101.1 53.6 100.6 52.8 100.6 51.8C100.6 50.7 101.1 49.9 102 49.9C102.9 49.9 103.4 50.7 103.4 51.8ZM98.9004 51.8C98.9004 53.8 100.2 55.1 102 55.1C103.9 55.1 105.1 53.7 105.1 51.8C105.1 49.8 103.8 48.4 102 48.4C100.1 48.4 98.9004 49.8 98.9004 51.8Z" fill="#080820" fill-opacity="0.9"/>
            <path d="M109.201 53.6C108.701 53.6 108.201 53.3 108.001 52.9V50.8C108.201 50.4 108.701 50.1 109.201 50.1C110.201 50.1 110.701 50.9 110.701 51.9C110.801 52.8 110.201 53.6 109.201 53.6ZM112.601 51.8C112.601 50 111.501 48.4 109.701 48.4C109.001 48.4 108.401 48.7 108.101 49.1V48.6H106.301V57.4H108.101V54.5C108.401 54.8 109.001 55.2 109.701 55.2C111.501 55.1 112.601 53.6 112.601 51.8Z" fill="#080820" fill-opacity="0.9"/>
            <path d="M117.501 51H115.101C115.301 50.2 115.801 49.8 116.401 49.8C117.101 49.9 117.501 50.4 117.501 51ZM113.301 51.8C113.301 53.8 114.601 55.1 116.601 55.1C117.501 55.1 118.201 54.9 118.701 54.5V53C118.101 53.4 117.601 53.6 116.901 53.6C116.001 53.6 115.201 53.2 115.101 52.1H119.201V51.5C119.201 49.6 118.201 48.3 116.401 48.3C114.601 48.4 113.301 49.8 113.301 51.8Z" fill="#080820" fill-opacity="0.9"/>
            <path d="M120.9 49.7L121.7 48.5C122 48.1 122.2 47.6 122.2 47.2C122.2 46.4 121.7 46 121.1 46C120.5 46 120 46.5 120 47.1C120 47.7 120.4 48 120.9 48.1L119.9 49.7H120.9Z" fill="#080820" fill-opacity="0.9"/>
            <path d="M124.501 53.7C123.801 53.7 122.901 53.4 122.301 52.8V54.4C122.801 54.8 123.701 55.1 124.601 55.1C126.101 55.1 127.201 54.4 127.201 53.1C127.201 52.1 126.601 51.5 125.401 51.1L124.701 50.9C124.301 50.8 124.001 50.6 124.001 50.3C124.001 49.9 124.401 49.8 124.901 49.8C125.601 49.8 126.301 50.1 126.901 50.6V49C126.301 48.6 125.701 48.4 124.801 48.4C123.401 48.4 122.301 49.2 122.301 50.4C122.301 51.5 123.001 52 124.101 52.3L124.701 52.5C125.101 52.6 125.401 52.8 125.401 53.1C125.501 53.6 125.101 53.8 124.501 53.7Z" fill="#080820" fill-opacity="0.9"/>
            <path d="M137.099 47.2V46.2H131.699V55H132.799V51.2H136.799V50.2H132.799V47.2H137.099Z" fill="#080820" fill-opacity="0.9"/>
            <path d="M141.801 53.4C141.601 53.9 141.001 54.2 140.301 54.2C139.501 54.2 138.801 53.8 138.801 53.1C138.801 52.3 139.501 52 140.301 52C141.001 52 141.601 52.3 141.801 52.8V53.4ZM140.501 48.5C139.701 48.5 139.001 48.7 138.501 49V50C139.001 49.7 139.601 49.4 140.301 49.4C141.201 49.4 141.801 49.9 141.801 50.7V51.5C141.501 51.3 140.901 51 140.201 51C138.801 51 137.801 51.8 137.801 53C137.801 54.3 138.901 55 140.201 55C140.901 55 141.601 54.7 141.801 54.4V55H142.801V50.7C142.801 49.3 142.001 48.5 140.501 48.5Z" fill="#080820" fill-opacity="0.9"/>
            <path d="M148.8 53.3C148.8 52.4 148.3 51.8 147.3 51.5L146.3 51.2C145.7 51 145.4 50.8 145.4 50.3C145.4 49.8 145.9 49.5 146.6 49.5C147.4 49.5 148 49.8 148.5 50.3V49.2C148 48.8 147.3 48.6 146.6 48.6C145.3 48.6 144.4 49.3 144.4 50.4C144.4 51.4 145 51.9 146 52.2L146.9 52.5C147.5 52.7 147.8 52.9 147.8 53.4C147.8 54 147.2 54.3 146.5 54.3C145.7 54.3 145 54 144.4 53.4V54.6C144.9 55 145.7 55.2 146.5 55.2C147.8 55.1 148.8 54.5 148.8 53.3Z" fill="#080820" fill-opacity="0.9"/>
            <path d="M151.999 46.9H150.999V48.6H149.699V49.5H150.999V55H152.099V49.5H153.599V48.6H151.999V46.9Z" fill="#080820" fill-opacity="0.9"/>
            <path d="M155.401 51.2C155.601 50 156.301 49.5 157.101 49.5C158.101 49.5 158.601 50.3 158.601 51.2H155.401ZM157.101 48.5C155.401 48.5 154.301 49.9 154.301 51.9C154.301 53.9 155.501 55.2 157.401 55.2C158.201 55.2 158.801 55 159.301 54.6V53.6C158.701 54 158.201 54.2 157.501 54.2C156.301 54.2 155.401 53.5 155.401 52H159.801V51.6C159.701 49.8 158.801 48.5 157.101 48.5Z" fill="#080820" fill-opacity="0.9"/>
            <path d="M165.3 53.3C165.3 52.4 164.8 51.8 163.8 51.5L162.8 51.2C162.2 51 161.9 50.8 161.9 50.3C161.9 49.8 162.4 49.5 163.1 49.5C163.9 49.5 164.4 49.8 165 50.3V49.2C164.5 48.8 163.8 48.6 163.1 48.6C161.8 48.6 160.9 49.3 160.9 50.4C160.9 51.4 161.5 51.9 162.5 52.2L163.4 52.5C164 52.7 164.3 52.9 164.3 53.4C164.3 54 163.7 54.3 163 54.3C162.2 54.3 161.5 54 160.9 53.4V54.6C161.4 55 162.2 55.2 163 55.2C164.3 55.1 165.3 54.5 165.3 53.3Z" fill="#080820" fill-opacity="0.9"/>
            <path d="M168.5 55V49.5H170V48.6H168.5V46.9H167.4V48.6H166.1V49.5H167.4V55H168.5Z" fill="#080820" fill-opacity="0.9"/>
            <path d="M83.6996 72.1C84.7996 72.1 85.8996 71.8 86.7996 70.8V67.4H83.7996V68.3H85.6996V70.4C85.0996 70.9 84.4996 71.1 83.6996 71.1C81.8996 71.1 80.6996 69.7 80.6996 67.6C80.6996 65.5 81.9996 64.1 83.7996 64.1C84.7996 64.1 85.5996 64.4 86.2996 65.1V63.9C85.6996 63.4 84.7996 63.1 83.7996 63.1C81.3996 63.1 79.5996 64.9 79.5996 67.6C79.5996 70.4 81.2996 72.2 83.6996 72.1Z" fill="#080820" fill-opacity="0.9"/>
            <path d="M89.6 66.5V65.7H88.5V72H89.6V67.7C89.8 67 90.4 66.5 91.1 66.5C91.4 66.5 91.6 66.6 91.8 66.7V65.6C91.7 65.5 91.5 65.5 91.2 65.5C90.5 65.5 89.9 65.9 89.6 66.5Z" fill="#080820" fill-opacity="0.9"/>
            <path d="M95.4 66.5C96.6 66.5 97.2 67.5 97.2 68.9C97.2 70.3 96.5 71.3 95.4 71.3C94.3 71.3 93.6 70.3 93.6 68.9C93.6 67.4 94.3 66.5 95.4 66.5ZM92.5 68.8C92.5 70.8 93.7 72.1 95.4 72.1C97.1 72.1 98.3 70.7 98.3 68.8C98.3 66.8 97.1 65.5 95.4 65.5C93.7 65.5 92.5 66.9 92.5 68.8Z" fill="#080820" fill-opacity="0.9"/>
            <path d="M106.5 65.6L105.1 70.5L103.8 65.6H102.8L101.5 70.5L100.1 65.6H99L101 72H102L103.3 67.2L104.6 72H105.6L107.5 65.6H106.5Z" fill="#080820" fill-opacity="0.9"/>
            <path d="M109.901 65.6H108.801V72H109.901V65.6Z" fill="#080820" fill-opacity="0.9"/>
            <path d="M109.3 63C108.9 63 108.6 63.3 108.6 63.7C108.6 64.1 108.9 64.4 109.3 64.4C109.7 64.4 110 64.1 110 63.7C110 63.3 109.7 63 109.3 63Z" fill="#080820" fill-opacity="0.9"/>
            <path d="M117.001 72V67.8C117.001 66.4 116.201 65.5 114.801 65.5C114.001 65.5 113.301 65.9 112.901 66.4V65.6H111.801V72H112.901V67.7C113.101 67 113.801 66.5 114.501 66.5C115.501 66.5 115.901 67.1 115.901 68V72H117.001Z" fill="#080820" fill-opacity="0.9"/>
            <path d="M121.301 71C120.101 71 119.401 70 119.401 68.7C119.401 67.4 120.101 66.4 121.301 66.4C122.001 66.4 122.601 66.8 122.901 67.4V70C122.601 70.6 122.001 71 121.301 71ZM120.901 73.6C120.201 73.6 119.501 73.4 118.801 72.8V74C119.301 74.3 120.001 74.6 120.901 74.6C122.401 74.6 124.001 73.7 124.001 71.5V65.6H122.901V66.3C122.601 65.8 121.901 65.5 121.101 65.5C119.201 65.5 118.301 67 118.301 68.8C118.301 70.5 119.301 72.1 121.101 72.1C121.901 72.1 122.601 71.7 122.901 71.2V71.6C122.901 72.9 122.001 73.6 120.901 73.6Z" fill="#080820" fill-opacity="0.9"/>
            <path d="M128.6 67.6C128.6 70.3 130.4 72.1 132.7 72.1C133.7 72.1 134.5 71.8 135.1 71.3V70.1C134.4 70.8 133.7 71 132.8 71C131 71 129.8 69.6 129.8 67.5C129.8 65.4 131 64 132.8 64C133.7 64 134.4 64.3 135.1 64.9V63.7C134.5 63.2 133.8 62.9 132.7 62.9C130.4 63.1 128.6 64.8 128.6 67.6Z" fill="#080820" fill-opacity="0.9"/>
            <path d="M139.3 71.2C138.2 71.2 137.5 70.2 137.5 68.8C137.5 67.4 138.2 66.4 139.3 66.4C140.5 66.4 141.1 67.4 141.1 68.8C141.1 70.2 140.4 71.2 139.3 71.2ZM139.3 65.5C137.6 65.5 136.4 66.9 136.4 68.8C136.4 70.8 137.6 72.1 139.3 72.1C141.1 72.1 142.2 70.7 142.2 68.8C142.2 66.9 141 65.5 139.3 65.5Z" fill="#080820" fill-opacity="0.9"/>
            <path d="M150.099 65.5C149.199 65.5 148.599 66 148.199 66.5C147.899 65.9 147.299 65.5 146.499 65.5C145.699 65.5 145.099 65.9 144.799 66.4V65.7H143.699V72H144.799V67.6C144.999 66.9 145.599 66.5 146.199 66.5C146.999 66.5 147.399 67.1 147.399 68V72H148.499V67.6C148.699 66.9 149.299 66.5 149.899 66.5C150.699 66.5 151.099 67.1 151.099 68V72H152.199V67.8C152.099 66.4 151.299 65.5 150.099 65.5Z" fill="#080820" fill-opacity="0.9"/>
            <path d="M156.601 71.2C155.901 71.2 155.301 70.8 155.001 70.2V67.6C155.301 66.9 156.001 66.6 156.601 66.6C157.801 66.6 158.501 67.6 158.501 68.9C158.501 70.2 157.801 71.2 156.601 71.2ZM156.701 65.5C155.901 65.5 155.201 65.9 154.901 66.4V65.7H153.801V74.5H154.901V71.3C155.201 71.8 155.901 72.2 156.701 72.2C158.601 72.2 159.601 70.6 159.601 68.9C159.601 67.1 158.601 65.5 156.701 65.5Z" fill="#080820" fill-opacity="0.9"/>
            <path d="M164.6 70.4C164.4 70.9 163.8 71.2 163.1 71.2C162.3 71.2 161.6 70.8 161.6 70.1C161.6 69.3 162.3 69 163.1 69C163.8 69 164.4 69.3 164.6 69.8V70.4ZM163.3 65.5C162.5 65.5 161.8 65.7 161.3 66V67C161.8 66.7 162.4 66.4 163.1 66.4C164 66.4 164.6 66.9 164.6 67.7V68.5C164.3 68.3 163.7 68 163 68C161.6 68 160.6 68.8 160.6 70C160.6 71.3 161.7 72 163 72C163.7 72 164.4 71.7 164.6 71.4V72H165.6V67.7C165.6 66.3 164.8 65.5 163.3 65.5Z" fill="#080820" fill-opacity="0.9"/>
            <path d="M170.4 65.5C169.6 65.5 168.9 65.9 168.5 66.4V65.6H167.4V72H168.5V67.7C168.7 67 169.4 66.5 170.1 66.5C171.1 66.5 171.5 67.1 171.5 68V72H172.6V67.8C172.7 66.4 171.9 65.5 170.4 65.5Z" fill="#080820" fill-opacity="0.9"/>
            <path d="M175.001 63C174.601 63 174.301 63.3 174.301 63.7C174.301 64.1 174.601 64.4 175.001 64.4C175.401 64.4 175.701 64.1 175.701 63.7C175.701 63.3 175.401 63 175.001 63Z" fill="#080820" fill-opacity="0.9"/>
            <path d="M175.5 65.6H174.4V72H175.5V65.6Z" fill="#080820" fill-opacity="0.9"/>
            <path d="M178.1 68.2C178.3 67 179 66.5 179.8 66.5C180.8 66.5 181.3 67.3 181.3 68.2H178.1ZM179.8 65.5C178.1 65.5 177 66.9 177 68.9C177 70.9 178.2 72.2 180.1 72.2C180.9 72.2 181.5 72 182 71.6V70.6C181.4 71 180.9 71.2 180.2 71.2C179 71.2 178.1 70.5 178.1 69H182.5V68.6C182.4 66.7 181.5 65.5 179.8 65.5Z" fill="#080820" fill-opacity="0.9"/>
            <path d="M186.5 68.5L185.5 68.2C184.9 68 184.5 67.8 184.5 67.3C184.5 66.8 185 66.5 185.7 66.5C186.5 66.5 187.1 66.8 187.6 67.3V66.2C187.1 65.8 186.4 65.6 185.7 65.6C184.4 65.6 183.5 66.3 183.5 67.4C183.5 68.4 184.1 68.9 185.1 69.2L186 69.5C186.6 69.7 186.9 69.9 186.9 70.4C186.9 71 186.3 71.3 185.6 71.3C184.8 71.3 184.1 71 183.5 70.4V71.5C184 71.9 184.8 72.1 185.6 72.1C186.9 72.1 188 71.4 188 70.2C188 69.4 187.5 68.8 186.5 68.5Z" fill="#080820" fill-opacity="0.9"/>
            <path d="M26.5008 91.1C26.5008 90.8 26.7008 90.6 27.0008 90.6C27.4008 90.6 27.6008 90.9 27.7008 91.3L28.7008 91.1C28.5008 90.2 27.9008 89.6 27.0008 89.6C26.1008 89.6 25.4008 90.2 25.4008 91.1C25.4008 92.7 27.6008 93 27.6008 94C27.6008 94.3 27.4008 94.5 27.1008 94.5C26.6008 94.5 26.4008 94.1 26.3008 93.6L25.3008 93.9C25.5008 94.9 26.1008 95.5 27.1008 95.5C28.1008 95.5 28.8008 95 28.8008 94C28.7008 92.3 26.5008 92 26.5008 91.1Z" fill="#080820" fill-opacity="0.9"/>
            <path d="M31.0992 88.2H29.8992V89.7H29.1992V90.7H29.8992V94.3C29.8992 95.2 30.3992 95.6 31.2992 95.6C31.5992 95.6 31.6992 95.6 31.8992 95.5V94.5H31.4992C31.1992 94.5 31.0992 94.3 31.0992 94V90.7H31.8992V89.7H30.9992L31.0992 88.2Z" fill="#080820" fill-opacity="0.9"/>
            <path d="M34.9996 94.1C34.7996 94.4 34.4996 94.6 34.1996 94.6C33.7996 94.6 33.5996 94.5 33.5996 94.1C33.5996 93.6 33.8996 93.2 34.8996 92.6V94.1H34.9996ZM36.1996 91.2C36.1996 90.2 35.5996 89.6 34.4996 89.6C33.3996 89.6 32.5996 90.2 32.5996 91.4H33.7996C33.7996 90.9 33.8996 90.6 34.4996 90.6C34.8996 90.6 35.0996 90.9 35.0996 91.3V91.6C33.3996 92.3 32.5996 92.9 32.5996 94.2C32.5996 94.9 32.9996 95.5 33.7996 95.5C34.3996 95.5 34.6996 95.3 35.1996 94.9C35.1996 95 35.2996 95.2 35.2996 95.4H36.3996C36.3996 95.2 36.2996 95 36.2996 94.8L36.1996 91.2Z" fill="#080820" fill-opacity="0.9"/>
            <path d="M38.7008 88.2H37.5008V89.7H36.8008V90.7H37.5008V94.3C37.5008 95.2 38.0008 95.6 38.9008 95.6C39.2008 95.6 39.3008 95.6 39.5008 95.5V94.5H39.1008C38.8008 94.5 38.7008 94.3 38.7008 94V90.7H39.5008V89.7H38.7008V88.2Z" fill="#080820" fill-opacity="0.9"/>
            <path d="M41.5008 89.7H40.3008V95.4H41.5008V89.7Z" fill="#080820" fill-opacity="0.9"/>
            <path d="M41.5008 88.2H40.3008V89.3H41.5008V88.2Z" fill="#080820" fill-opacity="0.9"/>
            <path d="M43.6004 91.1C43.6004 90.8 43.8004 90.6 44.1004 90.6C44.5004 90.6 44.7004 90.9 44.8004 91.3L45.8004 91.1C45.6004 90.2 45.0004 89.6 44.1004 89.6C43.2004 89.6 42.5004 90.2 42.5004 91.1C42.5004 92.7 44.7004 93 44.7004 94C44.7004 94.3 44.5004 94.5 44.2004 94.5C43.7004 94.5 43.5004 94.1 43.4004 93.6L42.4004 93.9C42.6004 94.9 43.2004 95.5 44.2004 95.5C45.2004 95.5 45.9004 95 45.9004 94C45.9004 92.3 43.6004 92 43.6004 91.1Z" fill="#080820" fill-opacity="0.9"/>
            <path d="M48.2008 88.2H47.0008V89.7H46.3008V90.7H47.0008V94.3C47.0008 95.2 47.5008 95.6 48.4008 95.6C48.7008 95.6 48.8008 95.6 49.0008 95.5V94.5H48.6008C48.3008 94.5 48.2008 94.3 48.2008 94V90.7H49.0008V89.7H48.2008V88.2Z" fill="#080820" fill-opacity="0.9"/>
            <path d="M52.0992 94.1C51.8992 94.4 51.5992 94.6 51.2992 94.6C50.8992 94.6 50.6992 94.5 50.6992 94.1C50.6992 93.6 50.9992 93.2 51.9992 92.6V94.1H52.0992ZM53.2992 91.2C53.2992 90.2 52.6992 89.6 51.5992 89.6C50.4992 89.6 49.6992 90.2 49.6992 91.4H50.8992C50.8992 90.9 50.9992 90.6 51.5992 90.6C51.9992 90.6 52.1992 90.9 52.1992 91.3V91.6C50.4992 92.3 49.6992 92.9 49.6992 94.2C49.6992 94.9 50.0992 95.5 50.8992 95.5C51.4992 95.5 51.7992 95.3 52.2992 94.9C52.2992 95 52.3992 95.2 52.3992 95.4H53.4992C53.4992 95.2 53.3992 95 53.3992 94.8L53.2992 91.2Z" fill="#080820" fill-opacity="0.9"/>
            <path d="M61.3 90.9C60.7 91.2 60.3 91.8 60.3 91.8C60.2 92 60.1 92.1 60 92.2C60 92.3 59.9 92.3 59.9 92.3L59.8 92.4C59.8 92.4 59.7 92.6 59.5 92.8C59.5 92.8 58.8 93.8 57.9 94.3C56.9 94.8 55.6 94.8 55.5 94.8V95.3C55.5 95.4 55.6 95.6 55.8 95.6H62.7C62.8 95.6 63 95.5 63 95.3V90.6C63 90.6 63 90.6 62.9 90.6C62.9 90.6 61.8 90.6 61.3 90.9Z" fill="#080820" fill-opacity="0.9"/>
            <path d="M55.8996 88.2C55.7996 88.2 55.5996 88.3 55.5996 88.5V93.2C55.5996 93.2 56.6996 93.2 57.1996 92.9C57.7996 92.6 58.1996 92 58.1996 92C58.2996 91.8 58.3996 91.7 58.4996 91.6C58.5996 91.5 58.5996 91.5 58.5996 91.5L58.6996 91.4C58.6996 91.4 58.7996 91.2 58.9996 91C58.9996 91 59.6996 90 60.5996 89.5C61.5996 89 62.9996 89 62.9996 89V88.5C62.9996 88.4 62.8996 88.2 62.6996 88.2H55.8996Z" fill="#080820" fill-opacity="0.9"/>
            <path d="M59.5008 30.9H58.8008C58.4008 27.3 57.7008 26.7 54.5008 26.7H53.6008V40.4C53.6008 41.7 54.1008 41.9 56.2008 41.9V42.7H48.0008V41.9C50.1008 41.9 50.6008 41.7 50.6008 40.4V26.7H49.7008C46.5008 26.7 45.8008 27.3 45.4008 30.9H44.7008V25.7C45.1008 25.8 45.6008 25.8 47.1008 25.8H57.2008C58.6008 25.8 59.1008 25.7 59.5008 25.7V30.9ZM42.9008 30.9H42.2008C41.8008 27.3 41.1008 26.7 37.9008 26.7H35.4008V33.6H37.4008C39.6008 33.6 39.7008 33.2 39.9008 31.5H40.5008V36.5H39.9008C39.7008 34.8 39.6008 34.4 37.4008 34.4H35.4008V40.4C35.4008 41.6 35.7008 41.9 38.0008 41.9V42.7H30.0008V41.9C31.6008 41.9 32.2008 41.8 32.2008 40.5V28C32.2008 26.7 31.6008 26.6 30.0008 26.6V25.8H40.5008C41.9008 25.8 42.4008 25.7 42.9008 25.7V30.9ZM62.7008 20.7H25.8008V57.6H62.6008L62.7008 20.7Z" fill="#080820" fill-opacity="0.9"/>
            <path d="M28.0004 64.7C27.4004 64.7 27.3004 64.6 27.3004 64.3V62.6H27.9004C28.5004 62.6 28.5004 62.7 28.6004 63.2H28.8004V61.8H28.6004C28.5004 62.3 28.5004 62.4 27.9004 62.4H27.3004V60.5H28.0004C28.9004 60.5 29.1004 60.6 29.2004 61.5H29.4004V60.2C29.3004 60.2 29.1004 60.2 28.8004 60.2H25.9004V60.4C26.3004 60.4 26.5004 60.4 26.5004 60.8V64.2C26.5004 64.6 26.4004 64.6 25.9004 64.6V64.8H28.0004V64.7Z" fill="#080820" fill-opacity="0.9"/>
            <path d="M29.9004 64.7V64.9H31.9004V64.7C31.5004 64.7 31.3004 64.7 31.3004 64.3V60.9C31.3004 60.5 31.4004 60.5 31.9004 60.5V60.3H29.9004V60.5C30.3004 60.5 30.5004 60.5 30.5004 60.9V64.3C30.4004 64.6 30.3004 64.7 29.9004 64.7Z" fill="#080820" fill-opacity="0.9"/>
            <path d="M36.4008 65L36.5008 60.9C36.5008 60.5 36.7008 60.5 37.2008 60.5V60.3H35.5008V60.5C35.9008 60.5 36.2008 60.6 36.2008 60.9V63.4L33.8008 60.3H32.3008V60.5C32.6008 60.5 32.8008 60.5 33.0008 60.7V64.3C33.0008 64.7 32.8008 64.7 32.3008 64.7V64.9H34.0008V64.7C33.6008 64.7 33.3008 64.6 33.3008 64.3V61L36.4008 65Z" fill="#080820" fill-opacity="0.9"/>
            <path d="M39.2 61.1L39.9 62.8H38.6L39.2 61.1ZM39.9 63L40.4 64.2C40.5 64.6 40.5 64.6 39.9 64.6V64.8H41.8V64.6C41.5 64.6 41.4 64.5 41.3 64.2L39.7 60.1H39.3L37.8 64.1C37.7 64.5 37.5 64.5 37 64.5V64.7H38.7V64.5C38.2 64.5 38 64.4 38.1 64L38.5 62.8L39.9 63Z" fill="#080820" fill-opacity="0.9"/>
            <path d="M46.2 65L46.3 60.9C46.3 60.5 46.5 60.5 47 60.5V60.3H45.3V60.5C45.7 60.5 46 60.6 46 60.9V63.4L43.6 60.3H42V60.5C42.4 60.5 42.6 60.5 42.8 60.7V64.3C42.8 64.7 42.6 64.7 42.2 64.7V64.9H43.9V64.7C43.5 64.7 43.2 64.6 43.2 64.3V61L46.2 65Z" fill="#080820" fill-opacity="0.9"/>
            <path d="M49.5992 60.4C50.3992 60.4 50.7992 60.8 50.8992 61.6H51.0992L50.9992 60.2H50.8992C50.7992 60.3 50.7992 60.4 50.6992 60.4C50.4992 60.4 50.1992 60.1 49.5992 60.1C48.2992 60.1 47.1992 61.1 47.1992 62.5C47.1992 63.9 48.3992 64.9 49.5992 64.9C50.3992 64.9 50.9992 64.6 51.2992 64.1L51.0992 64C50.6992 64.4 50.3992 64.5 49.8992 64.5C48.8992 64.5 47.9992 63.7 47.9992 62.2C48.0992 61.1 48.7992 60.4 49.5992 60.4Z" fill="#080820" fill-opacity="0.9"/>
            <path d="M51.6992 60.4C52.0992 60.4 52.2992 60.4 52.2992 60.8V64.2C52.2992 64.6 52.1992 64.6 51.6992 64.6V64.8H53.6992V64.6C53.2992 64.6 53.0992 64.6 53.0992 64.2V60.8C53.0992 60.4 53.1992 60.4 53.6992 60.4V60.2H51.6992V60.4Z" fill="#080820" fill-opacity="0.9"/>
            <path d="M56.1 61.1L56.8 62.8H55.5L56.1 61.1ZM54.9 64.2L55.3 63H56.8L57.3 64.2C57.4 64.6 57.4 64.6 56.8 64.6V64.8H58.7V64.6C58.4 64.6 58.3 64.5 58.2 64.2L56.6 60.1H56.2L54.7 64.1C54.6 64.5 54.4 64.5 54 64.5V64.7H55.6V64.5C55 64.7 54.8 64.6 54.9 64.2Z" fill="#080820" fill-opacity="0.9"/>
            <path d="M59.0996 64.7V64.9H62.5996L62.6996 63.5H62.4996C62.1996 64.5 61.9996 64.7 61.0996 64.7H60.8996C60.5996 64.7 60.4996 64.7 60.4996 64.4V60.9C60.4996 60.5 60.5996 60.5 61.0996 60.5V60.3H59.0996V60.5C59.4996 60.5 59.6996 60.5 59.6996 60.9V64.3C59.5996 64.6 59.4996 64.7 59.0996 64.7Z" fill="#080820" fill-opacity="0.9"/>
            <path d="M28.4 71.5V67.7H28.7C29.6 67.7 29.8 67.8 29.9 68.8H30.1V67.4C30 67.4 29.8 67.4 29.5 67.4H26.6C26.2 67.4 26.1 67.4 26 67.4V68.8C26.1 67.8 26.3 67.7 27.2 67.7H27.5V71.5C27.5 71.9 27.4 71.9 26.8 71.9V72.1H29.1V71.9C28.5 71.9 28.3 71.8 28.4 71.5Z" fill="#080820" fill-opacity="0.9"/>
            <path d="M32.5 67.6V67.4H30.5V67.6C30.9 67.6 31.1 67.6 31.1 68V71.4C31.1 71.8 31 71.8 30.5 71.8V72H32.5V71.8C32.1 71.8 31.9 71.8 31.9 71.4V68C31.9 67.7 32.1 67.6 32.5 67.6Z" fill="#080820" fill-opacity="0.9"/>
            <path d="M36.9008 71.9V72.1H38.9008V71.9C38.5008 71.9 38.3008 71.9 38.3008 71.5L37.9008 68C37.9008 67.6 38.0008 67.6 38.5008 67.6V67.4H36.9008L35.8008 70.6L34.8008 67.4H33.2008V67.6C33.6008 67.6 33.8008 67.6 33.8008 68L33.4008 71.5C33.4008 71.8 33.2008 71.9 32.8008 71.9V72.1H34.3008V71.9C33.9008 71.9 33.6008 71.9 33.7008 71.5L34.1008 67.9L35.5008 72.2H35.6008L37.1008 67.9L37.5008 71.5C37.4008 71.9 37.3008 71.9 36.9008 71.9Z" fill="#080820" fill-opacity="0.9"/>
            <path d="M42.9992 70.7H42.7992C42.5992 71.7 42.2992 71.9 41.3992 71.9H40.9992C40.6992 71.9 40.5992 71.9 40.5992 71.6V69.9H41.2992C41.8992 69.9 41.8992 70 41.9992 70.5H42.1992V69H41.9992C41.8992 69.5 41.8992 69.6 41.2992 69.6H40.5992V67.7H41.2992C42.1992 67.7 42.3992 67.8 42.4992 68.6H42.6992V67.4H39.1992V67.6C39.5992 67.6 39.7992 67.6 39.7992 68V71.4C39.7992 71.8 39.6992 71.8 39.1992 71.8V72H42.8992L42.9992 70.7Z" fill="#080820" fill-opacity="0.9"/>
            <path d="M45.5996 69.5L44.9996 69.2C44.5996 69 44.2996 68.8 44.2996 68.4C44.2996 68 44.5996 67.7 45.0996 67.7C45.6996 67.7 46.1996 68.2 46.2996 68.8H46.4996L46.3996 67.5H46.2996C46.1996 67.6 46.1996 67.7 46.0996 67.7C45.8996 67.7 45.6996 67.4 45.0996 67.4C44.2996 67.4 43.6996 68 43.6996 68.7C43.6996 69.3 43.9996 69.6 44.5996 69.9L45.2996 70.3C45.7996 70.6 45.9996 70.8 45.9996 71.2C45.9996 71.8 45.5996 72 45.0996 72C44.4996 72 43.8996 71.6 43.7996 70.8H43.5996L43.6996 72.2H43.7996C43.8996 72.1 43.8996 72 43.9996 72C44.1996 72 44.4996 72.3 45.0996 72.3C45.9996 72.3 46.6996 71.7 46.6996 70.9C46.5996 70.1 46.1996 69.8 45.5996 69.5Z" fill="#080820" fill-opacity="0.9"/>
            <path d="M90.7996 94.4V97.4H79.5996V97.3L84.3996 91C84.4996 90.9 84.5996 90.7 84.8996 90.4C85.0996 90.1 85.2996 89.9 85.3996 89.8C85.4996 89.7 85.5996 89.5 85.7996 89.3C85.9996 89 86.0996 88.8 86.1996 88.7C86.2996 88.6 86.3996 88.4 86.4996 88.2C86.5996 88 86.6996 87.8 86.7996 87.7C86.7996 87.6 86.8996 87.4 86.9996 87.2C87.0996 87 87.0996 86.8 87.0996 86.6C87.0996 86.4 87.0996 86.2 87.0996 86C87.0996 85.3 86.8996 84.8 86.4996 84.4C86.0996 84 85.4996 83.8 84.6996 83.8C83.8996 83.8 83.0996 84 82.2996 84.4C81.4996 84.8 80.7996 85.3 80.0996 85.9V82.6C80.6996 82 81.4996 81.5 82.3996 81.2C83.2996 80.8 84.2996 80.7 85.2996 80.7C86.8996 80.7 88.1996 81.1 89.0996 82C89.9996 82.9 90.4996 84.1 90.4996 85.6C90.4996 86 90.3996 86.5 90.2996 86.9C90.1996 87.4 89.9996 87.7 89.8996 88.1C89.7996 88.4 89.4996 88.9 89.1996 89.4C88.8996 89.9 88.5996 90.3 88.3996 90.6C88.1996 90.9 87.8996 91.3 87.4996 91.9L85.4996 94.5H90.7996V94.4Z" fill="#080820"/>
            <path d="M103.7 95.3C102.5 96.9 100.9 97.7 99 97.7C97.1 97.7 95.5 96.9 94.3 95.3C93.1 93.7 92.5 91.7 92.5 89.2C92.5 86.7 93.1 84.6 94.3 83.1C95.5 81.5 97.1 80.7 99 80.7C100.9 80.7 102.5 81.5 103.7 83.1C104.9 84.7 105.5 86.7 105.5 89.2C105.5 91.7 104.9 93.7 103.7 95.3ZM99 83.7C98.3 83.7 97.7 83.9 97.2 84.4C96.7 84.9 96.4 85.5 96.2 86.3C96 87.1 95.9 88 95.9 89.1C95.9 90.7 96.2 92.1 96.7 93.1C97.2 94.1 98 94.6 99.1 94.6C100.1 94.6 100.9 94.1 101.5 93.1C102.1 92.1 102.3 90.8 102.3 89.2C102.3 87.6 102 86.3 101.5 85.3C101 84.3 100 83.7 99 83.7Z" fill="#080820"/>
            <path d="M117.8 94.4V97.4H106.6V97.3L111.4 91C111.5 90.9 111.6 90.7 111.9 90.4C112.1 90.1 112.3 89.9 112.4 89.8C112.5 89.7 112.6 89.5 112.8 89.3C113 89 113.1 88.8 113.2 88.7C113.3 88.6 113.4 88.4 113.5 88.2C113.6 88 113.7 87.8 113.8 87.7C113.8 87.6 113.9 87.4 114 87.2C114.1 87 114.1 86.8 114.1 86.6C114.1 86.4 114.1 86.2 114.1 86C114.1 85.3 113.9 84.8 113.5 84.4C113.1 84 112.5 83.8 111.7 83.8C110.9 83.8 110.1 84 109.3 84.4C108.5 84.8 107.8 85.3 107.1 85.9V82.6C107.7 82 108.5 81.5 109.4 81.2C110.3 80.8 111.3 80.7 112.3 80.7C113.9 80.7 115.2 81.1 116.1 82C117 82.9 117.5 84.1 117.5 85.6C117.5 86 117.4 86.5 117.3 86.9C117.2 87.4 117 87.7 116.9 88.1C116.8 88.4 116.5 88.9 116.2 89.4C115.9 89.9 115.6 90.3 115.4 90.6C115.2 90.9 114.9 91.3 114.5 91.9L112.5 94.5H117.8V94.4Z" fill="#080820"/>
            <path d="M119.8 81H130L126.6 87.5C127.7 87.8 128.5 88.4 129.2 89.2C129.8 90 130.1 91 130.1 92.1C130.1 93.7 129.5 95.1 128.4 96.1C127.3 97.1 125.9 97.6 124.3 97.6C122.4 97.6 120.8 97.1 119.6 96.2V92.9C120.9 94.1 122.4 94.7 124 94.7C124.9 94.7 125.6 94.5 126.1 94.1C126.6 93.7 126.8 93 126.8 92.2C126.8 91.2 126.4 90.5 125.6 90.1C124.8 89.6 123.7 89.4 122.4 89.5V89.4L125.3 84H119.7V81H119.8Z" fill="#080820"/>
        </g>
    </g>
    <defs>
        <clipPath id="clip0_5512_26852">
            <rect width="214" height="113" fill="white"/>
        </clipPath>
    </defs>
</svg>