<svg width="459" height="262" viewBox="0 0 459 262" fill="none" xmlns="http://www.w3.org/2000/svg">
<g clip-path="url(#clip0_6989_3256)">
<path d="M182.356 49.7002H185.524L184.879 48.0136C184.7 47.5693 184.547 47.1414 184.403 46.7218C184.259 46.3105 184.114 45.8826 183.978 45.4466H183.944C183.8 45.8826 183.656 46.3022 183.503 46.7054C183.35 47.1085 183.189 47.5446 183.01 48.0136L182.356 49.7002ZM183.367 43.7764H184.624L188.463 53.5507H186.993L185.94 50.8356H181.983L180.946 53.5507H179.494L183.375 43.7764H183.367Z" fill="white" fill-opacity="0.9"/>
<path d="M193.839 48.7047C193.839 48.1534 193.703 47.7503 193.423 47.4952C193.143 47.2402 192.769 47.1085 192.319 47.1085C191.869 47.1085 191.487 47.2402 191.215 47.4952C190.934 47.7503 190.79 48.137 190.79 48.6471C190.79 49.1819 190.934 49.5768 191.215 49.8319C191.495 50.0869 191.86 50.2103 192.319 50.2103C192.777 50.2103 193.143 50.0869 193.423 49.8401C193.703 49.5933 193.839 49.2148 193.839 48.7047ZM191.045 53.5425C190.527 53.7811 190.264 54.1513 190.264 54.6614C190.264 55.5747 190.985 56.0272 192.438 56.0272C192.862 56.0272 193.228 55.9861 193.525 55.9038C193.822 55.8215 194.06 55.7146 194.247 55.5747C194.434 55.4431 194.561 55.295 194.654 55.1222C194.739 54.9576 194.782 54.7849 194.782 54.6121C194.782 54.176 194.637 53.888 194.349 53.7482C194.06 53.6083 193.695 53.5343 193.253 53.5343H191.053L191.045 53.5425ZM189.406 48.6718C189.406 48.2686 189.474 47.9066 189.618 47.594C189.762 47.2813 189.966 47.0098 190.221 46.7959C190.484 46.582 190.79 46.4174 191.147 46.3022C191.504 46.1953 191.894 46.1377 192.31 46.1377C192.463 46.1377 192.608 46.1459 192.752 46.1706C192.896 46.1953 193.041 46.22 193.177 46.2447H196.285V47.2566H195.809L194.586 47.0839C194.782 47.2896 194.935 47.5282 195.037 47.7997C195.147 48.0712 195.198 48.3509 195.198 48.6553C195.198 49.0585 195.121 49.4205 194.986 49.7331C194.841 50.0458 194.646 50.3173 194.391 50.5312C194.136 50.7451 193.831 50.9097 193.474 51.0249C193.117 51.1318 192.726 51.1894 192.31 51.1894C191.996 51.1894 191.716 51.173 191.487 51.1318C191.257 51.2141 191.087 51.3211 191.002 51.4527C190.909 51.5843 190.867 51.716 190.867 51.8641C190.867 52.1027 190.943 52.259 191.104 52.3413C191.266 52.4235 191.47 52.4647 191.741 52.4647H193.635C194.434 52.4647 195.037 52.6457 195.461 53.0159C195.886 53.3862 196.098 53.8798 196.098 54.5133C196.098 54.9165 196.013 55.2785 195.835 55.5994C195.665 55.9203 195.419 56.1918 195.096 56.4221C194.773 56.6525 194.383 56.8253 193.924 56.9405C193.465 57.0557 192.956 57.1215 192.378 57.1215C191.342 57.1215 190.51 56.9322 189.898 56.5538C189.278 56.1753 188.973 55.6241 188.973 54.8836C188.973 54.5051 189.092 54.1842 189.329 53.921C189.567 53.6577 189.881 53.4684 190.272 53.3286C190.068 53.1805 189.915 53.0324 189.813 52.8678C189.712 52.7115 189.661 52.4894 189.661 52.2261C189.661 51.9052 189.754 51.6337 189.941 51.4033C190.128 51.173 190.382 50.992 190.714 50.8603C190.306 50.6711 189.992 50.3996 189.762 50.0458C189.533 49.692 189.414 49.2313 189.414 48.6718" fill="white" fill-opacity="0.9"/>
<path d="M202.203 49.0749C202.203 48.8034 202.169 48.5566 202.101 48.318C202.033 48.0876 201.931 47.8819 201.795 47.7092C201.659 47.5364 201.481 47.3965 201.268 47.2896C201.056 47.1826 200.793 47.1332 200.487 47.1332C199.927 47.1332 199.468 47.3142 199.12 47.6762C198.772 48.0383 198.551 48.5155 198.466 49.0996L202.194 49.0667L202.203 49.0749ZM203.596 50.054H198.44V50.1116C198.44 50.9179 198.653 51.535 199.086 51.971C199.519 52.4071 200.105 52.621 200.852 52.621C201.243 52.621 201.583 52.5881 201.888 52.5305C202.186 52.4729 202.517 52.366 202.874 52.2179L203.145 53.2216C202.848 53.3533 202.5 53.4684 202.101 53.5425C201.693 53.6248 201.268 53.6659 200.81 53.6659C200.292 53.6659 199.808 53.5919 199.349 53.452C198.899 53.3039 198.491 53.0817 198.152 52.7773C197.803 52.4729 197.532 52.0862 197.336 51.609C197.141 51.1318 197.039 50.5641 197.039 49.8977C197.039 49.33 197.124 48.8116 197.294 48.3509C197.464 47.8819 197.702 47.487 198.007 47.1661C198.313 46.8453 198.687 46.5902 199.111 46.4092C199.544 46.2282 200.029 46.1377 200.572 46.1377C201.031 46.1377 201.447 46.2117 201.821 46.3681C202.194 46.5244 202.508 46.7383 202.78 47.018C203.052 47.2978 203.247 47.6351 203.392 48.0218C203.536 48.4167 203.604 48.8528 203.604 49.33V50.0458L203.596 50.054Z" fill="white" fill-opacity="0.9"/>
<path d="M206.526 53.5425H205.176V46.2529H206.229L206.424 47.2566C206.781 46.8946 207.155 46.6231 207.545 46.4257C207.936 46.2364 208.386 46.1377 208.896 46.1377C209.626 46.1377 210.204 46.3434 210.628 46.763C211.044 47.1826 211.257 47.7668 211.257 48.5072V53.5343H209.915V48.7047C209.915 48.2604 209.796 47.9066 209.567 47.6433C209.337 47.3801 208.989 47.2484 208.522 47.2484C207.809 47.2484 207.138 47.5775 206.518 48.2275V53.5343L206.526 53.5425Z" fill="white" fill-opacity="0.9"/>
<path d="M216.752 52.6293C217.074 52.6293 217.363 52.5964 217.609 52.5223C217.856 52.4483 218.093 52.3578 218.331 52.2426L218.62 53.2711C218.068 53.5508 217.414 53.6907 216.65 53.6907C216.132 53.6907 215.647 53.6084 215.189 53.4603C214.73 53.304 214.34 53.0736 213.991 52.7527C213.652 52.4401 213.38 52.0451 213.193 51.5762C212.998 51.1072 212.904 50.556 212.904 49.9224C212.904 49.3465 212.998 48.8199 213.176 48.351C213.363 47.882 213.618 47.4871 213.94 47.1662C214.263 46.8371 214.662 46.5903 215.112 46.4093C215.571 46.2365 216.072 46.146 216.624 46.146C216.938 46.146 217.244 46.1707 217.55 46.2118C217.847 46.2612 218.195 46.3681 218.577 46.5491L218.272 47.5858C217.805 47.3143 217.295 47.1827 216.76 47.1827C216.013 47.1827 215.41 47.4213 214.96 47.8902C214.501 48.3592 214.272 49.0174 214.272 49.8648C214.272 50.3914 214.348 50.8357 214.484 51.1813C214.62 51.5268 214.815 51.8148 215.044 52.0287C215.282 52.2426 215.546 52.3907 215.843 52.4894C216.14 52.5799 216.437 52.6293 216.743 52.6293" fill="white" fill-opacity="0.9"/>
<path d="M219.196 46.2529H220.631L222.16 50.4243L222.678 52.1603H222.712L223.23 50.4243L224.623 46.2529H225.999L223.23 54.1678C222.924 55.0482 222.542 55.7311 222.075 56.2329C221.608 56.7266 221.056 57.0886 220.419 57.319L219.833 56.2329C220.317 56.0437 220.733 55.7722 221.107 55.4266C221.481 55.0729 221.769 54.5874 221.973 53.9704L222.109 53.5508L219.188 46.2612L219.196 46.2529Z" fill="white" fill-opacity="0.9"/>
<path d="M184.878 71.1249C185.387 71.1249 185.803 71.0838 186.143 71.0015C186.474 70.9192 186.806 70.804 187.128 70.6477L187.451 71.7996C187.094 71.9724 186.704 72.104 186.279 72.1863C185.854 72.2685 185.336 72.3097 184.725 72.3097C184.113 72.3097 183.502 72.2027 182.933 71.9888C182.372 71.7749 181.888 71.454 181.472 71.0262C181.056 70.5984 180.733 70.0718 180.495 69.4465C180.258 68.8212 180.139 68.0972 180.139 67.2826C180.139 66.4681 180.258 65.777 180.487 65.1517C180.716 64.5264 181.047 63.9999 181.455 63.572C181.871 63.1442 182.355 62.8151 182.933 62.5929C183.502 62.3708 184.122 62.2556 184.801 62.2556C185.43 62.2556 185.956 62.305 186.364 62.4119C186.772 62.5189 187.154 62.6588 187.493 62.8315L187.154 63.9505C186.958 63.8682 186.78 63.7942 186.61 63.7283C186.44 63.6625 186.27 63.6049 186.101 63.5638C185.931 63.5227 185.761 63.4897 185.583 63.4733C185.404 63.4568 185.2 63.4404 184.98 63.4404C184.529 63.4404 184.105 63.5144 183.706 63.6543C183.306 63.7942 182.95 64.0163 182.653 64.329C182.355 64.6416 182.109 65.0365 181.931 65.5302C181.752 66.0238 181.667 66.6162 181.667 67.3073C181.667 67.9984 181.752 68.6073 181.931 69.0927C182.101 69.5781 182.338 69.9731 182.627 70.2693C182.916 70.5737 183.256 70.7876 183.646 70.9275C184.028 71.0673 184.445 71.1331 184.886 71.1331" fill="white" fill-opacity="0.9"/>
<path d="M194.219 68.5167C194.219 68.0313 194.159 67.6199 194.032 67.2744C193.913 66.9288 193.751 66.6491 193.548 66.4352C193.352 66.2212 193.123 66.0649 192.868 65.9662C192.613 65.8675 192.35 65.8181 192.087 65.8181C191.824 65.8181 191.56 65.8592 191.306 65.9415C191.051 66.0238 190.821 66.1719 190.635 66.3776C190.439 66.5833 190.286 66.863 190.167 67.2085C190.049 67.5541 189.989 67.9902 189.989 68.5167C189.989 69.0022 190.049 69.4218 190.176 69.7673C190.295 70.1129 190.456 70.4008 190.66 70.6148C190.855 70.8287 191.085 70.9932 191.339 71.092C191.594 71.1989 191.858 71.2483 192.121 71.2483C192.384 71.2483 192.647 71.2071 192.902 71.1166C193.157 71.0261 193.386 70.878 193.573 70.6641C193.768 70.4502 193.921 70.1705 194.04 69.8249C194.159 69.4794 194.219 69.0433 194.219 68.5085M195.628 68.4345C195.628 69.0433 195.535 69.5945 195.357 70.0717C195.17 70.5489 194.915 70.9603 194.601 71.2894C194.278 71.6185 193.904 71.8736 193.48 72.0463C193.055 72.2191 192.588 72.3014 192.087 72.3014C191.586 72.3014 191.127 72.2191 190.703 72.0628C190.278 71.9065 189.913 71.6679 189.607 71.347C189.293 71.0344 189.055 70.6477 188.877 70.1869C188.698 69.7262 188.613 69.1996 188.613 68.599C188.613 67.9984 188.707 67.4471 188.885 66.9699C189.072 66.4928 189.327 66.0896 189.641 65.7687C189.964 65.4396 190.337 65.1928 190.762 65.0282C191.187 64.8555 191.654 64.7732 192.155 64.7732C192.656 64.7732 193.114 64.8472 193.539 65.0036C193.964 65.1599 194.329 65.3903 194.643 65.7029C194.957 66.0156 195.195 66.4022 195.374 66.863C195.552 67.3237 195.637 67.8503 195.637 68.4509" fill="white" fill-opacity="0.9"/>
<path d="M202.076 64.8718H203.427V72.1614H202.374L202.187 71.2482H202.127C201.864 71.5526 201.533 71.7994 201.142 72.0051C200.752 72.2108 200.293 72.3095 199.775 72.3095C199.028 72.3095 198.425 72.0956 197.966 71.6678C197.499 71.24 197.27 70.59 197.27 69.7179V64.8801H198.62V69.5533C198.62 69.8659 198.662 70.1292 198.73 70.3431C198.807 70.5571 198.909 70.7298 199.036 70.8615C199.163 70.9931 199.316 71.0836 199.486 71.1412C199.665 71.1988 199.851 71.2235 200.055 71.2235C200.463 71.2235 200.828 71.133 201.159 70.9602C201.482 70.7874 201.796 70.5406 202.093 70.228V64.8718H202.076Z" fill="white" fill-opacity="0.9"/>
<path d="M206.848 72.1697H205.498V64.8801H206.551L206.746 65.8838C207.103 65.5218 207.477 65.2503 207.868 65.0529C208.258 64.8636 208.708 64.7649 209.218 64.7649C209.948 64.7649 210.526 64.9706 210.95 65.3902C211.367 65.8098 211.579 66.3939 211.579 67.1344V72.1615H210.237V67.3319C210.237 66.8876 210.118 66.5338 209.889 66.2705C209.66 66.0073 209.311 65.8756 208.844 65.8756C208.131 65.8756 207.46 66.2047 206.84 66.8547V72.1615L206.848 72.1697Z" fill="white" fill-opacity="0.9"/>
<path d="M217.074 71.2482C217.397 71.2482 217.685 71.2153 217.932 71.1412C218.178 71.0672 218.416 70.9767 218.653 70.8615L218.942 71.8899C218.39 72.1697 217.736 72.3096 216.972 72.3096C216.454 72.3096 215.97 72.2273 215.511 72.0792C215.053 71.9229 214.662 71.6925 214.314 71.3716C213.974 71.059 213.702 70.664 213.515 70.1951C213.32 69.7261 213.227 69.1749 213.227 68.5413C213.227 67.9654 213.32 67.4388 213.498 66.9699C213.685 66.5009 213.94 66.106 214.263 65.7851C214.585 65.456 214.985 65.2092 215.435 65.0282C215.893 64.8554 216.394 64.7649 216.946 64.7649C217.261 64.7649 217.566 64.7896 217.872 64.8307C218.169 64.8801 218.518 64.987 218.9 65.168L218.594 66.2047C218.127 65.9332 217.617 65.8016 217.082 65.8016C216.335 65.8016 215.732 66.0402 215.282 66.5091C214.823 66.9781 214.594 67.6363 214.594 68.4837C214.594 69.0103 214.67 69.4546 214.806 69.8002C214.942 70.1457 215.137 70.4337 215.367 70.6476C215.605 70.8615 215.868 71.0096 216.165 71.1083C216.462 71.1988 216.76 71.2482 217.065 71.2482" fill="white" fill-opacity="0.9"/>
<path d="M220.632 64.8719H221.983V72.1615H220.632V64.8719ZM221.303 62.996C221.065 62.996 220.87 62.9137 220.7 62.7574C220.53 62.5928 220.445 62.3954 220.445 62.1568C220.445 61.9182 220.53 61.7207 220.7 61.5562C220.87 61.3916 221.065 61.3093 221.303 61.3093C221.541 61.3093 221.728 61.3916 221.898 61.5562C222.076 61.7207 222.161 61.9264 222.161 62.1568C222.161 62.3871 222.076 62.5928 221.898 62.7574C221.728 62.9137 221.524 62.996 221.303 62.996Z" fill="white" fill-opacity="0.9"/>
<path d="M225.559 61.1448H224.242V72.1615H225.559V61.1448Z" fill="white" fill-opacity="0.9"/>
<path d="M162.814 40H160.801V75H162.814V40Z" fill="white" fill-opacity="0.9"/>
<path d="M77.2911 50.2515C76.1871 50.2515 75.5841 50.3667 74.6838 50.7698C73.0532 51.4938 71.8217 52.6868 70.7262 54.6038L70.3865 55.2044L70.4289 54.1431C70.4544 53.5589 70.4969 52.4647 70.5223 51.716L70.5733 50.3502H70.3355C70.0383 50.3502 60.5772 52.1849 60.2885 52.2919C60.1017 52.3659 60.0762 52.4482 60.0762 52.8843C60.0762 53.3203 60.1017 53.3944 60.2885 53.4355C60.4074 53.4602 60.8405 53.5425 61.2567 53.6165C62.089 53.7729 62.3438 53.8963 62.6835 54.3406C63.3204 55.1551 63.4478 56.5949 63.4393 62.6915C63.4393 67.6692 63.3289 70.1539 63.0826 70.9273C62.7854 71.8817 62.2503 72.3671 61.3246 72.5317C61.0274 72.5893 60.6282 72.6633 60.4499 72.7045L60.1186 72.7703L60.0932 73.412C60.0762 73.8563 60.0932 74.0702 60.1866 74.1278C60.2545 74.169 63.4903 74.1936 67.3715 74.1854L74.4375 74.1607L74.463 73.4449C74.48 73.05 74.463 72.7291 74.4121 72.7291C73.86 72.7291 72.1784 72.507 71.9152 72.4C71.1168 72.0792 70.7347 71.388 70.5648 69.9811C70.3695 68.3274 70.2506 64.2301 70.31 60.865C70.361 57.467 70.3695 57.4506 70.5903 57.2284C71.0999 56.6936 72.3993 56.2823 73.5628 56.2823C74.497 56.2823 75.4567 56.5126 76.4758 56.9898C76.9684 57.2202 77.4185 57.3848 77.478 57.3601C77.6054 57.3107 79.9239 51.3786 79.9239 51.0989C79.9239 50.6875 78.6075 50.2679 77.2911 50.2679" fill="white" fill-opacity="0.9"/>
<path d="M49.4503 72.8608C46.843 73.6095 44.9745 71.207 44.2527 66.1553C44.0149 64.5263 44.0233 60.0834 44.2527 58.224C44.7622 54.1678 46.0531 52.1109 48.0914 52.1027C49.0086 52.1027 49.5182 52.3166 50.2316 53.0159C51.9387 54.6861 52.754 57.8702 52.737 62.8725C52.7285 66.8629 52.3208 69.3805 51.3951 71.0836C50.9535 71.9064 50.1212 72.6633 49.4418 72.8608M60.0663 60.5688C59.5652 56.4633 57.7732 53.4602 54.8092 51.7736C51.514 49.8977 46.5117 49.7907 42.9533 51.5185C40.3799 52.7691 38.2907 55.1715 37.3565 57.936C36.3968 60.791 36.3968 64.5263 37.3565 67.4388C37.9765 69.3065 38.8088 70.664 40.0997 71.8982C41.6454 73.3791 43.6667 74.3253 45.9852 74.6544C46.8175 74.7696 49.4248 74.7696 50.2826 74.6544C50.6902 74.5968 51.3866 74.4487 51.8452 74.3253C56.0407 73.1487 58.9028 70.0223 59.8879 65.5547C60.1257 64.4605 60.2277 61.8194 60.0748 60.5606" fill="white" fill-opacity="0.9"/>
<path d="M25.6199 44.2454H28.6263C32.0744 44.2454 32.6434 44.3195 33.8664 44.8954C35.6414 45.7346 36.9323 47.4048 38.0618 50.3009C38.5205 51.4774 38.512 51.4774 39.5396 51.173L40.219 50.9756L40.1596 46.7055C40.1256 44.3606 40.0661 42.2708 40.0322 42.0651L39.9727 41.6949L26.8004 41.6702C19.556 41.6537 13.4921 41.6702 13.3222 41.6949L13.008 41.7442L13.0335 42.5012L13.059 43.2581L14.0611 43.3733C15.3605 43.5214 16.1419 43.8752 16.6005 44.5252C17.6366 45.9979 17.8319 47.989 17.8234 57.4918C17.8234 67.6117 17.6026 70.0635 16.6005 71.3387C16.0824 71.997 15.6663 72.2109 14.4858 72.4248C12.9571 72.721 13.008 72.6881 13.008 73.4532C13.008 73.8811 13.0505 74.1114 13.1269 74.1443C13.2968 74.2102 30.1465 74.2184 30.3249 74.1443C30.5542 74.0621 30.5372 72.8526 30.3079 72.7374C30.2145 72.6881 29.6455 72.5811 29.0425 72.4906C28.4395 72.4001 27.777 72.2602 27.5647 72.1697C26.4606 71.7008 25.8492 70.4173 25.6199 68.0889C25.4585 66.4187 25.3311 63.3416 25.3311 61.0708V58.9892L26.3587 59.0221C28.5414 59.0879 29.6709 59.1949 30.1295 59.3923C31.1147 59.8119 31.9215 60.9967 32.3292 62.6505L32.55 63.5308L33.3313 63.5555L34.1127 63.5802V52.4647L33.3313 52.4894L32.55 52.5141L32.3207 53.3862C31.8791 55.0893 31.1572 56.1342 30.0956 56.6032C29.6624 56.7924 29.3652 56.85 28.3291 56.9076C27.6411 56.9488 26.6899 56.9817 26.1974 56.9817H25.3141V54.2337C25.3141 51.4774 25.467 45.6194 25.5604 44.7062L25.6114 44.2207L25.6199 44.2454Z" fill="white" fill-opacity="0.9"/>
<path d="M145.141 63.8435C144.342 62.2885 142.865 61.2271 139.765 59.9683C137.234 58.9481 135.968 58.2323 135.196 57.4178C134.567 56.7513 134.38 56.2166 134.44 55.221C134.499 54.2995 134.728 53.7565 135.323 53.1395C136.087 52.3496 137.14 52.0699 138.397 52.3332C140.461 52.7528 141.786 54.1432 142.924 57.064C143.332 58.1089 143.383 58.1418 144.113 57.8785L144.572 57.714L144.555 56.5127C144.546 55.8545 144.512 54.4641 144.478 53.4274L144.419 51.5433L144.071 51.4034C142.185 50.6301 138.584 50.1446 136.24 50.3503C133.573 50.5889 131.62 51.4034 130.117 52.9173C128.622 54.423 127.943 56.1836 128.062 58.2734C128.163 60.0012 128.69 61.2436 129.794 62.3379C130.813 63.3498 131.671 63.827 134.125 64.7568C138.092 66.2542 139.145 67.1427 139.128 68.9939C139.128 70.5572 138.261 71.7008 136.707 72.2274C136.147 72.4166 134.745 72.4166 133.99 72.2274C132.019 71.7255 130.507 70.0718 129.225 67.0029L128.894 66.213L128.503 66.2295C128.291 66.2377 128.002 66.3035 127.849 66.3694L127.586 66.4928L127.611 67.8339C127.628 68.5743 127.662 70.1211 127.696 71.2894L127.756 73.4039L128.197 73.5849C129.098 73.9634 131.807 74.5393 133.505 74.7121C133.718 74.7368 134.873 74.7368 136.079 74.7285C138.176 74.7039 138.321 74.6956 139.382 74.4241C142.491 73.6343 144.504 71.9559 145.395 69.4053C145.667 68.6237 145.71 68.3851 145.744 67.2168C145.795 65.6618 145.65 64.8555 145.124 63.8517" fill="white" fill-opacity="0.9"/>
<path d="M113.972 59.6228L112.18 59.6475V59.2772C112.18 59.0715 112.239 58.5285 112.316 58.0678C112.91 54.3407 114.345 52.111 116.137 52.111C117.793 52.111 118.804 54.3078 119.016 58.3393L119.076 59.4829L117.411 59.5405C116.494 59.5734 114.94 59.6063 113.963 59.6228M121.08 51.1895C118.456 49.9143 114.405 50.0048 111.449 51.4035C108.647 52.7281 106.71 54.9413 105.632 58.0596C105.071 59.6886 104.893 60.9968 104.952 63.103C104.986 64.4359 105.046 65.1188 105.19 65.7359C106.294 70.5161 109.683 73.7742 114.422 74.5969C115.466 74.7779 117.836 74.7862 118.889 74.6052C120.392 74.3501 122.125 73.7001 123.22 72.9843C124.554 72.1122 125.921 70.7958 125.921 70.3927C125.921 70.1458 125.462 69.5699 125.267 69.5699C125.182 69.5699 124.809 69.7591 124.443 69.9895C123.135 70.804 121.887 71.1414 120.154 71.1414C117.759 71.1414 116.239 70.5654 114.711 69.068C114.031 68.4098 113.759 68.0478 113.411 67.3978C112.647 65.958 112.222 64.3043 112.163 62.4284L112.137 61.6221L119.203 61.5974L126.269 61.5727L126.303 61.112C126.32 60.8569 126.286 60.1905 126.227 59.631C125.785 55.4761 124.053 52.6129 121.097 51.1813" fill="white" fill-opacity="0.9"/>
<path d="M88.6966 72.5729C88.5777 72.2603 88.4334 61.4246 88.4843 57.0969L88.5268 53.7154L89.1637 53.5344C89.5884 53.411 90.081 53.3534 90.6585 53.3534C91.4653 53.3534 91.5672 53.378 92.2551 53.6989C93.8942 54.4888 95.0238 56.4387 95.5419 59.4088C95.7372 60.5031 95.7627 63.5062 95.5843 64.8226C95.1512 68.056 94.0641 70.6559 92.6118 71.9229C92.0343 72.4248 91.4908 72.6963 90.8029 72.8197C90.3018 72.9102 90.1489 72.9102 89.2402 72.8444C88.858 72.8197 88.7646 72.7704 88.6881 72.5729M95.4909 50.7535C94.9304 50.6383 94.4208 50.6136 93.3252 50.6547C91.6776 50.7123 90.5481 50.9509 89.3166 51.5022C88.909 51.6832 88.5523 51.8313 88.5268 51.8313C88.5013 51.8313 88.5013 49.4206 88.5353 46.4669C88.5777 42.312 88.5692 41.1025 88.4843 41.1025C88.1701 41.1025 78.4203 42.8961 78.3184 42.9784C78.242 43.036 78.208 43.2417 78.225 43.5461C78.2505 44.0727 78.191 44.0315 79.38 44.2866C79.7367 44.3606 80.1529 44.517 80.3057 44.6239C80.7049 44.8954 81.0361 45.4878 81.2569 46.3353C81.4353 47.0017 81.4608 47.4871 81.5457 52.0123C81.6306 56.6362 81.6136 61.3917 81.4862 70.1047L81.4353 73.7248L82.1317 73.8811C83.1423 74.1032 86.0384 74.5722 86.9811 74.6627C88.3739 74.8026 91.6097 74.7779 92.6373 74.6298C97.113 73.9716 100.493 71.4622 102.064 67.6035C102.48 66.5833 102.88 65.0118 103.024 63.8435C103.185 62.4695 103.1 59.7297 102.846 58.6354C101.894 54.4147 99.1683 51.4939 95.4994 50.7617" fill="white" fill-opacity="0.9"/>
</g>
<g clip-path="url(#clip1_6989_3256)">
<path d="M390.929 69.6024C391.87 72.915 393.979 75.0526 397.348 75.8312C399.91 76.4257 402.486 76.3691 405.02 75.6471C408.042 74.7836 410.045 72.8442 411.043 69.8643C411.545 68.3567 411.715 66.7924 411.722 65.221C411.743 61.6537 411.729 58.0863 411.722 54.5189C411.722 54.0234 411.63 53.9385 411.142 53.9385C409.16 53.9385 407.178 53.9385 405.204 53.9385C404.652 53.9385 404.595 53.988 404.595 54.5614V65.0795C404.595 65.8156 404.539 66.5376 404.376 67.2454C404.163 68.1655 403.803 69.022 402.989 69.5882C401.177 70.834 398.714 70.02 397.935 67.9249C397.553 66.8915 397.482 65.8085 397.482 64.7185C397.482 61.3068 397.482 57.8952 397.482 54.4906C397.482 54.0234 397.405 53.9456 396.945 53.9456C394.927 53.9456 392.91 53.9456 390.9 53.9456C390.447 53.9456 390.37 54.0305 390.37 54.4977V60.2239C390.37 61.9792 390.355 63.7275 390.37 65.4829C390.384 66.8844 390.554 68.2646 390.936 69.6166" fill="white" fill-opacity="0.9"/>
<path d="M367.807 59.9053H372.747C373.362 59.9053 373.419 59.962 373.419 60.5778V75.3923C373.419 75.9373 373.49 76.0081 374.042 76.0081C376.009 76.0081 377.977 76.0081 379.944 76.0081C380.497 76.0081 380.546 75.9586 380.546 75.3853V60.5353C380.546 59.9832 380.624 59.8983 381.197 59.8983H386.279C386.774 59.8983 386.838 59.8346 386.838 59.3462V54.5472C386.838 53.9809 386.788 53.9314 386.229 53.9314H367.828C367.347 53.9314 367.262 54.0093 367.262 54.4906V59.3533C367.262 59.8133 367.354 59.8912 367.807 59.8912" fill="white" fill-opacity="0.9"/>
<path d="M363.165 76.0081C363.667 76.0081 363.738 75.9444 363.738 75.4631V54.4906C363.738 54.0093 363.667 53.9385 363.172 53.9385H357.262C356.66 53.9385 356.625 53.9739 356.625 54.5614V75.4277C356.625 75.9727 356.667 76.0152 357.227 76.0152H363.165V76.0081Z" fill="white" fill-opacity="0.9"/>
<path d="M418 98C412.89 95.4943 408.417 93.1161 404.73 90.936C412.77 84.7356 417.95 75.0102 417.95 64.0886C417.95 45.3599 402.734 30.1772 383.972 30.1772C377.326 30.1772 371.126 32.0813 365.889 35.3726C363.214 31.6849 360.383 27.5371 357.467 23C360.135 28.5705 362.407 32.9802 364.289 36.4414C355.641 42.5923 350 52.6787 350 64.0886C350 82.8174 365.209 98 383.979 98C390.936 98 397.405 95.9119 402.791 92.3304C408.07 94.5246 413.308 96.3579 418 98ZM390.016 92.8046C389.393 92.8046 388.763 92.7905 388.126 92.7622C388.763 92.1959 389.379 91.5447 389.98 90.8086C390.773 89.8177 391.523 88.671 392.231 87.3545C394.659 88.671 397.157 89.8814 399.655 90.9926C399.202 91.2545 398.735 91.5093 398.268 91.7429C395.812 92.4366 393.024 92.8117 390.023 92.8117M394.751 93.2647C391.488 94.4468 387.97 95.105 384.304 95.1334C384.97 94.8715 385.628 94.5459 386.272 94.1495C386.604 93.9442 386.93 93.7248 387.256 93.4771C388.19 93.5479 389.117 93.5762 390.023 93.5762C391.665 93.5762 393.25 93.47 394.751 93.2576M402.182 89.3859C399.542 87.7155 397.44 86.1937 395.954 84.8417C398.049 84.7851 400.087 84.5374 402.005 84.0844C405.338 83.3058 408.346 81.9043 410.731 79.8092C410.965 79.6039 411.192 79.3986 411.411 79.1792C409.132 83.2208 405.968 86.7104 402.175 89.3788M368.132 38.3808C371.36 37.2271 374.821 36.6467 378.373 36.6467C380.985 36.6467 383.639 36.9652 386.279 37.6022C386.229 37.6942 386.18 37.7862 386.137 37.8783C385.89 38.4233 385.769 39.0037 385.769 39.5982C385.769 40.3061 385.932 41.0351 386.244 41.75C386.463 42.2738 386.767 42.7976 387.135 43.3072C384.276 44.8361 381.19 46.91 377.913 49.6492C375.111 47.0374 371.784 43.2081 368.125 38.3879M386.951 41.4527C386.675 40.8157 386.541 40.1857 386.541 39.5982C386.541 39.1028 386.64 38.6356 386.838 38.2039C386.902 38.0694 386.973 37.9349 387.057 37.8075C389.414 38.4374 391.757 39.3293 394.022 40.483C392.288 40.9643 390.426 41.6651 388.445 42.6348C388.239 42.7339 388.034 42.84 387.822 42.9462C387.454 42.4507 387.157 41.9482 386.944 41.4527M393.116 37.6942C393.604 38.3596 394.064 39.0815 394.496 39.8672C392.252 38.7135 389.938 37.8075 387.602 37.1563C388.048 36.7458 388.622 36.4202 389.301 36.1937C389.966 35.9813 390.724 35.861 391.545 35.8468C392.09 36.3918 392.613 37.0076 393.109 37.6871M392.642 35.8822C394 36.0096 395.48 36.3918 396.938 37.0643C398.445 37.765 399.74 38.671 400.738 39.6619C400.427 39.6478 400.108 39.6336 399.776 39.6336C398.466 39.6336 397.037 39.7823 395.501 40.1079C395.253 39.6266 394.991 39.1665 394.729 38.7276C394.085 37.6659 393.385 36.7174 392.634 35.8822M388.77 43.3213C391.021 42.2172 393.109 41.474 395.02 41.0139C395.048 41.028 395.083 41.0493 395.112 41.0705C395.749 42.387 396.308 43.8381 396.761 45.4094C396.987 46.188 397.192 46.9949 397.362 47.8301C395.862 47.7735 394.184 47.3771 392.535 46.6127C390.794 45.8129 389.343 44.7299 388.303 43.5549C388.459 43.4771 388.607 43.3992 388.763 43.3213M396.258 41.7288C397.32 42.3658 398.36 43.0665 399.379 43.8239C400.37 44.5671 401.311 45.3528 402.203 46.1668C402.118 46.2729 402.019 46.372 401.92 46.4711C401.467 46.9029 400.866 47.2426 400.165 47.4762C399.563 47.6744 398.884 47.7877 398.148 47.823C397.688 45.6005 397.044 43.5549 396.258 41.7288ZM399.839 43.2081C398.636 42.3092 397.405 41.4952 396.138 40.7591C397.44 40.5113 398.65 40.3981 399.761 40.3981C400.356 40.3981 400.922 40.4335 401.46 40.4901C401.913 41.0634 402.274 41.6438 402.522 42.2242C402.798 42.8613 402.932 43.4912 402.932 44.0787C402.932 44.5742 402.833 45.0343 402.635 45.4731C402.635 45.4802 402.621 45.4943 402.621 45.5014C401.736 44.7016 400.809 43.9371 399.839 43.2081ZM401.863 39.7681C401.595 39.4496 401.297 39.1382 400.979 38.8409C399.96 37.8853 398.7 37.0289 397.249 36.3565C395.409 35.5142 393.54 35.0895 391.849 35.0682C391.346 34.5869 390.837 34.1552 390.306 33.7871C390.235 33.7305 390.157 33.6809 390.087 33.6314C395.338 34.6577 400.122 36.9864 404.079 40.2565C403.399 40.0371 402.663 39.8743 401.871 39.7681M383.958 33.0439C385.231 33.0439 386.484 33.1147 387.723 33.2633C388.445 33.5394 389.167 33.9216 389.867 34.417C390.164 34.6294 390.462 34.863 390.759 35.1178C389.853 35.2027 389.025 35.4151 388.296 35.769C387.808 36.0025 387.376 36.2928 387.008 36.6467C386.909 36.7387 386.824 36.8307 386.739 36.9227C383.95 36.222 381.127 35.8681 378.359 35.8681C374.644 35.8681 371.006 36.498 367.63 37.7367C367.602 37.7013 367.573 37.6588 367.538 37.6234C372.315 34.7214 377.942 33.0439 383.958 33.0439ZM357.948 46.733C357.552 48.3539 357.332 50.0243 357.29 51.7019H358.061C358.118 49.4015 358.521 47.1223 359.264 44.9352C360.545 43.3213 361.996 41.8349 363.567 40.4972C364.268 40.0937 364.99 39.7186 365.719 39.3717C365.769 39.3505 365.825 39.3293 365.875 39.301C369.64 45.9332 371.423 47.9858 371.423 47.9858L365.485 47.9221L367.46 51.7019H380.348C379.761 51.263 379.138 50.7534 378.487 50.173C381.749 47.4621 384.8 45.4165 387.617 43.9159C387.886 44.2344 388.176 44.5388 388.494 44.8361C389.513 45.7916 390.78 46.6481 392.231 47.3134C394.036 48.1416 395.869 48.5662 397.532 48.6016C397.723 49.5926 397.865 50.626 397.978 51.6948H398.749C398.643 50.626 398.495 49.5926 398.311 48.5875C399.379 48.5309 400.349 48.3044 401.184 47.908C401.672 47.6744 402.104 47.3842 402.472 47.0303C402.585 46.9241 402.684 46.8109 402.791 46.6976C404.425 48.2548 405.876 49.9323 407.15 51.6948H408.099C406.697 49.6917 405.077 47.8018 403.229 46.0535C403.279 45.9686 403.321 45.8907 403.364 45.7987L403.01 45.6359L403.364 45.7987C403.612 45.2608 403.732 44.6733 403.732 44.0858C403.732 43.3709 403.569 42.6489 403.258 41.927C403.074 41.5023 402.84 41.0776 402.564 40.66C403.314 40.8086 403.994 41.0068 404.617 41.2545C405.126 41.4598 405.586 41.6934 405.997 41.9482C411.786 47.5824 415.367 55.4108 415.367 64.0745C415.367 68.3426 414.504 72.3984 412.925 76.1002C412.727 76.4117 412.515 76.716 412.296 77.0062C410.448 79.434 407.922 81.1965 404.942 82.3573C402.366 83.3624 399.457 83.9074 396.4 84.0348C401.149 82.959 405.282 80.0923 405.282 80.0923C404.135 79.5402 403.003 78.9456 401.892 78.3369C401.807 78.344 401.722 78.3511 401.637 78.3511H401.616C401.538 78.3511 401.46 78.3582 401.382 78.3582C401.354 78.3582 401.333 78.3582 401.304 78.3582C401.241 78.3582 401.184 78.3582 401.127 78.3582C401.035 78.3582 400.943 78.3582 400.851 78.3582C399.528 78.3582 398.19 78.2024 396.867 77.8981C392.804 76.9567 390.037 74.2811 388.869 70.1617C388.848 70.0838 388.827 70.0059 388.806 69.9281C388.784 69.8502 388.77 69.7794 388.749 69.7016C385.04 66.8916 382.712 64.8106 382.712 64.8106V69.6025L390.837 76.5886C390.837 76.5886 387.539 78.4926 381.247 80.0781C382.351 80.9771 383.49 81.8406 384.665 82.6617C382.018 81.9609 379.414 81.0125 376.951 79.8304C372.641 77.7494 368.897 75.1093 365.889 72.0869V73.1628C368.868 76.0294 372.485 78.528 376.618 80.5241C379.739 82.0246 383.087 83.1571 386.463 83.8791C388.112 84.9621 389.818 85.9813 391.552 86.9369C391.53 86.9793 391.509 87.0218 391.488 87.0643C390.136 89.5629 388.636 91.3749 387.015 92.6418C382.542 92.2879 377.736 91.1413 372.952 89.0745C367.297 86.6325 363.263 83.688 360.439 80.9488C360.057 80.5807 359.696 80.2126 359.356 79.8516C359.342 79.5968 359.335 79.3349 359.335 79.0801C359.335 78.7545 359.342 78.4289 359.371 78.1104H358.592C358.578 78.4006 358.564 78.6908 358.564 78.974C358.309 78.6838 358.068 78.3935 357.849 78.1104H357.219C357.12 78.1104 357 78.1104 356.865 78.1033C357.368 78.7616 357.948 79.4623 358.606 80.1772C358.67 81.0974 358.818 82.0105 359.045 82.9165C354.99 77.6857 352.583 71.1455 352.583 64.0462C352.583 57.6192 354.558 51.6452 357.948 46.6905M360.383 84.5232C359.93 83.3766 359.625 82.237 359.47 81.0832C359.604 81.2248 359.746 81.3593 359.894 81.5079C362.782 84.3109 366.908 87.312 372.648 89.7894C377.184 91.75 381.749 92.8967 386.052 93.3284C384.694 94.199 383.264 94.737 381.778 95.013C373.264 94.4326 365.684 90.4901 360.383 84.5232Z" fill="white" fill-opacity="0.9"/>
</g>
<g clip-path="url(#clip2_6989_3256)">
<path d="M12.099 184.804L13.6027 183.409L23.04 196.93L9.41992 187.703L10.7047 186.204L15.4291 189.42" fill="white" fill-opacity="0.9"/>
<path d="M19.7433 180.32L21.6791 179.64L24.9631 195.8L16.1309 181.91L17.9111 181.046L20.9647 185.876" fill="white" fill-opacity="0.9"/>
<path d="M28.1791 179L30.2302 179.046L27.5972 195.327L24.2383 179.213L26.2087 179.029L27.3552 184.631" fill="white" fill-opacity="0.9"/>
<path d="M36.7907 181.104L38.6516 181.962L29.7617 195.852L33.0861 179.732L34.9701 180.349L33.7947 185.939" fill="white" fill-opacity="0.9"/>
<path d="M44.0789 186.256L45.4559 187.772L31.8301 197.062L41.2155 183.542L42.7019 184.844L39.4294 189.53" fill="white" fill-opacity="0.9"/>
<path d="M48.4703 193.956L49.1329 195.898L32.9375 198.999L46.9263 190.325L47.7732 192.117L42.9048 195.109" fill="white" fill-opacity="0.9"/>
<path d="M49.6974 202.405L49.6282 204.457L33.3867 201.638L49.5245 198.463L49.6858 200.434L44.08 201.517" fill="white" fill-opacity="0.9"/>
<path d="M47.4911 210.998L46.6154 212.848L32.834 203.8L48.9084 207.309L48.2689 209.183L42.6918 207.943" fill="white" fill-opacity="0.9"/>
<path d="M42.5123 218.271L41.0028 219.66L31.6289 206.093L45.2086 215.384L43.9123 216.882L39.211 213.637" fill="white" fill-opacity="0.9"/>
<path d="M34.8442 222.715L32.9083 223.395L29.6992 207.211L38.4624 221.141L36.6821 222L33.6516 217.153" fill="white" fill-opacity="0.9"/>
<path d="M26.4104 224L24.3594 223.942L27.0673 207.678L30.3513 223.804L28.3751 223.977L27.2574 218.375" fill="white" fill-opacity="0.9"/>
<path d="M17.8063 221.856L15.9453 220.992L24.8986 207.142L21.4993 223.245L19.6211 222.617L20.8195 217.032" fill="white" fill-opacity="0.9"/>
<path d="M10.5431 216.669L9.17188 215.142L22.838 205.92L13.395 219.395L11.9143 218.087L15.2099 213.418" fill="white" fill-opacity="0.9"/>
<path d="M6.18034 208.946L5.5293 207.004L21.742 203.984L7.71288 212.589L6.87747 210.79L11.7574 207.822" fill="white" fill-opacity="0.9"/>
<path d="M5 200.491L5.0749 198.44L21.3049 201.339L5.1498 204.434L5 202.462L10.6174 201.408" fill="white" fill-opacity="0.9"/>
<path d="M7.24134 191.91L8.1286 190.066L21.8696 199.177L5.8125 195.593L6.45778 193.725L12.0291 194.987" fill="white" fill-opacity="0.9"/>
<path d="M76.5394 194.607H72.4084V198.434H77.0118V199.587H71.043V188.965H76.7756V190.112H72.4084V193.472H76.5394" fill="white" fill-opacity="0.9"/>
<path d="M85.0099 197.506C85.0099 198.296 85.0272 198.987 85.0733 199.587H83.8461L83.7712 198.342H83.7367C83.3737 198.958 82.5729 199.759 81.2189 199.759C80.0205 199.759 78.5859 199.097 78.5859 196.417V191.956H79.9744V196.18C79.9744 197.633 80.4181 198.607 81.6741 198.607C82.6017 198.607 83.2469 197.961 83.5004 197.345C83.5811 197.143 83.6272 196.889 83.6272 196.636V191.956H85.0157V197.506H85.0099Z" fill="white" fill-opacity="0.9"/>
<path d="M87.3075 194.336C87.3075 193.437 87.2902 192.665 87.2441 191.956H88.4598L88.5059 193.454H88.5693C88.915 192.428 89.7504 191.783 90.678 191.783C90.8335 191.783 90.943 191.8 91.0697 191.829V193.137C90.9257 193.109 90.7874 193.091 90.5973 193.091C89.6179 193.091 88.9265 193.829 88.7364 194.872C88.7075 195.062 88.673 195.281 88.673 195.518V199.581H87.3018V194.336H87.3075Z" fill="white" fill-opacity="0.9"/>
<path d="M99.1995 195.708C99.1995 198.526 97.2464 199.76 95.4028 199.76C93.3402 199.76 91.75 198.244 91.75 195.835C91.75 193.282 93.4208 191.783 95.5295 191.783C97.6382 191.783 99.1995 193.374 99.1995 195.708ZM93.15 195.789C93.15 197.46 94.1122 198.716 95.4661 198.716C96.8201 198.716 97.7822 197.471 97.7822 195.754C97.7822 194.463 97.1369 192.826 95.4949 192.826C93.8529 192.826 93.15 194.336 93.15 195.789Z" fill="white" fill-opacity="0.9"/>
<path d="M100.946 194.446C100.946 193.472 100.912 192.682 100.883 191.956H102.127L102.191 193.264H102.219C102.784 192.336 103.683 191.783 104.927 191.783C106.771 191.783 108.16 193.345 108.16 195.662C108.16 198.405 106.489 199.76 104.697 199.76C103.689 199.76 102.807 199.316 102.352 198.561H102.317V202.705H100.946V194.446ZM102.317 196.48C102.317 196.682 102.352 196.872 102.381 197.045C102.634 198.007 103.47 198.67 104.461 198.67C105.924 198.67 106.777 197.471 106.777 195.725C106.777 194.198 105.97 192.89 104.507 192.89C103.562 192.89 102.68 193.564 102.415 194.607C102.369 194.78 102.317 194.987 102.317 195.172V196.48Z" fill="white" fill-opacity="0.9"/>
<path d="M110.677 196.025C110.711 197.898 111.904 198.676 113.292 198.676C114.289 198.676 114.883 198.503 115.407 198.278L115.643 199.27C115.153 199.489 114.324 199.759 113.108 199.759C110.763 199.759 109.357 198.198 109.357 195.898C109.357 193.599 110.711 191.789 112.935 191.789C115.424 191.789 116.087 193.979 116.087 195.379C116.087 195.662 116.058 195.887 116.041 196.025H110.683H110.677ZM114.744 195.034C114.756 194.152 114.381 192.78 112.82 192.78C111.42 192.78 110.804 194.071 110.694 195.034H114.744Z" fill="white" fill-opacity="0.9"/>
<path d="M123.151 197.76C123.151 198.422 123.18 199.068 123.278 199.587H122.016L121.906 198.624H121.86C121.434 199.223 120.616 199.759 119.527 199.759C117.983 199.759 117.199 198.676 117.199 197.569C117.199 195.725 118.835 194.717 121.78 194.734V194.578C121.78 193.95 121.607 192.815 120.045 192.815C119.337 192.815 118.599 193.034 118.063 193.379L117.747 192.463C118.375 192.054 119.291 191.789 120.253 191.789C122.586 191.789 123.151 193.379 123.151 194.907V197.76ZM121.814 195.696C120.299 195.662 118.582 195.933 118.582 197.414C118.582 198.313 119.181 198.739 119.89 198.739C120.881 198.739 121.515 198.111 121.733 197.466C121.78 197.322 121.814 197.166 121.814 197.022V195.696Z" fill="white" fill-opacity="0.9"/>
<path d="M125.386 194.025C125.386 193.235 125.368 192.59 125.322 191.962H126.549L126.63 193.224H126.659C127.039 192.498 127.921 191.789 129.182 191.789C130.237 191.789 131.873 192.417 131.873 195.034V199.587H130.49V195.195C130.49 193.967 130.029 192.941 128.727 192.941C127.811 192.941 127.103 193.587 126.872 194.359C126.809 194.532 126.774 194.768 126.774 195.005V199.587H125.386V194.025Z" fill="white" fill-opacity="0.9"/>
<path d="M138.883 188.959H137.512V199.581H138.883V188.959Z" fill="white" fill-opacity="0.9"/>
<path d="M141.386 194.025C141.386 193.235 141.368 192.59 141.322 191.962H142.549L142.63 193.224H142.659C143.039 192.498 143.921 191.789 145.182 191.789C146.237 191.789 147.879 192.417 147.879 195.034V199.587H146.496V195.195C146.496 193.967 146.035 192.941 144.733 192.941C143.817 192.941 143.108 193.587 142.872 194.359C142.809 194.532 142.78 194.768 142.78 195.005V199.587H141.391V194.025H141.386Z" fill="white" fill-opacity="0.9"/>
<path d="M151.732 190.129V191.956H153.714V193.011H151.732V197.126C151.732 198.071 151.997 198.607 152.769 198.607C153.15 198.607 153.369 198.578 153.576 198.515L153.639 199.552C153.374 199.661 152.948 199.754 152.412 199.754C151.767 199.754 151.248 199.535 150.914 199.154C150.522 198.745 150.378 198.065 150.378 197.166V193.005H149.197V191.95H150.378V190.544L151.732 190.117V190.129Z" fill="white" fill-opacity="0.9"/>
<path d="M155.95 196.025C155.979 197.898 157.177 198.676 158.566 198.676C159.557 198.676 160.156 198.503 160.675 198.278L160.911 199.27C160.421 199.489 159.591 199.759 158.376 199.759C156.031 199.759 154.625 198.198 154.625 195.898C154.625 193.599 155.979 191.789 158.203 191.789C160.692 191.789 161.354 193.979 161.354 195.379C161.354 195.662 161.32 195.887 161.308 196.025H155.956H155.95ZM160.012 195.034C160.029 194.152 159.649 192.78 158.088 192.78C156.688 192.78 156.071 194.071 155.962 195.034H160.012Z" fill="white" fill-opacity="0.9"/>
<path d="M163.071 194.336C163.071 193.437 163.054 192.665 163.008 191.956H164.223L164.27 193.454H164.333C164.679 192.428 165.514 191.783 166.442 191.783C166.597 191.783 166.712 191.8 166.839 191.829V193.137C166.695 193.109 166.557 193.091 166.367 193.091C165.393 193.091 164.696 193.829 164.506 194.872C164.477 195.062 164.442 195.281 164.442 195.518V199.581H163.071V194.336Z" fill="white" fill-opacity="0.9"/>
<path d="M168.28 194.025C168.28 193.235 168.263 192.59 168.217 191.962H169.444L169.525 193.224H169.553C169.934 192.498 170.815 191.789 172.077 191.789C173.131 191.789 174.773 192.417 174.773 195.034V199.587H173.391V195.195C173.391 193.967 172.935 192.941 171.628 192.941C170.711 192.941 170.003 193.587 169.767 194.359C169.703 194.532 169.674 194.768 169.674 195.005V199.587H168.286V194.025H168.28Z" fill="white" fill-opacity="0.9"/>
<path d="M177.792 196.025C177.821 197.898 179.019 198.676 180.408 198.676C181.399 198.676 181.998 198.503 182.522 198.278L182.758 199.27C182.269 199.489 181.439 199.759 180.223 199.759C177.878 199.759 176.473 198.198 176.473 195.898C176.473 193.599 177.827 191.789 180.051 191.789C182.539 191.789 183.202 193.979 183.202 195.379C183.202 195.662 183.167 195.887 183.156 196.025H177.798H177.792ZM181.854 195.034C181.871 194.152 181.491 192.78 179.93 192.78C178.529 192.78 177.913 194.071 177.804 195.034H181.854Z" fill="white" fill-opacity="0.9"/>
<path d="M186.578 190.129V191.956H188.56V193.011H186.578V197.126C186.578 198.071 186.843 198.607 187.615 198.607C187.995 198.607 188.214 198.578 188.422 198.515L188.485 199.552C188.22 199.661 187.794 199.754 187.258 199.754C186.613 199.754 186.094 199.535 185.76 199.154C185.368 198.745 185.224 198.065 185.224 197.166V193.005H184.043V191.95H185.224V190.544L186.578 190.117V190.129Z" fill="white" fill-opacity="0.9"/>
<path d="M193.508 188.965H199.223V190.112H194.879V193.645H198.895V194.78H194.879V199.587H193.508V188.965Z" fill="white" fill-opacity="0.9"/>
<path d="M207.543 195.708C207.543 198.526 205.59 199.76 203.747 199.76C201.684 199.76 200.094 198.244 200.094 195.835C200.094 193.282 201.765 191.783 203.873 191.783C205.982 191.783 207.543 193.374 207.543 195.708ZM201.494 195.789C201.494 197.46 202.456 198.716 203.81 198.716C205.164 198.716 206.126 197.471 206.126 195.754C206.126 194.463 205.481 192.826 203.844 192.826C202.208 192.826 201.5 194.336 201.5 195.789" fill="white" fill-opacity="0.9"/>
<path d="M209.29 194.336C209.29 193.437 209.273 192.665 209.227 191.956H210.436L210.488 193.454H210.552C210.897 192.429 211.733 191.783 212.66 191.783C212.816 191.783 212.931 191.8 213.058 191.829V193.137C212.914 193.109 212.776 193.091 212.585 193.091C211.612 193.091 210.915 193.829 210.725 194.872C210.69 195.062 210.661 195.281 210.661 195.518V199.581H209.29V194.336Z" fill="white" fill-opacity="0.9"/>
<path d="M220.819 197.506C220.819 198.296 220.836 198.987 220.882 199.587H219.655L219.58 198.342H219.545C219.182 198.958 218.381 199.759 217.028 199.759C215.829 199.759 214.395 199.097 214.395 196.417V191.956H215.783V196.18C215.783 197.633 216.227 198.607 217.483 198.607C218.41 198.607 219.056 197.961 219.309 197.345C219.39 197.143 219.436 196.889 219.436 196.636V191.956H220.824V197.506H220.819Z" fill="white" fill-opacity="0.9"/>
<path d="M223.118 194.025C223.118 193.235 223.101 192.59 223.055 191.962H224.27L224.334 193.189H224.38C224.806 192.463 225.515 191.789 226.771 191.789C227.814 191.789 228.597 192.417 228.931 193.316H228.96C229.196 192.89 229.496 192.561 229.813 192.325C230.268 191.979 230.775 191.789 231.501 191.789C232.509 191.789 234.001 192.446 234.001 195.097V199.587H232.647V195.27C232.647 193.806 232.112 192.924 230.994 192.924C230.205 192.924 229.594 193.506 229.358 194.186C229.294 194.377 229.248 194.63 229.248 194.878V199.587H227.894V195.016C227.894 193.806 227.358 192.924 226.304 192.924C225.44 192.924 224.806 193.616 224.587 194.307C224.507 194.509 224.478 194.751 224.478 194.987V199.587H223.124V194.025H223.118Z" fill="white" fill-opacity="0.9"/>
<path d="M71.037 206.503C71.3885 206.433 71.8494 206.382 72.4313 206.382C73.1515 206.382 73.6758 206.554 74.0099 206.86C74.321 207.131 74.5112 207.546 74.5112 208.059C74.5112 208.572 74.3614 208.987 74.0675 209.281C73.6815 209.696 73.0535 209.909 72.3449 209.909C72.1317 209.909 71.9243 209.897 71.7572 209.857V212.151H71.0312V206.497L71.037 206.503ZM71.763 209.257C71.9243 209.298 72.1317 209.315 72.3679 209.315C73.2494 209.315 73.7795 208.871 73.7795 208.099C73.7795 207.327 73.2494 206.969 72.4486 206.969C72.1317 206.969 71.8897 207.004 71.763 207.033V209.257Z" fill="white" fill-opacity="0.9"/>
<path d="M76.9026 212.249C75.8137 212.249 74.9668 211.43 74.9668 210.133C74.9668 208.756 75.8598 207.949 76.9718 207.949C78.0837 207.949 78.9191 208.808 78.9191 210.058C78.9191 211.592 77.8763 212.254 76.9142 212.254M76.9314 211.695C77.6343 211.695 78.1586 211.027 78.1586 210.087C78.1586 209.39 77.8129 208.514 76.943 208.514C76.073 208.514 75.7043 209.332 75.7043 210.11C75.7043 211.015 76.2055 211.689 76.9199 211.689H76.9314V211.695Z" fill="white" fill-opacity="0.9"/>
<path d="M80.5773 206.122H79.8398V212.156H80.5773V206.122Z" fill="white" fill-opacity="0.9"/>
<path d="M82.1523 207.286C81.8758 207.286 81.6914 207.067 81.6914 206.802C81.6914 206.537 81.8873 206.324 82.1696 206.324C82.4519 206.324 82.6363 206.537 82.6363 206.802C82.6363 207.067 82.4519 207.286 82.1581 207.286M81.8009 208.041H82.5383V212.156H81.8009V208.041Z" fill="white" fill-opacity="0.9"/>
<path d="M84.6471 207.056V208.041H85.7014V208.612H84.6471V210.831C84.6471 211.344 84.7854 211.632 85.2002 211.632C85.4018 211.632 85.5171 211.615 85.6265 211.58L85.6611 212.151C85.5171 212.202 85.2924 212.254 85.0101 212.254C84.6644 212.254 84.3936 212.133 84.215 211.943C84.0133 211.713 83.9327 211.344 83.9327 210.86V208.618H83.3047V208.047H83.9327V207.292L84.6529 207.062L84.6471 207.056Z" fill="white" fill-opacity="0.9"/>
<path d="M166.516 207.056V208.041H167.571V208.612H166.516V210.831C166.516 211.344 166.655 211.632 167.069 211.632C167.271 211.632 167.386 211.615 167.496 211.58L167.53 212.151C167.386 212.202 167.162 212.254 166.879 212.254C166.534 212.254 166.263 212.133 166.084 211.943C165.882 211.713 165.802 211.344 165.802 210.86V208.618H165.174V208.047H165.802V207.292L166.522 207.062L166.516 207.056Z" fill="white" fill-opacity="0.9"/>
<path d="M86.875 207.286C86.5984 207.286 86.4141 207.067 86.4141 206.802C86.4141 206.537 86.6042 206.324 86.8865 206.324C87.1688 206.324 87.3532 206.537 87.3532 206.802C87.3532 207.067 87.1688 207.286 86.875 207.286ZM86.512 208.041H87.2495V212.156H86.512V208.041Z" fill="white" fill-opacity="0.9"/>
<path d="M91.3639 212.012C91.1738 212.104 90.7417 212.249 90.2001 212.249C88.9787 212.249 88.1836 211.407 88.1836 210.139C88.1836 208.871 89.0363 207.943 90.3557 207.943C90.7935 207.943 91.1738 208.053 91.3754 208.162L91.2084 208.733C91.0355 208.641 90.759 208.537 90.3557 208.537C89.4281 208.537 88.9268 209.24 88.9268 210.099C88.9268 211.05 89.5318 211.638 90.3326 211.638C90.7474 211.638 91.024 211.534 91.2314 211.442L91.3581 212.001L91.3639 212.012Z" fill="white" fill-opacity="0.9"/>
<path d="M95.0868 211.171C95.0868 211.528 95.104 211.874 95.1444 212.156H94.4876L94.4242 211.638H94.3954C94.1765 211.96 93.7328 212.249 93.1567 212.249C92.3386 212.249 91.918 211.661 91.918 211.067C91.918 210.076 92.7822 209.528 94.3493 209.54V209.453C94.3493 209.113 94.2571 208.491 93.4332 208.502C93.0472 208.502 92.6554 208.612 92.3731 208.808L92.206 208.306C92.5402 208.093 93.0357 207.949 93.5427 207.949C94.7872 207.949 95.0925 208.808 95.0925 209.632V211.171H95.0868ZM94.3666 210.058C93.5657 210.041 92.6497 210.185 92.6497 210.986C92.6497 211.482 92.9666 211.701 93.3353 211.701C93.8711 211.701 94.211 211.361 94.332 211.009C94.3551 210.934 94.3666 210.848 94.3666 210.773V210.058Z" fill="white" fill-opacity="0.9"/>
<path d="M97.0031 206.122H96.2656V212.156H97.0031V206.122Z" fill="white" fill-opacity="0.9"/>
<path d="M173.101 206.122H172.363V212.156H173.101V206.122Z" fill="white" fill-opacity="0.9"/>
<path d="M100.006 206.428H100.743V211.534H103.152V212.156H100.006V206.428Z" fill="white" fill-opacity="0.9"/>
<path d="M104.23 210.226C104.247 211.24 104.875 211.655 105.613 211.655C106.143 211.655 106.466 211.563 106.736 211.453L106.869 211.983C106.61 212.104 106.16 212.249 105.515 212.249C104.276 212.249 103.521 211.407 103.521 210.174C103.521 208.94 104.247 207.949 105.429 207.949C106.748 207.949 107.094 209.131 107.094 209.886C107.094 210.041 107.082 210.156 107.071 210.243H104.23V210.226ZM106.379 209.684C106.385 209.217 106.183 208.468 105.365 208.468C104.616 208.468 104.294 209.165 104.236 209.684H106.373H106.379Z" fill="white" fill-opacity="0.9"/>
<path d="M110.854 211.171C110.854 211.528 110.872 211.874 110.912 212.156H110.255L110.186 211.638H110.157C109.944 211.96 109.5 212.249 108.918 212.249C108.1 212.249 107.68 211.661 107.68 211.067C107.68 210.076 108.55 209.528 110.111 209.54V209.453C110.111 209.113 110.019 208.491 109.195 208.502C108.809 208.502 108.417 208.612 108.129 208.808L107.962 208.307C108.296 208.093 108.792 207.949 109.299 207.949C110.543 207.949 110.848 208.808 110.848 209.632V211.171H110.854ZM110.134 210.059C109.333 210.041 108.417 210.185 108.417 210.986C108.417 211.482 108.734 211.701 109.103 211.701C109.639 211.701 109.979 211.361 110.099 211.01C110.123 210.935 110.134 210.848 110.134 210.773V210.059Z" fill="white" fill-opacity="0.9"/>
<path d="M171.28 211.171C171.28 211.528 171.297 211.874 171.338 212.156H170.681L170.612 211.638H170.583C170.37 211.96 169.926 212.249 169.344 212.249C168.526 212.249 168.105 211.661 168.105 211.067C168.105 210.076 168.975 209.528 170.537 209.54V209.453C170.537 209.113 170.45 208.491 169.621 208.502C169.235 208.502 168.843 208.612 168.555 208.808L168.388 208.306C168.722 208.093 169.217 207.949 169.724 207.949C170.969 207.949 171.274 208.808 171.274 209.632V211.171H171.28ZM170.56 210.058C169.759 210.041 168.843 210.185 168.843 210.986C168.843 211.482 169.16 211.701 169.529 211.701C170.064 211.701 170.404 211.361 170.525 211.009C170.548 210.934 170.56 210.848 170.56 210.773V210.058Z" fill="white" fill-opacity="0.9"/>
<path d="M115.527 206.122V211.096C115.527 211.465 115.533 211.88 115.562 212.156H114.899L114.865 211.442H114.848C114.623 211.903 114.139 212.249 113.476 212.249C112.497 212.249 111.736 211.407 111.736 210.157C111.731 208.779 112.572 207.949 113.551 207.949C114.179 207.949 114.594 208.249 114.773 208.572H114.79V206.122H115.527ZM114.79 209.719C114.79 209.615 114.778 209.499 114.755 209.396C114.652 208.929 114.248 208.537 113.695 208.537C112.935 208.537 112.485 209.217 112.485 210.116C112.485 210.958 112.894 211.643 113.684 211.643C114.179 211.643 114.629 211.303 114.761 210.75C114.79 210.646 114.796 210.548 114.796 210.427V209.713L114.79 209.719Z" fill="white" fill-opacity="0.9"/>
<path d="M117.164 210.226C117.181 211.24 117.809 211.655 118.547 211.655C119.071 211.655 119.399 211.563 119.67 211.453L119.803 211.983C119.543 212.104 119.094 212.249 118.449 212.249C117.21 212.249 116.461 211.407 116.461 210.174C116.461 208.94 117.187 207.949 118.368 207.949C119.693 207.949 120.033 209.131 120.033 209.886C120.033 210.041 120.022 210.156 120.004 210.243H117.17L117.164 210.226ZM119.313 209.684C119.324 209.217 119.123 208.468 118.299 208.468C117.544 208.468 117.227 209.165 117.17 209.684H119.313Z" fill="white" fill-opacity="0.9"/>
<path d="M120.949 209.327C120.949 208.843 120.937 208.428 120.914 208.041H121.559L121.594 208.848H121.623C121.807 208.295 122.256 207.949 122.752 207.949C122.827 207.949 122.884 207.955 122.954 207.972V208.67C122.873 208.664 122.798 208.652 122.694 208.652C122.176 208.652 121.807 209.05 121.709 209.603C121.692 209.713 121.686 209.834 121.686 209.961V212.156H120.949L120.96 209.327H120.949Z" fill="white" fill-opacity="0.9"/>
<path d="M123.571 211.401C123.796 211.534 124.182 211.69 124.551 211.69C125.075 211.69 125.323 211.424 125.323 211.079C125.323 210.733 125.115 210.525 124.58 210.324C123.842 210.053 123.502 209.655 123.502 209.159C123.502 208.497 124.038 207.955 124.902 207.955C125.311 207.955 125.668 208.064 125.887 208.209L125.709 208.745C125.553 208.652 125.259 208.508 124.885 208.508C124.447 208.508 124.217 208.762 124.217 209.067C124.217 209.419 124.453 209.569 124.977 209.77C125.668 210.036 126.043 210.393 126.043 211.01C126.043 211.741 125.478 212.249 124.533 212.249C124.09 212.249 123.681 212.128 123.398 211.96L123.571 211.401Z" fill="white" fill-opacity="0.9"/>
<path d="M126.98 206.122H127.718V208.687H127.735C127.85 208.474 128.035 208.283 128.26 208.162C128.478 208.024 128.738 207.949 129.014 207.949C129.556 207.949 130.426 208.289 130.426 209.707V212.156H129.688V209.793C129.688 209.125 129.446 208.572 128.749 208.572C128.277 208.572 127.908 208.912 127.764 209.321C127.724 209.425 127.718 209.534 127.718 209.678V212.156H126.98V206.122Z" fill="white" fill-opacity="0.9"/>
<path d="M131.971 207.286C131.7 207.286 131.516 207.067 131.516 206.802C131.516 206.537 131.706 206.324 131.988 206.324C132.27 206.324 132.455 206.537 132.455 206.802C132.455 207.067 132.27 207.286 131.977 207.286M131.619 208.041H132.357V212.156H131.619V208.041Z" fill="white" fill-opacity="0.9"/>
<path d="M157.465 207.286C157.194 207.286 157.01 207.067 157.01 206.802C157.01 206.537 157.2 206.324 157.482 206.324C157.765 206.324 157.949 206.537 157.949 206.802C157.949 207.067 157.765 207.286 157.471 207.286M157.113 208.041H157.851V212.156H157.113V208.041Z" fill="white" fill-opacity="0.9"/>
<path d="M164.016 207.286C163.745 207.286 163.561 207.067 163.561 206.802C163.561 206.537 163.751 206.324 164.033 206.324C164.315 206.324 164.5 206.537 164.5 206.802C164.5 207.067 164.315 207.286 164.021 207.286M163.664 208.041H164.402V212.156H163.664V208.041Z" fill="white" fill-opacity="0.9"/>
<path d="M133.578 209.384C133.578 208.86 133.572 208.433 133.543 208.041H134.2L134.24 208.745H134.257C134.551 208.237 135.035 207.949 135.686 207.949C136.671 207.949 137.409 208.791 137.409 210.041C137.409 211.522 136.516 212.254 135.571 212.254C135.029 212.254 134.563 212.018 134.327 211.609H134.309V213.845H133.572V209.39L133.578 209.384ZM134.315 210.479C134.315 210.583 134.327 210.693 134.35 210.785C134.476 211.303 134.926 211.661 135.444 211.661C136.222 211.661 136.671 211.015 136.671 210.07C136.671 209.246 136.251 208.537 135.479 208.537C134.978 208.537 134.494 208.894 134.355 209.453C134.338 209.557 134.315 209.667 134.315 209.759V210.474V210.479Z" fill="white" fill-opacity="0.9"/>
<path d="M140.174 212.156V208.612H139.609V208.041H140.174V207.845C140.174 207.263 140.307 206.739 140.652 206.41C140.929 206.14 141.297 206.03 141.632 206.03C141.897 206.03 142.116 206.088 142.26 206.151L142.167 206.727C142.046 206.676 141.908 206.635 141.689 206.635C141.073 206.635 140.906 207.194 140.906 207.822V208.041H141.891V208.612H140.917V212.156H140.18H140.174Z" fill="white" fill-opacity="0.9"/>
<path d="M144.092 212.249C143.009 212.249 142.156 211.43 142.156 210.134C142.156 208.756 143.049 207.949 144.161 207.949C145.273 207.949 146.109 208.808 146.109 210.059C146.109 211.592 145.066 212.254 144.104 212.254M144.121 211.695C144.824 211.695 145.348 211.027 145.348 210.087C145.348 209.39 145.002 208.514 144.132 208.514C143.262 208.514 142.894 209.332 142.894 210.11C142.894 211.015 143.401 211.69 144.109 211.69H144.115L144.121 211.695Z" fill="white" fill-opacity="0.9"/>
<path d="M147.048 209.327C147.048 208.842 147.042 208.427 147.014 208.041H147.659L147.694 208.848H147.717C147.901 208.295 148.35 207.949 148.846 207.949C148.921 207.949 148.978 207.955 149.047 207.972V208.67C148.967 208.664 148.892 208.652 148.788 208.652C148.27 208.652 147.901 209.05 147.797 209.603C147.78 209.713 147.774 209.834 147.774 209.96V212.156H147.037V209.327H147.048Z" fill="white" fill-opacity="0.9"/>
<path d="M176.057 211.257C176.386 211.471 176.852 211.632 177.354 211.632C178.097 211.632 178.535 211.24 178.535 210.652C178.535 210.122 178.235 209.811 177.475 209.523C176.553 209.183 175.988 208.687 175.988 207.892C175.988 206.998 176.714 206.335 177.809 206.335C178.373 206.335 178.8 206.474 179.047 206.618L178.846 207.223C178.673 207.113 178.293 206.952 177.786 206.952C177.019 206.952 176.726 207.419 176.726 207.811C176.726 208.347 177.066 208.612 177.843 208.917C178.8 209.298 179.272 209.759 179.272 210.6C179.272 211.482 178.633 212.254 177.302 212.254C176.76 212.254 176.167 212.087 175.867 211.88L176.057 211.257Z" fill="white" fill-opacity="0.9"/>
<path d="M181.928 212.249C180.839 212.249 179.992 211.43 179.992 210.133C179.992 208.756 180.885 207.949 181.997 207.949C183.167 207.949 183.945 208.808 183.945 210.058C183.945 211.592 182.902 212.254 181.94 212.254M181.957 211.695C182.66 211.695 183.184 211.027 183.184 210.087C183.184 209.39 182.838 208.514 181.974 208.514C181.11 208.514 180.735 209.332 180.735 210.11C180.735 211.015 181.231 211.689 181.945 211.689H181.957V211.695Z" fill="white" fill-opacity="0.9"/>
<path d="M187.764 212.012C187.568 212.104 187.142 212.249 186.6 212.249C185.379 212.249 184.584 211.407 184.584 210.139C184.584 208.871 185.437 207.943 186.756 207.943C187.194 207.943 187.574 208.053 187.782 208.162L187.609 208.733C187.436 208.641 187.159 208.537 186.756 208.537C185.828 208.537 185.327 209.24 185.327 210.099C185.327 211.05 185.932 211.638 186.733 211.638C187.148 211.638 187.424 211.534 187.632 211.442L187.759 212.001L187.764 212.012Z" fill="white" fill-opacity="0.9"/>
<path d="M188.975 207.286C188.698 207.286 188.514 207.067 188.514 206.802C188.514 206.537 188.71 206.324 188.992 206.324C189.274 206.324 189.459 206.537 189.459 206.802C189.459 207.067 189.274 207.286 188.986 207.286M188.623 208.041H189.361V212.156H188.623V208.041Z" fill="white" fill-opacity="0.9"/>
<path d="M190.996 210.226C191.013 211.24 191.641 211.655 192.379 211.655C192.903 211.655 193.231 211.563 193.496 211.453L193.629 211.983C193.369 212.104 192.92 212.249 192.275 212.249C191.036 212.249 190.287 211.407 190.287 210.174C190.287 208.94 191.013 207.949 192.188 207.949C193.508 207.949 193.853 209.131 193.853 209.886C193.853 210.041 193.848 210.156 193.83 210.243H190.996V210.226ZM193.145 209.684C193.151 209.217 192.949 208.468 192.131 208.468C191.376 208.468 191.059 209.165 191.002 209.684H193.145Z" fill="white" fill-opacity="0.9"/>
<path d="M195.651 207.056V208.041H196.705V208.612H195.651V210.831C195.651 211.344 195.789 211.632 196.204 211.632C196.406 211.632 196.521 211.615 196.63 211.58L196.665 212.151C196.521 212.202 196.296 212.254 196.008 212.254C195.662 212.254 195.392 212.133 195.219 211.943C195.017 211.713 194.931 211.344 194.931 210.86V208.618H194.303V208.047H194.931V207.292L195.651 207.062V207.056Z" fill="white" fill-opacity="0.9"/>
<path d="M197.875 208.041L198.751 210.474C198.849 210.744 198.952 211.067 199.016 211.315H199.033C199.108 211.067 199.188 210.756 199.292 210.456L200.093 208.041H200.871L199.765 210.975C199.24 212.387 198.883 213.107 198.376 213.563C198.007 213.874 197.656 214.006 197.472 214.035L197.287 213.407C197.472 213.355 197.714 213.24 197.932 213.038C198.134 212.877 198.376 212.589 198.549 212.208C198.584 212.133 198.612 212.081 198.612 212.03C198.612 211.983 198.595 211.926 198.549 211.839L197.062 208.041H197.869H197.875Z" fill="white" fill-opacity="0.9"/>
<path d="M152.36 207.194C152.302 207.517 152.273 210.151 152.319 211.361C152.319 211.442 152.308 211.522 152.377 211.597C152.4 211.609 152.429 211.626 152.458 211.632C152.867 211.707 153.276 211.69 153.685 211.62C154.59 211.465 155.218 210.86 155.39 209.972C155.465 209.58 155.494 209.188 155.419 208.779C155.275 207.984 154.837 207.459 154.065 207.217C153.564 207.062 153.051 207.09 152.538 207.131C152.487 207.131 152.435 207.165 152.366 207.188M151.605 212.133C151.599 212.099 151.582 212.053 151.582 212.012C151.582 210.278 151.582 208.543 151.582 206.808C151.582 206.762 151.599 206.722 151.605 206.693C151.674 206.612 151.755 206.595 151.83 206.589C152.648 206.497 153.466 206.445 154.278 206.624C155.275 206.848 156.001 207.598 156.174 208.6C156.272 209.188 156.249 209.759 156.076 210.329C155.828 211.165 155.298 211.736 154.474 212.03C154.077 212.174 153.662 212.254 153.236 212.254C152.827 212.254 152.417 212.254 152.003 212.243C151.87 212.243 151.726 212.254 151.605 212.139" fill="white" fill-opacity="0.9"/>
<path d="M161.775 210.122H161.769C161.769 209.937 161.786 209.753 161.769 209.574C161.711 209.015 161.152 208.531 160.519 208.658C160.046 208.756 159.758 209.056 159.608 209.494C159.464 209.914 159.464 210.347 159.585 210.773C159.614 210.86 159.643 210.946 159.689 211.027C159.948 211.505 160.386 211.736 160.951 211.615C161.481 211.499 161.798 210.969 161.78 210.571C161.775 210.422 161.78 210.272 161.78 210.128M161.763 211.695C161.659 211.713 161.625 211.759 161.584 211.799C160.951 212.45 159.631 212.381 159.049 211.407C158.612 210.681 158.652 209.436 159.205 208.75C159.706 208.128 160.334 207.978 161.003 208.11C161.25 208.162 161.475 208.283 161.654 208.468C161.705 208.525 161.746 208.6 161.838 208.635C161.947 208.52 161.867 208.347 161.947 208.203C162.12 208.116 162.305 208.145 162.472 208.185C162.558 208.283 162.535 208.376 162.535 208.468C162.535 209.586 162.524 210.704 162.524 211.822C162.524 212.133 162.483 212.433 162.403 212.738C162.23 213.419 161.775 213.805 161.112 213.96C160.588 214.081 160.069 214.047 159.556 213.897C159.407 213.851 159.251 213.805 159.124 213.672C159.142 213.493 159.193 213.326 159.286 213.182C159.389 213.153 159.458 213.2 159.528 213.234C159.879 213.401 160.248 213.447 160.628 213.424C161.221 213.39 161.636 213.038 161.746 212.456C161.792 212.208 161.803 211.96 161.757 211.695" fill="white" fill-opacity="0.9"/>
</g>
<g clip-path="url(#clip3_6989_3256)">
<path d="M413.698 223.647L413.611 223.548L413.555 223.492L413.287 223.187C407.715 227.712 400.672 230.207 393.405 230.207C385.103 230.207 377.299 227.052 371.428 221.326C365.557 215.6 362.328 207.988 362.328 199.891C362.328 193.63 364.267 187.624 367.938 182.514C371.528 177.522 376.495 173.732 382.31 171.566L382.086 170.994C376.152 173.203 371.085 177.068 367.427 182.159C363.687 187.369 361.705 193.499 361.705 199.885C361.705 208.144 365.002 215.911 370.992 221.749C371.553 222.297 372.139 222.813 372.737 223.318L371.939 224.22C377.904 229.23 385.526 231.987 393.411 231.987C401.295 231.987 408.587 229.342 414.496 224.537L413.711 223.635L413.698 223.647Z" fill="white" fill-opacity="0.9"/>
<path d="M367.438 182.178C367.694 181.823 367.962 181.475 368.23 181.126C368.062 180.659 367.968 180.155 367.968 179.626C367.968 177.398 369.47 175.394 372.194 175.394C372.767 175.394 373.285 175.487 373.74 175.649C374.238 175.27 374.743 174.902 375.26 174.548C374.357 174.031 373.303 173.726 372.194 173.726C368.872 173.726 366.117 176.377 366.117 179.62C366.117 180.796 366.454 181.867 367.027 182.769C367.164 182.57 367.295 182.371 367.438 182.172M376.42 179.62C376.42 181.942 374.706 183.852 372.194 183.852C370.773 183.852 369.607 183.242 368.859 182.284C368.716 182.477 368.573 182.664 368.429 182.856C368.217 183.149 368.012 183.448 367.812 183.753C368.922 184.854 370.467 185.52 372.188 185.52C375.541 185.52 378.265 182.981 378.265 179.62C378.265 177.915 377.504 176.371 376.289 175.288C375.815 175.606 375.348 175.936 374.886 176.272C375.877 177.062 376.407 178.301 376.407 179.614M362.945 198.908C362.932 199.231 362.926 199.555 362.926 199.879C362.926 200.14 362.926 200.402 362.938 200.663C365.525 200.009 367.432 197.775 367.432 194.962C367.432 192.896 366.316 191.072 364.646 190.014C364.453 190.555 364.278 191.103 364.116 191.657C365.076 192.454 365.587 193.667 365.587 194.962C365.587 196.742 364.565 198.285 362.957 198.902M361.735 200.843C361.729 200.52 361.717 200.196 361.717 199.872C361.717 199.636 361.729 199.406 361.735 199.169C361.611 199.182 361.492 199.188 361.361 199.188C358.856 199.188 357.136 197.277 357.136 194.962C357.136 192.647 358.638 190.73 361.361 190.73C361.991 190.73 362.546 190.835 363.038 191.028C363.2 190.499 363.368 189.983 363.555 189.466C362.87 189.205 362.128 189.062 361.361 189.062C358.039 189.062 355.285 191.713 355.285 194.962C355.285 198.211 358.008 200.862 361.361 200.862C361.486 200.862 361.617 200.856 361.735 200.85M365.724 204.491C364.895 204.491 364.104 204.659 363.381 204.957C363.474 205.511 363.593 206.059 363.717 206.607C364.285 206.327 364.958 206.159 365.724 206.159C368.448 206.159 369.95 208.163 369.95 210.391C369.95 212.345 368.729 214.001 366.852 214.48C367.139 214.978 367.451 215.469 367.769 215.955C370.118 215.165 371.801 213.036 371.801 210.391C371.801 207.148 369.046 204.491 365.724 204.491ZM361.499 210.391C361.499 209.246 361.898 208.163 362.652 207.378C362.502 206.781 362.365 206.177 362.253 205.567C360.688 206.638 359.648 208.405 359.648 210.391C359.648 213.752 362.371 216.291 365.724 216.291C365.992 216.291 366.254 216.279 366.51 216.247C366.167 215.712 365.843 215.171 365.537 214.617C363.138 214.523 361.505 212.65 361.505 210.397M395.236 211.586C395.236 213.167 394.719 214.629 392.687 214.629C390.655 214.629 390.138 213.167 390.138 211.586V204.758H388.268V211.916C388.268 214.405 389.851 216.31 392.681 216.31C395.51 216.31 397.093 214.405 397.093 211.916V204.758H395.23V211.586H395.236ZM401.818 183.69H396.726V173.969H394.875V185.278H401.824V183.69H401.818ZM334 200.657H340.632V199.02H335.851V195.286H340.494V193.649H335.851V190.979H340.632V189.342H334V200.657ZM380.945 189.342H379.093V196.711L371.303 188.75V200.657H373.154V193.194L380.951 201.105V189.342H380.945ZM417.78 200.657H419.631V189.342H417.78V200.657ZM350.392 216.061H352.243V210.708H356.276V209.071H352.243V206.383H356.407V204.746H350.386V216.061H350.392ZM356.263 177.236L360.246 185.757L363.425 173.963H361.58L359.766 181.039H359.735L356.257 173.726L352.779 181.039H352.748L350.94 173.963H349.096L352.274 185.757L356.257 177.236H356.263ZM403.033 193.58H403.064L406.542 200.893L410.014 193.58H410.045L411.859 200.657H413.704L410.525 188.862L406.542 197.383L402.56 188.862L399.381 200.657H401.226L403.033 193.58ZM407.552 212.793L403.569 204.273L400.391 216.067H402.235L404.049 208.99H404.08L407.552 216.31L411.03 208.99H411.061L412.868 216.067H414.713L411.535 204.273L407.552 212.793ZM383.556 207.97C383.556 206.893 383.001 205.822 382.029 205.269C381.107 204.758 379.898 204.746 378.869 204.746H375.796V216.061H377.648V211.275H378.907L382.322 216.061H384.429L380.77 211.138C382.447 210.945 383.556 209.594 383.556 207.97ZM378.514 209.806H377.648V206.302H378.439C379.873 206.302 381.749 206.258 381.749 208.032C381.749 209.806 379.997 209.806 378.52 209.806M384.011 180.491H385.27L388.686 185.278H390.798L387.134 180.354C388.81 180.162 389.92 178.811 389.92 177.187C389.92 176.11 389.365 175.046 388.399 174.485C387.476 173.975 386.267 173.963 385.233 173.963H382.16V185.278H384.011V180.491ZM384.011 175.519H384.803C386.23 175.519 388.106 175.481 388.106 177.249C388.106 179.016 386.355 179.023 384.877 179.023H384.011V175.519ZM408.219 173.969H405.115V185.278H408.175C411.834 185.278 414.732 183.479 414.732 179.558C414.732 175.637 411.778 173.963 408.225 173.963M408.057 183.678H406.972V175.519H408.057C410.537 175.519 412.881 176.321 412.881 179.552C412.881 182.782 410.537 183.678 408.057 183.678ZM432.034 198.715C431.436 199.032 430.744 199.213 429.971 199.213C427.465 199.213 425.745 197.302 425.745 194.981C425.745 192.659 427.247 190.748 429.971 190.748C430.769 190.748 431.467 190.923 432.046 191.221L432.988 189.871C432.096 189.373 431.068 189.08 429.971 189.08C426.649 189.08 423.894 191.738 423.894 194.981C423.894 198.223 426.618 200.881 429.971 200.881C431.08 200.881 432.115 200.601 433.012 200.109L432.034 198.715ZM352.324 198.715C351.726 199.032 351.034 199.213 350.261 199.213C347.749 199.213 346.035 197.302 346.035 194.981C346.035 192.659 347.537 190.748 350.261 190.748C351.059 190.748 351.757 190.923 352.337 191.221L353.278 189.871C352.386 189.373 351.358 189.08 350.261 189.08C346.939 189.08 344.184 191.738 344.184 194.981C344.184 198.223 346.908 200.881 350.261 200.881C351.37 200.881 352.405 200.601 353.303 200.109L352.324 198.715ZM396.994 194.987C396.994 191.744 394.239 189.087 390.917 189.087C387.595 189.087 384.84 191.744 384.84 194.987C384.84 198.229 387.564 200.887 390.917 200.887C394.27 200.887 396.994 198.348 396.994 194.987ZM386.691 194.987C386.691 192.759 388.193 190.755 390.917 190.755C393.641 190.755 395.143 192.759 395.143 194.987C395.143 197.215 393.429 199.219 390.917 199.219C388.405 199.219 386.691 197.308 386.691 194.987Z" fill="white" fill-opacity="0.9"/>
</g>
<defs>
<clipPath id="clip0_6989_3256">
<rect width="213" height="35" fill="white" transform="translate(13 40)"/>
</clipPath>
<clipPath id="clip1_6989_3256">
<rect width="68" height="75" fill="white" transform="translate(350 23)"/>
</clipPath>
<clipPath id="clip2_6989_3256">
<rect width="229" height="45" fill="white" transform="translate(5 179)"/>
</clipPath>
<clipPath id="clip3_6989_3256">
<rect width="99" height="61" fill="white" transform="translate(334 171)"/>
</clipPath>
</defs>
</svg>
