<svg width="182" height="52" viewBox="0 0 182 52" fill="none" xmlns="http://www.w3.org/2000/svg">
<path d="M45.213 51.132C44.4503 51.132 43.7903 50.967 43.233 50.637C42.683 50.2997 42.2576 49.834 41.957 49.24C41.6563 48.6387 41.506 47.9457 41.506 47.161C41.506 46.369 41.6563 45.676 41.957 45.082C42.2576 44.4807 42.683 44.0113 43.233 43.674C43.7903 43.3367 44.4503 43.168 45.213 43.168C46.115 43.168 46.852 43.388 47.424 43.828C47.996 44.268 48.359 44.884 48.513 45.676H47.215C47.1123 45.2287 46.8923 44.873 46.555 44.609C46.2176 44.345 45.7666 44.213 45.202 44.213C44.432 44.213 43.8233 44.477 43.376 45.005C42.9286 45.5257 42.705 46.2443 42.705 47.161C42.705 48.0703 42.9286 48.7853 43.376 49.306C43.8233 49.8267 44.432 50.087 45.202 50.087C45.7666 50.087 46.2176 49.9623 46.555 49.713C46.8923 49.4637 47.1123 49.1227 47.215 48.69H48.513C48.359 49.4527 47.996 50.0503 47.424 50.483C46.852 50.9157 46.115 51.132 45.213 51.132Z" fill="#080821" fill-opacity="0.6"/>
<path d="M56.2077 51.132C55.445 51.132 54.7777 50.9633 54.2057 50.626C53.6337 50.2887 53.1863 49.823 52.8637 49.229C52.541 48.6277 52.3797 47.9347 52.3797 47.15C52.3797 46.3653 52.541 45.676 52.8637 45.082C53.1863 44.4807 53.6337 44.0113 54.2057 43.674C54.7777 43.3367 55.445 43.168 56.2077 43.168C56.9703 43.168 57.6377 43.3367 58.2097 43.674C58.7817 44.0113 59.2253 44.4807 59.5407 45.082C59.8633 45.676 60.0247 46.3653 60.0247 47.15C60.0247 47.9347 59.8633 48.6277 59.5407 49.229C59.2253 49.823 58.7817 50.2887 58.2097 50.626C57.6377 50.9633 56.9703 51.132 56.2077 51.132ZM56.2077 50.087C56.7357 50.087 57.194 49.9697 57.5827 49.735C57.9787 49.5003 58.2867 49.163 58.5067 48.723C58.7267 48.283 58.8367 47.7587 58.8367 47.15C58.8367 46.5413 58.7267 46.017 58.5067 45.577C58.2867 45.137 57.9787 44.7997 57.5827 44.565C57.194 44.3303 56.7357 44.213 56.2077 44.213C55.6797 44.213 55.2177 44.3303 54.8217 44.565C54.4257 44.7997 54.1177 45.137 53.8977 45.577C53.685 46.017 53.5787 46.5413 53.5787 47.15C53.5787 47.7587 53.685 48.283 53.8977 48.723C54.1177 49.163 54.4257 49.5003 54.8217 49.735C55.2177 49.9697 55.6797 50.087 56.2077 50.087Z" fill="#080821" fill-opacity="0.6"/>
<path d="M64.1836 51V43.3H65.5586L68.1656 48.426L70.7616 43.3H72.1366V51H70.9706V45.313L68.6166 49.9H67.7146L65.3496 45.324V51H64.1836Z" fill="#080821" fill-opacity="0.6"/>
<path d="M76.7812 51V43.3H78.1562L80.7632 48.426L83.3592 43.3H84.7342V51H83.5682V45.313L81.2142 49.9H80.3122L77.9472 45.324V51H76.7812Z" fill="#080821" fill-opacity="0.6"/>
<path d="M89.3788 51V43.3H94.2738V44.246H90.5448V46.644H93.9438V47.568H90.5448V50.054H94.2738V51H89.3788Z" fill="#080821" fill-opacity="0.6"/>
<path d="M98.7429 51V43.3H101.394C102.003 43.3 102.501 43.4027 102.89 43.608C103.286 43.8133 103.579 44.092 103.77 44.444C103.961 44.7887 104.056 45.1737 104.056 45.599C104.056 46.0757 103.928 46.5083 103.671 46.897C103.422 47.2857 103.029 47.5643 102.494 47.733L104.133 51H102.78L101.284 47.898H99.9089V51H98.7429ZM99.9089 47.018H101.328C101.856 47.018 102.241 46.8897 102.483 46.633C102.732 46.3763 102.857 46.0427 102.857 45.632C102.857 45.2213 102.736 44.895 102.494 44.653C102.252 44.4037 101.86 44.279 101.317 44.279H99.9089V47.018Z" fill="#080821" fill-opacity="0.6"/>
<path d="M111.947 51.132C111.185 51.132 110.525 50.967 109.967 50.637C109.417 50.2997 108.992 49.834 108.691 49.24C108.391 48.6387 108.24 47.9457 108.24 47.161C108.24 46.369 108.391 45.676 108.691 45.082C108.992 44.4807 109.417 44.0113 109.967 43.674C110.525 43.3367 111.185 43.168 111.947 43.168C112.849 43.168 113.586 43.388 114.158 43.828C114.73 44.268 115.093 44.884 115.247 45.676H113.949C113.847 45.2287 113.627 44.873 113.289 44.609C112.952 44.345 112.501 44.213 111.936 44.213C111.166 44.213 110.558 44.477 110.11 45.005C109.663 45.5257 109.439 46.2443 109.439 47.161C109.439 48.0703 109.663 48.7853 110.11 49.306C110.558 49.8267 111.166 50.087 111.936 50.087C112.501 50.087 112.952 49.9623 113.289 49.713C113.627 49.4637 113.847 49.1227 113.949 48.69H115.247C115.093 49.4527 114.73 50.0503 114.158 50.483C113.586 50.9157 112.849 51.132 111.947 51.132Z" fill="#080821" fill-opacity="0.6"/>
<path d="M119.609 51V43.3H124.504V44.246H120.775V46.644H124.174V47.568H120.775V50.054H124.504V51H119.609Z" fill="#080821" fill-opacity="0.6"/>
<path d="M134.825 51V43.3H136.2L138.807 48.426L141.403 43.3H142.778V51H141.612V45.313L139.258 49.9H138.356L135.991 45.324V51H134.825Z" fill="#080821" fill-opacity="0.6"/>
<path d="M147.422 51V43.3H152.317V44.246H148.588V46.644H151.987V47.568H148.588V50.054H152.317V51H147.422Z" fill="#080821" fill-opacity="0.6"/>
<path d="M156.786 51V43.3H159.283C160.185 43.3 160.926 43.4577 161.505 43.773C162.092 44.0883 162.525 44.5357 162.803 45.115C163.089 45.687 163.232 46.369 163.232 47.161C163.232 47.9457 163.089 48.6277 162.803 49.207C162.525 49.779 162.092 50.2227 161.505 50.538C160.926 50.846 160.185 51 159.283 51H156.786ZM157.952 50.01H159.239C159.936 50.01 160.486 49.8963 160.889 49.669C161.3 49.4417 161.593 49.1153 161.769 48.69C161.953 48.2647 162.044 47.755 162.044 47.161C162.044 46.567 161.953 46.0537 161.769 45.621C161.593 45.1883 161.3 44.8583 160.889 44.631C160.486 44.3963 159.936 44.279 159.239 44.279H157.952V50.01Z" fill="#080821" fill-opacity="0.6"/>
<path d="M167.601 51V43.3H168.767V51H167.601Z" fill="#080821" fill-opacity="0.6"/>
<path d="M172.914 51L175.752 43.3H177.028L179.844 51H178.612L177.952 49.119H174.806L174.146 51H172.914ZM175.136 48.195H177.622L176.379 44.686L175.136 48.195Z" fill="#080821" fill-opacity="0.6"/>
<path d="M41.0873 35.7599L51.8261 19.7056H43.3859V16.4373H58.2909L47.6599 32.4556H58.2549V35.7599H41.0873Z" fill="#080821"/>
<path d="M60.9127 35.7599V16.4373H72.4057V19.7056H64.5402V23.9077H70.8972V27.1761H64.5402V32.4556H73.2317V35.7599H60.9127Z" fill="#080821"/>
<path d="M87.3465 35.7958L80.0916 28.5768H79.6965V35.7958H76.069V16.4373H80.0557C83.7909 16.4373 88.7831 17.1915 88.7831 22.3993C88.7831 26.0627 86.6641 27.607 84.1141 28.2535L92.3387 35.7958H87.3465ZM80.9176 25.2725C83.6472 25.2725 84.9402 24.3387 84.9402 22.3993C84.9402 20.7831 83.7909 19.7056 81.0254 19.7056H79.6965V25.2725H80.9176Z" fill="#080821"/>
<path d="M101.425 36.2268C95.5352 36.2268 90.7944 31.6655 90.7944 26.1345C90.7944 20.5676 95.5352 16.0063 101.425 16.0063C107.244 16.0063 111.985 20.388 111.985 26.2063C111.985 31.7014 107.136 36.2268 101.425 36.2268ZM101.425 19.2746C97.7261 19.2746 94.6373 22.2556 94.6373 26.0268C94.6373 29.6542 97.6183 32.9944 101.246 32.9944C105.089 32.9944 108.106 29.9775 108.106 26.2063C108.106 22.2197 105.017 19.2746 101.425 19.2746Z" fill="#080821"/>
<path d="M114.283 35.7958V16.4373H118.593C123.442 16.4373 126.997 17.9099 126.997 22.6866C126.997 26.5655 124.555 29.1155 119.275 29.1155H117.911V35.7958H114.283ZM119.204 25.7754C121.861 25.7754 123.154 24.5901 123.154 22.6507C123.154 20.8908 122.041 19.7056 119.599 19.7056H117.911V25.7754H119.204Z" fill="#080821"/>
<path d="M140.609 35.7958L138.921 32.2401H130.158L128.47 35.7958H124.411L134.539 15.5754L144.668 35.7958H140.609ZM134.504 23.0458L131.63 29.1873H137.449L134.504 23.0458Z" fill="#080821"/>
<path d="M157.597 35.7958L150.342 28.5768H149.947V35.7958H146.32V16.4373H150.306C154.042 16.4373 159.034 17.1915 159.034 22.3993C159.034 26.0627 156.915 27.607 154.365 28.2535L162.589 35.7958H157.597ZM151.168 25.2725C153.898 25.2725 155.191 24.3387 155.191 22.3993C155.191 20.7831 154.042 19.7056 151.276 19.7056H149.947V25.2725H151.168Z" fill="#080821"/>
<path d="M175.663 35.7958L167.474 28.3613V35.7958H163.811V16.4373H167.474V23.9077L174.442 16.4373H179.146L169.808 25.8472L181.014 35.7958H175.663Z" fill="#080821"/>
<path d="M31.462 19.4303V9.2662L15.731 0L0 9.2662V28.1218L5.1 25.2127V12.2113L18.1732 19.7894L3.08873 28.481L23.7401 40.4049L15.731 45.038L5.1 38.8606V31.7852L0 28.8401V41.8056L15.731 50.8923L31.462 41.8056V20.1486L26.362 23.0937V36.0592L13.2887 28.481L28.3732 19.7894L10.0923 9.23028L15.731 5.89014L26.362 12.1754V16.4852L31.462 19.4303Z" fill="#E60128"/>
</svg>
