<svg width="182" height="52" viewBox="0 0 182 52" fill="none" xmlns="http://www.w3.org/2000/svg">
<path d="M46.213 51.132C45.4503 51.132 44.7903 50.967 44.233 50.637C43.683 50.2997 43.2576 49.834 42.957 49.24C42.6563 48.6387 42.506 47.9457 42.506 47.161C42.506 46.369 42.6563 45.676 42.957 45.082C43.2576 44.4807 43.683 44.0113 44.233 43.674C44.7903 43.3367 45.4503 43.168 46.213 43.168C47.115 43.168 47.852 43.388 48.424 43.828C48.996 44.268 49.359 44.884 49.513 45.676H48.215C48.1123 45.2287 47.8923 44.873 47.555 44.609C47.2176 44.345 46.7666 44.213 46.202 44.213C45.432 44.213 44.8233 44.477 44.376 45.005C43.9286 45.5257 43.705 46.2443 43.705 47.161C43.705 48.0703 43.9286 48.7853 44.376 49.306C44.8233 49.8267 45.432 50.087 46.202 50.087C46.7666 50.087 47.2176 49.9623 47.555 49.713C47.8923 49.4637 48.1123 49.1227 48.215 48.69H49.513C49.359 49.4527 48.996 50.0503 48.424 50.483C47.852 50.9157 47.115 51.132 46.213 51.132Z" fill="white" fill-opacity="0.6"/>
<path d="M57.2077 51.132C56.445 51.132 55.7777 50.9633 55.2057 50.626C54.6337 50.2887 54.1863 49.823 53.8637 49.229C53.541 48.6277 53.3797 47.9347 53.3797 47.15C53.3797 46.3653 53.541 45.676 53.8637 45.082C54.1863 44.4807 54.6337 44.0113 55.2057 43.674C55.7777 43.3367 56.445 43.168 57.2077 43.168C57.9703 43.168 58.6377 43.3367 59.2097 43.674C59.7817 44.0113 60.2253 44.4807 60.5407 45.082C60.8633 45.676 61.0247 46.3653 61.0247 47.15C61.0247 47.9347 60.8633 48.6277 60.5407 49.229C60.2253 49.823 59.7817 50.2887 59.2097 50.626C58.6377 50.9633 57.9703 51.132 57.2077 51.132ZM57.2077 50.087C57.7357 50.087 58.194 49.9697 58.5827 49.735C58.9787 49.5003 59.2867 49.163 59.5067 48.723C59.7267 48.283 59.8367 47.7587 59.8367 47.15C59.8367 46.5413 59.7267 46.017 59.5067 45.577C59.2867 45.137 58.9787 44.7997 58.5827 44.565C58.194 44.3303 57.7357 44.213 57.2077 44.213C56.6797 44.213 56.2177 44.3303 55.8217 44.565C55.4257 44.7997 55.1177 45.137 54.8977 45.577C54.685 46.017 54.5787 46.5413 54.5787 47.15C54.5787 47.7587 54.685 48.283 54.8977 48.723C55.1177 49.163 55.4257 49.5003 55.8217 49.735C56.2177 49.9697 56.6797 50.087 57.2077 50.087Z" fill="white" fill-opacity="0.6"/>
<path d="M65.1836 51V43.3H66.5586L69.1656 48.426L71.7616 43.3H73.1366V51H71.9706V45.313L69.6166 49.9H68.7146L66.3496 45.324V51H65.1836Z" fill="white" fill-opacity="0.6"/>
<path d="M77.7812 51V43.3H79.1562L81.7632 48.426L84.3592 43.3H85.7342V51H84.5682V45.313L82.2142 49.9H81.3122L78.9472 45.324V51H77.7812Z" fill="white" fill-opacity="0.6"/>
<path d="M90.3788 51V43.3H95.2738V44.246H91.5448V46.644H94.9438V47.568H91.5448V50.054H95.2738V51H90.3788Z" fill="white" fill-opacity="0.6"/>
<path d="M99.7429 51V43.3H102.394C103.003 43.3 103.501 43.4027 103.89 43.608C104.286 43.8133 104.579 44.092 104.77 44.444C104.961 44.7887 105.056 45.1737 105.056 45.599C105.056 46.0757 104.928 46.5083 104.671 46.897C104.422 47.2857 104.029 47.5643 103.494 47.733L105.133 51H103.78L102.284 47.898H100.909V51H99.7429ZM100.909 47.018H102.328C102.856 47.018 103.241 46.8897 103.483 46.633C103.732 46.3763 103.857 46.0427 103.857 45.632C103.857 45.2213 103.736 44.895 103.494 44.653C103.252 44.4037 102.86 44.279 102.317 44.279H100.909V47.018Z" fill="white" fill-opacity="0.6"/>
<path d="M112.947 51.132C112.185 51.132 111.525 50.967 110.967 50.637C110.417 50.2997 109.992 49.834 109.691 49.24C109.391 48.6387 109.24 47.9457 109.24 47.161C109.24 46.369 109.391 45.676 109.691 45.082C109.992 44.4807 110.417 44.0113 110.967 43.674C111.525 43.3367 112.185 43.168 112.947 43.168C113.849 43.168 114.586 43.388 115.158 43.828C115.73 44.268 116.093 44.884 116.247 45.676H114.949C114.847 45.2287 114.627 44.873 114.289 44.609C113.952 44.345 113.501 44.213 112.936 44.213C112.166 44.213 111.558 44.477 111.11 45.005C110.663 45.5257 110.439 46.2443 110.439 47.161C110.439 48.0703 110.663 48.7853 111.11 49.306C111.558 49.8267 112.166 50.087 112.936 50.087C113.501 50.087 113.952 49.9623 114.289 49.713C114.627 49.4637 114.847 49.1227 114.949 48.69H116.247C116.093 49.4527 115.73 50.0503 115.158 50.483C114.586 50.9157 113.849 51.132 112.947 51.132Z" fill="white" fill-opacity="0.6"/>
<path d="M120.609 51V43.3H125.504V44.246H121.775V46.644H125.174V47.568H121.775V50.054H125.504V51H120.609Z" fill="white" fill-opacity="0.6"/>
<path d="M135.825 51V43.3H137.2L139.807 48.426L142.403 43.3H143.778V51H142.612V45.313L140.258 49.9H139.356L136.991 45.324V51H135.825Z" fill="white" fill-opacity="0.6"/>
<path d="M148.422 51V43.3H153.317V44.246H149.588V46.644H152.987V47.568H149.588V50.054H153.317V51H148.422Z" fill="white" fill-opacity="0.6"/>
<path d="M157.786 51V43.3H160.283C161.185 43.3 161.926 43.4577 162.505 43.773C163.092 44.0883 163.525 44.5357 163.803 45.115C164.089 45.687 164.232 46.369 164.232 47.161C164.232 47.9457 164.089 48.6277 163.803 49.207C163.525 49.779 163.092 50.2227 162.505 50.538C161.926 50.846 161.185 51 160.283 51H157.786ZM158.952 50.01H160.239C160.936 50.01 161.486 49.8963 161.889 49.669C162.3 49.4417 162.593 49.1153 162.769 48.69C162.953 48.2647 163.044 47.755 163.044 47.161C163.044 46.567 162.953 46.0537 162.769 45.621C162.593 45.1883 162.3 44.8583 161.889 44.631C161.486 44.3963 160.936 44.279 160.239 44.279H158.952V50.01Z" fill="white" fill-opacity="0.6"/>
<path d="M168.601 51V43.3H169.767V51H168.601Z" fill="white" fill-opacity="0.6"/>
<path d="M173.914 51L176.752 43.3H178.028L180.844 51H179.612L178.952 49.119H175.806L175.146 51H173.914ZM176.136 48.195H178.622L177.379 44.686L176.136 48.195Z" fill="white" fill-opacity="0.6"/>
<path d="M41.0873 35.7599L51.8261 19.7056H43.3859V16.4373H58.2909L47.6599 32.4556H58.2549V35.7599H41.0873Z" fill="white"/>
<path d="M60.9127 35.7599V16.4373H72.4057V19.7056H64.5402V23.9077H70.8972V27.176H64.5402V32.4556H73.2317V35.7599H60.9127Z" fill="white"/>
<path d="M87.3465 35.7958L80.0916 28.5768H79.6965V35.7958H76.069V16.4373H80.0557C83.7909 16.4373 88.7831 17.1915 88.7831 22.3993C88.7831 26.0627 86.6641 27.607 84.1141 28.2535L92.3387 35.7958H87.3465ZM80.9176 25.2725C83.6472 25.2725 84.9402 24.3387 84.9402 22.3993C84.9402 20.7831 83.7909 19.7056 81.0254 19.7056H79.6965V25.2725H80.9176Z" fill="white"/>
<path d="M101.425 36.2268C95.5352 36.2268 90.7944 31.6655 90.7944 26.1345C90.7944 20.5676 95.5352 16.0063 101.425 16.0063C107.244 16.0063 111.985 20.388 111.985 26.2063C111.985 31.7014 107.136 36.2268 101.425 36.2268ZM101.425 19.2746C97.7261 19.2746 94.6373 22.2556 94.6373 26.0268C94.6373 29.6542 97.6183 32.9944 101.246 32.9944C105.089 32.9944 108.106 29.9775 108.106 26.2063C108.106 22.2197 105.017 19.2746 101.425 19.2746Z" fill="white"/>
<path d="M114.283 35.7958V16.4373H118.593C123.442 16.4373 126.997 17.9099 126.997 22.6866C126.997 26.5655 124.555 29.1155 119.275 29.1155H117.911V35.7958H114.283ZM119.204 25.7753C121.861 25.7753 123.154 24.5901 123.154 22.6507C123.154 20.8908 122.041 19.7056 119.599 19.7056H117.911V25.7753H119.204Z" fill="white"/>
<path d="M140.609 35.7958L138.921 32.2401H130.158L128.47 35.7958H124.411L134.539 15.5753L144.668 35.7958H140.609ZM134.504 23.0458L131.63 29.1873H137.449L134.504 23.0458Z" fill="white"/>
<path d="M157.597 35.7958L150.342 28.5768H149.947V35.7958H146.32V16.4373H150.306C154.042 16.4373 159.034 17.1915 159.034 22.3993C159.034 26.0627 156.915 27.607 154.365 28.2535L162.589 35.7958H157.597ZM151.168 25.2725C153.898 25.2725 155.191 24.3387 155.191 22.3993C155.191 20.7831 154.042 19.7056 151.276 19.7056H149.947V25.2725H151.168Z" fill="white"/>
<path d="M175.663 35.7958L167.474 28.3613V35.7958H163.811V16.4373H167.474V23.9077L174.442 16.4373H179.146L169.808 25.8472L181.014 35.7958H175.663Z" fill="white"/>
<path d="M31.462 19.4303V9.2662L15.731 0L0 9.2662V28.1218L5.1 25.2127V12.2113L18.1732 19.7894L3.08873 28.481L23.7401 40.4049L15.731 45.038L5.1 38.8606V31.7852L0 28.8401V41.8056L15.731 50.8923L31.462 41.8056V20.1486L26.362 23.0937V36.0592L13.2887 28.481L28.3732 19.7894L10.0923 9.23028L15.731 5.89014L26.362 12.1754V16.4852L31.462 19.4303Z" fill="#E60128"/>
</svg>
